{
	"asset":{
		"generator":"Khronos glTF Blender I/O v4.3.47",
		"version":"2.0"
	},
	"scene":0,
	"scenes":[
		{
			"name":"Scene",
			"nodes":[
				3
			]
		}
	],
	"nodes":[
		{
			"mesh":0,
			"name":"SM_monorail",
			"translation":[
				-10.000001907348633,
				0,
				540.0000610351562
			]
		},
		{
			"mesh":1,
			"name":"SM_monorail__1_",
			"rotation":[
				0,
				0,
				1,
				3.129243850708008e-07
			],
			"translation":[
				4.43554345110897e-05,
				-913,
				544.0000610351562
			]
		},
		{
			"mesh":2,
			"name":"SM_monorail_connector",
			"translation":[
				0,
				0,
				544.0000610351562
			]
		},
		{
			"children":[
				0,
				1,
				2
			],
			"name":"P_Monorail",
			"rotation":[
				0.5672882795333862,
				0.42211848497390747,
				-0.422118604183197,
				0.5672881603240967
			],
			"scale":[
				0.009999998845160007,
				0.009999998845160007,
				0.009999999776482582
			],
			"translation":[
				0,
				5.651933193206787,
				0
			]
		}
	],
	"materials":[
		{
			"doubleSided":true,
			"name":"M_MonoRail",
			"pbrMetallicRoughness":{
				"baseColorTexture":{
					"index":0
				},
				"metallicFactor":0,
				"roughnessFactor":0.5527864098548889
			}
		},
		{
			"doubleSided":true,
			"name":"M_Metal",
			"pbrMetallicRoughness":{
				"baseColorTexture":{
					"index":1
				},
				"metallicFactor":0,
				"roughnessFactor":0.5527864098548889
			}
		}
	],
	"meshes":[
		{
			"name":"Scene",
			"primitives":[
				{
					"attributes":{
						"POSITION":0,
						"NORMAL":1,
						"TEXCOORD_0":2,
						"TEXCOORD_1":3,
						"COLOR_0":4,
						"COLOR_1":5
					},
					"indices":6,
					"material":0
				},
				{
					"attributes":{
						"POSITION":7,
						"NORMAL":8,
						"TEXCOORD_0":9,
						"TEXCOORD_1":10,
						"COLOR_0":11,
						"COLOR_1":12
					},
					"indices":13,
					"material":1
				}
			]
		},
		{
			"name":"Scene",
			"primitives":[
				{
					"attributes":{
						"POSITION":14,
						"NORMAL":15,
						"TEXCOORD_0":16,
						"TEXCOORD_1":17,
						"COLOR_0":18,
						"COLOR_1":19
					},
					"indices":6,
					"material":0
				},
				{
					"attributes":{
						"POSITION":20,
						"NORMAL":21,
						"TEXCOORD_0":22,
						"TEXCOORD_1":23,
						"COLOR_0":24,
						"COLOR_1":25
					},
					"indices":13,
					"material":1
				}
			]
		},
		{
			"name":"Scene.001",
			"primitives":[
				{
					"attributes":{
						"POSITION":26,
						"NORMAL":27,
						"TEXCOORD_0":28,
						"COLOR_0":29,
						"COLOR_1":30
					},
					"indices":31,
					"material":0
				}
			]
		}
	],
	"textures":[
		{
			"sampler":0,
			"source":0
		},
		{
			"sampler":0,
			"source":1
		}
	],
	"images":[
		{
			"mimeType":"image/png",
			"name":"T_SkyMobile_BaseColor",
			"uri":"T_SkyMobile_BaseColor.png"
		},
		{
			"mimeType":"image/png",
			"name":"T_Metal_BC",
			"uri":"T_Metal_BC.png"
		}
	],
	"accessors":[
		{
			"bufferView":0,
			"componentType":5126,
			"count":2068,
			"max":[
				231.12933349609375,
				542.0972900390625,
				-2.485684394836426
			],
			"min":[
				-231.12933349609375,
				-411.32220458984375,
				-556.8834228515625
			],
			"type":"VEC3"
		},
		{
			"bufferView":1,
			"componentType":5126,
			"count":2068,
			"type":"VEC3"
		},
		{
			"bufferView":2,
			"componentType":5126,
			"count":2068,
			"type":"VEC2"
		},
		{
			"bufferView":3,
			"componentType":5126,
			"count":2068,
			"type":"VEC2"
		},
		{
			"bufferView":4,
			"componentType":5126,
			"count":2068,
			"type":"VEC3"
		},
		{
			"bufferView":5,
			"componentType":5123,
			"count":2068,
			"normalized":true,
			"type":"VEC4"
		},
		{
			"bufferView":6,
			"componentType":5123,
			"count":4005,
			"type":"SCALAR"
		},
		{
			"bufferView":7,
			"componentType":5126,
			"count":151,
			"max":[
				108.64301300048828,
				320.9094543457031,
				33.873931884765625
			],
			"min":[
				-108.64301300048828,
				-306.5477294921875,
				-530.5904541015625
			],
			"type":"VEC3"
		},
		{
			"bufferView":8,
			"componentType":5126,
			"count":151,
			"type":"VEC3"
		},
		{
			"bufferView":9,
			"componentType":5126,
			"count":151,
			"type":"VEC2"
		},
		{
			"bufferView":10,
			"componentType":5126,
			"count":151,
			"type":"VEC2"
		},
		{
			"bufferView":11,
			"componentType":5126,
			"count":151,
			"type":"VEC3"
		},
		{
			"bufferView":12,
			"componentType":5123,
			"count":151,
			"normalized":true,
			"type":"VEC4"
		},
		{
			"bufferView":13,
			"componentType":5123,
			"count":552,
			"type":"SCALAR"
		},
		{
			"bufferView":14,
			"componentType":5126,
			"count":2068,
			"max":[
				231.12933349609375,
				542.0972900390625,
				-2.485684394836426
			],
			"min":[
				-231.12933349609375,
				-411.32220458984375,
				-556.8834228515625
			],
			"type":"VEC3"
		},
		{
			"bufferView":15,
			"componentType":5126,
			"count":2068,
			"type":"VEC3"
		},
		{
			"bufferView":16,
			"componentType":5126,
			"count":2068,
			"type":"VEC2"
		},
		{
			"bufferView":17,
			"componentType":5126,
			"count":2068,
			"type":"VEC2"
		},
		{
			"bufferView":18,
			"componentType":5126,
			"count":2068,
			"type":"VEC3"
		},
		{
			"bufferView":19,
			"componentType":5123,
			"count":2068,
			"normalized":true,
			"type":"VEC4"
		},
		{
			"bufferView":20,
			"componentType":5126,
			"count":151,
			"max":[
				108.64301300048828,
				320.9094543457031,
				33.873931884765625
			],
			"min":[
				-108.64301300048828,
				-306.5477294921875,
				-530.5904541015625
			],
			"type":"VEC3"
		},
		{
			"bufferView":21,
			"componentType":5126,
			"count":151,
			"type":"VEC3"
		},
		{
			"bufferView":22,
			"componentType":5126,
			"count":151,
			"type":"VEC2"
		},
		{
			"bufferView":23,
			"componentType":5126,
			"count":151,
			"type":"VEC2"
		},
		{
			"bufferView":24,
			"componentType":5126,
			"count":151,
			"type":"VEC3"
		},
		{
			"bufferView":25,
			"componentType":5123,
			"count":151,
			"normalized":true,
			"type":"VEC4"
		},
		{
			"bufferView":26,
			"componentType":5126,
			"count":418,
			"max":[
				160.64727783203125,
				-403.6440734863281,
				-94.87578582763672
			],
			"min":[
				-160.64727783203125,
				-502.75579833984375,
				-424.6068115234375
			],
			"type":"VEC3"
		},
		{
			"bufferView":27,
			"componentType":5126,
			"count":418,
			"type":"VEC3"
		},
		{
			"bufferView":28,
			"componentType":5126,
			"count":418,
			"type":"VEC2"
		},
		{
			"bufferView":29,
			"componentType":5126,
			"count":418,
			"type":"VEC3"
		},
		{
			"bufferView":30,
			"componentType":5123,
			"count":418,
			"normalized":true,
			"type":"VEC4"
		},
		{
			"bufferView":31,
			"componentType":5123,
			"count":990,
			"type":"SCALAR"
		}
	],
	"bufferViews":[
		{
			"buffer":0,
			"byteLength":24816,
			"byteOffset":0,
			"target":34962
		},
		{
			"buffer":0,
			"byteLength":24816,
			"byteOffset":24816,
			"target":34962
		},
		{
			"buffer":0,
			"byteLength":16544,
			"byteOffset":49632,
			"target":34962
		},
		{
			"buffer":0,
			"byteLength":16544,
			"byteOffset":66176,
			"target":34962
		},
		{
			"buffer":0,
			"byteLength":24816,
			"byteOffset":82720,
			"target":34962
		},
		{
			"buffer":0,
			"byteLength":16544,
			"byteOffset":107536,
			"target":34962
		},
		{
			"buffer":0,
			"byteLength":8010,
			"byteOffset":124080,
			"target":34963
		},
		{
			"buffer":0,
			"byteLength":1812,
			"byteOffset":132092,
			"target":34962
		},
		{
			"buffer":0,
			"byteLength":1812,
			"byteOffset":133904,
			"target":34962
		},
		{
			"buffer":0,
			"byteLength":1208,
			"byteOffset":135716,
			"target":34962
		},
		{
			"buffer":0,
			"byteLength":1208,
			"byteOffset":136924,
			"target":34962
		},
		{
			"buffer":0,
			"byteLength":1812,
			"byteOffset":138132,
			"target":34962
		},
		{
			"buffer":0,
			"byteLength":1208,
			"byteOffset":139944,
			"target":34962
		},
		{
			"buffer":0,
			"byteLength":1104,
			"byteOffset":141152,
			"target":34963
		},
		{
			"buffer":0,
			"byteLength":24816,
			"byteOffset":142256,
			"target":34962
		},
		{
			"buffer":0,
			"byteLength":24816,
			"byteOffset":167072,
			"target":34962
		},
		{
			"buffer":0,
			"byteLength":16544,
			"byteOffset":191888,
			"target":34962
		},
		{
			"buffer":0,
			"byteLength":16544,
			"byteOffset":208432,
			"target":34962
		},
		{
			"buffer":0,
			"byteLength":24816,
			"byteOffset":224976,
			"target":34962
		},
		{
			"buffer":0,
			"byteLength":16544,
			"byteOffset":249792,
			"target":34962
		},
		{
			"buffer":0,
			"byteLength":1812,
			"byteOffset":266336,
			"target":34962
		},
		{
			"buffer":0,
			"byteLength":1812,
			"byteOffset":268148,
			"target":34962
		},
		{
			"buffer":0,
			"byteLength":1208,
			"byteOffset":269960,
			"target":34962
		},
		{
			"buffer":0,
			"byteLength":1208,
			"byteOffset":271168,
			"target":34962
		},
		{
			"buffer":0,
			"byteLength":1812,
			"byteOffset":272376,
			"target":34962
		},
		{
			"buffer":0,
			"byteLength":1208,
			"byteOffset":274188,
			"target":34962
		},
		{
			"buffer":0,
			"byteLength":5016,
			"byteOffset":275396,
			"target":34962
		},
		{
			"buffer":0,
			"byteLength":5016,
			"byteOffset":280412,
			"target":34962
		},
		{
			"buffer":0,
			"byteLength":3344,
			"byteOffset":285428,
			"target":34962
		},
		{
			"buffer":0,
			"byteLength":5016,
			"byteOffset":288772,
			"target":34962
		},
		{
			"buffer":0,
			"byteLength":3344,
			"byteOffset":293788,
			"target":34962
		},
		{
			"buffer":0,
			"byteLength":1980,
			"byteOffset":297132,
			"target":34963
		}
	],
	"samplers":[
		{
			"magFilter":9729,
			"minFilter":9987
		}
	],
	"buffers":[
		{
			"byteLength":299112,
			"uri":"Monorail.bin"
		}
	]
}
