{
	"asset":{
		"generator":"Khronos glTF Blender I/O v4.3.47",
		"version":"2.0"
	},
	"extensionsUsed":[
		"KHR_materials_specular"
	],
	"scene":0,
	"scenes":[
		{
			"name":"Scene",
			"nodes":[
				0,
				1,
				2,
				3,
				4
			]
		}
	],
	"nodes":[
		{
			"mesh":0,
			"name":"SM_Car",
			"rotation":[
				0.7071068286895752,
				0,
				0,
				0.7071068286895752
			],
			"scale":[
				0.009999999776482582,
				0.009999999776482582,
				0.009999999776482582
			]
		},
		{
			"mesh":1,
			"name":"SM_CarTire4",
			"rotation":[
				0.7071068286895752,
				0,
				0,
				0.7071068286895752
			],
			"scale":[
				0.009999999776482582,
				0.009999999776482582,
				0.009999999776482582
			],
			"translation":[
				-0.6532875299453735,
				0.13948139548301697,
				1.0380234718322754
			]
		},
		{
			"mesh":2,
			"name":"SM_CarTire4.001",
			"rotation":[
				0.7071068286895752,
				0,
				0,
				0.7071068286895752
			],
			"scale":[
				0.009999999776482582,
				0.009999999776482582,
				0.009999999776482582
			],
			"translation":[
				-0.6532875299453735,
				0.13948139548301697,
				-0.8916064500808716
			]
		},
		{
			"mesh":3,
			"name":"SM_CarTire4.002",
			"rotation":[
				0.021012261509895325,
				0.7118319869041443,
				-0.7018527388572693,
				0.01601572148501873
			],
			"scale":[
				0.009999999776482582,
				0.009999999776482582,
				0.009999998845160007
			],
			"translation":[
				0.686658501625061,
				0.13948139548301697,
				-0.8916064500808716
			]
		},
		{
			"mesh":4,
			"name":"SM_CarTire4.003",
			"rotation":[
				0.021012261509895325,
				0.7118319869041443,
				-0.7018527388572693,
				0.01601572148501873
			],
			"scale":[
				0.009999999776482582,
				0.009999999776482582,
				0.009999998845160007
			],
			"translation":[
				0.686658501625061,
				0.13948139548301697,
				1.0751347541809082
			]
		}
	],
	"materials":[
		{
			"doubleSided":true,
			"extensions":{
				"KHR_materials_specular":{
					"specularColorFactor":[
						2.0,
						2.0,
						2.0
					]
				}
			},
			"name":"M_Car_White",
			"pbrMetallicRoughness":{
				"baseColorTexture":{
					"index":0
				}
			}
		},
		{
			"doubleSided":true,
			"extensions":{
				"KHR_materials_specular":{
					"specularColorFactor":[
						2.0,
						2.0,
						2.0
					]
				}
			},
			"name":"M_Car_White.001",
			"pbrMetallicRoughness":{
				"baseColorTexture":{
					"index":1
				},
				"roughnessFactor":0.5527864098548889
			}
		},
		{
			"doubleSided":true,
			"extensions":{
				"KHR_materials_specular":{
					"specularColorFactor":[
						2.0,
						2.0,
						2.0
					]
				}
			},
			"name":"M_Car_White.002",
			"pbrMetallicRoughness":{
				"baseColorTexture":{
					"index":2
				},
				"roughnessFactor":0.5527864098548889
			}
		},
		{
			"doubleSided":true,
			"extensions":{
				"KHR_materials_specular":{
					"specularColorFactor":[
						2.0,
						2.0,
						2.0
					]
				}
			},
			"name":"M_Car_White.003",
			"pbrMetallicRoughness":{
				"baseColorTexture":{
					"index":3
				},
				"roughnessFactor":0.5527864098548889
			}
		},
		{
			"doubleSided":true,
			"extensions":{
				"KHR_materials_specular":{
					"specularColorFactor":[
						2.0,
						2.0,
						2.0
					]
				}
			},
			"name":"M_Car_White.004",
			"pbrMetallicRoughness":{
				"baseColorTexture":{
					"index":4
				},
				"roughnessFactor":0.5527864098548889
			}
		}
	],
	"meshes":[
		{
			"name":"SM_Car",
			"primitives":[
				{
					"attributes":{
						"POSITION":0,
						"NORMAL":1,
						"TEXCOORD_0":2,
						"COLOR_0":3,
						"COLOR_1":4
					},
					"indices":5,
					"material":0
				}
			]
		},
		{
			"name":"SM_CarTire4",
			"primitives":[
				{
					"attributes":{
						"POSITION":6,
						"NORMAL":7,
						"TEXCOORD_0":8,
						"COLOR_0":9,
						"COLOR_1":10
					},
					"indices":11,
					"material":1
				}
			]
		},
		{
			"name":"SM_CarTire4.001",
			"primitives":[
				{
					"attributes":{
						"POSITION":12,
						"NORMAL":13,
						"TEXCOORD_0":14,
						"COLOR_0":15,
						"COLOR_1":16
					},
					"indices":11,
					"material":2
				}
			]
		},
		{
			"name":"SM_CarTire4.002",
			"primitives":[
				{
					"attributes":{
						"POSITION":17,
						"NORMAL":18,
						"TEXCOORD_0":19,
						"COLOR_0":20,
						"COLOR_1":21
					},
					"indices":11,
					"material":3
				}
			]
		},
		{
			"name":"SM_CarTire4.003",
			"primitives":[
				{
					"attributes":{
						"POSITION":22,
						"NORMAL":23,
						"TEXCOORD_0":24,
						"COLOR_0":25,
						"COLOR_1":26
					},
					"indices":11,
					"material":4
				}
			]
		}
	],
	"textures":[
		{
			"sampler":0,
			"source":0
		},
		{
			"sampler":0,
			"source":0
		},
		{
			"sampler":0,
			"source":0
		},
		{
			"sampler":0,
			"source":0
		},
		{
			"sampler":0,
			"source":0
		}
	],
	"images":[
		{
			"mimeType":"image/png",
			"name":"T_Car_White_BC",
			"uri":"T_Car_White_BC.png"
		}
	],
	"accessors":[
		{
			"bufferView":0,
			"componentType":5126,
			"count":1531,
			"max":[
				89.7821044921875,
				177.03106689453125,
				-5.431927680969238
			],
			"min":[
				-89.7821044921875,
				-163.6077117919922,
				-114.3550033569336
			],
			"type":"VEC3"
		},
		{
			"bufferView":1,
			"componentType":5126,
			"count":1531,
			"type":"VEC3"
		},
		{
			"bufferView":2,
			"componentType":5126,
			"count":1531,
			"type":"VEC2"
		},
		{
			"bufferView":3,
			"componentType":5121,
			"count":1531,
			"normalized":true,
			"type":"VEC4"
		},
		{
			"bufferView":4,
			"componentType":5123,
			"count":1531,
			"normalized":true,
			"type":"VEC4"
		},
		{
			"bufferView":5,
			"componentType":5123,
			"count":5028,
			"type":"SCALAR"
		},
		{
			"bufferView":6,
			"componentType":5126,
			"count":469,
			"max":[
				14.2490816116333,
				28.564252853393555,
				28.56426239013672
			],
			"min":[
				-14.4855318069458,
				-28.564252853393555,
				-28.564252853393555
			],
			"type":"VEC3"
		},
		{
			"bufferView":7,
			"componentType":5126,
			"count":469,
			"type":"VEC3"
		},
		{
			"bufferView":8,
			"componentType":5126,
			"count":469,
			"type":"VEC2"
		},
		{
			"bufferView":9,
			"componentType":5121,
			"count":469,
			"normalized":true,
			"type":"VEC4"
		},
		{
			"bufferView":10,
			"componentType":5123,
			"count":469,
			"normalized":true,
			"type":"VEC4"
		},
		{
			"bufferView":11,
			"componentType":5123,
			"count":2304,
			"type":"SCALAR"
		},
		{
			"bufferView":12,
			"componentType":5126,
			"count":469,
			"max":[
				14.2490816116333,
				28.564252853393555,
				28.56426239013672
			],
			"min":[
				-14.4855318069458,
				-28.564252853393555,
				-28.564252853393555
			],
			"type":"VEC3"
		},
		{
			"bufferView":13,
			"componentType":5126,
			"count":469,
			"type":"VEC3"
		},
		{
			"bufferView":14,
			"componentType":5126,
			"count":469,
			"type":"VEC2"
		},
		{
			"bufferView":15,
			"componentType":5121,
			"count":469,
			"normalized":true,
			"type":"VEC4"
		},
		{
			"bufferView":16,
			"componentType":5123,
			"count":469,
			"normalized":true,
			"type":"VEC4"
		},
		{
			"bufferView":17,
			"componentType":5126,
			"count":469,
			"max":[
				14.2490816116333,
				28.564252853393555,
				28.56426239013672
			],
			"min":[
				-14.4855318069458,
				-28.564252853393555,
				-28.564252853393555
			],
			"type":"VEC3"
		},
		{
			"bufferView":18,
			"componentType":5126,
			"count":469,
			"type":"VEC3"
		},
		{
			"bufferView":19,
			"componentType":5126,
			"count":469,
			"type":"VEC2"
		},
		{
			"bufferView":20,
			"componentType":5121,
			"count":469,
			"normalized":true,
			"type":"VEC4"
		},
		{
			"bufferView":21,
			"componentType":5123,
			"count":469,
			"normalized":true,
			"type":"VEC4"
		},
		{
			"bufferView":22,
			"componentType":5126,
			"count":469,
			"max":[
				14.2490816116333,
				28.564252853393555,
				28.56426239013672
			],
			"min":[
				-14.4855318069458,
				-28.564252853393555,
				-28.564252853393555
			],
			"type":"VEC3"
		},
		{
			"bufferView":23,
			"componentType":5126,
			"count":469,
			"type":"VEC3"
		},
		{
			"bufferView":24,
			"componentType":5126,
			"count":469,
			"type":"VEC2"
		},
		{
			"bufferView":25,
			"componentType":5121,
			"count":469,
			"normalized":true,
			"type":"VEC4"
		},
		{
			"bufferView":26,
			"componentType":5123,
			"count":469,
			"normalized":true,
			"type":"VEC4"
		}
	],
	"bufferViews":[
		{
			"buffer":0,
			"byteLength":18372,
			"byteOffset":0,
			"target":34962
		},
		{
			"buffer":0,
			"byteLength":18372,
			"byteOffset":18372,
			"target":34962
		},
		{
			"buffer":0,
			"byteLength":12248,
			"byteOffset":36744,
			"target":34962
		},
		{
			"buffer":0,
			"byteLength":6124,
			"byteOffset":48992,
			"target":34962
		},
		{
			"buffer":0,
			"byteLength":12248,
			"byteOffset":55116,
			"target":34962
		},
		{
			"buffer":0,
			"byteLength":10056,
			"byteOffset":67364,
			"target":34963
		},
		{
			"buffer":0,
			"byteLength":5628,
			"byteOffset":77420,
			"target":34962
		},
		{
			"buffer":0,
			"byteLength":5628,
			"byteOffset":83048,
			"target":34962
		},
		{
			"buffer":0,
			"byteLength":3752,
			"byteOffset":88676,
			"target":34962
		},
		{
			"buffer":0,
			"byteLength":1876,
			"byteOffset":92428,
			"target":34962
		},
		{
			"buffer":0,
			"byteLength":3752,
			"byteOffset":94304,
			"target":34962
		},
		{
			"buffer":0,
			"byteLength":4608,
			"byteOffset":98056,
			"target":34963
		},
		{
			"buffer":0,
			"byteLength":5628,
			"byteOffset":102664,
			"target":34962
		},
		{
			"buffer":0,
			"byteLength":5628,
			"byteOffset":108292,
			"target":34962
		},
		{
			"buffer":0,
			"byteLength":3752,
			"byteOffset":113920,
			"target":34962
		},
		{
			"buffer":0,
			"byteLength":1876,
			"byteOffset":117672,
			"target":34962
		},
		{
			"buffer":0,
			"byteLength":3752,
			"byteOffset":119548,
			"target":34962
		},
		{
			"buffer":0,
			"byteLength":5628,
			"byteOffset":123300,
			"target":34962
		},
		{
			"buffer":0,
			"byteLength":5628,
			"byteOffset":128928,
			"target":34962
		},
		{
			"buffer":0,
			"byteLength":3752,
			"byteOffset":134556,
			"target":34962
		},
		{
			"buffer":0,
			"byteLength":1876,
			"byteOffset":138308,
			"target":34962
		},
		{
			"buffer":0,
			"byteLength":3752,
			"byteOffset":140184,
			"target":34962
		},
		{
			"buffer":0,
			"byteLength":5628,
			"byteOffset":143936,
			"target":34962
		},
		{
			"buffer":0,
			"byteLength":5628,
			"byteOffset":149564,
			"target":34962
		},
		{
			"buffer":0,
			"byteLength":3752,
			"byteOffset":155192,
			"target":34962
		},
		{
			"buffer":0,
			"byteLength":1876,
			"byteOffset":158944,
			"target":34962
		},
		{
			"buffer":0,
			"byteLength":3752,
			"byteOffset":160820,
			"target":34962
		}
	],
	"samplers":[
		{
			"magFilter":9729,
			"minFilter":9987
		}
	],
	"buffers":[
		{
			"byteLength":164572,
			"uri":"carWhite.bin"
		}
	]
}
