{
	"asset":{
		"generator":"Khronos glTF Blender I/O v4.3.47",
		"version":"2.0"
	},
	"scene":0,
	"scenes":[
		{
			"name":"Scene",
			"nodes":[
				42
			]
		}
	],
	"nodes":[
		{
			"mesh":0,
			"name":"Pavement",
			"rotation":[
				0,
				-0.7071068286895752,
				-0.7071068286895752,
				6.181724643283815e-08
			],
			"scale":[
				3.914252758026123,
				1,
				9.819100379943848
			],
			"translation":[
				18438.380859375,
				2837.400146484375,
				-29
			]
		},
		{
			"mesh":0,
			"name":"Pavement_1",
			"rotation":[
				0,
				-0.7071068286895752,
				-0.7071068286895752,
				6.18172535382655e-08
			],
			"scale":[
				5.417120456695557,
				1,
				3.8864002227783203
			],
			"translation":[
				18855.80078125,
				2540.75,
				-28.999998092651367
			]
		},
		{
			"mesh":0,
			"name":"Pavement_10",
			"rotation":[
				0,
				-0.7071068286895752,
				-0.7071068286895752,
				6.181724643283815e-08
			],
			"scale":[
				36.845096588134766,
				1,
				12.105321884155273
			],
			"translation":[
				9010.900390625,
				6695.06005859375,
				-29
			]
		},
		{
			"mesh":0,
			"name":"Pavement_11",
			"rotation":[
				0,
				-0.7071068286895752,
				-0.7071068286895752,
				6.18172535382655e-08
			],
			"scale":[
				5.851002216339111,
				1,
				4.7778167724609375
			],
			"translation":[
				10560.66015625,
				5853.31005859375,
				-28.999998092651367
			]
		},
		{
			"mesh":0,
			"name":"Pavement_12",
			"rotation":[
				0,
				-0.7071068286895752,
				-0.7071068286895752,
				6.18172535382655e-08
			],
			"scale":[
				25.170114517211914,
				1,
				4.9751410484313965
			],
			"translation":[
				8438.400390625,
				5863.16015625,
				-29
			]
		},
		{
			"mesh":0,
			"name":"Pavement_13",
			"rotation":[
				0,
				-0.7071068286895752,
				-0.7071068286895752,
				6.181724643283815e-08
			],
			"scale":[
				75.05567169189453,
				1,
				4.4956817626953125
			],
			"translation":[
				16515.1796875,
				3531.349853515625,
				-28.999998092651367
			]
		},
		{
			"mesh":0,
			"name":"Pavement_14",
			"rotation":[
				0,
				-0.7071068286895752,
				-0.7071068286895752,
				6.181724643283815e-08
			],
			"scale":[
				11.9178466796875,
				1,
				38.086490631103516
			],
			"translation":[
				19672.0390625,
				1423.7498779296875,
				-29
			]
		},
		{
			"mesh":0,
			"name":"Pavement_2",
			"rotation":[
				0.2697795033454895,
				0.6536199450492859,
				0.6536199450492859,
				0.2697794735431671
			],
			"scale":[
				4.454126358032227,
				1,
				8.60888671875
			],
			"translation":[
				12016.390625,
				6415.1201171875,
				-29
			]
		},
		{
			"mesh":0,
			"name":"Pavement_3",
			"rotation":[
				0,
				-0.7071068286895752,
				-0.7071068286895752,
				6.181724643283815e-08
			],
			"scale":[
				13.980770111083984,
				1,
				7.516719341278076
			],
			"translation":[
				14387.91015625,
				3025.280029296875,
				-29
			]
		},
		{
			"mesh":0,
			"name":"Pavement_4",
			"rotation":[
				0,
				-0.7071068286895752,
				-0.7071068286895752,
				6.18172535382655e-08
			],
			"scale":[
				18.173240661621094,
				1,
				9.134805679321289
			],
			"translation":[
				18168.119140625,
				-23.799999237060547,
				-28.999998092651367
			]
		},
		{
			"mesh":0,
			"name":"Pavement_5",
			"rotation":[
				0.24097572267055511,
				0.6647786498069763,
				0.6647787094116211,
				0.24097567796707153
			],
			"scale":[
				56.764347076416016,
				1,
				6.21130895614624
			],
			"translation":[
				15270.060546875,
				1693.110107421875,
				-29
			]
		},
		{
			"mesh":0,
			"name":"Pavement_6",
			"rotation":[
				0.24097572267055511,
				0.6647786498069763,
				0.6647787094116211,
				0.24097567796707153
			],
			"scale":[
				14.619963645935059,
				1,
				9.783567428588867
			],
			"translation":[
				17296.029296875,
				996.2100219726562,
				-29
			]
		},
		{
			"mesh":0,
			"name":"Pavement_7",
			"rotation":[
				0.2942599058151245,
				-0.6429705619812012,
				-0.6429705619812012,
				0.2942598760128021
			],
			"scale":[
				2.7378687858581543,
				1,
				4.832223415374756
			],
			"translation":[
				12791,
				3566.999755859375,
				-28.999998092651367
			]
		},
		{
			"mesh":0,
			"name":"Pavement_8",
			"rotation":[
				0,
				-0.7071068286895752,
				-0.7071068286895752,
				6.18172535382655e-08
			],
			"scale":[
				85.71414947509766,
				1,
				15.613162994384766
			],
			"translation":[
				15867.1005859375,
				5491.5693359375,
				-29
			]
		},
		{
			"mesh":0,
			"name":"Pavement_9",
			"rotation":[
				0,
				-0.7071068286895752,
				-0.7071068286895752,
				6.181724643283815e-08
			],
			"scale":[
				36.845096588134766,
				1,
				9.08080005645752
			],
			"translation":[
				9010.900390625,
				5181.5,
				-28.999998092651367
			]
		},
		{
			"mesh":0,
			"name":"Pavement__10_",
			"rotation":[
				0,
				-0.7071068286895752,
				-0.7071068286895752,
				6.181724643283815e-08
			],
			"scale":[
				57.84263610839844,
				1,
				19.988637924194336
			],
			"translation":[
				24346.5,
				5733.10986328125,
				-28.999998092651367
			]
		},
		{
			"mesh":0,
			"name":"Pavement__11_",
			"rotation":[
				0,
				-0.7071068286895752,
				-0.7071068286895752,
				6.18172535382655e-08
			],
			"scale":[
				54.842411041259766,
				1,
				36.28069305419922
			],
			"translation":[
				17410.7109375,
				7858.9599609375,
				-28.999998092651367
			]
		},
		{
			"mesh":0,
			"name":"Pavement__12_",
			"rotation":[
				0,
				-0.7071068286895752,
				-0.7071068286895752,
				6.18172535382655e-08
			],
			"scale":[
				41.23426818847656,
				1,
				42.43340301513672
			],
			"translation":[
				23509.1796875,
				1639.0499267578125,
				-29
			]
		},
		{
			"mesh":0,
			"name":"Pavement__13_",
			"rotation":[
				0,
				-0.7071068286895752,
				-0.7071068286895752,
				6.181724643283815e-08
			],
			"scale":[
				3.145598888397217,
				1,
				32.47269821166992
			],
			"translation":[
				11975.5205078125,
				1113.7200927734375,
				-28.999998092651367
			]
		},
		{
			"mesh":0,
			"name":"Pavement__14_",
			"rotation":[
				0.3003024458885193,
				-0.6401706337928772,
				-0.640170693397522,
				0.3003023862838745
			],
			"scale":[
				5.451693534851074,
				1,
				45.543636322021484
			],
			"translation":[
				13735.0009765625,
				1075,
				-28.999998092651367
			]
		},
		{
			"mesh":0,
			"name":"Pavement__15_",
			"rotation":[
				0,
				-0.7071068286895752,
				-0.7071068286895752,
				6.181724643283815e-08
			],
			"scale":[
				33.22834777832031,
				1,
				6.396166801452637
			],
			"translation":[
				13730.630859375,
				-190.0299835205078,
				-29
			]
		},
		{
			"mesh":0,
			"name":"Pavement__16_",
			"rotation":[
				0,
				-0.7071068286895752,
				-0.7071068286895752,
				6.181724643283815e-08
			],
			"scale":[
				24.15142822265625,
				1,
				7.437650203704834
			],
			"translation":[
				13251.060546875,
				81.68000030517578,
				-29
			]
		},
		{
			"mesh":0,
			"name":"Pavement__17_",
			"rotation":[
				0.49084585905075073,
				-0.5089883208274841,
				-0.5089895129203796,
				0.4908471405506134
			],
			"scale":[
				3.3692822456359863,
				1,
				4.385812282562256
			],
			"translation":[
				15598.7900390625,
				-383.44000244140625,
				-28.999998092651367
			]
		},
		{
			"mesh":0,
			"name":"Pavement__18_",
			"rotation":[
				0.1526464819908142,
				-0.6904339790344238,
				-0.6904340386390686,
				0.15264645218849182
			],
			"scale":[
				3.029611110687256,
				1,
				2.4815261363983154
			],
			"translation":[
				11944.640625,
				2745.5,
				-29
			]
		},
		{
			"mesh":0,
			"name":"Pavement__19_",
			"rotation":[
				0,
				-0.7071068286895752,
				-0.7071068286895752,
				6.18172535382655e-08
			],
			"scale":[
				7.56605863571167,
				1,
				16.418521881103516
			],
			"translation":[
				12511.75,
				1227.3599853515625,
				-28.999998092651367
			]
		},
		{
			"mesh":0,
			"name":"Pavement__1_",
			"rotation":[
				0,
				-0.7071068286895752,
				-0.7071068286895752,
				6.18172535382655e-08
			],
			"scale":[
				34.82400894165039,
				1,
				40.74599838256836
			],
			"translation":[
				9118.3701171875,
				1750.7601318359375,
				-28.999998092651367
			]
		},
		{
			"mesh":0,
			"name":"Pavement__20_",
			"rotation":[
				0.30867743492126465,
				-0.636174738407135,
				-0.6361747980117798,
				0.3086773455142975
			],
			"scale":[
				9.559467315673828,
				1,
				16.20672035217285
			],
			"translation":[
				13289.25,
				722.6600341796875,
				-28.999998092651367
			]
		},
		{
			"mesh":0,
			"name":"Pavement__21_",
			"rotation":[
				0,
				-0.7071068286895752,
				-0.7071068286895752,
				6.181724643283815e-08
			],
			"scale":[
				2.7400002479553223,
				1,
				2.25
			],
			"translation":[
				14833.7998046875,
				3658.10009765625,
				-253.9536895751953
			]
		},
		{
			"mesh":1,
			"name":"Pavement__22_",
			"rotation":[
				0.7071068286895752,
				0,
				0,
				0.7071068286895752
			],
			"scale":[
				-2.5500004291534424,
				-1,
				-2.25
			],
			"translation":[
				14825.4990234375,
				3658.10009765625,
				-233.90000915527344
			]
		},
		{
			"mesh":0,
			"name":"Pavement__23_",
			"rotation":[
				0,
				-0.7071068286895752,
				-0.7071068286895752,
				6.181724643283815e-08
			],
			"scale":[
				2.9000003337860107,
				1,
				2.25
			],
			"translation":[
				14817.7998046875,
				4923.19921875,
				-268.1999816894531
			]
		},
		{
			"mesh":1,
			"name":"Pavement__24_",
			"rotation":[
				0.7071068286895752,
				0,
				0,
				0.7071068286895752
			],
			"scale":[
				-2.9000003337860107,
				-1,
				-2.25
			],
			"translation":[
				14816.701171875,
				4919,
				-248.10000610351562
			]
		},
		{
			"mesh":0,
			"name":"Pavement__25_",
			"rotation":[
				0.5000000596046448,
				0.5,
				0.4999999403953552,
				0.5
			],
			"scale":[
				3.299999952316284,
				1,
				2.25
			],
			"translation":[
				11961.69921875,
				5713.2001953125,
				-266.8999938964844
			]
		},
		{
			"mesh":1,
			"name":"Pavement__26_",
			"rotation":[
				0.5000000596046448,
				-0.5,
				-0.4999999701976776,
				0.5
			],
			"scale":[
				-3.250000238418579,
				-1,
				-2.25
			],
			"translation":[
				11956.701171875,
				5708.7001953125,
				-247.6999969482422
			]
		},
		{
			"mesh":0,
			"name":"Pavement__27_",
			"rotation":[
				0.4998779296875,
				-0.4998778998851776,
				-0.5001220703125,
				0.5001220703125
			],
			"scale":[
				2.739999532699585,
				1,
				2.25
			],
			"translation":[
				17412.62109375,
				556.5999755859375,
				-254
			]
		},
		{
			"mesh":0,
			"name":"Pavement__2_",
			"rotation":[
				0,
				-0.7071068286895752,
				-0.7071068286895752,
				6.18172535382655e-08
			],
			"scale":[
				34.59223937988281,
				1,
				60.31222915649414
			],
			"translation":[
				4645,
				772.7300415039062,
				-29
			]
		},
		{
			"mesh":0,
			"name":"Pavement__3_",
			"rotation":[
				0,
				-0.7071068286895752,
				-0.7071068286895752,
				6.18172535382655e-08
			],
			"scale":[
				41.4074821472168,
				1,
				3.527512788772583
			],
			"translation":[
				8414.0703125,
				-1705.699951171875,
				-29
			]
		},
		{
			"mesh":0,
			"name":"Pavement__4_",
			"rotation":[
				0.2752595841884613,
				0.6513310074806213,
				0.6513311266899109,
				0.2752596139907837
			],
			"scale":[
				4.285674095153809,
				1,
				4.0337114334106445
			],
			"translation":[
				6409.85009765625,
				-1510.639892578125,
				-29
			]
		},
		{
			"mesh":0,
			"name":"Pavement__5_",
			"rotation":[
				0,
				-0.7071068286895752,
				-0.7071068286895752,
				6.181724643283815e-08
			],
			"scale":[
				52.16514587402344,
				1,
				12.470817565917969
			],
			"translation":[
				14754.8603515625,
				-2153.16015625,
				-28.999998092651367
			]
		},
		{
			"mesh":0,
			"name":"Pavement__6_",
			"rotation":[
				0,
				-0.7071068286895752,
				-0.7071068286895752,
				6.181724643283815e-08
			],
			"scale":[
				101.34099578857422,
				1,
				12.470817565917969
			],
			"translation":[
				23907.7890625,
				-2153,
				-28.999998092651367
			]
		},
		{
			"mesh":0,
			"name":"Pavement__7_",
			"rotation":[
				0,
				-0.7071068286895752,
				-0.7071068286895752,
				6.181724643283815e-08
			],
			"scale":[
				22.910846710205078,
				1,
				90.13275146484375
			],
			"translation":[
				27829.349609375,
				1730.0198974609375,
				-29
			]
		},
		{
			"mesh":0,
			"name":"Pavement__8_",
			"rotation":[
				0.26575765013694763,
				0.6552655696868896,
				0.6552655100822449,
				0.26575767993927
			],
			"scale":[
				4.549813270568848,
				1,
				7.258878231048584
			],
			"translation":[
				26686.41015625,
				-1587.9400634765625,
				-29
			]
		},
		{
			"mesh":0,
			"name":"Pavement__9_",
			"rotation":[
				0.26575765013694763,
				0.6552655696868896,
				0.6552655100822449,
				0.26575765013694763
			],
			"scale":[
				5.400550365447998,
				1,
				5.139361381530762
			],
			"translation":[
				26710.599609375,
				4774.859375,
				-29
			]
		},
		{
			"children":[
				0,
				1,
				2,
				3,
				4,
				5,
				6,
				7,
				8,
				9,
				10,
				11,
				12,
				13,
				14,
				15,
				16,
				17,
				18,
				19,
				20,
				21,
				22,
				23,
				24,
				25,
				26,
				27,
				28,
				29,
				30,
				31,
				32,
				33,
				34,
				35,
				36,
				37,
				38,
				39,
				40,
				41
			],
			"name":"Ground_Roads",
			"rotation":[
				0.7071068286895752,
				0,
				0,
				0.7071068286895752
			],
			"scale":[
				0.009999999776482582,
				0.009999999776482582,
				0.009999999776482582
			]
		}
	],
	"materials":[
		{
			"doubleSided":true,
			"name":"M_Pavement_Checker",
			"pbrMetallicRoughness":{
				"baseColorTexture":{
					"index":0
				},
				"metallicFactor":0,
				"roughnessFactor":0.5527864098548889
			}
		},
		{
			"doubleSided":true,
			"name":"M_Concrete_WS",
			"pbrMetallicRoughness":{
				"metallicFactor":0,
				"roughnessFactor":0.5527864098548889
			}
		}
	],
	"meshes":[
		{
			"name":"Scene",
			"primitives":[
				{
					"attributes":{
						"POSITION":0,
						"NORMAL":1,
						"TEXCOORD_0":2
					},
					"indices":3,
					"material":0
				}
			]
		},
		{
			"name":"Scene",
			"primitives":[
				{
					"attributes":{
						"POSITION":0,
						"NORMAL":1,
						"TEXCOORD_0":2
					},
					"indices":3,
					"material":1
				}
			]
		}
	],
	"textures":[
		{
			"sampler":0,
			"source":0
		}
	],
	"images":[
		{
			"mimeType":"image/png",
			"name":"T_Pavement_Checker_BC",
			"uri":"T_Pavement_Checker_BC.png"
		}
	],
	"accessors":[
		{
			"bufferView":0,
			"componentType":5126,
			"count":4,
			"max":[
				50,
				3.0616168932349032e-15,
				50
			],
			"min":[
				-50,
				-3.0616168932349032e-15,
				-50
			],
			"type":"VEC3"
		},
		{
			"bufferView":1,
			"componentType":5126,
			"count":4,
			"type":"VEC3"
		},
		{
			"bufferView":2,
			"componentType":5126,
			"count":4,
			"type":"VEC2"
		},
		{
			"bufferView":3,
			"componentType":5123,
			"count":6,
			"type":"SCALAR"
		}
	],
	"bufferViews":[
		{
			"buffer":0,
			"byteLength":48,
			"byteOffset":0,
			"target":34962
		},
		{
			"buffer":0,
			"byteLength":48,
			"byteOffset":48,
			"target":34962
		},
		{
			"buffer":0,
			"byteLength":32,
			"byteOffset":96,
			"target":34962
		},
		{
			"buffer":0,
			"byteLength":12,
			"byteOffset":128,
			"target":34963
		}
	],
	"samplers":[
		{
			"magFilter":9729,
			"minFilter":9987
		}
	],
	"buffers":[
		{
			"byteLength":140,
			"uri":".gltf.bin"
		}
	]
}
