{
	"asset":{
		"generator":"Khronos glTF Blender I/O v4.3.47",
		"version":"2.0"
	},
	"scene":0,
	"scenes":[
		{
			"name":"Scene",
			"nodes":[
				4
			]
		}
	],
	"nodes":[
		{
			"mesh":0,
			"name":"SM_Monorail_Supports"
		},
		{
			"mesh":1,
			"name":"SM_SupportAttachment",
			"translation":[
				-1.850967964855954e-05,
				556,
				-2922.000244140625
			]
		},
		{
			"mesh":1,
			"name":"SM_SupportAttachment__1_",
			"translation":[
				2.726668753894046e-05,
				1082,
				-2922.000244140625
			]
		},
		{
			"children":[
				1,
				2
			],
			"mesh":2,
			"name":"SM_SupportElbow",
			"translation":[
				0,
				0,
				539
			]
		},
		{
			"children":[
				0,
				3
			],
			"name":"RailwaySupports",
			"rotation":[
				0.1459215134382248,
				0.6918864250183105,
				-0.6918865442276001,
				0.1459214985370636
			],
			"scale":[
				0.009999999776482582,
				0.009999999776482582,
				0.009999999776482582
			]
		}
	],
	"materials":[
		{
			"doubleSided":true,
			"name":"M_ConcreteSupport_WS",
			"pbrMetallicRoughness":{
				"baseColorTexture":{
					"index":0
				},
				"metallicFactor":0,
				"roughnessFactor":0.5527864098548889
			}
		},
		{
			"doubleSided":true,
			"name":"M_BuildingAtlas_01",
			"pbrMetallicRoughness":{
				"baseColorTexture":{
					"index":1
				},
				"metallicFactor":0,
				"roughnessFactor":0.5527864098548889
			}
		}
	],
	"meshes":[
		{
			"name":"Scene",
			"primitives":[
				{
					"attributes":{
						"POSITION":0,
						"NORMAL":1,
						"TEXCOORD_0":2
					},
					"indices":3,
					"material":0
				},
				{
					"attributes":{
						"POSITION":4,
						"NORMAL":5,
						"TEXCOORD_0":6
					},
					"indices":7,
					"material":0
				},
				{
					"attributes":{
						"POSITION":8,
						"NORMAL":9,
						"TEXCOORD_0":10
					},
					"indices":11,
					"material":0
				}
			]
		},
		{
			"name":"Scene.002",
			"primitives":[
				{
					"attributes":{
						"POSITION":12,
						"NORMAL":13,
						"TEXCOORD_0":14
					},
					"indices":15,
					"material":1
				}
			]
		},
		{
			"name":"Scene.001",
			"primitives":[
				{
					"attributes":{
						"POSITION":16,
						"NORMAL":17,
						"TEXCOORD_0":18
					},
					"indices":19,
					"material":0
				},
				{
					"attributes":{
						"POSITION":20,
						"NORMAL":21,
						"TEXCOORD_0":22
					},
					"indices":23,
					"material":0
				}
			]
		}
	],
	"textures":[
		{
			"sampler":0,
			"source":0
		},
		{
			"sampler":0,
			"source":0
		}
	],
	"images":[
		{
			"mimeType":"image/png",
			"name":"T_Asphalt_BC",
			"uri":"T_Asphalt_BC.png"
		}
	],
	"accessors":[
		{
			"bufferView":0,
			"componentType":5126,
			"count":135,
			"max":[
				173.32763671875,
				238.8617706298828,
				55.32643127441406
			],
			"min":[
				-173.32763671875,
				-238.8617706298828,
				-39.08740234375
			],
			"type":"VEC3"
		},
		{
			"bufferView":1,
			"componentType":5126,
			"count":135,
			"type":"VEC3"
		},
		{
			"bufferView":2,
			"componentType":5126,
			"count":135,
			"type":"VEC2"
		},
		{
			"bufferView":3,
			"componentType":5123,
			"count":456,
			"type":"SCALAR"
		},
		{
			"bufferView":4,
			"componentType":5126,
			"count":133,
			"max":[
				117.4006118774414,
				175.6695098876953,
				-39.08423614501953
			],
			"min":[
				-117.4006118774414,
				-175.66954040527344,
				-781.5611572265625
			],
			"type":"VEC3"
		},
		{
			"bufferView":5,
			"componentType":5126,
			"count":133,
			"type":"VEC3"
		},
		{
			"bufferView":6,
			"componentType":5126,
			"count":133,
			"type":"VEC2"
		},
		{
			"bufferView":7,
			"componentType":5123,
			"count":456,
			"type":"SCALAR"
		},
		{
			"bufferView":8,
			"componentType":5126,
			"count":208,
			"max":[
				72.02070617675781,
				107.76642608642578,
				-780.5281372070312
			],
			"min":[
				-72.02070617675781,
				-107.76642608642578,
				-815.1781005859375
			],
			"type":"VEC3"
		},
		{
			"bufferView":9,
			"componentType":5126,
			"count":208,
			"type":"VEC3"
		},
		{
			"bufferView":10,
			"componentType":5126,
			"count":208,
			"type":"VEC2"
		},
		{
			"bufferView":11,
			"componentType":5123,
			"count":636,
			"type":"SCALAR"
		},
		{
			"bufferView":12,
			"componentType":5126,
			"count":537,
			"max":[
				815.7377319335938,
				170.49415588378906,
				242.0794677734375
			],
			"min":[
				-815.7377319335938,
				-569.8922119140625,
				-78.04317474365234
			],
			"type":"VEC3"
		},
		{
			"bufferView":13,
			"componentType":5126,
			"count":537,
			"type":"VEC3"
		},
		{
			"bufferView":14,
			"componentType":5126,
			"count":537,
			"type":"VEC2"
		},
		{
			"bufferView":15,
			"componentType":5123,
			"count":1314,
			"type":"SCALAR"
		},
		{
			"bufferView":16,
			"componentType":5126,
			"count":279,
			"max":[
				57.67354965209961,
				360.1035461425781,
				7.903878211975098
			],
			"min":[
				-57.67362594604492,
				-99.24472045898438,
				-2998.084716796875
			],
			"type":"VEC3"
		},
		{
			"bufferView":17,
			"componentType":5126,
			"count":279,
			"type":"VEC3"
		},
		{
			"bufferView":18,
			"componentType":5126,
			"count":279,
			"type":"VEC2"
		},
		{
			"bufferView":19,
			"componentType":5123,
			"count":1110,
			"type":"SCALAR"
		},
		{
			"bufferView":20,
			"componentType":5126,
			"count":14,
			"max":[
				17.910470962524414,
				349.1864929199219,
				-2628.09375
			],
			"min":[
				-17.910432815551758,
				46.146358489990234,
				-2925.58544921875
			],
			"type":"VEC3"
		},
		{
			"bufferView":21,
			"componentType":5126,
			"count":14,
			"type":"VEC3"
		},
		{
			"bufferView":22,
			"componentType":5126,
			"count":14,
			"type":"VEC2"
		},
		{
			"bufferView":23,
			"componentType":5123,
			"count":36,
			"type":"SCALAR"
		}
	],
	"bufferViews":[
		{
			"buffer":0,
			"byteLength":1620,
			"byteOffset":0,
			"target":34962
		},
		{
			"buffer":0,
			"byteLength":1620,
			"byteOffset":1620,
			"target":34962
		},
		{
			"buffer":0,
			"byteLength":1080,
			"byteOffset":3240,
			"target":34962
		},
		{
			"buffer":0,
			"byteLength":912,
			"byteOffset":4320,
			"target":34963
		},
		{
			"buffer":0,
			"byteLength":1596,
			"byteOffset":5232,
			"target":34962
		},
		{
			"buffer":0,
			"byteLength":1596,
			"byteOffset":6828,
			"target":34962
		},
		{
			"buffer":0,
			"byteLength":1064,
			"byteOffset":8424,
			"target":34962
		},
		{
			"buffer":0,
			"byteLength":912,
			"byteOffset":9488,
			"target":34963
		},
		{
			"buffer":0,
			"byteLength":2496,
			"byteOffset":10400,
			"target":34962
		},
		{
			"buffer":0,
			"byteLength":2496,
			"byteOffset":12896,
			"target":34962
		},
		{
			"buffer":0,
			"byteLength":1664,
			"byteOffset":15392,
			"target":34962
		},
		{
			"buffer":0,
			"byteLength":1272,
			"byteOffset":17056,
			"target":34963
		},
		{
			"buffer":0,
			"byteLength":6444,
			"byteOffset":18328,
			"target":34962
		},
		{
			"buffer":0,
			"byteLength":6444,
			"byteOffset":24772,
			"target":34962
		},
		{
			"buffer":0,
			"byteLength":4296,
			"byteOffset":31216,
			"target":34962
		},
		{
			"buffer":0,
			"byteLength":2628,
			"byteOffset":35512,
			"target":34963
		},
		{
			"buffer":0,
			"byteLength":3348,
			"byteOffset":38140,
			"target":34962
		},
		{
			"buffer":0,
			"byteLength":3348,
			"byteOffset":41488,
			"target":34962
		},
		{
			"buffer":0,
			"byteLength":2232,
			"byteOffset":44836,
			"target":34962
		},
		{
			"buffer":0,
			"byteLength":2220,
			"byteOffset":47068,
			"target":34963
		},
		{
			"buffer":0,
			"byteLength":168,
			"byteOffset":49288,
			"target":34962
		},
		{
			"buffer":0,
			"byteLength":168,
			"byteOffset":49456,
			"target":34962
		},
		{
			"buffer":0,
			"byteLength":112,
			"byteOffset":49624,
			"target":34962
		},
		{
			"buffer":0,
			"byteLength":72,
			"byteOffset":49736,
			"target":34963
		}
	],
	"samplers":[
		{
			"magFilter":9729,
			"minFilter":9987
		}
	],
	"buffers":[
		{
			"byteLength":49808,
			"uri":"RailwaySupports.bin"
		}
	]
}
