{
	"asset":{
		"generator":"Khronos glTF Blender I/O v4.3.47",
		"version":"2.0"
	},
	"scene":0,
	"scenes":[
		{
			"name":"Scene",
			"nodes":[
				4
			]
		}
	],
	"nodes":[
		{
			"mesh":0,
			"name":"SM_Monorail_Supports"
		},
		{
			"mesh":1,
			"name":"SM_SupportAttachment",
			"translation":[
				0,
				0,
				539
			]
		},
		{
			"mesh":2,
			"name":"SM_SupportAttachment__1_",
			"translation":[
				0,
				0,
				539
			]
		},
		{
			"children":[
				1,
				2
			],
			"mesh":3,
			"name":"SM_SupportElbow"
		},
		{
			"children":[
				0,
				3
			],
			"name":"RailwaySupports",
			"rotation":[
				0.1459215134382248,
				0.6918864250183105,
				-0.6918865442276001,
				0.1459214985370636
			],
			"scale":[
				0.009999999776482582,
				0.009999999776482582,
				0.009999999776482582
			]
		}
	],
	"materials":[
		{
			"doubleSided":true,
			"name":"M_ConcreteSupport_WS",
			"pbrMetallicRoughness":{
				"baseColorTexture":{
					"index":0
				},
				"metallicFactor":0,
				"roughnessFactor":0.5527864098548889
			}
		},
		{
			"doubleSided":true,
			"name":"M_BuildingAtlas_01.001",
			"pbrMetallicRoughness":{
				"baseColorTexture":{
					"index":1
				},
				"metallicFactor":0,
				"roughnessFactor":0.5527864098548889
			}
		}
	],
	"meshes":[
		{
			"name":"Scene.006",
			"primitives":[
				{
					"attributes":{
						"POSITION":0,
						"NORMAL":1,
						"TEXCOORD_0":2
					},
					"indices":3,
					"material":0
				}
			]
		},
		{
			"name":"Scene.008",
			"primitives":[
				{
					"attributes":{
						"POSITION":4,
						"NORMAL":5,
						"TEXCOORD_0":6
					},
					"indices":7,
					"material":1
				}
			]
		},
		{
			"name":"Scene.009",
			"primitives":[
				{
					"attributes":{
						"POSITION":8,
						"NORMAL":9,
						"TEXCOORD_0":10
					},
					"indices":11,
					"material":1
				}
			]
		},
		{
			"name":"Scene.007",
			"primitives":[
				{
					"attributes":{
						"POSITION":12,
						"NORMAL":13,
						"TEXCOORD_0":14
					},
					"indices":15,
					"material":0
				}
			]
		}
	],
	"textures":[
		{
			"sampler":0,
			"source":0
		},
		{
			"sampler":0,
			"source":0
		}
	],
	"images":[
		{
			"mimeType":"image/png",
			"name":"T_Asphalt_BC",
			"uri":"T_Asphalt_BC.png"
		}
	],
	"accessors":[
		{
			"bufferView":0,
			"componentType":5126,
			"count":476,
			"max":[
				173.32763671875,
				238.8617706298828,
				55.32643127441406
			],
			"min":[
				-173.32763671875,
				-238.8617706298828,
				-815.1781005859375
			],
			"type":"VEC3"
		},
		{
			"bufferView":1,
			"componentType":5126,
			"count":476,
			"type":"VEC3"
		},
		{
			"bufferView":2,
			"componentType":5126,
			"count":476,
			"type":"VEC2"
		},
		{
			"bufferView":3,
			"componentType":5123,
			"count":1548,
			"type":"SCALAR"
		},
		{
			"bufferView":4,
			"componentType":5126,
			"count":571,
			"max":[
				815.7377319335938,
				726.494140625,
				-2679.9208984375
			],
			"min":[
				-815.7377319335938,
				-13.8922119140625,
				-3000.04345703125
			],
			"type":"VEC3"
		},
		{
			"bufferView":5,
			"componentType":5126,
			"count":571,
			"type":"VEC3"
		},
		{
			"bufferView":6,
			"componentType":5126,
			"count":571,
			"type":"VEC2"
		},
		{
			"bufferView":7,
			"componentType":5123,
			"count":1314,
			"type":"SCALAR"
		},
		{
			"bufferView":8,
			"componentType":5126,
			"count":572,
			"max":[
				815.7379150390625,
				1252.494140625,
				-2679.920654296875
			],
			"min":[
				-815.73779296875,
				512.1077880859375,
				-3000.043212890625
			],
			"type":"VEC3"
		},
		{
			"bufferView":9,
			"componentType":5126,
			"count":572,
			"type":"VEC3"
		},
		{
			"bufferView":10,
			"componentType":5126,
			"count":572,
			"type":"VEC2"
		},
		{
			"bufferView":11,
			"componentType":5123,
			"count":1314,
			"type":"SCALAR"
		},
		{
			"bufferView":12,
			"componentType":5126,
			"count":293,
			"max":[
				57.67354965209961,
				360.1035461425781,
				546.9038696289062
			],
			"min":[
				-57.67362594604492,
				-99.24472045898438,
				-2459.084716796875
			],
			"type":"VEC3"
		},
		{
			"bufferView":13,
			"componentType":5126,
			"count":293,
			"type":"VEC3"
		},
		{
			"bufferView":14,
			"componentType":5126,
			"count":293,
			"type":"VEC2"
		},
		{
			"bufferView":15,
			"componentType":5123,
			"count":1146,
			"type":"SCALAR"
		}
	],
	"bufferViews":[
		{
			"buffer":0,
			"byteLength":5712,
			"byteOffset":0,
			"target":34962
		},
		{
			"buffer":0,
			"byteLength":5712,
			"byteOffset":5712,
			"target":34962
		},
		{
			"buffer":0,
			"byteLength":3808,
			"byteOffset":11424,
			"target":34962
		},
		{
			"buffer":0,
			"byteLength":3096,
			"byteOffset":15232,
			"target":34963
		},
		{
			"buffer":0,
			"byteLength":6852,
			"byteOffset":18328,
			"target":34962
		},
		{
			"buffer":0,
			"byteLength":6852,
			"byteOffset":25180,
			"target":34962
		},
		{
			"buffer":0,
			"byteLength":4568,
			"byteOffset":32032,
			"target":34962
		},
		{
			"buffer":0,
			"byteLength":2628,
			"byteOffset":36600,
			"target":34963
		},
		{
			"buffer":0,
			"byteLength":6864,
			"byteOffset":39228,
			"target":34962
		},
		{
			"buffer":0,
			"byteLength":6864,
			"byteOffset":46092,
			"target":34962
		},
		{
			"buffer":0,
			"byteLength":4576,
			"byteOffset":52956,
			"target":34962
		},
		{
			"buffer":0,
			"byteLength":2628,
			"byteOffset":57532,
			"target":34963
		},
		{
			"buffer":0,
			"byteLength":3516,
			"byteOffset":60160,
			"target":34962
		},
		{
			"buffer":0,
			"byteLength":3516,
			"byteOffset":63676,
			"target":34962
		},
		{
			"buffer":0,
			"byteLength":2344,
			"byteOffset":67192,
			"target":34962
		},
		{
			"buffer":0,
			"byteLength":2292,
			"byteOffset":69536,
			"target":34963
		}
	],
	"samplers":[
		{
			"magFilter":9729,
			"minFilter":9987
		}
	],
	"buffers":[
		{
			"byteLength":71828,
			"uri":"RailwaySupports.bin"
		}
	]
}
