{
	"asset":{
		"generator":"Khronos glTF Blender I/O v4.3.47",
		"version":"2.0"
	},
	"scene":0,
	"scenes":[
		{
			"name":"Scene",
			"nodes":[
				4
			]
		}
	],
	"nodes":[
		{
			"mesh":0,
			"name":"SM_Monorail_Supports"
		},
		{
			"mesh":1,
			"name":"SM_SupportAttachment"
		},
		{
			"mesh":2,
			"name":"SM_SupportAttachment__1_"
		},
		{
			"children":[
				1,
				2
			],
			"mesh":3,
			"name":"SM_SupportElbow"
		},
		{
			"children":[
				0,
				3
			],
			"name":"RailwaySupports"
		}
	],
	"materials":[
		{
			"doubleSided":true,
			"name":"M_ConcreteSupport_WS",
			"pbrMetallicRoughness":{
				"baseColorTexture":{
					"index":0
				},
				"metallicFactor":0,
				"roughnessFactor":0.5527864098548889
			}
		},
		{
			"doubleSided":true,
			"name":"M_BuildingAtlas_01.001",
			"pbrMetallicRoughness":{
				"baseColorTexture":{
					"index":1
				},
				"metallicFactor":0,
				"roughnessFactor":0.5527864098548889
			}
		}
	],
	"meshes":[
		{
			"name":"Scene.006",
			"primitives":[
				{
					"attributes":{
						"POSITION":0,
						"NORMAL":1,
						"TEXCOORD_0":2
					},
					"indices":3,
					"material":0
				}
			]
		},
		{
			"name":"Scene.008",
			"primitives":[
				{
					"attributes":{
						"POSITION":4,
						"NORMAL":5,
						"TEXCOORD_0":6
					},
					"indices":7,
					"material":1
				}
			]
		},
		{
			"name":"Scene.009",
			"primitives":[
				{
					"attributes":{
						"POSITION":8,
						"NORMAL":9,
						"TEXCOORD_0":10
					},
					"indices":11,
					"material":1
				}
			]
		},
		{
			"name":"Scene.007",
			"primitives":[
				{
					"attributes":{
						"POSITION":12,
						"NORMAL":13,
						"TEXCOORD_0":14
					},
					"indices":15,
					"material":0
				}
			]
		}
	],
	"textures":[
		{
			"sampler":0,
			"source":0
		},
		{
			"sampler":0,
			"source":0
		}
	],
	"images":[
		{
			"mimeType":"image/png",
			"name":"T_Asphalt_BC",
			"uri":"T_Asphalt_BC.png"
		}
	],
	"accessors":[
		{
			"bufferView":0,
			"componentType":5126,
			"count":476,
			"max":[
				2.1983747482299805,
				8.15178108215332,
				2.5348658561706543
			],
			"min":[
				-2.1983747482299805,
				-0.5532639622688293,
				-2.534865617752075
			],
			"type":"VEC3"
		},
		{
			"bufferView":1,
			"componentType":5126,
			"count":476,
			"type":"VEC3"
		},
		{
			"bufferView":2,
			"componentType":5126,
			"count":476,
			"type":"VEC2"
		},
		{
			"bufferView":3,
			"componentType":5123,
			"count":1548,
			"type":"SCALAR"
		},
		{
			"bufferView":4,
			"componentType":5126,
			"count":651,
			"max":[
				10.22059440612793,
				24.61043357849121,
				0.2742411196231842
			],
			"min":[
				-5.729841232299805,
				21.40920639038086,
				-9.763879776000977
			],
			"type":"VEC3"
		},
		{
			"bufferView":5,
			"componentType":5126,
			"count":651,
			"type":"VEC3"
		},
		{
			"bufferView":6,
			"componentType":5126,
			"count":651,
			"type":"VEC2"
		},
		{
			"bufferView":7,
			"componentType":5123,
			"count":1314,
			"type":"SCALAR"
		},
		{
			"bufferView":8,
			"componentType":5126,
			"count":655,
			"max":[
				12.344817161560059,
				24.610429763793945,
				-4.537752628326416
			],
			"min":[
				-3.6056203842163086,
				21.409204483032227,
				-14.575875282287598
			],
			"type":"VEC3"
		},
		{
			"bufferView":9,
			"componentType":5126,
			"count":655,
			"type":"VEC3"
		},
		{
			"bufferView":10,
			"componentType":5126,
			"count":655,
			"type":"VEC2"
		},
		{
			"bufferView":11,
			"componentType":5123,
			"count":1314,
			"type":"SCALAR"
		},
		{
			"bufferView":12,
			"componentType":5126,
			"count":303,
			"max":[
				1.9818739891052246,
				24.59084701538086,
				1.0033081769943237
			],
			"min":[
				-0.790889322757721,
				-5.469038486480713,
				-3.5272419452667236
			],
			"type":"VEC3"
		},
		{
			"bufferView":13,
			"componentType":5126,
			"count":303,
			"type":"VEC3"
		},
		{
			"bufferView":14,
			"componentType":5126,
			"count":303,
			"type":"VEC2"
		},
		{
			"bufferView":15,
			"componentType":5123,
			"count":1146,
			"type":"SCALAR"
		}
	],
	"bufferViews":[
		{
			"buffer":0,
			"byteLength":5712,
			"byteOffset":0,
			"target":34962
		},
		{
			"buffer":0,
			"byteLength":5712,
			"byteOffset":5712,
			"target":34962
		},
		{
			"buffer":0,
			"byteLength":3808,
			"byteOffset":11424,
			"target":34962
		},
		{
			"buffer":0,
			"byteLength":3096,
			"byteOffset":15232,
			"target":34963
		},
		{
			"buffer":0,
			"byteLength":7812,
			"byteOffset":18328,
			"target":34962
		},
		{
			"buffer":0,
			"byteLength":7812,
			"byteOffset":26140,
			"target":34962
		},
		{
			"buffer":0,
			"byteLength":5208,
			"byteOffset":33952,
			"target":34962
		},
		{
			"buffer":0,
			"byteLength":2628,
			"byteOffset":39160,
			"target":34963
		},
		{
			"buffer":0,
			"byteLength":7860,
			"byteOffset":41788,
			"target":34962
		},
		{
			"buffer":0,
			"byteLength":7860,
			"byteOffset":49648,
			"target":34962
		},
		{
			"buffer":0,
			"byteLength":5240,
			"byteOffset":57508,
			"target":34962
		},
		{
			"buffer":0,
			"byteLength":2628,
			"byteOffset":62748,
			"target":34963
		},
		{
			"buffer":0,
			"byteLength":3636,
			"byteOffset":65376,
			"target":34962
		},
		{
			"buffer":0,
			"byteLength":3636,
			"byteOffset":69012,
			"target":34962
		},
		{
			"buffer":0,
			"byteLength":2424,
			"byteOffset":72648,
			"target":34962
		},
		{
			"buffer":0,
			"byteLength":2292,
			"byteOffset":75072,
			"target":34963
		}
	],
	"samplers":[
		{
			"magFilter":9729,
			"minFilter":9987
		}
	],
	"buffers":[
		{
			"byteLength":77364,
			"uri":"RailwaySupports.bin"
		}
	]
}
