{
	"asset":{
		"generator":"Khronos glTF Blender I/O v4.3.47",
		"version":"2.0"
	},
	"extensionsUsed":[
		"KHR_materials_specular",
		"KHR_materials_ior"
	],
	"scene":0,
	"scenes":[
		{
			"name":"Scene",
			"nodes":[
				0,
				1,
				2
			]
		}
	],
	"nodes":[
		{
			"mesh":0,
			"name":"Traffic_Light_Model.002"
		},
		{
			"mesh":1,
			"name":"Traffic_Light_Model.001"
		},
		{
			"mesh":2,
			"name":"Traffic_Light_Model.003"
		}
	],
	"materials":[
		{
			"extensions":{
				"KHR_materials_specular":{
					"specularFactor":0
				},
				"KHR_materials_ior":{
					"ior":1.4500000476837158
				}
			},
			"name":"Material.001",
			"pbrMetallicRoughness":{
				"baseColorTexture":{
					"index":0
				},
				"metallicFactor":0,
				"roughnessFactor":0.5
			}
		}
	],
	"meshes":[
		{
			"name":"Cylinder.002",
			"primitives":[
				{
					"attributes":{
						"POSITION":0,
						"NORMAL":1,
						"TEXCOORD_0":2
					},
					"indices":3,
					"material":0
				}
			]
		},
		{
			"name":"Cylinder.005",
			"primitives":[
				{
					"attributes":{
						"POSITION":4,
						"NORMAL":5,
						"TEXCOORD_0":6
					},
					"indices":7,
					"material":0
				}
			]
		},
		{
			"name":"Cylinder.006",
			"primitives":[
				{
					"attributes":{
						"POSITION":8,
						"NORMAL":9,
						"TEXCOORD_0":10
					},
					"indices":11,
					"material":0
				}
			]
		}
	],
	"textures":[
		{
			"sampler":0,
			"source":0
		}
	],
	"images":[
		{
			"mimeType":"image/png",
			"name":"Traffic_Light_Basecolor",
			"uri":"Traffic_Light_Basecolor.png"
		}
	],
	"accessors":[
		{
			"bufferView":0,
			"componentType":5126,
			"count":132,
			"max":[
				0.10313963890075684,
				6.140614032745361,
				0.10313953459262848
			],
			"min":[
				-0.13538050651550293,
				-4.76837158203125e-07,
				-0.1345432698726654
			],
			"type":"VEC3"
		},
		{
			"bufferView":1,
			"componentType":5126,
			"count":132,
			"type":"VEC3"
		},
		{
			"bufferView":2,
			"componentType":5126,
			"count":132,
			"type":"VEC2"
		},
		{
			"bufferView":3,
			"componentType":5123,
			"count":300,
			"type":"SCALAR"
		},
		{
			"bufferView":4,
			"componentType":5126,
			"count":661,
			"max":[
				0.11581897735595703,
				5.542852878570557,
				0.13283321261405945
			],
			"min":[
				-2.4051599502563477,
				4.683865547180176,
				-0.22492915391921997
			],
			"type":"VEC3"
		},
		{
			"bufferView":5,
			"componentType":5126,
			"count":661,
			"type":"VEC3"
		},
		{
			"bufferView":6,
			"componentType":5126,
			"count":661,
			"type":"VEC2"
		},
		{
			"bufferView":7,
			"componentType":5123,
			"count":1776,
			"type":"SCALAR"
		},
		{
			"bufferView":8,
			"componentType":5126,
			"count":576,
			"max":[
				0.12964913249015808,
				2.4468495845794678,
				0.11581921577453613
			],
			"min":[
				-0.17861206829547882,
				1.9000699520111084,
				-0.5091245770454407
			],
			"type":"VEC3"
		},
		{
			"bufferView":9,
			"componentType":5126,
			"count":576,
			"type":"VEC3"
		},
		{
			"bufferView":10,
			"componentType":5126,
			"count":576,
			"type":"VEC2"
		},
		{
			"bufferView":11,
			"componentType":5123,
			"count":1200,
			"type":"SCALAR"
		}
	],
	"bufferViews":[
		{
			"buffer":0,
			"byteLength":1584,
			"byteOffset":0,
			"target":34962
		},
		{
			"buffer":0,
			"byteLength":1584,
			"byteOffset":1584,
			"target":34962
		},
		{
			"buffer":0,
			"byteLength":1056,
			"byteOffset":3168,
			"target":34962
		},
		{
			"buffer":0,
			"byteLength":600,
			"byteOffset":4224,
			"target":34963
		},
		{
			"buffer":0,
			"byteLength":7932,
			"byteOffset":4824,
			"target":34962
		},
		{
			"buffer":0,
			"byteLength":7932,
			"byteOffset":12756,
			"target":34962
		},
		{
			"buffer":0,
			"byteLength":5288,
			"byteOffset":20688,
			"target":34962
		},
		{
			"buffer":0,
			"byteLength":3552,
			"byteOffset":25976,
			"target":34963
		},
		{
			"buffer":0,
			"byteLength":6912,
			"byteOffset":29528,
			"target":34962
		},
		{
			"buffer":0,
			"byteLength":6912,
			"byteOffset":36440,
			"target":34962
		},
		{
			"buffer":0,
			"byteLength":4608,
			"byteOffset":43352,
			"target":34962
		},
		{
			"buffer":0,
			"byteLength":2400,
			"byteOffset":47960,
			"target":34963
		}
	],
	"samplers":[
		{
			"magFilter":9729,
			"minFilter":9987
		}
	],
	"buffers":[
		{
			"byteLength":50360,
			"uri":"TrafficLight.bin"
		}
	]
}
