{
	"asset":{
		"generator":"Khronos glTF Blender I/O v4.3.47",
		"version":"2.0"
	},
	"extensionsUsed":[
		"KHR_materials_specular",
		"KHR_materials_ior"
	],
	"scene":0,
	"scenes":[
		{
			"name":"Scene",
			"nodes":[
				0,
				1,
				2
			]
		}
	],
	"nodes":[
		{
			"mesh":0,
			"name":"Traffic_Light_Model.002",
			"translation":[
				-2.2064554691314697,
				5.381283760070801,
				-0.05472898483276367
			]
		},
		{
			"mesh":1,
			"name":"Traffic_Light_Model.001",
			"translation":[
				0,
				5.314519882202148,
				0
			]
		},
		{
			"mesh":2,
			"name":"Traffic_Light_Model.003",
			"rotation":[
				0,
				0.7071068286895752,
				0,
				0.7071068286895752
			],
			"translation":[
				0,
				2.1842200756073,
				0
			]
		}
	],
	"materials":[
		{
			"extensions":{
				"KHR_materials_specular":{
					"specularFactor":0
				},
				"KHR_materials_ior":{
					"ior":1.4500000476837158
				}
			},
			"name":"Material",
			"pbrMetallicRoughness":{
				"baseColorTexture":{
					"index":0
				},
				"metallicFactor":0,
				"roughnessFactor":0.5
			}
		}
	],
	"meshes":[
		{
			"name":"Cylinder.002",
			"primitives":[
				{
					"attributes":{
						"POSITION":0,
						"NORMAL":1,
						"TEXCOORD_0":2
					},
					"indices":3,
					"material":0
				}
			]
		},
		{
			"name":"Cylinder.005",
			"primitives":[
				{
					"attributes":{
						"POSITION":4,
						"NORMAL":5,
						"TEXCOORD_0":6
					},
					"indices":7,
					"material":0
				}
			]
		},
		{
			"name":"Cylinder.006",
			"primitives":[
				{
					"attributes":{
						"POSITION":8,
						"NORMAL":9,
						"TEXCOORD_0":10
					},
					"indices":11,
					"material":0
				}
			]
		}
	],
	"textures":[
		{
			"sampler":0,
			"source":0
		}
	],
	"images":[
		{
			"mimeType":"image/png",
			"name":"Traffic_Light_Basecolor",
			"uri":"Traffic_Light_Basecolor.png"
		}
	],
	"accessors":[
		{
			"bufferView":0,
			"componentType":5126,
			"count":130,
			"max":[
				2.3095951080322266,
				0.7593303322792053,
				0.15786851942539215
			],
			"min":[
				2.071074962615967,
				-5.381284236907959,
				-0.07981428503990173
			],
			"type":"VEC3"
		},
		{
			"bufferView":1,
			"componentType":5126,
			"count":130,
			"type":"VEC3"
		},
		{
			"bufferView":2,
			"componentType":5126,
			"count":130,
			"type":"VEC2"
		},
		{
			"bufferView":3,
			"componentType":5123,
			"count":300,
			"type":"SCALAR"
		},
		{
			"bufferView":4,
			"componentType":5126,
			"count":661,
			"max":[
				0.11581897735595703,
				0.2283329963684082,
				0.13283321261405945
			],
			"min":[
				-2.4051599502563477,
				-0.6306543350219727,
				-0.22492915391921997
			],
			"type":"VEC3"
		},
		{
			"bufferView":5,
			"componentType":5126,
			"count":661,
			"type":"VEC3"
		},
		{
			"bufferView":6,
			"componentType":5126,
			"count":661,
			"type":"VEC2"
		},
		{
			"bufferView":7,
			"componentType":5123,
			"count":1776,
			"type":"SCALAR"
		},
		{
			"bufferView":8,
			"componentType":5126,
			"count":571,
			"max":[
				0.5091245174407959,
				0.26262950897216797,
				0.12964916229248047
			],
			"min":[
				-0.11581920087337494,
				-0.2841501235961914,
				-0.17861199378967285
			],
			"type":"VEC3"
		},
		{
			"bufferView":9,
			"componentType":5126,
			"count":571,
			"type":"VEC3"
		},
		{
			"bufferView":10,
			"componentType":5126,
			"count":571,
			"type":"VEC2"
		},
		{
			"bufferView":11,
			"componentType":5123,
			"count":1200,
			"type":"SCALAR"
		}
	],
	"bufferViews":[
		{
			"buffer":0,
			"byteLength":1560,
			"byteOffset":0,
			"target":34962
		},
		{
			"buffer":0,
			"byteLength":1560,
			"byteOffset":1560,
			"target":34962
		},
		{
			"buffer":0,
			"byteLength":1040,
			"byteOffset":3120,
			"target":34962
		},
		{
			"buffer":0,
			"byteLength":600,
			"byteOffset":4160,
			"target":34963
		},
		{
			"buffer":0,
			"byteLength":7932,
			"byteOffset":4760,
			"target":34962
		},
		{
			"buffer":0,
			"byteLength":7932,
			"byteOffset":12692,
			"target":34962
		},
		{
			"buffer":0,
			"byteLength":5288,
			"byteOffset":20624,
			"target":34962
		},
		{
			"buffer":0,
			"byteLength":3552,
			"byteOffset":25912,
			"target":34963
		},
		{
			"buffer":0,
			"byteLength":6852,
			"byteOffset":29464,
			"target":34962
		},
		{
			"buffer":0,
			"byteLength":6852,
			"byteOffset":36316,
			"target":34962
		},
		{
			"buffer":0,
			"byteLength":4568,
			"byteOffset":43168,
			"target":34962
		},
		{
			"buffer":0,
			"byteLength":2400,
			"byteOffset":47736,
			"target":34963
		}
	],
	"samplers":[
		{
			"magFilter":9729,
			"minFilter":9987
		}
	],
	"buffers":[
		{
			"byteLength":50136,
			"uri":"TrafficLight.bin"
		}
	]
}
