{
	"asset":{
		"generator":"Khronos glTF Blender I/O v4.3.47",
		"version":"2.0"
	},
	"scene":0,
	"scenes":[
		{
			"name":"Scene",
			"nodes":[
				0
			]
		}
	],
	"nodes":[
		{
			"mesh":0,
			"name":"SM_Arcade",
			"rotation":[
				0.030843529850244522,
				0.7064337134361267,
				-0.7064338326454163,
				0.030843526124954224
			],
			"scale":[
				0.010000000707805157,
				0.010000000707805157,
				0.009999999776482582
			]
		}
	],
	"materials":[
		{
			"doubleSided":true,
			"name":"M_Arcade",
			"pbrMetallicRoughness":{
				"baseColorTexture":{
					"index":0
				},
				"metallicFactor":0,
				"roughnessFactor":0.5527864098548889
			}
		}
	],
	"meshes":[
		{
			"name":"Scene",
			"primitives":[
				{
					"attributes":{
						"POSITION":0,
						"NORMAL":1,
						"TEXCOORD_0":2,
						"TEXCOORD_1":3
					},
					"indices":4,
					"material":0
				}
			]
		}
	],
	"textures":[
		{
			"sampler":0,
			"source":0
		}
	],
	"images":[
		{
			"mimeType":"image/png",
			"name":"T_Mascots_Arcade_BC",
			"uri":"T_Mascots_Arcade_BC.png"
		}
	],
	"accessors":[
		{
			"bufferView":0,
			"componentType":5126,
			"count":999,
			"max":[
				48.88695526123047,
				37.34034729003906,
				2.0563399802251336e-15
			],
			"min":[
				-25.399208068847656,
				-36.0212516784668,
				-162.98748779296875
			],
			"type":"VEC3"
		},
		{
			"bufferView":1,
			"componentType":5126,
			"count":999,
			"type":"VEC3"
		},
		{
			"bufferView":2,
			"componentType":5126,
			"count":999,
			"type":"VEC2"
		},
		{
			"bufferView":3,
			"componentType":5126,
			"count":999,
			"type":"VEC2"
		},
		{
			"bufferView":4,
			"componentType":5123,
			"count":4812,
			"type":"SCALAR"
		}
	],
	"bufferViews":[
		{
			"buffer":0,
			"byteLength":11988,
			"byteOffset":0,
			"target":34962
		},
		{
			"buffer":0,
			"byteLength":11988,
			"byteOffset":11988,
			"target":34962
		},
		{
			"buffer":0,
			"byteLength":7992,
			"byteOffset":23976,
			"target":34962
		},
		{
			"buffer":0,
			"byteLength":7992,
			"byteOffset":31968,
			"target":34962
		},
		{
			"buffer":0,
			"byteLength":9624,
			"byteOffset":39960,
			"target":34963
		}
	],
	"samplers":[
		{
			"magFilter":9729,
			"minFilter":9987
		}
	],
	"buffers":[
		{
			"byteLength":49584,
			"uri":"Arcade.bin"
		}
	]
}
