{
	"asset":{
		"generator":"Khronos glTF Blender I/O v4.3.47",
		"version":"2.0"
	},
	"scene":0,
	"scenes":[
		{
			"name":"Scene",
			"nodes":[
				0
			]
		}
	],
	"nodes":[
		{
			"mesh":0,
			"name":"SM_Skyscraper_01",
			"rotation":[
				0.70710688829422,
				0,
				0,
				0.7071066498756409
			],
			"scale":[
				0.009999999776482582,
				0.009999999776482582,
				0.009999999776482582
			]
		}
	],
	"materials":[
		{
			"doubleSided":true,
			"name":"M_PlasterWall",
			"pbrMetallicRoughness":{
				"baseColorTexture":{
					"index":0
				},
				"metallicFactor":0,
				"roughnessFactor":0.5527864098548889
			}
		},
		{
			"doubleSided":true,
			"name":"Window01",
			"pbrMetallicRoughness":{
				"metallicFactor":0,
				"roughnessFactor":0.5527864098548889
			}
		},
		{
			"doubleSided":true,
			"name":"M_BuildingAtlas_01",
			"pbrMetallicRoughness":{
				"baseColorTexture":{
					"index":1
				},
				"metallicFactor":0,
				"roughnessFactor":0.5527864098548889
			}
		},
		{
			"doubleSided":true,
			"name":"M_Glow_Yellow",
			"pbrMetallicRoughness":{
				"baseColorFactor":[
					1,
					0.9350790977478027,
					0.14641284942626953,
					1
				],
				"metallicFactor":0,
				"roughnessFactor":0.5527864098548889
			}
		},
		{
			"doubleSided":true,
			"name":"Window01_bright",
			"pbrMetallicRoughness":{
				"baseColorFactor":[
					0.4536985754966736,
					0.4536985754966736,
					0.4536985754966736,
					1
				],
				"metallicFactor":0,
				"roughnessFactor":0.5527864098548889
			}
		}
	],
	"meshes":[
		{
			"name":"Scene",
			"primitives":[
				{
					"attributes":{
						"POSITION":0,
						"NORMAL":1,
						"TEXCOORD_0":2,
						"TEXCOORD_1":3,
						"TEXCOORD_2":4,
						"TEXCOORD_3":5
					},
					"indices":6,
					"material":0
				},
				{
					"attributes":{
						"POSITION":7,
						"NORMAL":8,
						"TEXCOORD_0":9,
						"TEXCOORD_1":10,
						"TEXCOORD_2":11,
						"TEXCOORD_3":12
					},
					"indices":13,
					"material":1
				},
				{
					"attributes":{
						"POSITION":14,
						"NORMAL":15,
						"TEXCOORD_0":16,
						"TEXCOORD_1":17,
						"TEXCOORD_2":18,
						"TEXCOORD_3":19
					},
					"indices":20,
					"material":2
				},
				{
					"attributes":{
						"POSITION":21,
						"NORMAL":22,
						"TEXCOORD_0":23,
						"TEXCOORD_1":24,
						"TEXCOORD_2":25,
						"TEXCOORD_3":26
					},
					"indices":27,
					"material":3
				},
				{
					"attributes":{
						"POSITION":28,
						"NORMAL":29,
						"TEXCOORD_0":30,
						"TEXCOORD_1":31,
						"TEXCOORD_2":32,
						"TEXCOORD_3":33
					},
					"indices":34,
					"material":4
				}
			]
		}
	],
	"textures":[
		{
			"sampler":0,
			"source":0
		},
		{
			"sampler":0,
			"source":1
		}
	],
	"images":[
		{
			"mimeType":"image/png",
			"name":"parplr",
			"uri":"parplr.png"
		},
		{
			"mimeType":"image/png",
			"name":"T_BuildingAtlas_01_BC",
			"uri":"T_BuildingAtlas_01_BC.png"
		}
	],
	"accessors":[
		{
			"bufferView":0,
			"componentType":5126,
			"count":971,
			"max":[
				1250.003662109375,
				1931.6868896484375,
				15.119367599487305
			],
			"min":[
				-1250.003662109375,
				-2122.910400390625,
				-11816.0830078125
			],
			"type":"VEC3"
		},
		{
			"bufferView":1,
			"componentType":5126,
			"count":971,
			"type":"VEC3"
		},
		{
			"bufferView":2,
			"componentType":5126,
			"count":971,
			"type":"VEC2"
		},
		{
			"bufferView":3,
			"componentType":5126,
			"count":971,
			"type":"VEC2"
		},
		{
			"bufferView":4,
			"componentType":5126,
			"count":971,
			"type":"VEC2"
		},
		{
			"bufferView":5,
			"componentType":5126,
			"count":971,
			"type":"VEC2"
		},
		{
			"bufferView":6,
			"componentType":5123,
			"count":2115,
			"type":"SCALAR"
		},
		{
			"bufferView":7,
			"componentType":5126,
			"count":123,
			"max":[
				1237.0849609375,
				1704.79736328125,
				0.0005554934614337981
			],
			"min":[
				-1237.0849609375,
				-1704.7998046875,
				-9867.79296875
			],
			"type":"VEC3"
		},
		{
			"bufferView":8,
			"componentType":5126,
			"count":123,
			"type":"VEC3"
		},
		{
			"bufferView":9,
			"componentType":5126,
			"count":123,
			"type":"VEC2"
		},
		{
			"bufferView":10,
			"componentType":5126,
			"count":123,
			"type":"VEC2"
		},
		{
			"bufferView":11,
			"componentType":5126,
			"count":123,
			"type":"VEC2"
		},
		{
			"bufferView":12,
			"componentType":5126,
			"count":123,
			"type":"VEC2"
		},
		{
			"bufferView":13,
			"componentType":5123,
			"count":156,
			"type":"SCALAR"
		},
		{
			"bufferView":14,
			"componentType":5126,
			"count":2374,
			"max":[
				1280.0504150390625,
				2072.686279296875,
				25.674585342407227
			],
			"min":[
				-1280.0504150390625,
				-2170.990478515625,
				-11868.4443359375
			],
			"type":"VEC3"
		},
		{
			"bufferView":15,
			"componentType":5126,
			"count":2374,
			"type":"VEC3"
		},
		{
			"bufferView":16,
			"componentType":5126,
			"count":2374,
			"type":"VEC2"
		},
		{
			"bufferView":17,
			"componentType":5126,
			"count":2374,
			"type":"VEC2"
		},
		{
			"bufferView":18,
			"componentType":5126,
			"count":2374,
			"type":"VEC2"
		},
		{
			"bufferView":19,
			"componentType":5126,
			"count":2374,
			"type":"VEC2"
		},
		{
			"bufferView":20,
			"componentType":5123,
			"count":6912,
			"type":"SCALAR"
		},
		{
			"bufferView":21,
			"componentType":5126,
			"count":76,
			"max":[
				943.3063354492188,
				-1762.362060546875,
				12.26952075958252
			],
			"min":[
				-943.3063354492188,
				-2122.910400390625,
				-8671.146484375
			],
			"type":"VEC3"
		},
		{
			"bufferView":22,
			"componentType":5126,
			"count":76,
			"type":"VEC3"
		},
		{
			"bufferView":23,
			"componentType":5126,
			"count":76,
			"type":"VEC2"
		},
		{
			"bufferView":24,
			"componentType":5126,
			"count":76,
			"type":"VEC2"
		},
		{
			"bufferView":25,
			"componentType":5126,
			"count":76,
			"type":"VEC2"
		},
		{
			"bufferView":26,
			"componentType":5126,
			"count":76,
			"type":"VEC2"
		},
		{
			"bufferView":27,
			"componentType":5123,
			"count":228,
			"type":"SCALAR"
		},
		{
			"bufferView":28,
			"componentType":5126,
			"count":32,
			"max":[
				1237.0849609375,
				1704.7972412109375,
				0.0003993499849457294
			],
			"min":[
				-1237.0849609375,
				-1704.80029296875,
				-8450.5830078125
			],
			"type":"VEC3"
		},
		{
			"bufferView":29,
			"componentType":5126,
			"count":32,
			"type":"VEC3"
		},
		{
			"bufferView":30,
			"componentType":5126,
			"count":32,
			"type":"VEC2"
		},
		{
			"bufferView":31,
			"componentType":5126,
			"count":32,
			"type":"VEC2"
		},
		{
			"bufferView":32,
			"componentType":5126,
			"count":32,
			"type":"VEC2"
		},
		{
			"bufferView":33,
			"componentType":5126,
			"count":32,
			"type":"VEC2"
		},
		{
			"bufferView":34,
			"componentType":5123,
			"count":42,
			"type":"SCALAR"
		}
	],
	"bufferViews":[
		{
			"buffer":0,
			"byteLength":11652,
			"byteOffset":0,
			"target":34962
		},
		{
			"buffer":0,
			"byteLength":11652,
			"byteOffset":11652,
			"target":34962
		},
		{
			"buffer":0,
			"byteLength":7768,
			"byteOffset":23304,
			"target":34962
		},
		{
			"buffer":0,
			"byteLength":7768,
			"byteOffset":31072,
			"target":34962
		},
		{
			"buffer":0,
			"byteLength":7768,
			"byteOffset":38840,
			"target":34962
		},
		{
			"buffer":0,
			"byteLength":7768,
			"byteOffset":46608,
			"target":34962
		},
		{
			"buffer":0,
			"byteLength":4230,
			"byteOffset":54376,
			"target":34963
		},
		{
			"buffer":0,
			"byteLength":1476,
			"byteOffset":58608,
			"target":34962
		},
		{
			"buffer":0,
			"byteLength":1476,
			"byteOffset":60084,
			"target":34962
		},
		{
			"buffer":0,
			"byteLength":984,
			"byteOffset":61560,
			"target":34962
		},
		{
			"buffer":0,
			"byteLength":984,
			"byteOffset":62544,
			"target":34962
		},
		{
			"buffer":0,
			"byteLength":984,
			"byteOffset":63528,
			"target":34962
		},
		{
			"buffer":0,
			"byteLength":984,
			"byteOffset":64512,
			"target":34962
		},
		{
			"buffer":0,
			"byteLength":312,
			"byteOffset":65496,
			"target":34963
		},
		{
			"buffer":0,
			"byteLength":28488,
			"byteOffset":65808,
			"target":34962
		},
		{
			"buffer":0,
			"byteLength":28488,
			"byteOffset":94296,
			"target":34962
		},
		{
			"buffer":0,
			"byteLength":18992,
			"byteOffset":122784,
			"target":34962
		},
		{
			"buffer":0,
			"byteLength":18992,
			"byteOffset":141776,
			"target":34962
		},
		{
			"buffer":0,
			"byteLength":18992,
			"byteOffset":160768,
			"target":34962
		},
		{
			"buffer":0,
			"byteLength":18992,
			"byteOffset":179760,
			"target":34962
		},
		{
			"buffer":0,
			"byteLength":13824,
			"byteOffset":198752,
			"target":34963
		},
		{
			"buffer":0,
			"byteLength":912,
			"byteOffset":212576,
			"target":34962
		},
		{
			"buffer":0,
			"byteLength":912,
			"byteOffset":213488,
			"target":34962
		},
		{
			"buffer":0,
			"byteLength":608,
			"byteOffset":214400,
			"target":34962
		},
		{
			"buffer":0,
			"byteLength":608,
			"byteOffset":215008,
			"target":34962
		},
		{
			"buffer":0,
			"byteLength":608,
			"byteOffset":215616,
			"target":34962
		},
		{
			"buffer":0,
			"byteLength":608,
			"byteOffset":216224,
			"target":34962
		},
		{
			"buffer":0,
			"byteLength":456,
			"byteOffset":216832,
			"target":34963
		},
		{
			"buffer":0,
			"byteLength":384,
			"byteOffset":217288,
			"target":34962
		},
		{
			"buffer":0,
			"byteLength":384,
			"byteOffset":217672,
			"target":34962
		},
		{
			"buffer":0,
			"byteLength":256,
			"byteOffset":218056,
			"target":34962
		},
		{
			"buffer":0,
			"byteLength":256,
			"byteOffset":218312,
			"target":34962
		},
		{
			"buffer":0,
			"byteLength":256,
			"byteOffset":218568,
			"target":34962
		},
		{
			"buffer":0,
			"byteLength":256,
			"byteOffset":218824,
			"target":34962
		},
		{
			"buffer":0,
			"byteLength":84,
			"byteOffset":219080,
			"target":34963
		}
	],
	"samplers":[
		{
			"magFilter":9729,
			"minFilter":9987
		}
	],
	"buffers":[
		{
			"byteLength":219164,
			"uri":"Building6.bin"
		}
	]
}
