{
	"asset":{
		"generator":"Khronos glTF Blender I/O v4.3.47",
		"version":"2.0"
	},
	"scene":0,
	"scenes":[
		{
			"name":"Scene",
			"nodes":[
				0
			]
		}
	],
	"nodes":[
		{
			"mesh":0,
			"name":"\u30c6\u30ad\u30b9\u30c8",
			"rotation":[
				0.7078837752342224,
				0,
				0,
				0.7063289880752563
			],
			"translation":[
				-0.22153125703334808,
				0.008394867181777954,
				0
			]
		}
	],
	"materials":[
		{
			"doubleSided":true,
			"name":"\u30de\u30c6\u30ea\u30a2\u30eb",
			"pbrMetallicRoughness":{
				"baseColorFactor":[
					0.988951563835144,
					1,
					0.9433988928794861,
					1
				],
				"metallicFactor":0,
				"roughnessFactor":0.536697268486023
			}
		}
	],
	"meshes":[
		{
			"name":"\u30c6\u30ad\u30b9\u30c8",
			"primitives":[
				{
					"attributes":{
						"POSITION":0,
						"NORMAL":1,
						"TEXCOORD_0":2
					},
					"indices":3,
					"material":0
				}
			]
		}
	],
	"accessors":[
		{
			"bufferView":0,
			"componentType":5126,
			"count":490,
			"max":[
				0.42600002884864807,
				0.10000000149011612,
				0.009000000543892384
			],
			"min":[
				0.04000000283122063,
				-0.10000000149011612,
				-0.6910000443458557
			],
			"type":"VEC3"
		},
		{
			"bufferView":1,
			"componentType":5126,
			"count":490,
			"type":"VEC3"
		},
		{
			"bufferView":2,
			"componentType":5126,
			"count":490,
			"type":"VEC2"
		},
		{
			"bufferView":3,
			"componentType":5123,
			"count":1452,
			"type":"SCALAR"
		}
	],
	"bufferViews":[
		{
			"buffer":0,
			"byteLength":5880,
			"byteOffset":0,
			"target":34962
		},
		{
			"buffer":0,
			"byteLength":5880,
			"byteOffset":5880,
			"target":34962
		},
		{
			"buffer":0,
			"byteLength":3920,
			"byteOffset":11760,
			"target":34962
		},
		{
			"buffer":0,
			"byteLength":2904,
			"byteOffset":15680,
			"target":34963
		}
	],
	"buffers":[
		{
			"byteLength":18584,
			"uri":"S.bin"
		}
	]
}
