{
	"asset":
	{
		"version": "2.0",
		"generator": "Unreal Engine 5.5.4"
	},
	"scene": 0,
	"accessors": [
		{
			"bufferView": 0,
			"count": 113370,
			"type": "SCALAR",
			"componentType": 5123
		},
		{
			"bufferView": 1,
			"count": 30454,
			"type": "VEC3",
			"componentType": 5126,
			"min": [ -0.0405824035, -0.0450722985, -0.210855857 ],
			"max": [ 0.0405825116, 0.0383241065, 0.0840811059 ]
		},
		{
			"bufferView": 2,
			"count": 30454,
			"type": "VEC3",
			"componentType": 5126
		},
		{
			"bufferView": 3,
			"count": 30454,
			"type": "VEC4",
			"componentType": 5126
		},
		{
			"bufferView": 4,
			"count": 30454,
			"type": "VEC2",
			"componentType": 5126
		},
		{
			"bufferView": 5,
			"count": 30454,
			"type": "VEC2",
			"componentType": 5126
		},
		{
			"bufferView": 6,
			"count": 30454,
			"type": "VEC2",
			"componentType": 5126
		},
		{
			"bufferView": 7,
			"count": 1920,
			"type": "SCALAR",
			"componentType": 5123
		},
		{
			"bufferView": 8,
			"count": 420,
			"type": "VEC3",
			"componentType": 5126,
			"min": [ -0.00924343523, -0.0186225623, -0.190566808 ],
			"max": [ 0.00991267525, 0.0264044739, 0.068827875 ]
		},
		{
			"bufferView": 9,
			"count": 420,
			"type": "VEC3",
			"componentType": 5126
		},
		{
			"bufferView": 10,
			"count": 420,
			"type": "VEC4",
			"componentType": 5126
		},
		{
			"bufferView": 11,
			"count": 420,
			"type": "VEC2",
			"componentType": 5126
		},
		{
			"bufferView": 12,
			"count": 420,
			"type": "VEC2",
			"componentType": 5126
		},
		{
			"bufferView": 13,
			"count": 420,
			"type": "VEC2",
			"componentType": 5126
		},
		{
			"bufferView": 14,
			"count": 60,
			"type": "SCALAR",
			"componentType": 5121
		},
		{
			"bufferView": 15,
			"count": 40,
			"type": "VEC3",
			"componentType": 5126,
			"min": [ -0.00335339364, -0.0219743345, 0.0802828223 ],
			"max": [ 0.00332512381, 0.013939403, 0.0911981538 ]
		},
		{
			"bufferView": 16,
			"count": 40,
			"type": "VEC3",
			"componentType": 5126
		},
		{
			"bufferView": 17,
			"count": 40,
			"type": "VEC4",
			"componentType": 5126
		},
		{
			"bufferView": 18,
			"count": 40,
			"type": "VEC2",
			"componentType": 5126
		},
		{
			"bufferView": 19,
			"count": 40,
			"type": "VEC2",
			"componentType": 5126
		},
		{
			"bufferView": 20,
			"count": 40,
			"type": "VEC2",
			"componentType": 5126
		},
		{
			"bufferView": 21,
			"count": 55932,
			"type": "SCALAR",
			"componentType": 5123
		},
		{
			"bufferView": 22,
			"count": 11888,
			"type": "VEC3",
			"componentType": 5126,
			"min": [ -0.00280597364, -0.0221835878, 0.0838674605 ],
			"max": [ 0.00277954759, 0.0727822557, 0.987939 ]
		},
		{
			"bufferView": 23,
			"count": 11888,
			"type": "VEC3",
			"componentType": 5126
		},
		{
			"bufferView": 24,
			"count": 11888,
			"type": "VEC4",
			"componentType": 5126
		},
		{
			"bufferView": 25,
			"count": 11888,
			"type": "VEC2",
			"componentType": 5126
		},
		{
			"bufferView": 26,
			"count": 11888,
			"type": "VEC2",
			"componentType": 5126
		},
		{
			"bufferView": 27,
			"count": 11888,
			"type": "VEC2",
			"componentType": 5126
		}
	],
	"buffers": [
		{
			"uri": "katana.bin",
			"byteLength": 3081832
		}
	],
	"bufferViews": [
		{
			"buffer": 0,
			"byteLength": 226740,
			"target": 34963
		},
		{
			"buffer": 0,
			"byteLength": 365448,
			"byteOffset": 226740,
			"target": 34962
		},
		{
			"buffer": 0,
			"byteLength": 365448,
			"byteOffset": 592188,
			"target": 34962
		},
		{
			"buffer": 0,
			"byteLength": 487264,
			"byteOffset": 957636,
			"target": 34962
		},
		{
			"buffer": 0,
			"byteLength": 243632,
			"byteOffset": 1444900,
			"target": 34962
		},
		{
			"buffer": 0,
			"byteLength": 243632,
			"byteOffset": 1688532,
			"target": 34962
		},
		{
			"buffer": 0,
			"byteLength": 243632,
			"byteOffset": 1932164,
			"target": 34962
		},
		{
			"buffer": 0,
			"byteLength": 3840,
			"byteOffset": 2175796,
			"target": 34963
		},
		{
			"buffer": 0,
			"byteLength": 5040,
			"byteOffset": 2179636,
			"target": 34962
		},
		{
			"buffer": 0,
			"byteLength": 5040,
			"byteOffset": 2184676,
			"target": 34962
		},
		{
			"buffer": 0,
			"byteLength": 6720,
			"byteOffset": 2189716,
			"target": 34962
		},
		{
			"buffer": 0,
			"byteLength": 3360,
			"byteOffset": 2196436,
			"target": 34962
		},
		{
			"buffer": 0,
			"byteLength": 3360,
			"byteOffset": 2199796,
			"target": 34962
		},
		{
			"buffer": 0,
			"byteLength": 3360,
			"byteOffset": 2203156,
			"target": 34962
		},
		{
			"buffer": 0,
			"byteLength": 60,
			"byteOffset": 2206516,
			"target": 34963
		},
		{
			"buffer": 0,
			"byteLength": 480,
			"byteOffset": 2206576,
			"target": 34962
		},
		{
			"buffer": 0,
			"byteLength": 480,
			"byteOffset": 2207056,
			"target": 34962
		},
		{
			"buffer": 0,
			"byteLength": 640,
			"byteOffset": 2207536,
			"target": 34962
		},
		{
			"buffer": 0,
			"byteLength": 320,
			"byteOffset": 2208176,
			"target": 34962
		},
		{
			"buffer": 0,
			"byteLength": 320,
			"byteOffset": 2208496,
			"target": 34962
		},
		{
			"buffer": 0,
			"byteLength": 320,
			"byteOffset": 2208816,
			"target": 34962
		},
		{
			"buffer": 0,
			"byteLength": 111864,
			"byteOffset": 2209136,
			"target": 34963
		},
		{
			"buffer": 0,
			"byteLength": 142656,
			"byteOffset": 2321000,
			"target": 34962
		},
		{
			"buffer": 0,
			"byteLength": 142656,
			"byteOffset": 2463656,
			"target": 34962
		},
		{
			"buffer": 0,
			"byteLength": 190208,
			"byteOffset": 2606312,
			"target": 34962
		},
		{
			"buffer": 0,
			"byteLength": 95104,
			"byteOffset": 2796520,
			"target": 34962
		},
		{
			"buffer": 0,
			"byteLength": 95104,
			"byteOffset": 2891624,
			"target": 34962
		},
		{
			"buffer": 0,
			"byteLength": 95104,
			"byteOffset": 2986728,
			"target": 34962
		}
	],
	"materials": [
		{
			"name": "Mat_Weapon",
			"pbrMetallicRoughness":
			{
				"baseColorFactor": [ 0.020833334, 0.020833334, 0.020833334, 1 ],
				"metallicFactor": 0,
				"roughnessFactor": 0.5
			},
			"doubleSided": true
		},
		{
			"name": "Mat_Weapon_2",
			"pbrMetallicRoughness":
			{
				"baseColorFactor": [ 0.75, 0.75, 0.75, 1 ],
				"metallicFactor": 0,
				"roughnessFactor": 0.5
			},
			"doubleSided": true
		},
		{
			"name": "Mat_Weapon_3",
			"pbrMetallicRoughness":
			{
				"baseColorFactor": [ 0.770833313, 0.739063203, 0.405490398, 1 ],
				"metallicFactor": 0,
				"roughnessFactor": 0.5
			},
			"doubleSided": true
		}
	],
	"meshes": [
		{
			"name": "SM_Katana01",
			"primitives": [
				{
					"attributes":
					{
						"POSITION": 1,
						"NORMAL": 2,
						"TANGENT": 3,
						"TEXCOORD_0": 4,
						"TEXCOORD_1": 5,
						"TEXCOORD_2": 6
					},
					"indices": 0,
					"material": 0
				},
				{
					"attributes":
					{
						"POSITION": 8,
						"NORMAL": 9,
						"TANGENT": 10,
						"TEXCOORD_0": 11,
						"TEXCOORD_1": 12,
						"TEXCOORD_2": 13
					},
					"indices": 7,
					"material": 1
				},
				{
					"attributes":
					{
						"POSITION": 15,
						"NORMAL": 16,
						"TANGENT": 17,
						"TEXCOORD_0": 18,
						"TEXCOORD_1": 19,
						"TEXCOORD_2": 20
					},
					"indices": 14,
					"material": 2
				},
				{
					"attributes":
					{
						"POSITION": 22,
						"NORMAL": 23,
						"TANGENT": 24,
						"TEXCOORD_0": 25,
						"TEXCOORD_1": 26,
						"TEXCOORD_2": 27
					},
					"indices": 21,
					"material": 1
				}
			]
		}
	],
	"nodes": [
		{
			"name": "SM_Katana01",
			"mesh": 0
		}
	],
	"scenes": [
		{
			"name": "Map_Main",
			"nodes": [ 0 ]
		}
	]
}