{
	"asset":{
		"generator":"Khronos glTF Blender I/O v4.3.47",
		"version":"2.0"
	},
	"scene":0,
	"scenes":[
		{
			"name":"Scene",
			"nodes":[
				0
			]
		}
	],
	"nodes":[
		{
			"mesh":0,
			"name":"SM_Skyscraper_01"
		}
	],
	"materials":[
		{
			"doubleSided":true,
			"name":"M_PlasterWall",
			"pbrMetallicRoughness":{
				"baseColorTexture":{
					"index":0
				},
				"metallicFactor":0,
				"roughnessFactor":0.5527864098548889
			}
		},
		{
			"doubleSided":true,
			"name":"Window01.009",
			"pbrMetallicRoughness":{
				"metallicFactor":0,
				"roughnessFactor":0.5527864098548889
			}
		},
		{
			"doubleSided":true,
			"name":"M_BuildingAtlas_01.010",
			"pbrMetallicRoughness":{
				"baseColorTexture":{
					"index":1
				},
				"metallicFactor":0,
				"roughnessFactor":0.5527864098548889
			}
		},
		{
			"doubleSided":true,
			"name":"M_Glow_Yellow.002",
			"pbrMetallicRoughness":{
				"baseColorFactor":[
					1,
					0.9350790977478027,
					0.14641284942626953,
					1
				],
				"metallicFactor":0,
				"roughnessFactor":0.5527864098548889
			}
		},
		{
			"doubleSided":true,
			"name":"Window01_bright.005",
			"pbrMetallicRoughness":{
				"baseColorFactor":[
					0.4536985754966736,
					0.4536985754966736,
					0.4536985754966736,
					1
				],
				"metallicFactor":0,
				"roughnessFactor":0.5527864098548889
			}
		}
	],
	"meshes":[
		{
			"name":"Scene.063",
			"primitives":[
				{
					"attributes":{
						"POSITION":0,
						"NORMAL":1,
						"TEXCOORD_0":2,
						"TEXCOORD_1":3,
						"TEXCOORD_2":4,
						"TEXCOORD_3":5
					},
					"indices":6,
					"material":0
				},
				{
					"attributes":{
						"POSITION":7,
						"NORMAL":8,
						"TEXCOORD_0":9,
						"TEXCOORD_1":10,
						"TEXCOORD_2":11,
						"TEXCOORD_3":12
					},
					"indices":13,
					"material":1
				},
				{
					"attributes":{
						"POSITION":14,
						"NORMAL":15,
						"TEXCOORD_0":16,
						"TEXCOORD_1":17,
						"TEXCOORD_2":18,
						"TEXCOORD_3":19
					},
					"indices":20,
					"material":2
				},
				{
					"attributes":{
						"POSITION":21,
						"NORMAL":22,
						"TEXCOORD_0":23,
						"TEXCOORD_1":24,
						"TEXCOORD_2":25,
						"TEXCOORD_3":26
					},
					"indices":27,
					"material":3
				},
				{
					"attributes":{
						"POSITION":28,
						"NORMAL":29,
						"TEXCOORD_0":30,
						"TEXCOORD_1":31,
						"TEXCOORD_2":32,
						"TEXCOORD_3":33
					},
					"indices":34,
					"material":4
				}
			]
		}
	],
	"textures":[
		{
			"sampler":0,
			"source":0
		},
		{
			"sampler":0,
			"source":1
		}
	],
	"images":[
		{
			"mimeType":"image/png",
			"name":"parplr",
			"uri":"parplr.png"
		},
		{
			"mimeType":"image/png",
			"name":"T_BuildingAtlas_01_BC",
			"uri":"T_BuildingAtlas_01_BC.png"
		}
	],
	"accessors":[
		{
			"bufferView":0,
			"componentType":5126,
			"count":977,
			"max":[
				12.500036239624023,
				118.16081237792969,
				19.316871643066406
			],
			"min":[
				-12.500036239624023,
				-0.15119893848896027,
				-21.229095458984375
			],
			"type":"VEC3"
		},
		{
			"bufferView":1,
			"componentType":5126,
			"count":977,
			"type":"VEC3"
		},
		{
			"bufferView":2,
			"componentType":5126,
			"count":977,
			"type":"VEC2"
		},
		{
			"bufferView":3,
			"componentType":5126,
			"count":977,
			"type":"VEC2"
		},
		{
			"bufferView":4,
			"componentType":5126,
			"count":977,
			"type":"VEC2"
		},
		{
			"bufferView":5,
			"componentType":5126,
			"count":977,
			"type":"VEC2"
		},
		{
			"bufferView":6,
			"componentType":5123,
			"count":2115,
			"type":"SCALAR"
		},
		{
			"bufferView":7,
			"componentType":5126,
			"count":123,
			"max":[
				12.370849609375,
				98.67790985107422,
				17.047971725463867
			],
			"min":[
				-12.370849609375,
				-3.90314198739361e-07,
				-17.0479736328125
			],
			"type":"VEC3"
		},
		{
			"bufferView":8,
			"componentType":5126,
			"count":123,
			"type":"VEC3"
		},
		{
			"bufferView":9,
			"componentType":5126,
			"count":123,
			"type":"VEC2"
		},
		{
			"bufferView":10,
			"componentType":5126,
			"count":123,
			"type":"VEC2"
		},
		{
			"bufferView":11,
			"componentType":5126,
			"count":123,
			"type":"VEC2"
		},
		{
			"bufferView":12,
			"componentType":5126,
			"count":123,
			"type":"VEC2"
		},
		{
			"bufferView":13,
			"componentType":5123,
			"count":156,
			"type":"SCALAR"
		},
		{
			"bufferView":14,
			"componentType":5126,
			"count":2471,
			"max":[
				12.800503730773926,
				118.6844253540039,
				20.726871490478516
			],
			"min":[
				-12.800503730773926,
				-0.2567511796951294,
				-21.709901809692383
			],
			"type":"VEC3"
		},
		{
			"bufferView":15,
			"componentType":5126,
			"count":2471,
			"type":"VEC3"
		},
		{
			"bufferView":16,
			"componentType":5126,
			"count":2471,
			"type":"VEC2"
		},
		{
			"bufferView":17,
			"componentType":5126,
			"count":2471,
			"type":"VEC2"
		},
		{
			"bufferView":18,
			"componentType":5126,
			"count":2471,
			"type":"VEC2"
		},
		{
			"bufferView":19,
			"componentType":5126,
			"count":2471,
			"type":"VEC2"
		},
		{
			"bufferView":20,
			"componentType":5123,
			"count":6912,
			"type":"SCALAR"
		},
		{
			"bufferView":21,
			"componentType":5126,
			"count":76,
			"max":[
				9.433063507080078,
				86.71146392822266,
				-17.623592376708984
			],
			"min":[
				-9.433063507080078,
				-0.12268876284360886,
				-21.229095458984375
			],
			"type":"VEC3"
		},
		{
			"bufferView":22,
			"componentType":5126,
			"count":76,
			"type":"VEC3"
		},
		{
			"bufferView":23,
			"componentType":5126,
			"count":76,
			"type":"VEC2"
		},
		{
			"bufferView":24,
			"componentType":5126,
			"count":76,
			"type":"VEC2"
		},
		{
			"bufferView":25,
			"componentType":5126,
			"count":76,
			"type":"VEC2"
		},
		{
			"bufferView":26,
			"componentType":5126,
			"count":76,
			"type":"VEC2"
		},
		{
			"bufferView":27,
			"componentType":5123,
			"count":228,
			"type":"SCALAR"
		},
		{
			"bufferView":28,
			"componentType":5126,
			"count":32,
			"max":[
				12.370849609375,
				84.50582885742188,
				17.047971725463867
			],
			"min":[
				-12.370849609375,
				-2.8060071599611547e-07,
				-17.047975540161133
			],
			"type":"VEC3"
		},
		{
			"bufferView":29,
			"componentType":5126,
			"count":32,
			"type":"VEC3"
		},
		{
			"bufferView":30,
			"componentType":5126,
			"count":32,
			"type":"VEC2"
		},
		{
			"bufferView":31,
			"componentType":5126,
			"count":32,
			"type":"VEC2"
		},
		{
			"bufferView":32,
			"componentType":5126,
			"count":32,
			"type":"VEC2"
		},
		{
			"bufferView":33,
			"componentType":5126,
			"count":32,
			"type":"VEC2"
		},
		{
			"bufferView":34,
			"componentType":5123,
			"count":42,
			"type":"SCALAR"
		}
	],
	"bufferViews":[
		{
			"buffer":0,
			"byteLength":11724,
			"byteOffset":0,
			"target":34962
		},
		{
			"buffer":0,
			"byteLength":11724,
			"byteOffset":11724,
			"target":34962
		},
		{
			"buffer":0,
			"byteLength":7816,
			"byteOffset":23448,
			"target":34962
		},
		{
			"buffer":0,
			"byteLength":7816,
			"byteOffset":31264,
			"target":34962
		},
		{
			"buffer":0,
			"byteLength":7816,
			"byteOffset":39080,
			"target":34962
		},
		{
			"buffer":0,
			"byteLength":7816,
			"byteOffset":46896,
			"target":34962
		},
		{
			"buffer":0,
			"byteLength":4230,
			"byteOffset":54712,
			"target":34963
		},
		{
			"buffer":0,
			"byteLength":1476,
			"byteOffset":58944,
			"target":34962
		},
		{
			"buffer":0,
			"byteLength":1476,
			"byteOffset":60420,
			"target":34962
		},
		{
			"buffer":0,
			"byteLength":984,
			"byteOffset":61896,
			"target":34962
		},
		{
			"buffer":0,
			"byteLength":984,
			"byteOffset":62880,
			"target":34962
		},
		{
			"buffer":0,
			"byteLength":984,
			"byteOffset":63864,
			"target":34962
		},
		{
			"buffer":0,
			"byteLength":984,
			"byteOffset":64848,
			"target":34962
		},
		{
			"buffer":0,
			"byteLength":312,
			"byteOffset":65832,
			"target":34963
		},
		{
			"buffer":0,
			"byteLength":29652,
			"byteOffset":66144,
			"target":34962
		},
		{
			"buffer":0,
			"byteLength":29652,
			"byteOffset":95796,
			"target":34962
		},
		{
			"buffer":0,
			"byteLength":19768,
			"byteOffset":125448,
			"target":34962
		},
		{
			"buffer":0,
			"byteLength":19768,
			"byteOffset":145216,
			"target":34962
		},
		{
			"buffer":0,
			"byteLength":19768,
			"byteOffset":164984,
			"target":34962
		},
		{
			"buffer":0,
			"byteLength":19768,
			"byteOffset":184752,
			"target":34962
		},
		{
			"buffer":0,
			"byteLength":13824,
			"byteOffset":204520,
			"target":34963
		},
		{
			"buffer":0,
			"byteLength":912,
			"byteOffset":218344,
			"target":34962
		},
		{
			"buffer":0,
			"byteLength":912,
			"byteOffset":219256,
			"target":34962
		},
		{
			"buffer":0,
			"byteLength":608,
			"byteOffset":220168,
			"target":34962
		},
		{
			"buffer":0,
			"byteLength":608,
			"byteOffset":220776,
			"target":34962
		},
		{
			"buffer":0,
			"byteLength":608,
			"byteOffset":221384,
			"target":34962
		},
		{
			"buffer":0,
			"byteLength":608,
			"byteOffset":221992,
			"target":34962
		},
		{
			"buffer":0,
			"byteLength":456,
			"byteOffset":222600,
			"target":34963
		},
		{
			"buffer":0,
			"byteLength":384,
			"byteOffset":223056,
			"target":34962
		},
		{
			"buffer":0,
			"byteLength":384,
			"byteOffset":223440,
			"target":34962
		},
		{
			"buffer":0,
			"byteLength":256,
			"byteOffset":223824,
			"target":34962
		},
		{
			"buffer":0,
			"byteLength":256,
			"byteOffset":224080,
			"target":34962
		},
		{
			"buffer":0,
			"byteLength":256,
			"byteOffset":224336,
			"target":34962
		},
		{
			"buffer":0,
			"byteLength":256,
			"byteOffset":224592,
			"target":34962
		},
		{
			"buffer":0,
			"byteLength":84,
			"byteOffset":224848,
			"target":34963
		}
	],
	"samplers":[
		{
			"magFilter":9729,
			"minFilter":9987
		}
	],
	"buffers":[
		{
			"byteLength":224932,
			"uri":"Building6.bin"
		}
	]
}
