{
	"asset":{
		"generator":"Khronos glTF Blender I/O v4.3.47",
		"version":"2.0"
	},
	"scene":0,
	"scenes":[
		{
			"name":"Scene",
			"nodes":[
				0
			]
		}
	],
	"nodes":[
		{
			"mesh":0,
			"name":"SM_Skyscraper_03"
		}
	],
	"materials":[
		{
			"doubleSided":true,
			"name":"M_Tile_SteeleTiles",
			"pbrMetallicRoughness":{
				"baseColorTexture":{
					"index":0
				},
				"metallicFactor":0,
				"roughnessFactor":0.5527864098548889
			}
		},
		{
			"doubleSided":true,
			"name":"Window01.002",
			"pbrMetallicRoughness":{
				"metallicFactor":0,
				"roughnessFactor":0.5527864098548889
			}
		},
		{
			"doubleSided":true,
			"name":"M_BuildingAtlas_01.001",
			"pbrMetallicRoughness":{
				"baseColorTexture":{
					"index":1
				},
				"metallicFactor":0,
				"roughnessFactor":0.5527864098548889
			}
		},
		{
			"doubleSided":true,
			"name":"M_Glow_Orange",
			"pbrMetallicRoughness":{
				"baseColorFactor":[
					0.9706500768661499,
					1,
					0,
					1
				],
				"metallicFactor":0,
				"roughnessFactor":0.5527864098548889
			}
		},
		{
			"doubleSided":true,
			"name":"M_Tile_ConcreteSlabs",
			"pbrMetallicRoughness":{
				"baseColorTexture":{
					"index":2
				},
				"metallicFactor":0,
				"roughnessFactor":0.5527864098548889
			}
		},
		{
			"doubleSided":true,
			"name":"Window01_bright.002",
			"pbrMetallicRoughness":{
				"metallicFactor":0,
				"roughnessFactor":0.5527864098548889
			}
		}
	],
	"meshes":[
		{
			"name":"Scene.002",
			"primitives":[
				{
					"attributes":{
						"POSITION":0,
						"NORMAL":1,
						"TEXCOORD_0":2,
						"TEXCOORD_1":3,
						"TEXCOORD_2":4,
						"TEXCOORD_3":5
					},
					"indices":6,
					"material":0
				},
				{
					"attributes":{
						"POSITION":7,
						"NORMAL":8,
						"TEXCOORD_0":9,
						"TEXCOORD_1":10,
						"TEXCOORD_2":11,
						"TEXCOORD_3":12
					},
					"indices":13,
					"material":1
				},
				{
					"attributes":{
						"POSITION":14,
						"NORMAL":15,
						"TEXCOORD_0":16,
						"TEXCOORD_1":17,
						"TEXCOORD_2":18,
						"TEXCOORD_3":19
					},
					"indices":20,
					"material":2
				},
				{
					"attributes":{
						"POSITION":21,
						"NORMAL":22,
						"TEXCOORD_0":23,
						"TEXCOORD_1":24,
						"TEXCOORD_2":25,
						"TEXCOORD_3":26
					},
					"indices":27,
					"material":3
				},
				{
					"attributes":{
						"POSITION":28,
						"NORMAL":29,
						"TEXCOORD_0":30,
						"TEXCOORD_1":31,
						"TEXCOORD_2":32,
						"TEXCOORD_3":33
					},
					"indices":34,
					"material":4
				},
				{
					"attributes":{
						"POSITION":35,
						"NORMAL":36,
						"TEXCOORD_0":37,
						"TEXCOORD_1":38,
						"TEXCOORD_2":39,
						"TEXCOORD_3":40
					},
					"indices":41,
					"material":5
				}
			]
		}
	],
	"textures":[
		{
			"sampler":0,
			"source":0
		},
		{
			"sampler":0,
			"source":1
		},
		{
			"sampler":0,
			"source":2
		}
	],
	"images":[
		{
			"mimeType":"image/png",
			"name":"T_Tile_SteelTiles_BC",
			"uri":"T_Tile_SteelTiles_BC.png"
		},
		{
			"mimeType":"image/png",
			"name":"T_BuildingAtlas_01_BC",
			"uri":"T_BuildingAtlas_01_BC.png"
		},
		{
			"mimeType":"image/png",
			"name":"T_Tile_ConcreteSlabs_BC",
			"uri":"T_Tile_ConcreteSlabs_BC.png"
		}
	],
	"accessors":[
		{
			"bufferView":0,
			"componentType":5126,
			"count":576,
			"max":[
				24.40721321105957,
				189.29046630859375,
				30.855026245117188
			],
			"min":[
				-24.407318115234375,
				-0.5137423276901245,
				-31.0557804107666
			],
			"type":"VEC3"
		},
		{
			"bufferView":1,
			"componentType":5126,
			"count":576,
			"type":"VEC3"
		},
		{
			"bufferView":2,
			"componentType":5126,
			"count":576,
			"type":"VEC2"
		},
		{
			"bufferView":3,
			"componentType":5126,
			"count":576,
			"type":"VEC2"
		},
		{
			"bufferView":4,
			"componentType":5126,
			"count":576,
			"type":"VEC2"
		},
		{
			"bufferView":5,
			"componentType":5126,
			"count":576,
			"type":"VEC2"
		},
		{
			"bufferView":6,
			"componentType":5123,
			"count":1125,
			"type":"SCALAR"
		},
		{
			"bufferView":7,
			"componentType":5126,
			"count":558,
			"max":[
				22.76863670349121,
				181.3101348876953,
				30.85504722595215
			],
			"min":[
				-22.768714904785156,
				-0.4953279495239258,
				-30.027713775634766
			],
			"type":"VEC3"
		},
		{
			"bufferView":8,
			"componentType":5126,
			"count":558,
			"type":"VEC3"
		},
		{
			"bufferView":9,
			"componentType":5126,
			"count":558,
			"type":"VEC2"
		},
		{
			"bufferView":10,
			"componentType":5126,
			"count":558,
			"type":"VEC2"
		},
		{
			"bufferView":11,
			"componentType":5126,
			"count":558,
			"type":"VEC2"
		},
		{
			"bufferView":12,
			"componentType":5126,
			"count":558,
			"type":"VEC2"
		},
		{
			"bufferView":13,
			"componentType":5123,
			"count":984,
			"type":"SCALAR"
		},
		{
			"bufferView":14,
			"componentType":5126,
			"count":2694,
			"max":[
				26.177501678466797,
				188.7058563232422,
				31.015392303466797
			],
			"min":[
				-22.929107666015625,
				0.7788531184196472,
				-32.410701751708984
			],
			"type":"VEC3"
		},
		{
			"bufferView":15,
			"componentType":5126,
			"count":2694,
			"type":"VEC3"
		},
		{
			"bufferView":16,
			"componentType":5126,
			"count":2694,
			"type":"VEC2"
		},
		{
			"bufferView":17,
			"componentType":5126,
			"count":2694,
			"type":"VEC2"
		},
		{
			"bufferView":18,
			"componentType":5126,
			"count":2694,
			"type":"VEC2"
		},
		{
			"bufferView":19,
			"componentType":5126,
			"count":2694,
			"type":"VEC2"
		},
		{
			"bufferView":20,
			"componentType":5123,
			"count":5730,
			"type":"SCALAR"
		},
		{
			"bufferView":21,
			"componentType":5126,
			"count":101,
			"max":[
				-24.153125762939453,
				187.55987548828125,
				3.1360726356506348
			],
			"min":[
				-24.972070693969727,
				-0.495339572429657,
				-19.99321746826172
			],
			"type":"VEC3"
		},
		{
			"bufferView":22,
			"componentType":5126,
			"count":101,
			"type":"VEC3"
		},
		{
			"bufferView":23,
			"componentType":5126,
			"count":101,
			"type":"VEC2"
		},
		{
			"bufferView":24,
			"componentType":5126,
			"count":101,
			"type":"VEC2"
		},
		{
			"bufferView":25,
			"componentType":5126,
			"count":101,
			"type":"VEC2"
		},
		{
			"bufferView":26,
			"componentType":5126,
			"count":101,
			"type":"VEC2"
		},
		{
			"bufferView":27,
			"componentType":5123,
			"count":228,
			"type":"SCALAR"
		},
		{
			"bufferView":28,
			"componentType":5126,
			"count":386,
			"max":[
				25.037620544433594,
				193.6279754638672,
				32.12615203857422
			],
			"min":[
				-25.037635803222656,
				-0.8460820913314819,
				-31.426036834716797
			],
			"type":"VEC3"
		},
		{
			"bufferView":29,
			"componentType":5126,
			"count":386,
			"type":"VEC3"
		},
		{
			"bufferView":30,
			"componentType":5126,
			"count":386,
			"type":"VEC2"
		},
		{
			"bufferView":31,
			"componentType":5126,
			"count":386,
			"type":"VEC2"
		},
		{
			"bufferView":32,
			"componentType":5126,
			"count":386,
			"type":"VEC2"
		},
		{
			"bufferView":33,
			"componentType":5126,
			"count":386,
			"type":"VEC2"
		},
		{
			"bufferView":34,
			"componentType":5123,
			"count":1077,
			"type":"SCALAR"
		},
		{
			"bufferView":35,
			"componentType":5126,
			"count":75,
			"max":[
				22.755901336669922,
				155.337890625,
				30.854917526245117
			],
			"min":[
				-18.67567253112793,
				18.75960922241211,
				-30.027698516845703
			],
			"type":"VEC3"
		},
		{
			"bufferView":36,
			"componentType":5126,
			"count":75,
			"type":"VEC3"
		},
		{
			"bufferView":37,
			"componentType":5126,
			"count":75,
			"type":"VEC2"
		},
		{
			"bufferView":38,
			"componentType":5126,
			"count":75,
			"type":"VEC2"
		},
		{
			"bufferView":39,
			"componentType":5126,
			"count":75,
			"type":"VEC2"
		},
		{
			"bufferView":40,
			"componentType":5126,
			"count":75,
			"type":"VEC2"
		},
		{
			"bufferView":41,
			"componentType":5123,
			"count":123,
			"type":"SCALAR"
		}
	],
	"bufferViews":[
		{
			"buffer":0,
			"byteLength":6912,
			"byteOffset":0,
			"target":34962
		},
		{
			"buffer":0,
			"byteLength":6912,
			"byteOffset":6912,
			"target":34962
		},
		{
			"buffer":0,
			"byteLength":4608,
			"byteOffset":13824,
			"target":34962
		},
		{
			"buffer":0,
			"byteLength":4608,
			"byteOffset":18432,
			"target":34962
		},
		{
			"buffer":0,
			"byteLength":4608,
			"byteOffset":23040,
			"target":34962
		},
		{
			"buffer":0,
			"byteLength":4608,
			"byteOffset":27648,
			"target":34962
		},
		{
			"buffer":0,
			"byteLength":2250,
			"byteOffset":32256,
			"target":34963
		},
		{
			"buffer":0,
			"byteLength":6696,
			"byteOffset":34508,
			"target":34962
		},
		{
			"buffer":0,
			"byteLength":6696,
			"byteOffset":41204,
			"target":34962
		},
		{
			"buffer":0,
			"byteLength":4464,
			"byteOffset":47900,
			"target":34962
		},
		{
			"buffer":0,
			"byteLength":4464,
			"byteOffset":52364,
			"target":34962
		},
		{
			"buffer":0,
			"byteLength":4464,
			"byteOffset":56828,
			"target":34962
		},
		{
			"buffer":0,
			"byteLength":4464,
			"byteOffset":61292,
			"target":34962
		},
		{
			"buffer":0,
			"byteLength":1968,
			"byteOffset":65756,
			"target":34963
		},
		{
			"buffer":0,
			"byteLength":32328,
			"byteOffset":67724,
			"target":34962
		},
		{
			"buffer":0,
			"byteLength":32328,
			"byteOffset":100052,
			"target":34962
		},
		{
			"buffer":0,
			"byteLength":21552,
			"byteOffset":132380,
			"target":34962
		},
		{
			"buffer":0,
			"byteLength":21552,
			"byteOffset":153932,
			"target":34962
		},
		{
			"buffer":0,
			"byteLength":21552,
			"byteOffset":175484,
			"target":34962
		},
		{
			"buffer":0,
			"byteLength":21552,
			"byteOffset":197036,
			"target":34962
		},
		{
			"buffer":0,
			"byteLength":11460,
			"byteOffset":218588,
			"target":34963
		},
		{
			"buffer":0,
			"byteLength":1212,
			"byteOffset":230048,
			"target":34962
		},
		{
			"buffer":0,
			"byteLength":1212,
			"byteOffset":231260,
			"target":34962
		},
		{
			"buffer":0,
			"byteLength":808,
			"byteOffset":232472,
			"target":34962
		},
		{
			"buffer":0,
			"byteLength":808,
			"byteOffset":233280,
			"target":34962
		},
		{
			"buffer":0,
			"byteLength":808,
			"byteOffset":234088,
			"target":34962
		},
		{
			"buffer":0,
			"byteLength":808,
			"byteOffset":234896,
			"target":34962
		},
		{
			"buffer":0,
			"byteLength":456,
			"byteOffset":235704,
			"target":34963
		},
		{
			"buffer":0,
			"byteLength":4632,
			"byteOffset":236160,
			"target":34962
		},
		{
			"buffer":0,
			"byteLength":4632,
			"byteOffset":240792,
			"target":34962
		},
		{
			"buffer":0,
			"byteLength":3088,
			"byteOffset":245424,
			"target":34962
		},
		{
			"buffer":0,
			"byteLength":3088,
			"byteOffset":248512,
			"target":34962
		},
		{
			"buffer":0,
			"byteLength":3088,
			"byteOffset":251600,
			"target":34962
		},
		{
			"buffer":0,
			"byteLength":3088,
			"byteOffset":254688,
			"target":34962
		},
		{
			"buffer":0,
			"byteLength":2154,
			"byteOffset":257776,
			"target":34963
		},
		{
			"buffer":0,
			"byteLength":900,
			"byteOffset":259932,
			"target":34962
		},
		{
			"buffer":0,
			"byteLength":900,
			"byteOffset":260832,
			"target":34962
		},
		{
			"buffer":0,
			"byteLength":600,
			"byteOffset":261732,
			"target":34962
		},
		{
			"buffer":0,
			"byteLength":600,
			"byteOffset":262332,
			"target":34962
		},
		{
			"buffer":0,
			"byteLength":600,
			"byteOffset":262932,
			"target":34962
		},
		{
			"buffer":0,
			"byteLength":600,
			"byteOffset":263532,
			"target":34962
		},
		{
			"buffer":0,
			"byteLength":246,
			"byteOffset":264132,
			"target":34963
		}
	],
	"samplers":[
		{
			"magFilter":9729,
			"minFilter":9987
		}
	],
	"buffers":[
		{
			"byteLength":264380,
			"uri":"B11.bin"
		}
	]
}
