{
	"asset":{
		"generator":"Khronos glTF Blender I/O v4.3.47",
		"version":"2.0"
	},
	"scene":0,
	"scenes":[
		{
			"name":"Scene",
			"nodes":[
				16
			]
		}
	],
	"nodes":[
		{
			"mesh":0,
			"name":"SM_food_bottle"
		},
		{
			"mesh":1,
			"name":"SM_food_can",
			"rotation":[
				0,
				0,
				-0.2164401262998581,
				0.9762959480285645
			],
			"translation":[
				0,
				10.000038146972656,
				-135.68199157714844
			]
		},
		{
			"mesh":2,
			"name":"SM_food_candy",
			"translation":[
				-19.999696731567383,
				11.000061988830566,
				-155.5325469970703
			]
		},
		{
			"mesh":2,
			"name":"SM_food_candy_1",
			"translation":[
				19.999696731567383,
				11.000061988830566,
				-115.21878051757812
			]
		},
		{
			"mesh":3,
			"name":"SM_food_pack_02",
			"translation":[
				-19.999696731567383,
				0,
				-115.50293731689453
			]
		},
		{
			"mesh":4,
			"name":"SM_food_pack_03",
			"translation":[
				0,
				11.00006103515625,
				-155.9434814453125
			]
		},
		{
			"mesh":4,
			"name":"SM_food_pack_03_1",
			"translation":[
				-19.99969482421875,
				11.00006103515625,
				-95.5006332397461
			]
		},
		{
			"mesh":4,
			"name":"SM_food_pack_03_2",
			"translation":[
				19.99969482421875,
				0,
				-155.3443145751953
			]
		},
		{
			"mesh":5,
			"name":"SM_food_pack_04",
			"translation":[
				19.000246047973633,
				12.999917984008789,
				-135.28009033203125
			]
		},
		{
			"mesh":5,
			"name":"SM_food_pack_04_1",
			"translation":[
				0,
				12.999917030334473,
				-95.30682373046875
			]
		},
		{
			"mesh":6,
			"name":"SM_food_soupe",
			"translation":[
				-19.99969482421875,
				10.000039100646973,
				-135.75936889648438
			]
		},
		{
			"mesh":6,
			"name":"SM_food_soupe_1",
			"translation":[
				0,
				10.000039100646973,
				-115.62324523925781
			]
		},
		{
			"mesh":6,
			"name":"SM_food_soupe_2",
			"translation":[
				19.99969482421875,
				10.000038146972656,
				-95.67723083496094
			]
		},
		{
			"mesh":7,
			"name":"SM_FoodVendingMachine"
		},
		{
			"mesh":8,
			"name":"SM_FoodVendingMachinePart01",
			"translation":[
				0,
				2.0000457763671875,
				-196.00009155273438
			]
		},
		{
			"mesh":9,
			"name":"SM_FoodVendingMachinePart02",
			"translation":[
				-51.00021743774414,
				44.99988555908203,
				-212.0000762939453
			]
		},
		{
			"children":[
				0,
				1,
				2,
				3,
				4,
				5,
				6,
				7,
				8,
				9,
				10,
				11,
				12,
				13,
				14,
				15
			],
			"name":"P_FoodVendingMachine_A",
			"rotation":[
				0.6272114515304565,
				-0.32650551199913025,
				0.32650554180145264,
				0.6272113919258118
			],
			"scale":[
				0.009999999776482582,
				0.009999999776482582,
				0.009999999776482582
			]
		}
	],
	"materials":[
		{
			"doubleSided":true,
			"name":"M_Food01",
			"pbrMetallicRoughness":{
				"baseColorTexture":{
					"index":0
				},
				"metallicFactor":0,
				"roughnessFactor":0.5527864098548889
			}
		},
		{
			"doubleSided":true,
			"name":"M_Vending01",
			"pbrMetallicRoughness":{
				"baseColorTexture":{
					"index":1
				},
				"metallicFactor":0,
				"roughnessFactor":0.5527864098548889
			}
		},
		{
			"alphaMode":"BLEND",
			"doubleSided":true,
			"name":"M_Glass",
			"pbrMetallicRoughness":{
				"baseColorFactor":[
					1,
					1,
					1,
					0.5
				],
				"baseColorTexture":{
					"index":2
				},
				"metallicFactor":0,
				"roughnessFactor":0.44269466400146484
			}
		}
	],
	"meshes":[
		{
			"name":"Scene.004",
			"primitives":[
				{
					"attributes":{
						"POSITION":0,
						"NORMAL":1,
						"TEXCOORD_0":2,
						"COLOR_0":3,
						"COLOR_1":4
					},
					"indices":5,
					"material":0
				}
			]
		},
		{
			"name":"Scene.005",
			"primitives":[
				{
					"attributes":{
						"POSITION":6,
						"NORMAL":7,
						"TEXCOORD_0":8,
						"COLOR_0":9,
						"COLOR_1":10
					},
					"indices":11,
					"material":0
				}
			]
		},
		{
			"name":"Scene.006",
			"primitives":[
				{
					"attributes":{
						"POSITION":12,
						"NORMAL":13,
						"TEXCOORD_0":14,
						"COLOR_0":15,
						"COLOR_1":16
					},
					"indices":17,
					"material":0
				}
			]
		},
		{
			"name":"Scene.009",
			"primitives":[
				{
					"attributes":{
						"POSITION":18,
						"NORMAL":19,
						"TEXCOORD_0":20,
						"TEXCOORD_1":21,
						"COLOR_0":22,
						"COLOR_1":23
					},
					"indices":24,
					"material":0
				}
			]
		},
		{
			"name":"Scene.007",
			"primitives":[
				{
					"attributes":{
						"POSITION":25,
						"NORMAL":26,
						"TEXCOORD_0":27,
						"TEXCOORD_1":28,
						"COLOR_0":29,
						"COLOR_1":30
					},
					"indices":31,
					"material":0
				}
			]
		},
		{
			"name":"Scene.008",
			"primitives":[
				{
					"attributes":{
						"POSITION":32,
						"NORMAL":33,
						"TEXCOORD_0":34,
						"TEXCOORD_1":35,
						"COLOR_0":36,
						"COLOR_1":37
					},
					"indices":38,
					"material":0
				}
			]
		},
		{
			"name":"Scene.003",
			"primitives":[
				{
					"attributes":{
						"POSITION":39,
						"NORMAL":40,
						"TEXCOORD_0":41,
						"TEXCOORD_1":42,
						"COLOR_0":43,
						"COLOR_1":44
					},
					"indices":45,
					"material":0
				}
			]
		},
		{
			"name":"Scene",
			"primitives":[
				{
					"attributes":{
						"POSITION":46,
						"NORMAL":47,
						"TEXCOORD_0":48,
						"COLOR_0":49,
						"COLOR_1":50
					},
					"indices":51,
					"material":1
				},
				{
					"attributes":{
						"POSITION":52,
						"NORMAL":53,
						"TEXCOORD_0":54,
						"COLOR_0":55,
						"COLOR_1":56
					},
					"indices":57,
					"material":2
				}
			]
		},
		{
			"name":"Scene.001",
			"primitives":[
				{
					"attributes":{
						"POSITION":58,
						"NORMAL":59,
						"TEXCOORD_0":60,
						"COLOR_0":61,
						"COLOR_1":62
					},
					"indices":63,
					"material":1
				}
			]
		},
		{
			"name":"Scene.002",
			"primitives":[
				{
					"attributes":{
						"POSITION":64,
						"NORMAL":65,
						"TEXCOORD_0":66,
						"COLOR_0":67,
						"COLOR_1":68
					},
					"indices":69,
					"material":1
				}
			]
		}
	],
	"textures":[
		{
			"sampler":0,
			"source":0
		},
		{
			"sampler":0,
			"source":1
		},
		{
			"sampler":0,
			"source":2
		}
	],
	"images":[
		{
			"mimeType":"image/png",
			"name":"T_Food01_BC",
			"uri":"T_Food01_BC.png"
		},
		{
			"mimeType":"image/png",
			"name":"T_Vending01_BC",
			"uri":"T_Vending01_BC.png"
		},
		{
			"mimeType":"image/png",
			"name":"T_Default_BC_Black",
			"uri":"T_Default_BC_Black.png"
		}
	],
	"accessors":[
		{
			"bufferView":0,
			"componentType":5126,
			"count":140,
			"max":[
				5.979984760284424,
				5.979986667633057,
				0
			],
			"min":[
				-5.979984760284424,
				-5.979986667633057,
				-29.750484466552734
			],
			"type":"VEC3"
		},
		{
			"bufferView":1,
			"componentType":5126,
			"count":140,
			"type":"VEC3"
		},
		{
			"bufferView":2,
			"componentType":5126,
			"count":140,
			"type":"VEC2"
		},
		{
			"bufferView":3,
			"componentType":5121,
			"count":140,
			"normalized":true,
			"type":"VEC4"
		},
		{
			"bufferView":4,
			"componentType":5123,
			"count":140,
			"normalized":true,
			"type":"VEC4"
		},
		{
			"bufferView":5,
			"componentType":5123,
			"count":540,
			"type":"SCALAR"
		},
		{
			"bufferView":6,
			"componentType":5126,
			"count":66,
			"max":[
				4.771465301513672,
				5.017017364501953,
				0
			],
			"min":[
				-4.771465301513672,
				-5.017017364501953,
				-13.625654220581055
			],
			"type":"VEC3"
		},
		{
			"bufferView":7,
			"componentType":5126,
			"count":66,
			"type":"VEC3"
		},
		{
			"bufferView":8,
			"componentType":5126,
			"count":66,
			"type":"VEC2"
		},
		{
			"bufferView":9,
			"componentType":5121,
			"count":66,
			"normalized":true,
			"type":"VEC4"
		},
		{
			"bufferView":10,
			"componentType":5123,
			"count":66,
			"normalized":true,
			"type":"VEC4"
		},
		{
			"bufferView":11,
			"componentType":5123,
			"count":240,
			"type":"SCALAR"
		},
		{
			"bufferView":12,
			"componentType":5126,
			"count":72,
			"max":[
				7.235360145568848,
				2.903992176055908,
				0
			],
			"min":[
				-7.235360145568848,
				-2.903992176055908,
				-8.772273063659668
			],
			"type":"VEC3"
		},
		{
			"bufferView":13,
			"componentType":5126,
			"count":72,
			"type":"VEC3"
		},
		{
			"bufferView":14,
			"componentType":5126,
			"count":72,
			"type":"VEC2"
		},
		{
			"bufferView":15,
			"componentType":5121,
			"count":72,
			"normalized":true,
			"type":"VEC4"
		},
		{
			"bufferView":16,
			"componentType":5123,
			"count":72,
			"normalized":true,
			"type":"VEC4"
		},
		{
			"bufferView":17,
			"componentType":5123,
			"count":132,
			"type":"SCALAR"
		},
		{
			"bufferView":18,
			"componentType":5126,
			"count":24,
			"max":[
				8.226966857910156,
				11.921060562133789,
				1.942187282111263e-06
			],
			"min":[
				-8.226966857910156,
				-11.921062469482422,
				-13.320565223693848
			],
			"type":"VEC3"
		},
		{
			"bufferView":19,
			"componentType":5126,
			"count":24,
			"type":"VEC3"
		},
		{
			"bufferView":20,
			"componentType":5126,
			"count":24,
			"type":"VEC2"
		},
		{
			"bufferView":21,
			"componentType":5126,
			"count":24,
			"type":"VEC2"
		},
		{
			"bufferView":22,
			"componentType":5121,
			"count":24,
			"normalized":true,
			"type":"VEC4"
		},
		{
			"bufferView":23,
			"componentType":5123,
			"count":24,
			"normalized":true,
			"type":"VEC4"
		},
		{
			"bufferView":24,
			"componentType":5123,
			"count":36,
			"type":"SCALAR"
		},
		{
			"bufferView":25,
			"componentType":5126,
			"count":24,
			"max":[
				6.510472297668457,
				2.572514772415161,
				4.1911584958143067e-07
			],
			"min":[
				-6.510472297668457,
				-2.572516918182373,
				-13.020944595336914
			],
			"type":"VEC3"
		},
		{
			"bufferView":26,
			"componentType":5126,
			"count":24,
			"type":"VEC3"
		},
		{
			"bufferView":27,
			"componentType":5126,
			"count":24,
			"type":"VEC2"
		},
		{
			"bufferView":28,
			"componentType":5126,
			"count":24,
			"type":"VEC2"
		},
		{
			"bufferView":29,
			"componentType":5121,
			"count":24,
			"normalized":true,
			"type":"VEC4"
		},
		{
			"bufferView":30,
			"componentType":5123,
			"count":24,
			"normalized":true,
			"type":"VEC4"
		},
		{
			"bufferView":31,
			"componentType":5123,
			"count":36,
			"type":"SCALAR"
		},
		{
			"bufferView":32,
			"componentType":5126,
			"count":48,
			"max":[
				4.761052131652832,
				4.761040210723877,
				4.7217301357704855e-07
			],
			"min":[
				-4.761052131652832,
				-4.761042594909668,
				-10.088422775268555
			],
			"type":"VEC3"
		},
		{
			"bufferView":33,
			"componentType":5126,
			"count":48,
			"type":"VEC3"
		},
		{
			"bufferView":34,
			"componentType":5126,
			"count":48,
			"type":"VEC2"
		},
		{
			"bufferView":35,
			"componentType":5126,
			"count":48,
			"type":"VEC2"
		},
		{
			"bufferView":36,
			"componentType":5121,
			"count":48,
			"normalized":true,
			"type":"VEC4"
		},
		{
			"bufferView":37,
			"componentType":5123,
			"count":48,
			"normalized":true,
			"type":"VEC4"
		},
		{
			"bufferView":38,
			"componentType":5123,
			"count":84,
			"type":"SCALAR"
		},
		{
			"bufferView":39,
			"componentType":5126,
			"count":85,
			"max":[
				6.197249889373779,
				6.516171932220459,
				7.98901453435974e-07
			],
			"min":[
				-6.197249889373779,
				-6.516174793243408,
				-11.303252220153809
			],
			"type":"VEC3"
		},
		{
			"bufferView":40,
			"componentType":5126,
			"count":85,
			"type":"VEC3"
		},
		{
			"bufferView":41,
			"componentType":5126,
			"count":85,
			"type":"VEC2"
		},
		{
			"bufferView":42,
			"componentType":5126,
			"count":85,
			"type":"VEC2"
		},
		{
			"bufferView":43,
			"componentType":5121,
			"count":85,
			"normalized":true,
			"type":"VEC4"
		},
		{
			"bufferView":44,
			"componentType":5123,
			"count":85,
			"normalized":true,
			"type":"VEC4"
		},
		{
			"bufferView":45,
			"componentType":5123,
			"count":234,
			"type":"SCALAR"
		},
		{
			"bufferView":46,
			"componentType":5126,
			"count":1355,
			"max":[
				59.400421142578125,
				39.377323150634766,
				6.270253379625501e-06
			],
			"min":[
				-59.400428771972656,
				-38.486541748046875,
				-183.5580291748047
			],
			"type":"VEC3"
		},
		{
			"bufferView":47,
			"componentType":5126,
			"count":1355,
			"type":"VEC3"
		},
		{
			"bufferView":48,
			"componentType":5126,
			"count":1355,
			"type":"VEC2"
		},
		{
			"bufferView":49,
			"componentType":5121,
			"count":1355,
			"normalized":true,
			"type":"VEC4"
		},
		{
			"bufferView":50,
			"componentType":5123,
			"count":1355,
			"normalized":true,
			"type":"VEC4"
		},
		{
			"bufferView":51,
			"componentType":5123,
			"count":2946,
			"type":"SCALAR"
		},
		{
			"bufferView":52,
			"componentType":5126,
			"count":4,
			"max":[
				45.954898834228516,
				35.11677551269531,
				-92.40235900878906
			],
			"min":[
				-45.95490264892578,
				35.11676025390625,
				-172.82290649414062
			],
			"type":"VEC3"
		},
		{
			"bufferView":53,
			"componentType":5126,
			"count":4,
			"type":"VEC3"
		},
		{
			"bufferView":54,
			"componentType":5126,
			"count":4,
			"type":"VEC2"
		},
		{
			"bufferView":55,
			"componentType":5121,
			"count":4,
			"normalized":true,
			"type":"VEC4"
		},
		{
			"bufferView":56,
			"componentType":5123,
			"count":4,
			"normalized":true,
			"type":"VEC4"
		},
		{
			"bufferView":57,
			"componentType":5123,
			"count":6,
			"type":"SCALAR"
		},
		{
			"bufferView":58,
			"componentType":5126,
			"count":64,
			"max":[
				49.360443115234375,
				35.553279876708984,
				12.28762149810791
			],
			"min":[
				-49.360443115234375,
				-36.85728073120117,
				-12.28761100769043
			],
			"type":"VEC3"
		},
		{
			"bufferView":59,
			"componentType":5126,
			"count":64,
			"type":"VEC3"
		},
		{
			"bufferView":60,
			"componentType":5126,
			"count":64,
			"type":"VEC2"
		},
		{
			"bufferView":61,
			"componentType":5121,
			"count":64,
			"normalized":true,
			"type":"VEC4"
		},
		{
			"bufferView":62,
			"componentType":5123,
			"count":64,
			"normalized":true,
			"type":"VEC4"
		},
		{
			"bufferView":63,
			"componentType":5123,
			"count":132,
			"type":"SCALAR"
		},
		{
			"bufferView":64,
			"componentType":5126,
			"count":777,
			"max":[
				19.083162307739258,
				7.276734828948975,
				28.180767059326172
			],
			"min":[
				-22.217103958129883,
				-8.133913040161133,
				-29.768157958984375
			],
			"type":"VEC3"
		},
		{
			"bufferView":65,
			"componentType":5126,
			"count":777,
			"type":"VEC3"
		},
		{
			"bufferView":66,
			"componentType":5126,
			"count":777,
			"type":"VEC2"
		},
		{
			"bufferView":67,
			"componentType":5121,
			"count":777,
			"normalized":true,
			"type":"VEC4"
		},
		{
			"bufferView":68,
			"componentType":5123,
			"count":777,
			"normalized":true,
			"type":"VEC4"
		},
		{
			"bufferView":69,
			"componentType":5123,
			"count":2196,
			"type":"SCALAR"
		}
	],
	"bufferViews":[
		{
			"buffer":0,
			"byteLength":1680,
			"byteOffset":0,
			"target":34962
		},
		{
			"buffer":0,
			"byteLength":1680,
			"byteOffset":1680,
			"target":34962
		},
		{
			"buffer":0,
			"byteLength":1120,
			"byteOffset":3360,
			"target":34962
		},
		{
			"buffer":0,
			"byteLength":560,
			"byteOffset":4480,
			"target":34962
		},
		{
			"buffer":0,
			"byteLength":1120,
			"byteOffset":5040,
			"target":34962
		},
		{
			"buffer":0,
			"byteLength":1080,
			"byteOffset":6160,
			"target":34963
		},
		{
			"buffer":0,
			"byteLength":792,
			"byteOffset":7240,
			"target":34962
		},
		{
			"buffer":0,
			"byteLength":792,
			"byteOffset":8032,
			"target":34962
		},
		{
			"buffer":0,
			"byteLength":528,
			"byteOffset":8824,
			"target":34962
		},
		{
			"buffer":0,
			"byteLength":264,
			"byteOffset":9352,
			"target":34962
		},
		{
			"buffer":0,
			"byteLength":528,
			"byteOffset":9616,
			"target":34962
		},
		{
			"buffer":0,
			"byteLength":480,
			"byteOffset":10144,
			"target":34963
		},
		{
			"buffer":0,
			"byteLength":864,
			"byteOffset":10624,
			"target":34962
		},
		{
			"buffer":0,
			"byteLength":864,
			"byteOffset":11488,
			"target":34962
		},
		{
			"buffer":0,
			"byteLength":576,
			"byteOffset":12352,
			"target":34962
		},
		{
			"buffer":0,
			"byteLength":288,
			"byteOffset":12928,
			"target":34962
		},
		{
			"buffer":0,
			"byteLength":576,
			"byteOffset":13216,
			"target":34962
		},
		{
			"buffer":0,
			"byteLength":264,
			"byteOffset":13792,
			"target":34963
		},
		{
			"buffer":0,
			"byteLength":288,
			"byteOffset":14056,
			"target":34962
		},
		{
			"buffer":0,
			"byteLength":288,
			"byteOffset":14344,
			"target":34962
		},
		{
			"buffer":0,
			"byteLength":192,
			"byteOffset":14632,
			"target":34962
		},
		{
			"buffer":0,
			"byteLength":192,
			"byteOffset":14824,
			"target":34962
		},
		{
			"buffer":0,
			"byteLength":96,
			"byteOffset":15016,
			"target":34962
		},
		{
			"buffer":0,
			"byteLength":192,
			"byteOffset":15112,
			"target":34962
		},
		{
			"buffer":0,
			"byteLength":72,
			"byteOffset":15304,
			"target":34963
		},
		{
			"buffer":0,
			"byteLength":288,
			"byteOffset":15376,
			"target":34962
		},
		{
			"buffer":0,
			"byteLength":288,
			"byteOffset":15664,
			"target":34962
		},
		{
			"buffer":0,
			"byteLength":192,
			"byteOffset":15952,
			"target":34962
		},
		{
			"buffer":0,
			"byteLength":192,
			"byteOffset":16144,
			"target":34962
		},
		{
			"buffer":0,
			"byteLength":96,
			"byteOffset":16336,
			"target":34962
		},
		{
			"buffer":0,
			"byteLength":192,
			"byteOffset":16432,
			"target":34962
		},
		{
			"buffer":0,
			"byteLength":72,
			"byteOffset":16624,
			"target":34963
		},
		{
			"buffer":0,
			"byteLength":576,
			"byteOffset":16696,
			"target":34962
		},
		{
			"buffer":0,
			"byteLength":576,
			"byteOffset":17272,
			"target":34962
		},
		{
			"buffer":0,
			"byteLength":384,
			"byteOffset":17848,
			"target":34962
		},
		{
			"buffer":0,
			"byteLength":384,
			"byteOffset":18232,
			"target":34962
		},
		{
			"buffer":0,
			"byteLength":192,
			"byteOffset":18616,
			"target":34962
		},
		{
			"buffer":0,
			"byteLength":384,
			"byteOffset":18808,
			"target":34962
		},
		{
			"buffer":0,
			"byteLength":168,
			"byteOffset":19192,
			"target":34963
		},
		{
			"buffer":0,
			"byteLength":1020,
			"byteOffset":19360,
			"target":34962
		},
		{
			"buffer":0,
			"byteLength":1020,
			"byteOffset":20380,
			"target":34962
		},
		{
			"buffer":0,
			"byteLength":680,
			"byteOffset":21400,
			"target":34962
		},
		{
			"buffer":0,
			"byteLength":680,
			"byteOffset":22080,
			"target":34962
		},
		{
			"buffer":0,
			"byteLength":340,
			"byteOffset":22760,
			"target":34962
		},
		{
			"buffer":0,
			"byteLength":680,
			"byteOffset":23100,
			"target":34962
		},
		{
			"buffer":0,
			"byteLength":468,
			"byteOffset":23780,
			"target":34963
		},
		{
			"buffer":0,
			"byteLength":16260,
			"byteOffset":24248,
			"target":34962
		},
		{
			"buffer":0,
			"byteLength":16260,
			"byteOffset":40508,
			"target":34962
		},
		{
			"buffer":0,
			"byteLength":10840,
			"byteOffset":56768,
			"target":34962
		},
		{
			"buffer":0,
			"byteLength":5420,
			"byteOffset":67608,
			"target":34962
		},
		{
			"buffer":0,
			"byteLength":10840,
			"byteOffset":73028,
			"target":34962
		},
		{
			"buffer":0,
			"byteLength":5892,
			"byteOffset":83868,
			"target":34963
		},
		{
			"buffer":0,
			"byteLength":48,
			"byteOffset":89760,
			"target":34962
		},
		{
			"buffer":0,
			"byteLength":48,
			"byteOffset":89808,
			"target":34962
		},
		{
			"buffer":0,
			"byteLength":32,
			"byteOffset":89856,
			"target":34962
		},
		{
			"buffer":0,
			"byteLength":16,
			"byteOffset":89888,
			"target":34962
		},
		{
			"buffer":0,
			"byteLength":32,
			"byteOffset":89904,
			"target":34962
		},
		{
			"buffer":0,
			"byteLength":12,
			"byteOffset":89936,
			"target":34963
		},
		{
			"buffer":0,
			"byteLength":768,
			"byteOffset":89948,
			"target":34962
		},
		{
			"buffer":0,
			"byteLength":768,
			"byteOffset":90716,
			"target":34962
		},
		{
			"buffer":0,
			"byteLength":512,
			"byteOffset":91484,
			"target":34962
		},
		{
			"buffer":0,
			"byteLength":256,
			"byteOffset":91996,
			"target":34962
		},
		{
			"buffer":0,
			"byteLength":512,
			"byteOffset":92252,
			"target":34962
		},
		{
			"buffer":0,
			"byteLength":264,
			"byteOffset":92764,
			"target":34963
		},
		{
			"buffer":0,
			"byteLength":9324,
			"byteOffset":93028,
			"target":34962
		},
		{
			"buffer":0,
			"byteLength":9324,
			"byteOffset":102352,
			"target":34962
		},
		{
			"buffer":0,
			"byteLength":6216,
			"byteOffset":111676,
			"target":34962
		},
		{
			"buffer":0,
			"byteLength":3108,
			"byteOffset":117892,
			"target":34962
		},
		{
			"buffer":0,
			"byteLength":6216,
			"byteOffset":121000,
			"target":34962
		},
		{
			"buffer":0,
			"byteLength":4392,
			"byteOffset":127216,
			"target":34963
		}
	],
	"samplers":[
		{
			"magFilter":9729,
			"minFilter":9987
		}
	],
	"buffers":[
		{
			"byteLength":131608,
			"uri":"FoodVendingMachine_A.bin"
		}
	]
}
