{
	"asset":{
		"generator":"Khronos glTF Blender I/O v4.3.47",
		"version":"2.0"
	},
	"scene":0,
	"scenes":[
		{
			"name":"Scene",
			"nodes":[
				15
			]
		}
	],
	"nodes":[
		{
			"mesh":0,
			"name":"SM_food_can",
			"rotation":[
				0,
				0,
				-0.2164401113986969,
				0.9762958884239197
			],
			"translation":[
				0,
				10.000039100646973,
				-135.6820068359375
			]
		},
		{
			"mesh":1,
			"name":"SM_food_candy",
			"translation":[
				-19.99970054626465,
				11.000061988830566,
				-155.53256225585938
			]
		},
		{
			"mesh":1,
			"name":"SM_food_candy_1",
			"translation":[
				19.999696731567383,
				11.000062942504883,
				-115.21880340576172
			]
		},
		{
			"mesh":2,
			"name":"SM_food_pack_02",
			"translation":[
				-19.999698638916016,
				0,
				-115.50294494628906
			]
		},
		{
			"mesh":3,
			"name":"SM_food_pack_03",
			"translation":[
				0,
				11.000061988830566,
				-155.94349670410156
			]
		},
		{
			"mesh":3,
			"name":"SM_food_pack_03_1",
			"translation":[
				-19.999696731567383,
				11.000061988830566,
				-95.50064849853516
			]
		},
		{
			"mesh":3,
			"name":"SM_food_pack_03_2",
			"translation":[
				19.99969482421875,
				0,
				-155.34432983398438
			]
		},
		{
			"mesh":4,
			"name":"SM_food_pack_04",
			"translation":[
				19.000246047973633,
				12.999918937683105,
				-135.2801055908203
			]
		},
		{
			"mesh":4,
			"name":"SM_food_pack_04_1",
			"translation":[
				0,
				12.999918937683105,
				-95.30683135986328
			]
		},
		{
			"mesh":5,
			"name":"SM_food_soupe",
			"translation":[
				-19.999696731567383,
				10.000040054321289,
				-135.75938415527344
			]
		},
		{
			"mesh":5,
			"name":"SM_food_soupe_1",
			"translation":[
				0,
				10.000040054321289,
				-115.6232681274414
			]
		},
		{
			"mesh":5,
			"name":"SM_food_soupe_2",
			"translation":[
				19.999696731567383,
				10.000038146972656,
				-95.67723846435547
			]
		},
		{
			"mesh":6,
			"name":"SM_FoodVendingMachine"
		},
		{
			"mesh":7,
			"name":"SM_FoodVendingMachinePart01",
			"translation":[
				0,
				2.0000457763671875,
				-196.0001220703125
			]
		},
		{
			"mesh":8,
			"name":"SM_FoodVendingMachinePart02"
		},
		{
			"children":[
				0,
				1,
				2,
				3,
				4,
				5,
				6,
				7,
				8,
				9,
				10,
				11,
				12,
				13,
				14
			],
			"name":"P_FoodVendingMachine_A",
			"rotation":[
				0.6272114515304565,
				-0.32650551199913025,
				0.32650551199913025,
				0.6272113919258118
			],
			"scale":[
				0.009999999776482582,
				0.009999999776482582,
				0.009999999776482582
			]
		}
	],
	"materials":[
		{
			"doubleSided":true,
			"name":"M_Food01",
			"pbrMetallicRoughness":{
				"baseColorTexture":{
					"index":0
				},
				"metallicFactor":0,
				"roughnessFactor":0.5527864098548889
			}
		},
		{
			"doubleSided":true,
			"name":"M_Vending01",
			"pbrMetallicRoughness":{
				"baseColorTexture":{
					"index":1
				},
				"metallicFactor":0,
				"roughnessFactor":0.5527864098548889
			}
		},
		{
			"alphaMode":"BLEND",
			"doubleSided":true,
			"name":"M_Glass",
			"pbrMetallicRoughness":{
				"baseColorFactor":[
					1,
					1,
					1,
					0.5
				],
				"baseColorTexture":{
					"index":2
				},
				"metallicFactor":0,
				"roughnessFactor":0.44269466400146484
			}
		}
	],
	"meshes":[
		{
			"name":"Scene.005",
			"primitives":[
				{
					"attributes":{
						"POSITION":0,
						"NORMAL":1,
						"TEXCOORD_0":2,
						"COLOR_0":3,
						"COLOR_1":4
					},
					"indices":5,
					"material":0
				}
			]
		},
		{
			"name":"Scene.006",
			"primitives":[
				{
					"attributes":{
						"POSITION":6,
						"NORMAL":7,
						"TEXCOORD_0":8,
						"COLOR_0":9,
						"COLOR_1":10
					},
					"indices":11,
					"material":0
				}
			]
		},
		{
			"name":"Scene.009",
			"primitives":[
				{
					"attributes":{
						"POSITION":12,
						"NORMAL":13,
						"TEXCOORD_0":14,
						"TEXCOORD_1":15,
						"COLOR_0":16,
						"COLOR_1":17
					},
					"indices":18,
					"material":0
				}
			]
		},
		{
			"name":"Scene.007",
			"primitives":[
				{
					"attributes":{
						"POSITION":19,
						"NORMAL":20,
						"TEXCOORD_0":21,
						"TEXCOORD_1":22,
						"COLOR_0":23,
						"COLOR_1":24
					},
					"indices":25,
					"material":0
				}
			]
		},
		{
			"name":"Scene.008",
			"primitives":[
				{
					"attributes":{
						"POSITION":26,
						"NORMAL":27,
						"TEXCOORD_0":28,
						"TEXCOORD_1":29,
						"COLOR_0":30,
						"COLOR_1":31
					},
					"indices":32,
					"material":0
				}
			]
		},
		{
			"name":"Scene.003",
			"primitives":[
				{
					"attributes":{
						"POSITION":33,
						"NORMAL":34,
						"TEXCOORD_0":35,
						"TEXCOORD_1":36,
						"COLOR_0":37,
						"COLOR_1":38
					},
					"indices":39,
					"material":0
				}
			]
		},
		{
			"name":"Scene.001",
			"primitives":[
				{
					"attributes":{
						"POSITION":40,
						"NORMAL":41,
						"TEXCOORD_0":42,
						"COLOR_0":43,
						"COLOR_1":44
					},
					"indices":45,
					"material":1
				},
				{
					"attributes":{
						"POSITION":46,
						"NORMAL":47,
						"TEXCOORD_0":48,
						"COLOR_0":49,
						"COLOR_1":50
					},
					"indices":51,
					"material":2
				}
			]
		},
		{
			"name":"Scene.002",
			"primitives":[
				{
					"attributes":{
						"POSITION":52,
						"NORMAL":53,
						"TEXCOORD_0":54,
						"COLOR_0":55,
						"COLOR_1":56
					},
					"indices":57,
					"material":1
				}
			]
		},
		{
			"name":"Scene.010",
			"primitives":[
				{
					"attributes":{
						"POSITION":58,
						"NORMAL":59,
						"TEXCOORD_0":60,
						"COLOR_0":61,
						"COLOR_1":62
					},
					"indices":63,
					"material":1
				}
			]
		}
	],
	"textures":[
		{
			"sampler":0,
			"source":0
		},
		{
			"sampler":0,
			"source":1
		},
		{
			"sampler":0,
			"source":2
		}
	],
	"images":[
		{
			"mimeType":"image/png",
			"name":"T_Food01_BC",
			"uri":"T_Food01_BC.png"
		},
		{
			"mimeType":"image/png",
			"name":"T_Vending01_BC",
			"uri":"T_Vending01_BC.png"
		},
		{
			"mimeType":"image/png",
			"name":"T_Default_BC_Black",
			"uri":"T_Default_BC_Black.png"
		}
	],
	"accessors":[
		{
			"bufferView":0,
			"componentType":5126,
			"count":66,
			"max":[
				4.771465301513672,
				5.017017364501953,
				0
			],
			"min":[
				-4.771465301513672,
				-5.017017364501953,
				-13.625654220581055
			],
			"type":"VEC3"
		},
		{
			"bufferView":1,
			"componentType":5126,
			"count":66,
			"type":"VEC3"
		},
		{
			"bufferView":2,
			"componentType":5126,
			"count":66,
			"type":"VEC2"
		},
		{
			"bufferView":3,
			"componentType":5126,
			"count":66,
			"type":"VEC3"
		},
		{
			"bufferView":4,
			"componentType":5123,
			"count":66,
			"normalized":true,
			"type":"VEC4"
		},
		{
			"bufferView":5,
			"componentType":5123,
			"count":240,
			"type":"SCALAR"
		},
		{
			"bufferView":6,
			"componentType":5126,
			"count":72,
			"max":[
				7.235360145568848,
				2.903992176055908,
				0
			],
			"min":[
				-7.235360145568848,
				-2.903992176055908,
				-8.772273063659668
			],
			"type":"VEC3"
		},
		{
			"bufferView":7,
			"componentType":5126,
			"count":72,
			"type":"VEC3"
		},
		{
			"bufferView":8,
			"componentType":5126,
			"count":72,
			"type":"VEC2"
		},
		{
			"bufferView":9,
			"componentType":5126,
			"count":72,
			"type":"VEC3"
		},
		{
			"bufferView":10,
			"componentType":5123,
			"count":72,
			"normalized":true,
			"type":"VEC4"
		},
		{
			"bufferView":11,
			"componentType":5123,
			"count":132,
			"type":"SCALAR"
		},
		{
			"bufferView":12,
			"componentType":5126,
			"count":24,
			"max":[
				8.226966857910156,
				11.921060562133789,
				1.942187282111263e-06
			],
			"min":[
				-8.226966857910156,
				-11.921062469482422,
				-13.320565223693848
			],
			"type":"VEC3"
		},
		{
			"bufferView":13,
			"componentType":5126,
			"count":24,
			"type":"VEC3"
		},
		{
			"bufferView":14,
			"componentType":5126,
			"count":24,
			"type":"VEC2"
		},
		{
			"bufferView":15,
			"componentType":5126,
			"count":24,
			"type":"VEC2"
		},
		{
			"bufferView":16,
			"componentType":5126,
			"count":24,
			"type":"VEC3"
		},
		{
			"bufferView":17,
			"componentType":5123,
			"count":24,
			"normalized":true,
			"type":"VEC4"
		},
		{
			"bufferView":18,
			"componentType":5123,
			"count":36,
			"type":"SCALAR"
		},
		{
			"bufferView":19,
			"componentType":5126,
			"count":24,
			"max":[
				6.510472297668457,
				2.572514772415161,
				4.1911584958143067e-07
			],
			"min":[
				-6.510472297668457,
				-2.572516918182373,
				-13.020944595336914
			],
			"type":"VEC3"
		},
		{
			"bufferView":20,
			"componentType":5126,
			"count":24,
			"type":"VEC3"
		},
		{
			"bufferView":21,
			"componentType":5126,
			"count":24,
			"type":"VEC2"
		},
		{
			"bufferView":22,
			"componentType":5126,
			"count":24,
			"type":"VEC2"
		},
		{
			"bufferView":23,
			"componentType":5126,
			"count":24,
			"type":"VEC3"
		},
		{
			"bufferView":24,
			"componentType":5123,
			"count":24,
			"normalized":true,
			"type":"VEC4"
		},
		{
			"bufferView":25,
			"componentType":5123,
			"count":36,
			"type":"SCALAR"
		},
		{
			"bufferView":26,
			"componentType":5126,
			"count":48,
			"max":[
				4.761052131652832,
				4.761040210723877,
				4.7217301357704855e-07
			],
			"min":[
				-4.761052131652832,
				-4.761042594909668,
				-10.088422775268555
			],
			"type":"VEC3"
		},
		{
			"bufferView":27,
			"componentType":5126,
			"count":48,
			"type":"VEC3"
		},
		{
			"bufferView":28,
			"componentType":5126,
			"count":48,
			"type":"VEC2"
		},
		{
			"bufferView":29,
			"componentType":5126,
			"count":48,
			"type":"VEC2"
		},
		{
			"bufferView":30,
			"componentType":5126,
			"count":48,
			"type":"VEC3"
		},
		{
			"bufferView":31,
			"componentType":5123,
			"count":48,
			"normalized":true,
			"type":"VEC4"
		},
		{
			"bufferView":32,
			"componentType":5123,
			"count":84,
			"type":"SCALAR"
		},
		{
			"bufferView":33,
			"componentType":5126,
			"count":85,
			"max":[
				6.197249889373779,
				6.516171932220459,
				7.98901453435974e-07
			],
			"min":[
				-6.197249889373779,
				-6.516174793243408,
				-11.303252220153809
			],
			"type":"VEC3"
		},
		{
			"bufferView":34,
			"componentType":5126,
			"count":85,
			"type":"VEC3"
		},
		{
			"bufferView":35,
			"componentType":5126,
			"count":85,
			"type":"VEC2"
		},
		{
			"bufferView":36,
			"componentType":5126,
			"count":85,
			"type":"VEC2"
		},
		{
			"bufferView":37,
			"componentType":5126,
			"count":85,
			"type":"VEC3"
		},
		{
			"bufferView":38,
			"componentType":5123,
			"count":85,
			"normalized":true,
			"type":"VEC4"
		},
		{
			"bufferView":39,
			"componentType":5123,
			"count":234,
			"type":"SCALAR"
		},
		{
			"bufferView":40,
			"componentType":5126,
			"count":1383,
			"max":[
				59.400421142578125,
				39.377323150634766,
				6.270253379625501e-06
			],
			"min":[
				-59.400428771972656,
				-38.486541748046875,
				-183.5580291748047
			],
			"type":"VEC3"
		},
		{
			"bufferView":41,
			"componentType":5126,
			"count":1383,
			"type":"VEC3"
		},
		{
			"bufferView":42,
			"componentType":5126,
			"count":1383,
			"type":"VEC2"
		},
		{
			"bufferView":43,
			"componentType":5126,
			"count":1383,
			"type":"VEC3"
		},
		{
			"bufferView":44,
			"componentType":5123,
			"count":1383,
			"normalized":true,
			"type":"VEC4"
		},
		{
			"bufferView":45,
			"componentType":5123,
			"count":2946,
			"type":"SCALAR"
		},
		{
			"bufferView":46,
			"componentType":5126,
			"count":4,
			"max":[
				45.954898834228516,
				35.11677551269531,
				-92.40235900878906
			],
			"min":[
				-45.95490264892578,
				35.11676025390625,
				-172.82290649414062
			],
			"type":"VEC3"
		},
		{
			"bufferView":47,
			"componentType":5126,
			"count":4,
			"type":"VEC3"
		},
		{
			"bufferView":48,
			"componentType":5126,
			"count":4,
			"type":"VEC2"
		},
		{
			"bufferView":49,
			"componentType":5126,
			"count":4,
			"type":"VEC3"
		},
		{
			"bufferView":50,
			"componentType":5123,
			"count":4,
			"normalized":true,
			"type":"VEC4"
		},
		{
			"bufferView":51,
			"componentType":5123,
			"count":6,
			"type":"SCALAR"
		},
		{
			"bufferView":52,
			"componentType":5126,
			"count":64,
			"max":[
				49.360443115234375,
				35.553279876708984,
				12.28762149810791
			],
			"min":[
				-49.360443115234375,
				-36.85728073120117,
				-12.28761100769043
			],
			"type":"VEC3"
		},
		{
			"bufferView":53,
			"componentType":5126,
			"count":64,
			"type":"VEC3"
		},
		{
			"bufferView":54,
			"componentType":5126,
			"count":64,
			"type":"VEC2"
		},
		{
			"bufferView":55,
			"componentType":5126,
			"count":64,
			"type":"VEC3"
		},
		{
			"bufferView":56,
			"componentType":5123,
			"count":64,
			"normalized":true,
			"type":"VEC4"
		},
		{
			"bufferView":57,
			"componentType":5123,
			"count":132,
			"type":"SCALAR"
		},
		{
			"bufferView":58,
			"componentType":5126,
			"count":793,
			"max":[
				-31.917055130004883,
				52.27661895751953,
				-183.81930541992188
			],
			"min":[
				-73.21732330322266,
				36.86597442626953,
				-241.7682342529297
			],
			"type":"VEC3"
		},
		{
			"bufferView":59,
			"componentType":5126,
			"count":793,
			"type":"VEC3"
		},
		{
			"bufferView":60,
			"componentType":5126,
			"count":793,
			"type":"VEC2"
		},
		{
			"bufferView":61,
			"componentType":5126,
			"count":793,
			"type":"VEC3"
		},
		{
			"bufferView":62,
			"componentType":5123,
			"count":793,
			"normalized":true,
			"type":"VEC4"
		},
		{
			"bufferView":63,
			"componentType":5123,
			"count":2196,
			"type":"SCALAR"
		}
	],
	"bufferViews":[
		{
			"buffer":0,
			"byteLength":792,
			"byteOffset":0,
			"target":34962
		},
		{
			"buffer":0,
			"byteLength":792,
			"byteOffset":792,
			"target":34962
		},
		{
			"buffer":0,
			"byteLength":528,
			"byteOffset":1584,
			"target":34962
		},
		{
			"buffer":0,
			"byteLength":792,
			"byteOffset":2112,
			"target":34962
		},
		{
			"buffer":0,
			"byteLength":528,
			"byteOffset":2904,
			"target":34962
		},
		{
			"buffer":0,
			"byteLength":480,
			"byteOffset":3432,
			"target":34963
		},
		{
			"buffer":0,
			"byteLength":864,
			"byteOffset":3912,
			"target":34962
		},
		{
			"buffer":0,
			"byteLength":864,
			"byteOffset":4776,
			"target":34962
		},
		{
			"buffer":0,
			"byteLength":576,
			"byteOffset":5640,
			"target":34962
		},
		{
			"buffer":0,
			"byteLength":864,
			"byteOffset":6216,
			"target":34962
		},
		{
			"buffer":0,
			"byteLength":576,
			"byteOffset":7080,
			"target":34962
		},
		{
			"buffer":0,
			"byteLength":264,
			"byteOffset":7656,
			"target":34963
		},
		{
			"buffer":0,
			"byteLength":288,
			"byteOffset":7920,
			"target":34962
		},
		{
			"buffer":0,
			"byteLength":288,
			"byteOffset":8208,
			"target":34962
		},
		{
			"buffer":0,
			"byteLength":192,
			"byteOffset":8496,
			"target":34962
		},
		{
			"buffer":0,
			"byteLength":192,
			"byteOffset":8688,
			"target":34962
		},
		{
			"buffer":0,
			"byteLength":288,
			"byteOffset":8880,
			"target":34962
		},
		{
			"buffer":0,
			"byteLength":192,
			"byteOffset":9168,
			"target":34962
		},
		{
			"buffer":0,
			"byteLength":72,
			"byteOffset":9360,
			"target":34963
		},
		{
			"buffer":0,
			"byteLength":288,
			"byteOffset":9432,
			"target":34962
		},
		{
			"buffer":0,
			"byteLength":288,
			"byteOffset":9720,
			"target":34962
		},
		{
			"buffer":0,
			"byteLength":192,
			"byteOffset":10008,
			"target":34962
		},
		{
			"buffer":0,
			"byteLength":192,
			"byteOffset":10200,
			"target":34962
		},
		{
			"buffer":0,
			"byteLength":288,
			"byteOffset":10392,
			"target":34962
		},
		{
			"buffer":0,
			"byteLength":192,
			"byteOffset":10680,
			"target":34962
		},
		{
			"buffer":0,
			"byteLength":72,
			"byteOffset":10872,
			"target":34963
		},
		{
			"buffer":0,
			"byteLength":576,
			"byteOffset":10944,
			"target":34962
		},
		{
			"buffer":0,
			"byteLength":576,
			"byteOffset":11520,
			"target":34962
		},
		{
			"buffer":0,
			"byteLength":384,
			"byteOffset":12096,
			"target":34962
		},
		{
			"buffer":0,
			"byteLength":384,
			"byteOffset":12480,
			"target":34962
		},
		{
			"buffer":0,
			"byteLength":576,
			"byteOffset":12864,
			"target":34962
		},
		{
			"buffer":0,
			"byteLength":384,
			"byteOffset":13440,
			"target":34962
		},
		{
			"buffer":0,
			"byteLength":168,
			"byteOffset":13824,
			"target":34963
		},
		{
			"buffer":0,
			"byteLength":1020,
			"byteOffset":13992,
			"target":34962
		},
		{
			"buffer":0,
			"byteLength":1020,
			"byteOffset":15012,
			"target":34962
		},
		{
			"buffer":0,
			"byteLength":680,
			"byteOffset":16032,
			"target":34962
		},
		{
			"buffer":0,
			"byteLength":680,
			"byteOffset":16712,
			"target":34962
		},
		{
			"buffer":0,
			"byteLength":1020,
			"byteOffset":17392,
			"target":34962
		},
		{
			"buffer":0,
			"byteLength":680,
			"byteOffset":18412,
			"target":34962
		},
		{
			"buffer":0,
			"byteLength":468,
			"byteOffset":19092,
			"target":34963
		},
		{
			"buffer":0,
			"byteLength":16596,
			"byteOffset":19560,
			"target":34962
		},
		{
			"buffer":0,
			"byteLength":16596,
			"byteOffset":36156,
			"target":34962
		},
		{
			"buffer":0,
			"byteLength":11064,
			"byteOffset":52752,
			"target":34962
		},
		{
			"buffer":0,
			"byteLength":16596,
			"byteOffset":63816,
			"target":34962
		},
		{
			"buffer":0,
			"byteLength":11064,
			"byteOffset":80412,
			"target":34962
		},
		{
			"buffer":0,
			"byteLength":5892,
			"byteOffset":91476,
			"target":34963
		},
		{
			"buffer":0,
			"byteLength":48,
			"byteOffset":97368,
			"target":34962
		},
		{
			"buffer":0,
			"byteLength":48,
			"byteOffset":97416,
			"target":34962
		},
		{
			"buffer":0,
			"byteLength":32,
			"byteOffset":97464,
			"target":34962
		},
		{
			"buffer":0,
			"byteLength":48,
			"byteOffset":97496,
			"target":34962
		},
		{
			"buffer":0,
			"byteLength":32,
			"byteOffset":97544,
			"target":34962
		},
		{
			"buffer":0,
			"byteLength":12,
			"byteOffset":97576,
			"target":34963
		},
		{
			"buffer":0,
			"byteLength":768,
			"byteOffset":97588,
			"target":34962
		},
		{
			"buffer":0,
			"byteLength":768,
			"byteOffset":98356,
			"target":34962
		},
		{
			"buffer":0,
			"byteLength":512,
			"byteOffset":99124,
			"target":34962
		},
		{
			"buffer":0,
			"byteLength":768,
			"byteOffset":99636,
			"target":34962
		},
		{
			"buffer":0,
			"byteLength":512,
			"byteOffset":100404,
			"target":34962
		},
		{
			"buffer":0,
			"byteLength":264,
			"byteOffset":100916,
			"target":34963
		},
		{
			"buffer":0,
			"byteLength":9516,
			"byteOffset":101180,
			"target":34962
		},
		{
			"buffer":0,
			"byteLength":9516,
			"byteOffset":110696,
			"target":34962
		},
		{
			"buffer":0,
			"byteLength":6344,
			"byteOffset":120212,
			"target":34962
		},
		{
			"buffer":0,
			"byteLength":9516,
			"byteOffset":126556,
			"target":34962
		},
		{
			"buffer":0,
			"byteLength":6344,
			"byteOffset":136072,
			"target":34962
		},
		{
			"buffer":0,
			"byteLength":4392,
			"byteOffset":142416,
			"target":34963
		}
	],
	"samplers":[
		{
			"magFilter":9729,
			"minFilter":9987
		}
	],
	"buffers":[
		{
			"byteLength":146808,
			"uri":"FoodVendingMachine_A.bin"
		}
	]
}
