{
	"asset":{
		"generator":"Khronos glTF Blender I/O v4.3.47",
		"version":"2.0"
	},
	"scene":0,
	"scenes":[
		{
			"name":"Scene",
			"nodes":[
				3
			]
		}
	],
	"nodes":[
		{
			"mesh":0,
			"name":"SM_monorail"
		},
		{
			"mesh":1,
			"name":"SM_monorail__1_"
		},
		{
			"mesh":2,
			"name":"SM_monorail_connector"
		},
		{
			"children":[
				0,
				1,
				2
			],
			"name":"P_Monorail"
		}
	],
	"materials":[
		{
			"doubleSided":true,
			"name":"M_MonoRail",
			"pbrMetallicRoughness":{
				"baseColorTexture":{
					"index":0
				},
				"metallicFactor":0,
				"roughnessFactor":0.5527864098548889
			}
		},
		{
			"doubleSided":true,
			"name":"M_Metal",
			"pbrMetallicRoughness":{
				"baseColorTexture":{
					"index":1
				},
				"metallicFactor":0,
				"roughnessFactor":0.5527864098548889
			}
		}
	],
	"meshes":[
		{
			"name":"Scene",
			"primitives":[
				{
					"attributes":{
						"POSITION":0,
						"NORMAL":1,
						"TEXCOORD_0":2,
						"TEXCOORD_1":3,
						"COLOR_0":4,
						"COLOR_1":5
					},
					"indices":6,
					"material":0
				},
				{
					"attributes":{
						"POSITION":7,
						"NORMAL":8,
						"TEXCOORD_0":9,
						"TEXCOORD_1":10,
						"COLOR_0":11,
						"COLOR_1":12
					},
					"indices":13,
					"material":1
				}
			]
		},
		{
			"name":"Scene.001",
			"primitives":[
				{
					"attributes":{
						"POSITION":14,
						"NORMAL":15,
						"TEXCOORD_0":16,
						"TEXCOORD_1":17,
						"COLOR_0":18,
						"COLOR_1":19
					},
					"indices":20,
					"material":0
				},
				{
					"attributes":{
						"POSITION":21,
						"NORMAL":22,
						"TEXCOORD_0":23,
						"TEXCOORD_1":24,
						"COLOR_0":25,
						"COLOR_1":26
					},
					"indices":13,
					"material":1
				}
			]
		},
		{
			"name":"Scene.002",
			"primitives":[
				{
					"attributes":{
						"POSITION":27,
						"NORMAL":28,
						"TEXCOORD_0":29,
						"COLOR_0":30,
						"COLOR_1":31
					},
					"indices":32,
					"material":0
				}
			]
		}
	],
	"textures":[
		{
			"sampler":0,
			"source":0
		},
		{
			"sampler":0,
			"source":1
		}
	],
	"images":[
		{
			"mimeType":"image/png",
			"name":"T_SkyMobile_BaseColor",
			"uri":"T_SkyMobile_BaseColor.png"
		},
		{
			"mimeType":"image/png",
			"name":"T_Metal_BC",
			"uri":"T_Metal_BC.png"
		}
	],
	"accessors":[
		{
			"bufferView":0,
			"componentType":5126,
			"count":2134,
			"max":[
				5.57232666015625,
				5.820766925811768,
				3.2852425575256348
			],
			"min":[
				-4.471288204193115,
				0.27678945660591125,
				-2.849560260772705
			],
			"type":"VEC3"
		},
		{
			"bufferView":1,
			"componentType":5126,
			"count":2134,
			"type":"VEC3"
		},
		{
			"bufferView":2,
			"componentType":5126,
			"count":2134,
			"type":"VEC2"
		},
		{
			"bufferView":3,
			"componentType":5126,
			"count":2134,
			"type":"VEC2"
		},
		{
			"bufferView":4,
			"componentType":5126,
			"count":2134,
			"type":"VEC3"
		},
		{
			"bufferView":5,
			"componentType":5123,
			"count":2134,
			"normalized":true,
			"type":"VEC4"
		},
		{
			"bufferView":6,
			"componentType":5123,
			"count":4005,
			"type":"SCALAR"
		},
		{
			"bufferView":7,
			"componentType":5126,
			"count":151,
			"max":[
				3.252999782562256,
				5.557837009429932,
				1.3313556909561157
			],
			"min":[
				-3.257946729660034,
				-0.08680665493011475,
				-1.6476353406906128
			],
			"type":"VEC3"
		},
		{
			"bufferView":8,
			"componentType":5126,
			"count":151,
			"type":"VEC3"
		},
		{
			"bufferView":9,
			"componentType":5126,
			"count":151,
			"type":"VEC2"
		},
		{
			"bufferView":10,
			"componentType":5126,
			"count":151,
			"type":"VEC2"
		},
		{
			"bufferView":11,
			"componentType":5126,
			"count":151,
			"type":"VEC3"
		},
		{
			"bufferView":12,
			"componentType":5123,
			"count":151,
			"normalized":true,
			"type":"VEC4"
		},
		{
			"bufferView":13,
			"componentType":5123,
			"count":552,
			"type":"SCALAR"
		},
		{
			"bufferView":14,
			"componentType":5126,
			"count":2234,
			"max":[
				-4.302621841430664,
				5.780768871307373,
				0.32262587547302246
			],
			"min":[
				-14.346236228942871,
				0.23679134249687195,
				-5.812172889709473
			],
			"type":"VEC3"
		},
		{
			"bufferView":15,
			"componentType":5126,
			"count":2234,
			"type":"VEC3"
		},
		{
			"bufferView":16,
			"componentType":5126,
			"count":2234,
			"type":"VEC2"
		},
		{
			"bufferView":17,
			"componentType":5126,
			"count":2234,
			"type":"VEC2"
		},
		{
			"bufferView":18,
			"componentType":5126,
			"count":2234,
			"type":"VEC3"
		},
		{
			"bufferView":19,
			"componentType":5123,
			"count":2234,
			"normalized":true,
			"type":"VEC4"
		},
		{
			"bufferView":20,
			"componentType":5123,
			"count":4005,
			"type":"SCALAR"
		},
		{
			"bufferView":21,
			"componentType":5126,
			"count":151,
			"max":[
				-5.515964508056641,
				5.517838954925537,
				-0.8792990446090698
			],
			"min":[
				-12.026911735534668,
				-0.12680476903915405,
				-3.858287811279297
			],
			"type":"VEC3"
		},
		{
			"bufferView":22,
			"componentType":5126,
			"count":151,
			"type":"VEC3"
		},
		{
			"bufferView":23,
			"componentType":5126,
			"count":151,
			"type":"VEC2"
		},
		{
			"bufferView":24,
			"componentType":5126,
			"count":151,
			"type":"VEC2"
		},
		{
			"bufferView":25,
			"componentType":5126,
			"count":151,
			"type":"VEC3"
		},
		{
			"bufferView":26,
			"componentType":5123,
			"count":151,
			"normalized":true,
			"type":"VEC4"
		},
		{
			"bufferView":27,
			"componentType":5126,
			"count":418,
			"max":[
				-3.413508415222168,
				4.458001613616943,
				0.3571954071521759
			],
			"min":[
				-5.268458366394043,
				1.160691499710083,
				-2.9609532356262207
			],
			"type":"VEC3"
		},
		{
			"bufferView":28,
			"componentType":5126,
			"count":418,
			"type":"VEC3"
		},
		{
			"bufferView":29,
			"componentType":5126,
			"count":418,
			"type":"VEC2"
		},
		{
			"bufferView":30,
			"componentType":5126,
			"count":418,
			"type":"VEC3"
		},
		{
			"bufferView":31,
			"componentType":5123,
			"count":418,
			"normalized":true,
			"type":"VEC4"
		},
		{
			"bufferView":32,
			"componentType":5123,
			"count":990,
			"type":"SCALAR"
		}
	],
	"bufferViews":[
		{
			"buffer":0,
			"byteLength":25608,
			"byteOffset":0,
			"target":34962
		},
		{
			"buffer":0,
			"byteLength":25608,
			"byteOffset":25608,
			"target":34962
		},
		{
			"buffer":0,
			"byteLength":17072,
			"byteOffset":51216,
			"target":34962
		},
		{
			"buffer":0,
			"byteLength":17072,
			"byteOffset":68288,
			"target":34962
		},
		{
			"buffer":0,
			"byteLength":25608,
			"byteOffset":85360,
			"target":34962
		},
		{
			"buffer":0,
			"byteLength":17072,
			"byteOffset":110968,
			"target":34962
		},
		{
			"buffer":0,
			"byteLength":8010,
			"byteOffset":128040,
			"target":34963
		},
		{
			"buffer":0,
			"byteLength":1812,
			"byteOffset":136052,
			"target":34962
		},
		{
			"buffer":0,
			"byteLength":1812,
			"byteOffset":137864,
			"target":34962
		},
		{
			"buffer":0,
			"byteLength":1208,
			"byteOffset":139676,
			"target":34962
		},
		{
			"buffer":0,
			"byteLength":1208,
			"byteOffset":140884,
			"target":34962
		},
		{
			"buffer":0,
			"byteLength":1812,
			"byteOffset":142092,
			"target":34962
		},
		{
			"buffer":0,
			"byteLength":1208,
			"byteOffset":143904,
			"target":34962
		},
		{
			"buffer":0,
			"byteLength":1104,
			"byteOffset":145112,
			"target":34963
		},
		{
			"buffer":0,
			"byteLength":26808,
			"byteOffset":146216,
			"target":34962
		},
		{
			"buffer":0,
			"byteLength":26808,
			"byteOffset":173024,
			"target":34962
		},
		{
			"buffer":0,
			"byteLength":17872,
			"byteOffset":199832,
			"target":34962
		},
		{
			"buffer":0,
			"byteLength":17872,
			"byteOffset":217704,
			"target":34962
		},
		{
			"buffer":0,
			"byteLength":26808,
			"byteOffset":235576,
			"target":34962
		},
		{
			"buffer":0,
			"byteLength":17872,
			"byteOffset":262384,
			"target":34962
		},
		{
			"buffer":0,
			"byteLength":8010,
			"byteOffset":280256,
			"target":34963
		},
		{
			"buffer":0,
			"byteLength":1812,
			"byteOffset":288268,
			"target":34962
		},
		{
			"buffer":0,
			"byteLength":1812,
			"byteOffset":290080,
			"target":34962
		},
		{
			"buffer":0,
			"byteLength":1208,
			"byteOffset":291892,
			"target":34962
		},
		{
			"buffer":0,
			"byteLength":1208,
			"byteOffset":293100,
			"target":34962
		},
		{
			"buffer":0,
			"byteLength":1812,
			"byteOffset":294308,
			"target":34962
		},
		{
			"buffer":0,
			"byteLength":1208,
			"byteOffset":296120,
			"target":34962
		},
		{
			"buffer":0,
			"byteLength":5016,
			"byteOffset":297328,
			"target":34962
		},
		{
			"buffer":0,
			"byteLength":5016,
			"byteOffset":302344,
			"target":34962
		},
		{
			"buffer":0,
			"byteLength":3344,
			"byteOffset":307360,
			"target":34962
		},
		{
			"buffer":0,
			"byteLength":5016,
			"byteOffset":310704,
			"target":34962
		},
		{
			"buffer":0,
			"byteLength":3344,
			"byteOffset":315720,
			"target":34962
		},
		{
			"buffer":0,
			"byteLength":1980,
			"byteOffset":319064,
			"target":34963
		}
	],
	"samplers":[
		{
			"magFilter":9729,
			"minFilter":9987
		}
	],
	"buffers":[
		{
			"byteLength":321044,
			"uri":"Monorail.bin"
		}
	]
}
