{
	"asset":{
		"generator":"Khronos glTF Blender I/O v4.3.47",
		"version":"2.0"
	},
	"scene":0,
	"scenes":[
		{
			"name":"Scene",
			"nodes":[
				0
			]
		}
	],
	"nodes":[
		{
			"mesh":0,
			"name":"SM_Wall_3x3_01__53_"
		}
	],
	"materials":[
		{
			"doubleSided":true,
			"name":"M_Tile_GlossyCeramicsCyan",
			"pbrMetallicRoughness":{
				"baseColorTexture":{
					"index":0
				},
				"metallicFactor":0,
				"roughnessFactor":0.5527864098548889
			}
		},
		{
			"doubleSided":true,
			"name":"M_Glow_RED",
			"pbrMetallicRoughness":{
				"metallicFactor":0,
				"roughnessFactor":0.5527864098548889
			}
		},
		{
			"doubleSided":true,
			"name":"M_Trim_Greebles",
			"pbrMetallicRoughness":{
				"baseColorTexture":{
					"index":1
				},
				"metallicFactor":0,
				"roughnessFactor":0.5527864098548889
			}
		},
		{
			"doubleSided":true,
			"name":"M_Glow_Orange",
			"pbrMetallicRoughness":{
				"baseColorFactor":[
					1,
					0.47550317645072937,
					0.17336739599704742,
					1
				],
				"metallicFactor":0,
				"roughnessFactor":0.5527864098548889
			}
		},
		{
			"doubleSided":true,
			"name":"M_PlasterWallBlue",
			"pbrMetallicRoughness":{
				"metallicFactor":0,
				"roughnessFactor":0.5527864098548889
			}
		},
		{
			"doubleSided":true,
			"name":"M_ConcreteSupport_WS",
			"pbrMetallicRoughness":{
				"baseColorTexture":{
					"index":2
				},
				"metallicFactor":0,
				"roughnessFactor":0.5527864098548889
			}
		},
		{
			"doubleSided":true,
			"name":"TunnelText",
			"pbrMetallicRoughness":{
				"baseColorFactor":[
					0,
					0.39215657114982605,
					1,
					1
				],
				"metallicFactor":0,
				"roughnessFactor":0.5527864098548889
			}
		},
		{
			"doubleSided":true,
			"name":"M_Tile_Concrete",
			"pbrMetallicRoughness":{
				"baseColorTexture":{
					"index":3
				},
				"metallicFactor":0,
				"roughnessFactor":0.5527864098548889
			}
		},
		{
			"doubleSided":true,
			"name":"M_Glow_Blue",
			"pbrMetallicRoughness":{
				"metallicFactor":0,
				"roughnessFactor":0.5527864098548889
			}
		},
		{
			"doubleSided":true,
			"name":"M_Glow_Yellow",
			"pbrMetallicRoughness":{
				"metallicFactor":0,
				"roughnessFactor":0.5527864098548889
			}
		},
		{
			"alphaMode":"BLEND",
			"doubleSided":true,
			"name":"M_Blocked1",
			"pbrMetallicRoughness":{
				"baseColorFactor":[
					1,
					1,
					1,
					0.5
				],
				"baseColorTexture":{
					"index":4
				},
				"metallicFactor":0,
				"roughnessFactor":0.5527864098548889
			}
		},
		{
			"doubleSided":true,
			"name":"M_Tile_GlossyCeramicsCyan.001",
			"pbrMetallicRoughness":{
				"baseColorTexture":{
					"index":5
				},
				"metallicFactor":0,
				"roughnessFactor":0.5527864098548889
			}
		},
		{
			"doubleSided":true,
			"name":"M_Tile_GlossyCeramicsCyan.002",
			"pbrMetallicRoughness":{
				"baseColorTexture":{
					"index":6
				},
				"metallicFactor":0,
				"roughnessFactor":0.5527864098548889
			}
		}
	],
	"meshes":[
		{
			"name":"Scene",
			"primitives":[
				{
					"attributes":{
						"POSITION":0,
						"NORMAL":1,
						"TEXCOORD_0":2,
						"TEXCOORD_1":3
					},
					"indices":4,
					"material":0
				},
				{
					"attributes":{
						"POSITION":5,
						"NORMAL":6,
						"TEXCOORD_0":7,
						"TEXCOORD_1":8
					},
					"indices":9,
					"material":1
				},
				{
					"attributes":{
						"POSITION":10,
						"NORMAL":11,
						"TEXCOORD_0":12,
						"TEXCOORD_1":13
					},
					"indices":14,
					"material":2
				},
				{
					"attributes":{
						"POSITION":15,
						"NORMAL":16,
						"TEXCOORD_0":17,
						"TEXCOORD_1":18
					},
					"indices":19,
					"material":3
				},
				{
					"attributes":{
						"POSITION":20,
						"NORMAL":21,
						"TEXCOORD_0":22,
						"TEXCOORD_1":23
					},
					"indices":24,
					"material":4
				},
				{
					"attributes":{
						"POSITION":25,
						"NORMAL":26,
						"TEXCOORD_0":27,
						"TEXCOORD_1":28
					},
					"indices":29,
					"material":5
				},
				{
					"attributes":{
						"POSITION":30,
						"NORMAL":31,
						"TEXCOORD_0":32,
						"TEXCOORD_1":33
					},
					"indices":34,
					"material":6
				},
				{
					"attributes":{
						"POSITION":35,
						"NORMAL":36,
						"TEXCOORD_0":37,
						"TEXCOORD_1":38
					},
					"indices":39,
					"material":7
				},
				{
					"attributes":{
						"POSITION":40,
						"NORMAL":41,
						"TEXCOORD_0":42,
						"TEXCOORD_1":43
					},
					"indices":44,
					"material":8
				},
				{
					"attributes":{
						"POSITION":45,
						"NORMAL":46,
						"TEXCOORD_0":47,
						"TEXCOORD_1":48
					},
					"indices":49,
					"material":9
				},
				{
					"attributes":{
						"POSITION":50,
						"NORMAL":51,
						"TEXCOORD_0":52,
						"TEXCOORD_1":53
					},
					"indices":54,
					"material":10
				},
				{
					"attributes":{
						"POSITION":55,
						"NORMAL":56,
						"TEXCOORD_0":57,
						"TEXCOORD_1":58
					},
					"indices":59,
					"material":11
				},
				{
					"attributes":{
						"POSITION":60,
						"NORMAL":61,
						"TEXCOORD_0":62,
						"TEXCOORD_1":63
					},
					"indices":59,
					"material":12
				}
			]
		}
	],
	"textures":[
		{
			"sampler":0,
			"source":0
		},
		{
			"sampler":0,
			"source":1
		},
		{
			"sampler":0,
			"source":2
		},
		{
			"sampler":0,
			"source":3
		},
		{
			"sampler":0,
			"source":4
		},
		{
			"sampler":0,
			"source":0
		},
		{
			"sampler":0,
			"source":0
		}
	],
	"images":[
		{
			"mimeType":"image/png",
			"name":"T_Tile_GlossyCeramic_BC",
			"uri":"T_Tile_GlossyCeramic_BC.png"
		},
		{
			"mimeType":"image/png",
			"name":"T_Trim_Greebles_BC",
			"uri":"T_Trim_Greebles_BC.png"
		},
		{
			"mimeType":"image/png",
			"name":"T_Asphalt_Clean_BC",
			"uri":"T_Asphalt_Clean_BC.png"
		},
		{
			"mimeType":"image/png",
			"name":"T_Tile_Concrete_BC",
			"uri":"T_Tile_Concrete_BC.png"
		},
		{
			"mimeType":"image/png",
			"name":"T_closed",
			"uri":"T_closed.png"
		}
	],
	"accessors":[
		{
			"bufferView":0,
			"componentType":5126,
			"count":212,
			"max":[
				13.334280967712402,
				11.253631591796875,
				20.000667572021484
			],
			"min":[
				6.061645030975342,
				-0.21411466598510742,
				-20.000673294067383
			],
			"type":"VEC3"
		},
		{
			"bufferView":1,
			"componentType":5126,
			"count":212,
			"type":"VEC3"
		},
		{
			"bufferView":2,
			"componentType":5126,
			"count":212,
			"type":"VEC2"
		},
		{
			"bufferView":3,
			"componentType":5126,
			"count":212,
			"type":"VEC2"
		},
		{
			"bufferView":4,
			"componentType":5123,
			"count":318,
			"type":"SCALAR"
		},
		{
			"bufferView":5,
			"componentType":5126,
			"count":26,
			"max":[
				9.947943687438965,
				7.592189788818359,
				19.449199676513672
			],
			"min":[
				9.697942733764648,
				7.342187881469727,
				-0.11079883575439453
			],
			"type":"VEC3"
		},
		{
			"bufferView":6,
			"componentType":5126,
			"count":26,
			"type":"VEC3"
		},
		{
			"bufferView":7,
			"componentType":5126,
			"count":26,
			"type":"VEC2"
		},
		{
			"bufferView":8,
			"componentType":5126,
			"count":26,
			"type":"VEC2"
		},
		{
			"bufferView":9,
			"componentType":5123,
			"count":36,
			"type":"SCALAR"
		},
		{
			"bufferView":10,
			"componentType":5126,
			"count":1424,
			"max":[
				14.296277046203613,
				8.230562210083008,
				-8.581031799316406
			],
			"min":[
				13.317468643188477,
				7.071836471557617,
				-9.240570068359375
			],
			"type":"VEC3"
		},
		{
			"bufferView":11,
			"componentType":5126,
			"count":1424,
			"type":"VEC3"
		},
		{
			"bufferView":12,
			"componentType":5126,
			"count":1424,
			"type":"VEC2"
		},
		{
			"bufferView":13,
			"componentType":5126,
			"count":1424,
			"type":"VEC2"
		},
		{
			"bufferView":14,
			"componentType":5123,
			"count":4866,
			"type":"SCALAR"
		},
		{
			"bufferView":15,
			"componentType":5126,
			"count":62,
			"max":[
				14.24492073059082,
				7.208564758300781,
				-8.816736221313477
			],
			"min":[
				14.104000091552734,
				7.0839314460754395,
				-9.004863739013672
			],
			"type":"VEC3"
		},
		{
			"bufferView":16,
			"componentType":5126,
			"count":62,
			"type":"VEC3"
		},
		{
			"bufferView":17,
			"componentType":5126,
			"count":62,
			"type":"VEC2"
		},
		{
			"bufferView":18,
			"componentType":5126,
			"count":62,
			"type":"VEC2"
		},
		{
			"bufferView":19,
			"componentType":5123,
			"count":228,
			"type":"SCALAR"
		},
		{
			"bufferView":20,
			"componentType":5126,
			"count":1547,
			"max":[
				11.303633689880371,
				7.405548095703125,
				0.2616109848022461
			],
			"min":[
				-13.352420806884766,
				-0.06637096405029297,
				-17.608707427978516
			],
			"type":"VEC3"
		},
		{
			"bufferView":21,
			"componentType":5126,
			"count":1547,
			"type":"VEC3"
		},
		{
			"bufferView":22,
			"componentType":5126,
			"count":1547,
			"type":"VEC2"
		},
		{
			"bufferView":23,
			"componentType":5126,
			"count":1547,
			"type":"VEC2"
		},
		{
			"bufferView":24,
			"componentType":5123,
			"count":4344,
			"type":"SCALAR"
		},
		{
			"bufferView":25,
			"componentType":5126,
			"count":381,
			"max":[
				14.203723907470703,
				7.63918924331665,
				0.3264579772949219
			],
			"min":[
				-14.296285629272461,
				-0.06637144088745117,
				-17.673553466796875
			],
			"type":"VEC3"
		},
		{
			"bufferView":26,
			"componentType":5126,
			"count":381,
			"type":"VEC3"
		},
		{
			"bufferView":27,
			"componentType":5126,
			"count":381,
			"type":"VEC2"
		},
		{
			"bufferView":28,
			"componentType":5126,
			"count":381,
			"type":"VEC2"
		},
		{
			"bufferView":29,
			"componentType":5123,
			"count":960,
			"type":"SCALAR"
		},
		{
			"bufferView":30,
			"componentType":5126,
			"count":4,
			"max":[
				11.232792854309082,
				7.172121047973633,
				-3.6334991455078125
			],
			"min":[
				11.23279094696045,
				6.3140130043029785,
				-13.71359634399414
			],
			"type":"VEC3"
		},
		{
			"bufferView":31,
			"componentType":5126,
			"count":4,
			"type":"VEC3"
		},
		{
			"bufferView":32,
			"componentType":5126,
			"count":4,
			"type":"VEC2"
		},
		{
			"bufferView":33,
			"componentType":5126,
			"count":4,
			"type":"VEC2"
		},
		{
			"bufferView":34,
			"componentType":5123,
			"count":6,
			"type":"SCALAR"
		},
		{
			"bufferView":35,
			"componentType":5126,
			"count":2682,
			"max":[
				11.536030769348145,
				6.168024063110352,
				-1.737288475036621
			],
			"min":[
				-14.04719352722168,
				-0.14564037322998047,
				-15.609809875488281
			],
			"type":"VEC3"
		},
		{
			"bufferView":36,
			"componentType":5126,
			"count":2682,
			"type":"VEC3"
		},
		{
			"bufferView":37,
			"componentType":5126,
			"count":2682,
			"type":"VEC2"
		},
		{
			"bufferView":38,
			"componentType":5126,
			"count":2682,
			"type":"VEC2"
		},
		{
			"bufferView":39,
			"componentType":5123,
			"count":8964,
			"type":"SCALAR"
		},
		{
			"bufferView":40,
			"componentType":5126,
			"count":102,
			"max":[
				9.134939193725586,
				0.8051326274871826,
				-2.464132308959961
			],
			"min":[
				-11.932563781738281,
				0.6659126281738281,
				-14.882944107055664
			],
			"type":"VEC3"
		},
		{
			"bufferView":41,
			"componentType":5126,
			"count":102,
			"type":"VEC3"
		},
		{
			"bufferView":42,
			"componentType":5126,
			"count":102,
			"type":"VEC2"
		},
		{
			"bufferView":43,
			"componentType":5126,
			"count":102,
			"type":"VEC2"
		},
		{
			"bufferView":44,
			"componentType":5123,
			"count":234,
			"type":"SCALAR"
		},
		{
			"bufferView":45,
			"componentType":5126,
			"count":104,
			"max":[
				6.283653259277344,
				5.922715187072754,
				-8.351560592651367
			],
			"min":[
				-9.633533477783203,
				5.746703147888184,
				-8.995534896850586
			],
			"type":"VEC3"
		},
		{
			"bufferView":46,
			"componentType":5126,
			"count":104,
			"type":"VEC3"
		},
		{
			"bufferView":47,
			"componentType":5126,
			"count":104,
			"type":"VEC2"
		},
		{
			"bufferView":48,
			"componentType":5126,
			"count":104,
			"type":"VEC2"
		},
		{
			"bufferView":49,
			"componentType":5123,
			"count":456,
			"type":"SCALAR"
		},
		{
			"bufferView":50,
			"componentType":5126,
			"count":8,
			"max":[
				10.67949104309082,
				5.87648868560791,
				-2.6253881454467773
			],
			"min":[
				10.679479598999023,
				-0.0763702392578125,
				-14.812036514282227
			],
			"type":"VEC3"
		},
		{
			"bufferView":51,
			"componentType":5126,
			"count":8,
			"type":"VEC3"
		},
		{
			"bufferView":52,
			"componentType":5126,
			"count":8,
			"type":"VEC2"
		},
		{
			"bufferView":53,
			"componentType":5126,
			"count":8,
			"type":"VEC2"
		},
		{
			"bufferView":54,
			"componentType":5123,
			"count":12,
			"type":"SCALAR"
		},
		{
			"bufferView":55,
			"componentType":5126,
			"count":4,
			"max":[
				13.334256172180176,
				11.22849178314209,
				-5.44767951965332
			],
			"min":[
				9.697954177856445,
				11.228490829467773,
				-9.083980560302734
			],
			"type":"VEC3"
		},
		{
			"bufferView":56,
			"componentType":5126,
			"count":4,
			"type":"VEC3"
		},
		{
			"bufferView":57,
			"componentType":5126,
			"count":4,
			"type":"VEC2"
		},
		{
			"bufferView":58,
			"componentType":5126,
			"count":4,
			"type":"VEC2"
		},
		{
			"bufferView":59,
			"componentType":5123,
			"count":6,
			"type":"SCALAR"
		},
		{
			"bufferView":60,
			"componentType":5126,
			"count":4,
			"max":[
				13.334257125854492,
				11.228490829467773,
				-9.094881057739258
			],
			"min":[
				9.697955131530762,
				11.228490829467773,
				-12.731182098388672
			],
			"type":"VEC3"
		},
		{
			"bufferView":61,
			"componentType":5126,
			"count":4,
			"type":"VEC3"
		},
		{
			"bufferView":62,
			"componentType":5126,
			"count":4,
			"type":"VEC2"
		},
		{
			"bufferView":63,
			"componentType":5126,
			"count":4,
			"type":"VEC2"
		}
	],
	"bufferViews":[
		{
			"buffer":0,
			"byteLength":2544,
			"byteOffset":0,
			"target":34962
		},
		{
			"buffer":0,
			"byteLength":2544,
			"byteOffset":2544,
			"target":34962
		},
		{
			"buffer":0,
			"byteLength":1696,
			"byteOffset":5088,
			"target":34962
		},
		{
			"buffer":0,
			"byteLength":1696,
			"byteOffset":6784,
			"target":34962
		},
		{
			"buffer":0,
			"byteLength":636,
			"byteOffset":8480,
			"target":34963
		},
		{
			"buffer":0,
			"byteLength":312,
			"byteOffset":9116,
			"target":34962
		},
		{
			"buffer":0,
			"byteLength":312,
			"byteOffset":9428,
			"target":34962
		},
		{
			"buffer":0,
			"byteLength":208,
			"byteOffset":9740,
			"target":34962
		},
		{
			"buffer":0,
			"byteLength":208,
			"byteOffset":9948,
			"target":34962
		},
		{
			"buffer":0,
			"byteLength":72,
			"byteOffset":10156,
			"target":34963
		},
		{
			"buffer":0,
			"byteLength":17088,
			"byteOffset":10228,
			"target":34962
		},
		{
			"buffer":0,
			"byteLength":17088,
			"byteOffset":27316,
			"target":34962
		},
		{
			"buffer":0,
			"byteLength":11392,
			"byteOffset":44404,
			"target":34962
		},
		{
			"buffer":0,
			"byteLength":11392,
			"byteOffset":55796,
			"target":34962
		},
		{
			"buffer":0,
			"byteLength":9732,
			"byteOffset":67188,
			"target":34963
		},
		{
			"buffer":0,
			"byteLength":744,
			"byteOffset":76920,
			"target":34962
		},
		{
			"buffer":0,
			"byteLength":744,
			"byteOffset":77664,
			"target":34962
		},
		{
			"buffer":0,
			"byteLength":496,
			"byteOffset":78408,
			"target":34962
		},
		{
			"buffer":0,
			"byteLength":496,
			"byteOffset":78904,
			"target":34962
		},
		{
			"buffer":0,
			"byteLength":456,
			"byteOffset":79400,
			"target":34963
		},
		{
			"buffer":0,
			"byteLength":18564,
			"byteOffset":79856,
			"target":34962
		},
		{
			"buffer":0,
			"byteLength":18564,
			"byteOffset":98420,
			"target":34962
		},
		{
			"buffer":0,
			"byteLength":12376,
			"byteOffset":116984,
			"target":34962
		},
		{
			"buffer":0,
			"byteLength":12376,
			"byteOffset":129360,
			"target":34962
		},
		{
			"buffer":0,
			"byteLength":8688,
			"byteOffset":141736,
			"target":34963
		},
		{
			"buffer":0,
			"byteLength":4572,
			"byteOffset":150424,
			"target":34962
		},
		{
			"buffer":0,
			"byteLength":4572,
			"byteOffset":154996,
			"target":34962
		},
		{
			"buffer":0,
			"byteLength":3048,
			"byteOffset":159568,
			"target":34962
		},
		{
			"buffer":0,
			"byteLength":3048,
			"byteOffset":162616,
			"target":34962
		},
		{
			"buffer":0,
			"byteLength":1920,
			"byteOffset":165664,
			"target":34963
		},
		{
			"buffer":0,
			"byteLength":48,
			"byteOffset":167584,
			"target":34962
		},
		{
			"buffer":0,
			"byteLength":48,
			"byteOffset":167632,
			"target":34962
		},
		{
			"buffer":0,
			"byteLength":32,
			"byteOffset":167680,
			"target":34962
		},
		{
			"buffer":0,
			"byteLength":32,
			"byteOffset":167712,
			"target":34962
		},
		{
			"buffer":0,
			"byteLength":12,
			"byteOffset":167744,
			"target":34963
		},
		{
			"buffer":0,
			"byteLength":32184,
			"byteOffset":167756,
			"target":34962
		},
		{
			"buffer":0,
			"byteLength":32184,
			"byteOffset":199940,
			"target":34962
		},
		{
			"buffer":0,
			"byteLength":21456,
			"byteOffset":232124,
			"target":34962
		},
		{
			"buffer":0,
			"byteLength":21456,
			"byteOffset":253580,
			"target":34962
		},
		{
			"buffer":0,
			"byteLength":17928,
			"byteOffset":275036,
			"target":34963
		},
		{
			"buffer":0,
			"byteLength":1224,
			"byteOffset":292964,
			"target":34962
		},
		{
			"buffer":0,
			"byteLength":1224,
			"byteOffset":294188,
			"target":34962
		},
		{
			"buffer":0,
			"byteLength":816,
			"byteOffset":295412,
			"target":34962
		},
		{
			"buffer":0,
			"byteLength":816,
			"byteOffset":296228,
			"target":34962
		},
		{
			"buffer":0,
			"byteLength":468,
			"byteOffset":297044,
			"target":34963
		},
		{
			"buffer":0,
			"byteLength":1248,
			"byteOffset":297512,
			"target":34962
		},
		{
			"buffer":0,
			"byteLength":1248,
			"byteOffset":298760,
			"target":34962
		},
		{
			"buffer":0,
			"byteLength":832,
			"byteOffset":300008,
			"target":34962
		},
		{
			"buffer":0,
			"byteLength":832,
			"byteOffset":300840,
			"target":34962
		},
		{
			"buffer":0,
			"byteLength":912,
			"byteOffset":301672,
			"target":34963
		},
		{
			"buffer":0,
			"byteLength":96,
			"byteOffset":302584,
			"target":34962
		},
		{
			"buffer":0,
			"byteLength":96,
			"byteOffset":302680,
			"target":34962
		},
		{
			"buffer":0,
			"byteLength":64,
			"byteOffset":302776,
			"target":34962
		},
		{
			"buffer":0,
			"byteLength":64,
			"byteOffset":302840,
			"target":34962
		},
		{
			"buffer":0,
			"byteLength":24,
			"byteOffset":302904,
			"target":34963
		},
		{
			"buffer":0,
			"byteLength":48,
			"byteOffset":302928,
			"target":34962
		},
		{
			"buffer":0,
			"byteLength":48,
			"byteOffset":302976,
			"target":34962
		},
		{
			"buffer":0,
			"byteLength":32,
			"byteOffset":303024,
			"target":34962
		},
		{
			"buffer":0,
			"byteLength":32,
			"byteOffset":303056,
			"target":34962
		},
		{
			"buffer":0,
			"byteLength":12,
			"byteOffset":303088,
			"target":34963
		},
		{
			"buffer":0,
			"byteLength":48,
			"byteOffset":303100,
			"target":34962
		},
		{
			"buffer":0,
			"byteLength":48,
			"byteOffset":303148,
			"target":34962
		},
		{
			"buffer":0,
			"byteLength":32,
			"byteOffset":303196,
			"target":34962
		},
		{
			"buffer":0,
			"byteLength":32,
			"byteOffset":303228,
			"target":34962
		}
	],
	"samplers":[
		{
			"magFilter":9729,
			"minFilter":9987
		}
	],
	"buffers":[
		{
			"byteLength":303260,
			"uri":"Wall.bin"
		}
	]
}
