{
	"asset":{
		"generator":"Khronos glTF Blender I/O v4.3.47",
		"version":"2.0"
	},
	"extensionsUsed":[
		"KHR_materials_specular"
	],
	"scene":0,
	"scenes":[
		{
			"name":"Scene",
			"nodes":[
				0
			]
		}
	],
	"nodes":[
		{
			"mesh":0,
			"name":"SM_E_Slash001_00",
			"scale":[
				0.009999999776482582,
				0.009999999776482582,
				0.009999999776482582
			]
		}
	],
	"materials":[
		{
			"doubleSided":true,
			"extensions":{
				"KHR_materials_specular":{
					"specularColorFactor":[
						2.0,
						2.0,
						2.0
					]
				}
			},
			"name":"M_E_CMN_DefaultMesh001_00",
			"pbrMetallicRoughness":{
				"baseColorTexture":{
					"index":0
				},
				"roughnessFactor":0.5527864098548889
			}
		}
	],
	"meshes":[
		{
			"name":"SM_E_Slash001_00",
			"primitives":[
				{
					"attributes":{
						"POSITION":0,
						"NORMAL":1,
						"TEXCOORD_0":2,
						"COLOR_0":3,
						"COLOR_1":4
					},
					"indices":5,
					"material":0
				}
			]
		}
	],
	"textures":[
		{
			"sampler":0,
			"source":0
		}
	],
	"images":[
		{
			"mimeType":"image/png",
			"name":"T_E_Slash001_00_A_Mat_BaseColor",
			"uri":"T_E_Slash001_00_A_Mat_BaseColor.png"
		}
	],
	"accessors":[
		{
			"bufferView":0,
			"componentType":5126,
			"count":1504,
			"max":[
				65.87435150146484,
				13.90019416809082,
				49.82987976074219
			],
			"min":[
				0.19019818305969238,
				-13.900216102600098,
				-49.82987594604492
			],
			"type":"VEC3"
		},
		{
			"bufferView":1,
			"componentType":5126,
			"count":1504,
			"type":"VEC3"
		},
		{
			"bufferView":2,
			"componentType":5126,
			"count":1504,
			"type":"VEC2"
		},
		{
			"bufferView":3,
			"componentType":5121,
			"count":1504,
			"normalized":true,
			"type":"VEC4"
		},
		{
			"bufferView":4,
			"componentType":5123,
			"count":1504,
			"normalized":true,
			"type":"VEC4"
		},
		{
			"bufferView":5,
			"componentType":5123,
			"count":4608,
			"type":"SCALAR"
		}
	],
	"bufferViews":[
		{
			"buffer":0,
			"byteLength":18048,
			"byteOffset":0,
			"target":34962
		},
		{
			"buffer":0,
			"byteLength":18048,
			"byteOffset":18048,
			"target":34962
		},
		{
			"buffer":0,
			"byteLength":12032,
			"byteOffset":36096,
			"target":34962
		},
		{
			"buffer":0,
			"byteLength":6016,
			"byteOffset":48128,
			"target":34962
		},
		{
			"buffer":0,
			"byteLength":12032,
			"byteOffset":54144,
			"target":34962
		},
		{
			"buffer":0,
			"byteLength":9216,
			"byteOffset":66176,
			"target":34963
		}
	],
	"samplers":[
		{
			"magFilter":9729,
			"minFilter":9987
		}
	],
	"buffers":[
		{
			"byteLength":75392,
			"uri":"Attack.bin"
		}
	]
}
