{
	"asset":{
		"generator":"Khronos glTF Blender I/O v4.4.56",
		"version":"2.0"
	},
	"scene":0,
	"scenes":[
		{
			"name":"Scene",
			"nodes":[
				1,
				3,
				5,
				7,
				9
			]
		}
	],
	"nodes":[
		{
			"mesh":0,
			"name":"sheat-cap_mat-1_0"
		},
		{
			"children":[
				0
			],
			"name":"sheat-cap"
		},
		{
			"mesh":1,
			"name":"sheat body_mat-2_0"
		},
		{
			"children":[
				2
			],
			"name":"sheat body"
		},
		{
			"mesh":2,
			"name":"sheat-holder_mat-1_0"
		},
		{
			"children":[
				4
			],
			"name":"sheat-holder"
		},
		{
			"mesh":3,
			"name":"screw.003_mat-3_0"
		},
		{
			"children":[
				6
			],
			"name":"screw.003"
		},
		{
			"mesh":4,
			"name":"sheat-bottom_mat-1_0"
		},
		{
			"children":[
				8
			],
			"name":"sheat-bottom"
		}
	],
	"materials":[
		{
			"doubleSided":true,
			"name":"mat-1",
			"pbrMetallicRoughness":{
				"baseColorFactor":[
					0.8638839721679688,
					0.8638839721679688,
					0.8638839721679688,
					1
				],
				"roughnessFactor":0.7481366991996765
			}
		},
		{
			"doubleSided":true,
			"name":"mat-2",
			"pbrMetallicRoughness":{
				"baseColorFactor":[
					0.5973039865493774,
					0.5973039865493774,
					0.5973039865493774,
					1
				],
				"metallicFactor":0.18374989926815033,
				"roughnessFactor":0.7980419993400574
			}
		},
		{
			"doubleSided":true,
			"emissiveFactor":[
				0,
				0.7785019874572754,
				1
			],
			"name":"mat-3",
			"pbrMetallicRoughness":{
				"baseColorFactor":[
					0,
					0.8457520008087158,
					1,
					1
				],
				"metallicFactor":0,
				"roughnessFactor":0.7935177683830261
			}
		}
	],
	"meshes":[
		{
			"name":"sheat-cap_mat-1_0",
			"primitives":[
				{
					"attributes":{
						"POSITION":0,
						"NORMAL":1,
						"TEXCOORD_0":2
					},
					"indices":3,
					"material":0
				}
			]
		},
		{
			"name":"sheat body_mat-2_0",
			"primitives":[
				{
					"attributes":{
						"POSITION":4,
						"NORMAL":5,
						"TEXCOORD_0":6
					},
					"indices":7,
					"material":1
				}
			]
		},
		{
			"name":"sheat-holder_mat-1_0",
			"primitives":[
				{
					"attributes":{
						"POSITION":8,
						"NORMAL":9,
						"TEXCOORD_0":10
					},
					"indices":11,
					"material":0
				}
			]
		},
		{
			"name":"screw.003_mat-3_0",
			"primitives":[
				{
					"attributes":{
						"POSITION":12,
						"NORMAL":13,
						"TEXCOORD_0":14
					},
					"indices":15,
					"material":2
				}
			]
		},
		{
			"name":"sheat-bottom_mat-1_0",
			"primitives":[
				{
					"attributes":{
						"POSITION":16,
						"NORMAL":17,
						"TEXCOORD_0":18
					},
					"indices":19,
					"material":0
				}
			]
		}
	],
	"accessors":[
		{
			"bufferView":0,
			"componentType":5126,
			"count":274,
			"max":[
				2.1285293102264404,
				8.24875259399414,
				5.08922815322876
			],
			"min":[
				-2.1285293102264404,
				0.20481491088867188,
				-4.306431770324707
			],
			"type":"VEC3"
		},
		{
			"bufferView":1,
			"componentType":5126,
			"count":274,
			"type":"VEC3"
		},
		{
			"bufferView":2,
			"componentType":5126,
			"count":274,
			"type":"VEC2"
		},
		{
			"bufferView":3,
			"componentType":5123,
			"count":510,
			"type":"SCALAR"
		},
		{
			"bufferView":4,
			"componentType":5126,
			"count":9223,
			"max":[
				1.2519148588180542,
				7.983989715576172,
				3.416929244995117
			],
			"min":[
				-1.2519148588180542,
				0.4009552001953125,
				-124.23834228515625
			],
			"type":"VEC3"
		},
		{
			"bufferView":5,
			"componentType":5126,
			"count":9223,
			"type":"VEC3"
		},
		{
			"bufferView":6,
			"componentType":5126,
			"count":9223,
			"type":"VEC2"
		},
		{
			"bufferView":7,
			"componentType":5123,
			"count":16758,
			"type":"SCALAR"
		},
		{
			"bufferView":8,
			"componentType":5126,
			"count":728,
			"max":[
				2.926851749420166,
				8.685680389404297,
				-11.375895500183105
			],
			"min":[
				-2.926851749420166,
				-0.14347457885742188,
				-25.52303695678711
			],
			"type":"VEC3"
		},
		{
			"bufferView":9,
			"componentType":5126,
			"count":728,
			"type":"VEC3"
		},
		{
			"bufferView":10,
			"componentType":5126,
			"count":728,
			"type":"VEC2"
		},
		{
			"bufferView":11,
			"componentType":5123,
			"count":1536,
			"type":"SCALAR"
		},
		{
			"bufferView":12,
			"componentType":5126,
			"count":640,
			"max":[
				1.966160535812378,
				7.379138946533203,
				-11.742386817932129
			],
			"min":[
				-1.9661650657653809,
				1.3124542236328125,
				-25.08026123046875
			],
			"type":"VEC3"
		},
		{
			"bufferView":13,
			"componentType":5126,
			"count":640,
			"type":"VEC3"
		},
		{
			"bufferView":14,
			"componentType":5126,
			"count":640,
			"type":"VEC2"
		},
		{
			"bufferView":15,
			"componentType":5123,
			"count":1056,
			"type":"SCALAR"
		},
		{
			"bufferView":16,
			"componentType":5126,
			"count":164,
			"max":[
				2.1285293102264404,
				8.166324615478516,
				-118.90233612060547
			],
			"min":[
				-2.1285293102264404,
				0.20482254028320312,
				-128.84136962890625
			],
			"type":"VEC3"
		},
		{
			"bufferView":17,
			"componentType":5126,
			"count":164,
			"type":"VEC3"
		},
		{
			"bufferView":18,
			"componentType":5126,
			"count":164,
			"type":"VEC2"
		},
		{
			"bufferView":19,
			"componentType":5123,
			"count":282,
			"type":"SCALAR"
		}
	],
	"bufferViews":[
		{
			"buffer":0,
			"byteLength":3288,
			"byteOffset":0,
			"target":34962
		},
		{
			"buffer":0,
			"byteLength":3288,
			"byteOffset":3288,
			"target":34962
		},
		{
			"buffer":0,
			"byteLength":2192,
			"byteOffset":6576,
			"target":34962
		},
		{
			"buffer":0,
			"byteLength":1020,
			"byteOffset":8768,
			"target":34963
		},
		{
			"buffer":0,
			"byteLength":110676,
			"byteOffset":9788,
			"target":34962
		},
		{
			"buffer":0,
			"byteLength":110676,
			"byteOffset":120464,
			"target":34962
		},
		{
			"buffer":0,
			"byteLength":73784,
			"byteOffset":231140,
			"target":34962
		},
		{
			"buffer":0,
			"byteLength":33516,
			"byteOffset":304924,
			"target":34963
		},
		{
			"buffer":0,
			"byteLength":8736,
			"byteOffset":338440,
			"target":34962
		},
		{
			"buffer":0,
			"byteLength":8736,
			"byteOffset":347176,
			"target":34962
		},
		{
			"buffer":0,
			"byteLength":5824,
			"byteOffset":355912,
			"target":34962
		},
		{
			"buffer":0,
			"byteLength":3072,
			"byteOffset":361736,
			"target":34963
		},
		{
			"buffer":0,
			"byteLength":7680,
			"byteOffset":364808,
			"target":34962
		},
		{
			"buffer":0,
			"byteLength":7680,
			"byteOffset":372488,
			"target":34962
		},
		{
			"buffer":0,
			"byteLength":5120,
			"byteOffset":380168,
			"target":34962
		},
		{
			"buffer":0,
			"byteLength":2112,
			"byteOffset":385288,
			"target":34963
		},
		{
			"buffer":0,
			"byteLength":1968,
			"byteOffset":387400,
			"target":34962
		},
		{
			"buffer":0,
			"byteLength":1968,
			"byteOffset":389368,
			"target":34962
		},
		{
			"buffer":0,
			"byteLength":1312,
			"byteOffset":391336,
			"target":34962
		},
		{
			"buffer":0,
			"byteLength":564,
			"byteOffset":392648,
			"target":34963
		}
	],
	"buffers":[
		{
			"byteLength":393212,
			"uri":"Katana-white_sheath.bin"
		}
	]
}
