{
	"asset":{
		"generator":"Khronos glTF Blender I/O v4.3.47",
		"version":"2.0"
	},
	"scene":0,
	"scenes":[
		{
			"name":"Scene",
			"nodes":[
				6
			]
		}
	],
	"nodes":[
		{
			"name":"SM_TV80S_Domyxer_01_3",
			"translation":[
				2,
				0,
				0
			]
		},
		{
			"mesh":0,
			"name":"Object_6"
		},
		{
			"children":[
				1
			],
			"name":"SM_TV80S_Domyxer_02_2"
		},
		{
			"name":"Square_0",
			"rotation":[
				0,
				0.999793291091919,
				0,
				0.02033112570643425
			],
			"scale":[
				0.4092452824115753,
				0.40924516320228577,
				0.4092452824115753
			],
			"translation":[
				0.3156284689903259,
				-0.000240325927734375,
				0.06564988195896149
			]
		},
		{
			"children":[
				0,
				2,
				3
			],
			"name":"GLTF_SceneRootNode",
			"rotation":[
				0.70710688829422,
				0,
				0,
				0.7071066498756409
			]
		},
		{
			"children":[
				4
			],
			"name":"root"
		},
		{
			"children":[
				5
			],
			"name":"Sketchfab_model",
			"rotation":[
				-0.70710688829422,
				0,
				0,
				0.7071066498756409
			]
		}
	],
	"materials":[
		{
			"doubleSided":true,
			"name":"M_TV80S.001",
			"normalTexture":{
				"index":0
			},
			"pbrMetallicRoughness":{
				"baseColorTexture":{
					"index":1
				},
				"metallicRoughnessTexture":{
					"index":2
				}
			}
		}
	],
	"meshes":[
		{
			"name":"Object_1",
			"primitives":[
				{
					"attributes":{
						"POSITION":0,
						"NORMAL":1,
						"TEXCOORD_0":2,
						"TEXCOORD_1":3,
						"TEXCOORD_2":4,
						"TEXCOORD_3":5
					},
					"indices":6,
					"material":0
				}
			]
		}
	],
	"textures":[
		{
			"sampler":0,
			"source":0
		},
		{
			"sampler":0,
			"source":1
		},
		{
			"sampler":0,
			"source":2
		}
	],
	"images":[
		{
			"mimeType":"image/jpeg",
			"name":"M_TV80S.001_Normal",
			"uri":"M_TV80S_001_Normal.jpg"
		},
		{
			"mimeType":"image/jpeg",
			"name":"M_TV80S.001_BaseColor",
			"uri":"M_TV80S_001_BaseColor.jpg"
		},
		{
			"mimeType":"image/jpeg",
			"name":"M_TV80S.001_ORM",
			"uri":"M_TV80S_001_ORM.jpg"
		}
	],
	"accessors":[
		{
			"bufferView":0,
			"componentType":5126,
			"count":6908,
			"max":[
				0.5338060855865479,
				0.8109127879142761,
				0.3484022319316864
			],
			"min":[
				-0.5403065085411072,
				-0.00024021149147301912,
				-0.47970208525657654
			],
			"type":"VEC3"
		},
		{
			"bufferView":1,
			"componentType":5126,
			"count":6908,
			"type":"VEC3"
		},
		{
			"bufferView":2,
			"componentType":5126,
			"count":6908,
			"type":"VEC2"
		},
		{
			"bufferView":3,
			"componentType":5126,
			"count":6908,
			"type":"VEC2"
		},
		{
			"bufferView":4,
			"componentType":5126,
			"count":6908,
			"type":"VEC2"
		},
		{
			"bufferView":5,
			"componentType":5126,
			"count":6908,
			"type":"VEC2"
		},
		{
			"bufferView":6,
			"componentType":5123,
			"count":22650,
			"type":"SCALAR"
		}
	],
	"bufferViews":[
		{
			"buffer":0,
			"byteLength":82896,
			"byteOffset":0,
			"target":34962
		},
		{
			"buffer":0,
			"byteLength":82896,
			"byteOffset":82896,
			"target":34962
		},
		{
			"buffer":0,
			"byteLength":55264,
			"byteOffset":165792,
			"target":34962
		},
		{
			"buffer":0,
			"byteLength":55264,
			"byteOffset":221056,
			"target":34962
		},
		{
			"buffer":0,
			"byteLength":55264,
			"byteOffset":276320,
			"target":34962
		},
		{
			"buffer":0,
			"byteLength":55264,
			"byteOffset":331584,
			"target":34962
		},
		{
			"buffer":0,
			"byteLength":45300,
			"byteOffset":386848,
			"target":34963
		}
	],
	"samplers":[
		{
			"magFilter":9729,
			"minFilter":9987
		}
	],
	"buffers":[
		{
			"byteLength":432148,
			"uri":"TV.bin"
		}
	]
}
