{
	"asset":{
		"generator":"Khronos glTF Blender I/O v4.3.47",
		"version":"2.0"
	},
	"extensionsUsed":[
		"KHR_materials_specular"
	],
	"scene":0,
	"scenes":[
		{
			"name":"Scene",
			"nodes":[
				0
			]
		}
	],
	"nodes":[
		{
			"mesh":0,
			"name":"SM_Tower",
			"rotation":[
				0.7071068286895752,
				0,
				0,
				0.7071068286895752
			],
			"scale":[
				0.009999999776482582,
				0.009999999776482582,
				0.009999999776482582
			]
		}
	],
	"materials":[
		{
			"doubleSided":true,
			"extensions":{
				"KHR_materials_specular":{
					"specularColorFactor":[
						2.0,
						2.0,
						2.0
					]
				}
			},
			"name":"MI_ConcreteWall_White.001",
			"pbrMetallicRoughness":{
				"baseColorFactor":[
					0.5,
					0.5,
					0.5,
					1
				],
				"roughnessFactor":0.5527864098548889
			}
		},
		{
			"doubleSided":true,
			"extensions":{
				"KHR_materials_specular":{
					"specularColorFactor":[
						2.0,
						2.0,
						2.0
					]
				}
			},
			"name":"MI_ConcreteWall_Red.003",
			"pbrMetallicRoughness":{
				"baseColorFactor":[
					0.4994831681251526,
					0,
					0.0012628488475456834,
					1
				],
				"roughnessFactor":0.5527864098548889
			}
		}
	],
	"meshes":[
		{
			"name":"SM_Tower.001",
			"primitives":[
				{
					"attributes":{
						"POSITION":0,
						"NORMAL":1,
						"TEXCOORD_0":2,
						"TEXCOORD_1":3
					},
					"indices":4,
					"material":0
				},
				{
					"attributes":{
						"POSITION":5,
						"NORMAL":6,
						"TEXCOORD_0":7,
						"TEXCOORD_1":8
					},
					"indices":9,
					"material":1
				}
			]
		}
	],
	"accessors":[
		{
			"bufferView":0,
			"componentType":5126,
			"count":1557,
			"max":[
				1051.7589111328125,
				1036.2886962890625,
				-1517.562255859375
			],
			"min":[
				-1362.92529296875,
				-1350.55078125,
				-11921.5234375
			],
			"type":"VEC3"
		},
		{
			"bufferView":1,
			"componentType":5126,
			"count":1557,
			"type":"VEC3"
		},
		{
			"bufferView":2,
			"componentType":5126,
			"count":1557,
			"type":"VEC2"
		},
		{
			"bufferView":3,
			"componentType":5126,
			"count":1557,
			"type":"VEC2"
		},
		{
			"bufferView":4,
			"componentType":5123,
			"count":3960,
			"type":"SCALAR"
		},
		{
			"bufferView":5,
			"componentType":5126,
			"count":2058,
			"max":[
				1307.230224609375,
				1291.760009765625,
				0.00019444386998657137
			],
			"min":[
				-1618.396728515625,
				-1606.0220947265625,
				-14514.814453125
			],
			"type":"VEC3"
		},
		{
			"bufferView":6,
			"componentType":5126,
			"count":2058,
			"type":"VEC3"
		},
		{
			"bufferView":7,
			"componentType":5126,
			"count":2058,
			"type":"VEC2"
		},
		{
			"bufferView":8,
			"componentType":5126,
			"count":2058,
			"type":"VEC2"
		},
		{
			"bufferView":9,
			"componentType":5123,
			"count":5412,
			"type":"SCALAR"
		}
	],
	"bufferViews":[
		{
			"buffer":0,
			"byteLength":18684,
			"byteOffset":0,
			"target":34962
		},
		{
			"buffer":0,
			"byteLength":18684,
			"byteOffset":18684,
			"target":34962
		},
		{
			"buffer":0,
			"byteLength":12456,
			"byteOffset":37368,
			"target":34962
		},
		{
			"buffer":0,
			"byteLength":12456,
			"byteOffset":49824,
			"target":34962
		},
		{
			"buffer":0,
			"byteLength":7920,
			"byteOffset":62280,
			"target":34963
		},
		{
			"buffer":0,
			"byteLength":24696,
			"byteOffset":70200,
			"target":34962
		},
		{
			"buffer":0,
			"byteLength":24696,
			"byteOffset":94896,
			"target":34962
		},
		{
			"buffer":0,
			"byteLength":16464,
			"byteOffset":119592,
			"target":34962
		},
		{
			"buffer":0,
			"byteLength":16464,
			"byteOffset":136056,
			"target":34962
		},
		{
			"buffer":0,
			"byteLength":10824,
			"byteOffset":152520,
			"target":34963
		}
	],
	"buffers":[
		{
			"byteLength":163344,
			"uri":"Tower.bin"
		}
	]
}
