{
	"asset":
	{
		"version": "2.0",
		"generator": "Unreal Engine 5.5.4"
	},
	"scene": 0,
	"accessors": [
		{
			"bufferView": 0,
			"count": 22650,
			"type": "SCALAR",
			"componentType": 5123
		},
		{
			"bufferView": 1,
			"count": 22650,
			"type": "VEC3",
			"componentType": 5126,
			"min": [ -0.540306509, -0.000240211477, -0.479702055 ],
			"max": [ 0.533806086, 0.810912788, 0.348402202 ]
		},
		{
			"bufferView": 2,
			"count": 22650,
			"type": "VEC3",
			"componentType": 5126
		},
		{
			"bufferView": 3,
			"count": 22650,
			"type": "VEC2",
			"componentType": 5126
		},
		{
			"bufferView": 4,
			"count": 528,
			"type": "SCALAR",
			"componentType": 5123
		},
		{
			"bufferView": 5,
			"count": 528,
			"type": "VEC3",
			"componentType": 5126,
			"min": [ -0.871095657, -1.73138375e-07, -1.107476 ],
			"max": [ 0.86211592, 0.898937523, 1.10892916 ]
		},
		{
			"bufferView": 6,
			"count": 528,
			"type": "VEC3",
			"componentType": 5126
		},
		{
			"bufferView": 7,
			"count": 528,
			"type": "VEC2",
			"componentType": 5126
		},
		{
			"bufferView": 8,
			"count": 1878,
			"type": "SCALAR",
			"componentType": 5123
		},
		{
			"bufferView": 9,
			"count": 1878,
			"type": "VEC3",
			"componentType": 5126,
			"min": [ -0.21009399, -0.306969672, -5.86568767e-08 ],
			"max": [ 0.210094213, 0.306961656, 0.182693928 ]
		},
		{
			"bufferView": 10,
			"count": 1878,
			"type": "VEC3",
			"componentType": 5126
		},
		{
			"bufferView": 11,
			"count": 1878,
			"type": "VEC2",
			"componentType": 5126
		},
		{
			"bufferView": 12,
			"count": 12528,
			"type": "SCALAR",
			"componentType": 5123
		},
		{
			"bufferView": 13,
			"count": 12528,
			"type": "VEC3",
			"componentType": 5126,
			"min": [ -1.6752851, -0.124584012, 0.28906709 ],
			"max": [ -1.41551554, -0.0551124737, 0.523155868 ]
		},
		{
			"bufferView": 14,
			"count": 12528,
			"type": "VEC3",
			"componentType": 5126
		},
		{
			"bufferView": 15,
			"count": 12528,
			"type": "VEC2",
			"componentType": 5126
		},
		{
			"bufferView": 16,
			"count": 1800,
			"type": "SCALAR",
			"componentType": 5123
		},
		{
			"bufferView": 17,
			"count": 1800,
			"type": "VEC3",
			"componentType": 5126,
			"min": [ -2.00000048, -1.20908897e-16, -2 ],
			"max": [ 1.99999952, 0.399999946, 2 ]
		},
		{
			"bufferView": 18,
			"count": 1800,
			"type": "VEC3",
			"componentType": 5126
		},
		{
			"bufferView": 19,
			"count": 1800,
			"type": "VEC2",
			"componentType": 5126
		},
		{
			"bufferView": 20,
			"count": 78,
			"type": "SCALAR",
			"componentType": 5121
		},
		{
			"bufferView": 21,
			"count": 78,
			"type": "VEC3",
			"componentType": 5126,
			"min": [ -0.5, -3.0616168e-17, -0.5 ],
			"max": [ 0.5, 0.0762538314, 0.5 ]
		},
		{
			"bufferView": 22,
			"count": 78,
			"type": "VEC3",
			"componentType": 5126
		},
		{
			"bufferView": 23,
			"count": 78,
			"type": "VEC2",
			"componentType": 5126
		},
		{
			"bufferView": 24,
			"count": 9786,
			"type": "SCALAR",
			"componentType": 5123
		},
		{
			"bufferView": 25,
			"count": 9786,
			"type": "VEC3",
			"componentType": 5126,
			"min": [ -1.65579844, -0.0044092387, -1.48026884 ],
			"max": [ 1.64895976, 3.89373851, 1.48026884 ]
		},
		{
			"bufferView": 26,
			"count": 9786,
			"type": "VEC3",
			"componentType": 5126
		},
		{
			"bufferView": 27,
			"count": 9786,
			"type": "VEC2",
			"componentType": 5126
		},
		{
			"bufferView": 28,
			"count": 24,
			"type": "SCALAR",
			"componentType": 5121
		},
		{
			"bufferView": 29,
			"count": 24,
			"type": "VEC3",
			"componentType": 5126,
			"min": [ -1.45025599, 2.94535112, -1.40137863 ],
			"max": [ 1.50760591, 3.81925249, 1.40337551 ]
		},
		{
			"bufferView": 30,
			"count": 24,
			"type": "VEC3",
			"componentType": 5126
		},
		{
			"bufferView": 31,
			"count": 24,
			"type": "VEC2",
			"componentType": 5126
		},
		{
			"bufferView": 32,
			"count": 36,
			"type": "SCALAR",
			"componentType": 5121
		},
		{
			"bufferView": 33,
			"count": 36,
			"type": "VEC3",
			"componentType": 5126,
			"min": [ 0, 0, -0.199999958 ],
			"max": [ 4, 4, 2.60673073e-06 ]
		},
		{
			"bufferView": 34,
			"count": 36,
			"type": "VEC3",
			"componentType": 5126
		},
		{
			"bufferView": 35,
			"count": 36,
			"type": "VEC2",
			"componentType": 5126
		},
		{
			"bufferView": 36,
			"count": 36,
			"type": "VEC2",
			"componentType": 5126
		},
		{
			"bufferView": 37,
			"count": 1716,
			"type": "SCALAR",
			"componentType": 5123
		},
		{
			"bufferView": 38,
			"count": 1716,
			"type": "VEC3",
			"componentType": 5126,
			"min": [ -0.00614669919, 0, -0.287531078 ],
			"max": [ 4, 2.2142961, 0.0874522179 ]
		},
		{
			"bufferView": 39,
			"count": 1716,
			"type": "VEC3",
			"componentType": 5126
		},
		{
			"bufferView": 40,
			"count": 1716,
			"type": "VEC2",
			"componentType": 5126
		},
		{
			"bufferView": 41,
			"count": 1716,
			"type": "VEC2",
			"componentType": 5126
		}
	],
	"buffers": [
		{
			"uri": "TitleMap.bin",
			"byteLength": 1748696
		}
	],
	"bufferViews": [
		{
			"buffer": 0,
			"byteLength": 45300,
			"target": 34963
		},
		{
			"buffer": 0,
			"byteLength": 271800,
			"byteOffset": 45300,
			"target": 34962
		},
		{
			"buffer": 0,
			"byteLength": 271800,
			"byteOffset": 317100,
			"target": 34962
		},
		{
			"buffer": 0,
			"byteLength": 181200,
			"byteOffset": 588900,
			"target": 34962
		},
		{
			"buffer": 0,
			"byteLength": 1056,
			"byteOffset": 770100,
			"target": 34963
		},
		{
			"buffer": 0,
			"byteLength": 6336,
			"byteOffset": 771156,
			"target": 34962
		},
		{
			"buffer": 0,
			"byteLength": 6336,
			"byteOffset": 777492,
			"target": 34962
		},
		{
			"buffer": 0,
			"byteLength": 4224,
			"byteOffset": 783828,
			"target": 34962
		},
		{
			"buffer": 0,
			"byteLength": 3756,
			"byteOffset": 788052,
			"target": 34963
		},
		{
			"buffer": 0,
			"byteLength": 22536,
			"byteOffset": 791808,
			"target": 34962
		},
		{
			"buffer": 0,
			"byteLength": 22536,
			"byteOffset": 814344,
			"target": 34962
		},
		{
			"buffer": 0,
			"byteLength": 15024,
			"byteOffset": 836880,
			"target": 34962
		},
		{
			"buffer": 0,
			"byteLength": 25056,
			"byteOffset": 851904,
			"target": 34963
		},
		{
			"buffer": 0,
			"byteLength": 150336,
			"byteOffset": 876960,
			"target": 34962
		},
		{
			"buffer": 0,
			"byteLength": 150336,
			"byteOffset": 1027296,
			"target": 34962
		},
		{
			"buffer": 0,
			"byteLength": 100224,
			"byteOffset": 1177632,
			"target": 34962
		},
		{
			"buffer": 0,
			"byteLength": 3600,
			"byteOffset": 1277856,
			"target": 34963
		},
		{
			"buffer": 0,
			"byteLength": 21600,
			"byteOffset": 1281456,
			"target": 34962
		},
		{
			"buffer": 0,
			"byteLength": 21600,
			"byteOffset": 1303056,
			"target": 34962
		},
		{
			"buffer": 0,
			"byteLength": 14400,
			"byteOffset": 1324656,
			"target": 34962
		},
		{
			"buffer": 0,
			"byteLength": 78,
			"byteOffset": 1339056,
			"target": 34963
		},
		{
			"buffer": 0,
			"byteLength": 936,
			"byteOffset": 1339136,
			"target": 34962
		},
		{
			"buffer": 0,
			"byteLength": 936,
			"byteOffset": 1340072,
			"target": 34962
		},
		{
			"buffer": 0,
			"byteLength": 624,
			"byteOffset": 1341008,
			"target": 34962
		},
		{
			"buffer": 0,
			"byteLength": 19572,
			"byteOffset": 1341632,
			"target": 34963
		},
		{
			"buffer": 0,
			"byteLength": 117432,
			"byteOffset": 1361204,
			"target": 34962
		},
		{
			"buffer": 0,
			"byteLength": 117432,
			"byteOffset": 1478636,
			"target": 34962
		},
		{
			"buffer": 0,
			"byteLength": 78288,
			"byteOffset": 1596068,
			"target": 34962
		},
		{
			"buffer": 0,
			"byteLength": 24,
			"byteOffset": 1674356,
			"target": 34963
		},
		{
			"buffer": 0,
			"byteLength": 288,
			"byteOffset": 1674380,
			"target": 34962
		},
		{
			"buffer": 0,
			"byteLength": 288,
			"byteOffset": 1674668,
			"target": 34962
		},
		{
			"buffer": 0,
			"byteLength": 192,
			"byteOffset": 1674956,
			"target": 34962
		},
		{
			"buffer": 0,
			"byteLength": 36,
			"byteOffset": 1675148,
			"target": 34963
		},
		{
			"buffer": 0,
			"byteLength": 432,
			"byteOffset": 1675184,
			"target": 34962
		},
		{
			"buffer": 0,
			"byteLength": 432,
			"byteOffset": 1675616,
			"target": 34962
		},
		{
			"buffer": 0,
			"byteLength": 288,
			"byteOffset": 1676048,
			"target": 34962
		},
		{
			"buffer": 0,
			"byteLength": 288,
			"byteOffset": 1676336,
			"target": 34962
		},
		{
			"buffer": 0,
			"byteLength": 3432,
			"byteOffset": 1676624,
			"target": 34963
		},
		{
			"buffer": 0,
			"byteLength": 20592,
			"byteOffset": 1680056,
			"target": 34962
		},
		{
			"buffer": 0,
			"byteLength": 20592,
			"byteOffset": 1700648,
			"target": 34962
		},
		{
			"buffer": 0,
			"byteLength": 13728,
			"byteOffset": 1721240,
			"target": 34962
		},
		{
			"buffer": 0,
			"byteLength": 13728,
			"byteOffset": 1734968,
			"target": 34962
		}
	],
	"images": [
		{
			"uri": "M_TV80S_001_BaseColor.png"
		},
		{
			"uri": "M_TV80S_001_ORM.png"
		},
		{
			"uri": "M_TV80S_001_Normal.png"
		},
		{
			"uri": "T_Drywall_Pile_BC.png"
		},
		{
			"uri": "T_Drywall_Pile_ORM.png"
		},
		{
			"uri": "T_Drywall_Pile_N.png"
		},
		{
			"uri": "T_ElectricityBoxes_D_sRGB.png"
		},
		{
			"uri": "T_ElectricityBoxes_ORM.png"
		},
		{
			"uri": "T_ElectricityBoxes_N.png"
		},
		{
			"uri": "hr_DefaultMaterial_BaseColor.png"
		},
		{
			"uri": "hr_DefaultMaterial_Metallic-hr_DefaultMaterial_Roughness.png"
		},
		{
			"uri": "hr_DefaultMaterial_Normal.png"
		},
		{
			"uri": "T_Tileable_BC.png"
		},
		{
			"uri": "T_Tileable_ORM.png"
		},
		{
			"uri": "T_Tileable_N.png"
		},
		{
			"uri": "T_Exterior_Atlas_2_BC.png"
		},
		{
			"uri": "T_Exterior_Atlas_ORM.png"
		},
		{
			"uri": "T_Exterior_Atlas_N.png"
		},
		{
			"uri": "T_RoofAC_D.png"
		},
		{
			"uri": "T_RoofAC_ORM.png"
		},
		{
			"uri": "T_RoofAC_N.png"
		},
		{
			"uri": "T_Brick_Wall_BC.png"
		},
		{
			"uri": "T_Brick_Wall_ORM.png"
		},
		{
			"uri": "T_Brick_Wall_N.png"
		}
	],
	"materials": [
		{
			"name": "M_TV80S_001_TV",
			"pbrMetallicRoughness":
			{
				"baseColorTexture":
				{
					"index": 0
				},
				"metallicRoughnessTexture":
				{
					"index": 1
				}
			},
			"normalTexture":
			{
				"index": 2
			},
			"doubleSided": true
		},
		{
			"name": "MI_Drywall_Pile",
			"pbrMetallicRoughness":
			{
				"baseColorTexture":
				{
					"index": 3
				},
				"metallicRoughnessTexture":
				{
					"index": 4
				}
			},
			"normalTexture":
			{
				"index": 5
			},
			"occlusionTexture":
			{
				"index": 4
			},
			"doubleSided": true
		},
		{
			"name": "MI_ElectricityBoxes",
			"pbrMetallicRoughness":
			{
				"baseColorTexture":
				{
					"index": 6
				},
				"metallicRoughnessTexture":
				{
					"index": 7
				}
			},
			"normalTexture":
			{
				"index": 8
			},
			"occlusionTexture":
			{
				"index": 7
			},
			"doubleSided": true
		},
		{
			"name": "材质_019_Recorder",
			"pbrMetallicRoughness":
			{
				"baseColorTexture":
				{
					"index": 9
				},
				"metallicRoughnessTexture":
				{
					"index": 10
				}
			},
			"normalTexture":
			{
				"index": 11
			},
			"doubleSided": true
		},
		{
			"name": "MI_Tileable_Exterior",
			"pbrMetallicRoughness":
			{
				"baseColorTexture":
				{
					"index": 12
				},
				"metallicRoughnessTexture":
				{
					"index": 13
				}
			},
			"normalTexture":
			{
				"index": 14
			},
			"occlusionTexture":
			{
				"index": 13
			},
			"doubleSided": true
		},
		{
			"name": "MI_Exterior_Atlas",
			"pbrMetallicRoughness":
			{
				"baseColorTexture":
				{
					"index": 15
				},
				"metallicRoughnessTexture":
				{
					"index": 16
				}
			},
			"normalTexture":
			{
				"index": 17
			},
			"occlusionTexture":
			{
				"index": 16
			},
			"doubleSided": true
		},
		{
			"name": "MI_RoofAc",
			"pbrMetallicRoughness":
			{
				"baseColorTexture":
				{
					"index": 18
				},
				"metallicRoughnessTexture":
				{
					"index": 19
				}
			},
			"normalTexture":
			{
				"index": 20
			},
			"occlusionTexture":
			{
				"index": 19
			},
			"doubleSided": true
		},
		{
			"name": "MI_RoofAc_transparent",
			"pbrMetallicRoughness":
			{
				"baseColorTexture":
				{
					"index": 18
				},
				"metallicRoughnessTexture":
				{
					"index": 19
				}
			},
			"normalTexture":
			{
				"index": 20
			},
			"occlusionTexture":
			{
				"index": 19
			},
			"alphaMode": "MASK",
			"alphaCutoff": 0.333299994,
			"doubleSided": true
		},
		{
			"name": "MI_Brick_Wall",
			"pbrMetallicRoughness":
			{
				"baseColorTexture":
				{
					"index": 21
				},
				"metallicRoughnessTexture":
				{
					"index": 22
				}
			},
			"normalTexture":
			{
				"index": 23
			},
			"occlusionTexture":
			{
				"index": 22
			},
			"doubleSided": true
		}
	],
	"meshes": [
		{
			"name": "TV",
			"primitives": [
				{
					"attributes":
					{
						"POSITION": 1,
						"NORMAL": 2,
						"TEXCOORD_0": 3,
						"TEXCOORD_1": 3
					},
					"indices": 0,
					"material": 0
				}
			]
		},
		{
			"name": "SM_Exterior_1__Drywall",
			"primitives": [
				{
					"attributes":
					{
						"POSITION": 5,
						"NORMAL": 6,
						"TEXCOORD_0": 7
					},
					"indices": 4,
					"material": 1
				}
			]
		},
		{
			"name": "SM_electricitybox3",
			"primitives": [
				{
					"attributes":
					{
						"POSITION": 9,
						"NORMAL": 10,
						"TEXCOORD_0": 11
					},
					"indices": 8,
					"material": 2
				}
			]
		},
		{
			"name": "Recorder",
			"primitives": [
				{
					"attributes":
					{
						"POSITION": 13,
						"NORMAL": 14,
						"TEXCOORD_0": 15
					},
					"indices": 12,
					"material": 3
				}
			]
		},
		{
			"name": "SM_Building_Pieces_ConcreteChunk",
			"primitives": [
				{
					"attributes":
					{
						"POSITION": 17,
						"NORMAL": 18,
						"TEXCOORD_0": 19
					},
					"indices": 16,
					"material": 4
				}
			]
		},
		{
			"name": "SM_Building_Pieces_2_Vent",
			"primitives": [
				{
					"attributes":
					{
						"POSITION": 21,
						"NORMAL": 22,
						"TEXCOORD_0": 23
					},
					"indices": 20,
					"material": 5
				}
			]
		},
		{
			"name": "SM_AC",
			"primitives": [
				{
					"attributes":
					{
						"POSITION": 25,
						"NORMAL": 26,
						"TEXCOORD_0": 27
					},
					"indices": 24,
					"material": 6
				},
				{
					"attributes":
					{
						"POSITION": 29,
						"NORMAL": 30,
						"TEXCOORD_0": 31
					},
					"indices": 28,
					"material": 7
				}
			]
		},
		{
			"name": "SM_BW_BrickWall4m",
			"primitives": [
				{
					"attributes":
					{
						"POSITION": 33,
						"NORMAL": 34,
						"TEXCOORD_0": 35,
						"TEXCOORD_1": 36
					},
					"indices": 32,
					"material": 8
				}
			]
		},
		{
			"name": "SM_BW_BrickWall4mHalf2",
			"primitives": [
				{
					"attributes":
					{
						"POSITION": 38,
						"NORMAL": 39,
						"TEXCOORD_0": 40,
						"TEXCOORD_1": 41
					},
					"indices": 37,
					"material": 8
				}
			]
		}
	],
	"nodes": [
		{
			"name": "Brush",
			"translation": [ 2.29999995, 1.29999995, 0.699999988 ]
		},
		{
			"name": "DefaultPhysicsVolume0"
		},
		{
			"name": "PostProcessVolume",
			"translation": [ 1, 5, 1 ]
		},
		{
			"name": "SK_PerulaVRM",
			"translation": [ 9.19999981, 0, 4.29999971 ]
		},
		{
			"name": "SkyAtmosphere",
			"translation": [ 0, 10.1999998, 0 ]
		},
		{
			"name": "DirectionalLight",
			"translation": [ -0.199999988, 9.09999943, 0 ],
			"rotation": [ 0.12480472, -0.0012086645, -0.514017522, 0.848650992 ],
			"scale": [ 2.5, 2.5, 2.5 ]
		},
		{
			"name": "ExponentialHeightFog",
			"translation": [ -56, -68.5, -0.5 ]
		},
		{
			"name": "StaticMeshActor",
			"translation": [ 49.2000008, 19.7999992, 43.7000008 ]
		},
		{
			"name": "SkyLight",
			"translation": [ 0, 6.89999962, 0 ]
		},
		{
			"name": "AbstractNavData-Default"
		},
		{
			"name": "TV",
			"translation": [ 0.421686739, -0.797591686, 0.802355945 ],
			"mesh": 0
		},
		{
			"name": "SM_Exterior_1__Drywall",
			"translation": [ 0.599999964, -1.69999993, 0.299999982 ],
			"rotation": [ -0, -0.707106829, 0, 0.707106829 ],
			"mesh": 1
		},
		{
			"name": "SM_electricitybox3",
			"translation": [ -0.299999982, -0.639999986, 0.939999998 ],
			"scale": [ 1, 0.5, 1 ],
			"mesh": 2
		},
		{
			"name": "Recorder",
			"translation": [ 5.96999979, -0.429999977, -0.459999979 ],
			"scale": [ 3, 3, 3 ],
			"mesh": 3
		},
		{
			"name": "SM_Building_Pieces_ConcreteChunk",
			"translation": [ -1, -3.79999995, -5.19999981 ],
			"scale": [ 7, 2.5, 2.5 ],
			"mesh": 4
		},
		{
			"name": "SM_Building_Pieces_2_Vent",
			"translation": [ -5.73999977, 2.29999995, -5.17000008 ],
			"rotation": [ 0.707106829, -0, 0, 0.707106829 ],
			"scale": [ 3, 0.5, 3 ],
			"mesh": 5
		},
		{
			"name": "SM_AC",
			"translation": [ -4.33999968, -3.83999991, -7 ],
			"scale": [ 2, 2, 2 ],
			"mesh": 6
		},
		{
			"name": "SM_BW_BrickWall4m",
			"translation": [ -1.39999998, -3, -8.39999962 ],
			"mesh": 7
		},
		{
			"name": "SM_BW_BrickWall4m2",
			"translation": [ 2.5999999, -3, -8.39999962 ],
			"mesh": 7
		},
		{
			"name": "SM_BW_BrickWall4m3",
			"translation": [ 6.5999999, -3, -8.39999962 ],
			"mesh": 7
		},
		{
			"name": "SM_BW_BrickWall4m4",
			"translation": [ 6.5999999, 1, -8.39999962 ],
			"mesh": 7
		},
		{
			"name": "SM_BW_BrickWall4m5",
			"translation": [ 2.5999999, 1, -8.39999962 ],
			"mesh": 7
		},
		{
			"name": "SM_BW_BrickWall4m6",
			"translation": [ -1.39999998, 1, -8.39999962 ],
			"mesh": 7
		},
		{
			"name": "SM_BW_BrickWall4m7",
			"translation": [ -5.4000001, 1, -8.39999962 ],
			"mesh": 7
		},
		{
			"name": "SM_BW_BrickWall4mHalf2",
			"translation": [ 4.5, -2.79999995, -8.19999981 ],
			"mesh": 8
		},
		{
			"name": "SM_BW_BrickWall4m8",
			"translation": [ 10.5999994, -3, -8.39999962 ],
			"mesh": 7
		},
		{
			"name": "SM_BW_BrickWall4m9",
			"translation": [ 10.5999994, 1, -8.39999962 ],
			"mesh": 7
		}
	],
	"samplers": [
		{
			"minFilter": 9987,
			"magFilter": 9729
		}
	],
	"scenes": [
		{
			"name": "ThirdPersonMap",
			"nodes": [ 0, 1, 2, 3, 4, 5, 6, 7, 8, 9, 10, 11, 12, 13, 14, 15, 16, 17, 18, 19, 20, 21, 22, 23, 24, 25, 26 ]
		}
	],
	"textures": [
		{
			"name": "M_TV80S_001_BaseColor",
			"sampler": 0,
			"source": 0
		},
		{
			"name": "M_TV80S_001_ORM",
			"sampler": 0,
			"source": 1
		},
		{
			"name": "M_TV80S_001_Normal",
			"sampler": 0,
			"source": 2
		},
		{
			"name": "T_Drywall_Pile_BC",
			"sampler": 0,
			"source": 3
		},
		{
			"name": "T_Drywall_Pile_ORM",
			"sampler": 0,
			"source": 4
		},
		{
			"name": "T_Drywall_Pile_N",
			"sampler": 0,
			"source": 5
		},
		{
			"name": "T_ElectricityBoxes_D_sRGB",
			"sampler": 0,
			"source": 6
		},
		{
			"name": "T_ElectricityBoxes_ORM",
			"sampler": 0,
			"source": 7
		},
		{
			"name": "T_ElectricityBoxes_N",
			"sampler": 0,
			"source": 8
		},
		{
			"name": "hr_DefaultMaterial_BaseColor",
			"sampler": 0,
			"source": 9
		},
		{
			"name": "hr_DefaultMaterial_Metallic-hr_DefaultMaterial_Roughness",
			"sampler": 0,
			"source": 10
		},
		{
			"name": "hr_DefaultMaterial_Normal",
			"sampler": 0,
			"source": 11
		},
		{
			"name": "T_Tileable_BC",
			"sampler": 0,
			"source": 12
		},
		{
			"name": "T_Tileable_ORM",
			"sampler": 0,
			"source": 13
		},
		{
			"name": "T_Tileable_N",
			"sampler": 0,
			"source": 14
		},
		{
			"name": "T_Exterior_Atlas_2_BC",
			"sampler": 0,
			"source": 15
		},
		{
			"name": "T_Exterior_Atlas_ORM",
			"sampler": 0,
			"source": 16
		},
		{
			"name": "T_Exterior_Atlas_N",
			"sampler": 0,
			"source": 17
		},
		{
			"name": "T_RoofAC_D",
			"sampler": 0,
			"source": 18
		},
		{
			"name": "T_RoofAC_ORM",
			"sampler": 0,
			"source": 19
		},
		{
			"name": "T_RoofAC_N",
			"sampler": 0,
			"source": 20
		},
		{
			"name": "T_Brick_Wall_BC",
			"sampler": 0,
			"source": 21
		},
		{
			"name": "T_Brick_Wall_ORM",
			"sampler": 0,
			"source": 22
		},
		{
			"name": "T_Brick_Wall_N",
			"sampler": 0,
			"source": 23
		}
	]
}