{
	"asset":{
		"generator":"Khronos glTF Blender I/O v4.3.47",
		"version":"2.0"
	},
	"scene":0,
	"scenes":[
		{
			"name":"Scene",
			"nodes":[
				0
			]
		}
	],
	"nodes":[
		{
			"mesh":0,
			"name":"SM_BGBuilding1",
			"rotation":[
				0.5416752696037292,
				0.4545193910598755,
				-0.4545196294784546,
				0.5416751503944397
			],
			"scale":[
				0.004999999422580004,
				0.015502607449889183,
				0.018206793814897537
			]
		}
	],
	"materials":[
		{
			"doubleSided":true,
			"name":"M_Wall2",
			"pbrMetallicRoughness":{
				"baseColorTexture":{
					"index":0
				},
				"metallicFactor":0,
				"roughnessFactor":0.5527864098548889
			}
		},
		{
			"doubleSided":true,
			"name":"M_BuildingAtlas_01",
			"pbrMetallicRoughness":{
				"baseColorTexture":{
					"index":1
				},
				"metallicFactor":0,
				"roughnessFactor":0.5527864098548889
			}
		},
		{
			"doubleSided":true,
			"name":"Window01",
			"pbrMetallicRoughness":{
				"metallicFactor":0,
				"roughnessFactor":0.5527864098548889
			}
		},
		{
			"doubleSided":true,
			"name":"Window01_bright",
			"pbrMetallicRoughness":{
				"metallicFactor":0,
				"roughnessFactor":0.5527864098548889
			}
		}
	],
	"meshes":[
		{
			"name":"Scene",
			"primitives":[
				{
					"attributes":{
						"POSITION":0,
						"NORMAL":1,
						"TEXCOORD_0":2,
						"TEXCOORD_1":3,
						"TEXCOORD_2":4,
						"TEXCOORD_3":5,
						"TEXCOORD_4":6
					},
					"indices":7,
					"material":0
				},
				{
					"attributes":{
						"POSITION":8,
						"NORMAL":9,
						"TEXCOORD_0":10,
						"TEXCOORD_1":11,
						"TEXCOORD_2":12,
						"TEXCOORD_3":13,
						"TEXCOORD_4":14
					},
					"indices":15,
					"material":1
				},
				{
					"attributes":{
						"POSITION":16,
						"NORMAL":17,
						"TEXCOORD_0":18,
						"TEXCOORD_1":19,
						"TEXCOORD_2":20,
						"TEXCOORD_3":21,
						"TEXCOORD_4":22
					},
					"indices":23,
					"material":2
				},
				{
					"attributes":{
						"POSITION":24,
						"NORMAL":25,
						"TEXCOORD_0":26,
						"TEXCOORD_1":27,
						"TEXCOORD_2":28,
						"TEXCOORD_3":29,
						"TEXCOORD_4":30
					},
					"indices":31,
					"material":3
				}
			]
		}
	],
	"textures":[
		{
			"sampler":0,
			"source":0
		},
		{
			"sampler":0,
			"source":1
		}
	],
	"images":[
		{
			"mimeType":"image/png",
			"name":"T_Asphalt_BC",
			"uri":"T_Asphalt_BC.png"
		},
		{
			"mimeType":"image/png",
			"name":"T_BuildingAtlas_01_BC",
			"uri":"T_BuildingAtlas_01_BC.png"
		}
	],
	"accessors":[
		{
			"bufferView":0,
			"componentType":5126,
			"count":117,
			"max":[
				1695.048583984375,
				1695.04833984375,
				0.0002761584473773837
			],
			"min":[
				-1695.048583984375,
				-1695.050537109375,
				-11877.857421875
			],
			"type":"VEC3"
		},
		{
			"bufferView":1,
			"componentType":5126,
			"count":117,
			"type":"VEC3"
		},
		{
			"bufferView":2,
			"componentType":5126,
			"count":117,
			"type":"VEC2"
		},
		{
			"bufferView":3,
			"componentType":5126,
			"count":117,
			"type":"VEC2"
		},
		{
			"bufferView":4,
			"componentType":5126,
			"count":117,
			"type":"VEC2"
		},
		{
			"bufferView":5,
			"componentType":5126,
			"count":117,
			"type":"VEC2"
		},
		{
			"bufferView":6,
			"componentType":5126,
			"count":117,
			"type":"VEC2"
		},
		{
			"bufferView":7,
			"componentType":5123,
			"count":252,
			"type":"SCALAR"
		},
		{
			"bufferView":8,
			"componentType":5126,
			"count":431,
			"max":[
				1672.396728515625,
				1667.0159912109375,
				-774.401611328125
			],
			"min":[
				-1672.3929443359375,
				-1667.0177001953125,
				-10017.3857421875
			],
			"type":"VEC3"
		},
		{
			"bufferView":9,
			"componentType":5126,
			"count":431,
			"type":"VEC3"
		},
		{
			"bufferView":10,
			"componentType":5126,
			"count":431,
			"type":"VEC2"
		},
		{
			"bufferView":11,
			"componentType":5126,
			"count":431,
			"type":"VEC2"
		},
		{
			"bufferView":12,
			"componentType":5126,
			"count":431,
			"type":"VEC2"
		},
		{
			"bufferView":13,
			"componentType":5126,
			"count":431,
			"type":"VEC2"
		},
		{
			"bufferView":14,
			"componentType":5126,
			"count":431,
			"type":"VEC2"
		},
		{
			"bufferView":15,
			"componentType":5123,
			"count":507,
			"type":"SCALAR"
		},
		{
			"bufferView":16,
			"componentType":5126,
			"count":30,
			"max":[
				1665.0487060546875,
				1665.9931640625,
				-278.5411376953125
			],
			"min":[
				-1665.4632568359375,
				-1665.26904296875,
				-10424.5205078125
			],
			"type":"VEC3"
		},
		{
			"bufferView":17,
			"componentType":5126,
			"count":30,
			"type":"VEC3"
		},
		{
			"bufferView":18,
			"componentType":5126,
			"count":30,
			"type":"VEC2"
		},
		{
			"bufferView":19,
			"componentType":5126,
			"count":30,
			"type":"VEC2"
		},
		{
			"bufferView":20,
			"componentType":5126,
			"count":30,
			"type":"VEC2"
		},
		{
			"bufferView":21,
			"componentType":5126,
			"count":30,
			"type":"VEC2"
		},
		{
			"bufferView":22,
			"componentType":5126,
			"count":30,
			"type":"VEC2"
		},
		{
			"bufferView":23,
			"componentType":5123,
			"count":30,
			"type":"SCALAR"
		},
		{
			"bufferView":24,
			"componentType":5126,
			"count":3,
			"max":[
				-1665.0484619140625,
				1416.5062255859375,
				-4854.54833984375
			],
			"min":[
				-1665.048583984375,
				-1416.5079345703125,
				-10424.5205078125
			],
			"type":"VEC3"
		},
		{
			"bufferView":25,
			"componentType":5126,
			"count":3,
			"type":"VEC3"
		},
		{
			"bufferView":26,
			"componentType":5126,
			"count":3,
			"type":"VEC2"
		},
		{
			"bufferView":27,
			"componentType":5126,
			"count":3,
			"type":"VEC2"
		},
		{
			"bufferView":28,
			"componentType":5126,
			"count":3,
			"type":"VEC2"
		},
		{
			"bufferView":29,
			"componentType":5126,
			"count":3,
			"type":"VEC2"
		},
		{
			"bufferView":30,
			"componentType":5126,
			"count":3,
			"type":"VEC2"
		},
		{
			"bufferView":31,
			"componentType":5123,
			"count":3,
			"type":"SCALAR"
		}
	],
	"bufferViews":[
		{
			"buffer":0,
			"byteLength":1404,
			"byteOffset":0,
			"target":34962
		},
		{
			"buffer":0,
			"byteLength":1404,
			"byteOffset":1404,
			"target":34962
		},
		{
			"buffer":0,
			"byteLength":936,
			"byteOffset":2808,
			"target":34962
		},
		{
			"buffer":0,
			"byteLength":936,
			"byteOffset":3744,
			"target":34962
		},
		{
			"buffer":0,
			"byteLength":936,
			"byteOffset":4680,
			"target":34962
		},
		{
			"buffer":0,
			"byteLength":936,
			"byteOffset":5616,
			"target":34962
		},
		{
			"buffer":0,
			"byteLength":936,
			"byteOffset":6552,
			"target":34962
		},
		{
			"buffer":0,
			"byteLength":504,
			"byteOffset":7488,
			"target":34963
		},
		{
			"buffer":0,
			"byteLength":5172,
			"byteOffset":7992,
			"target":34962
		},
		{
			"buffer":0,
			"byteLength":5172,
			"byteOffset":13164,
			"target":34962
		},
		{
			"buffer":0,
			"byteLength":3448,
			"byteOffset":18336,
			"target":34962
		},
		{
			"buffer":0,
			"byteLength":3448,
			"byteOffset":21784,
			"target":34962
		},
		{
			"buffer":0,
			"byteLength":3448,
			"byteOffset":25232,
			"target":34962
		},
		{
			"buffer":0,
			"byteLength":3448,
			"byteOffset":28680,
			"target":34962
		},
		{
			"buffer":0,
			"byteLength":3448,
			"byteOffset":32128,
			"target":34962
		},
		{
			"buffer":0,
			"byteLength":1014,
			"byteOffset":35576,
			"target":34963
		},
		{
			"buffer":0,
			"byteLength":360,
			"byteOffset":36592,
			"target":34962
		},
		{
			"buffer":0,
			"byteLength":360,
			"byteOffset":36952,
			"target":34962
		},
		{
			"buffer":0,
			"byteLength":240,
			"byteOffset":37312,
			"target":34962
		},
		{
			"buffer":0,
			"byteLength":240,
			"byteOffset":37552,
			"target":34962
		},
		{
			"buffer":0,
			"byteLength":240,
			"byteOffset":37792,
			"target":34962
		},
		{
			"buffer":0,
			"byteLength":240,
			"byteOffset":38032,
			"target":34962
		},
		{
			"buffer":0,
			"byteLength":240,
			"byteOffset":38272,
			"target":34962
		},
		{
			"buffer":0,
			"byteLength":60,
			"byteOffset":38512,
			"target":34963
		},
		{
			"buffer":0,
			"byteLength":36,
			"byteOffset":38572,
			"target":34962
		},
		{
			"buffer":0,
			"byteLength":36,
			"byteOffset":38608,
			"target":34962
		},
		{
			"buffer":0,
			"byteLength":24,
			"byteOffset":38644,
			"target":34962
		},
		{
			"buffer":0,
			"byteLength":24,
			"byteOffset":38668,
			"target":34962
		},
		{
			"buffer":0,
			"byteLength":24,
			"byteOffset":38692,
			"target":34962
		},
		{
			"buffer":0,
			"byteLength":24,
			"byteOffset":38716,
			"target":34962
		},
		{
			"buffer":0,
			"byteLength":24,
			"byteOffset":38740,
			"target":34962
		},
		{
			"buffer":0,
			"byteLength":6,
			"byteOffset":38764,
			"target":34963
		}
	],
	"samplers":[
		{
			"magFilter":9729,
			"minFilter":9987
		}
	],
	"buffers":[
		{
			"byteLength":38772,
			"uri":"B9.bin"
		}
	]
}
