{
  "accessors": [
    {
      "bufferView": 2,
      "componentType": 5126,
      "count": 2796,
      "max": [
        0.1172536164522171,
        1.1221563816070557,
        0.015701305121183395
      ],
      "min": [
        -0.1172536164522171,
        -0.17734763026237488,
        -0.01570127159357071
      ],
      "type": "VEC3"
    },
    {
      "bufferView": 2,
      "byteOffset": 33552,
      "componentType": 5126,
      "count": 2796,
      "type": "VEC3"
    },
    {
      "bufferView": 3,
      "componentType": 5126,
      "count": 2796,
      "type": "VEC4"
    },
    {
      "bufferView": 1,
      "componentType": 5126,
      "count": 2796,
      "type": "VEC2"
    },
    {
      "bufferView": 1,
      "byteOffset": 22368,
      "componentType": 5126,
      "count": 2796,
      "type": "VEC2"
    },
    {
      "bufferView": 1,
      "byteOffset": 44736,
      "componentType": 5126,
      "count": 2796,
      "type": "VEC2"
    },
    {
      "bufferView": 1,
      "byteOffset": 67104,
      "componentType": 5126,
      "count": 2796,
      "type": "VEC2"
    },
    {
      "bufferView": 1,
      "byteOffset": 89472,
      "componentType": 5126,
      "count": 2796,
      "type": "VEC2"
    },
    {
      "bufferView": 0,
      "componentType": 5125,
      "count": 7524,
      "type": "SCALAR"
    }
  ],
  "asset": {
    "generator": "fab-model-conversion",
    "version": "2.0"
  },
  "bufferViews": [
    {
      "buffer": 0,
      "byteLength": 30096,
      "target": 34963
    },
    {
      "buffer": 0,
      "byteLength": 111840,
      "byteOffset": 30096,
      "byteStride": 8,
      "target": 34962
    },
    {
      "buffer": 0,
      "byteLength": 67104,
      "byteOffset": 141936,
      "byteStride": 12,
      "target": 34962
    },
    {
      "buffer": 0,
      "byteLength": 44736,
      "byteOffset": 209040,
      "byteStride": 16,
      "target": 34962
    }
  ],
  "buffers": [
    {
      "byteLength": 253776,
      "uri": "scene.bin"
    }
  ],
  "images": [
    {
      "uri": "textures/Nevaldir_baseColor.png"
    },
    {
      "uri": "textures/Nevaldir_metallicRoughness.png"
    },
    {
      "uri": "textures/Nevaldir_emissive.png"
    },
    {
      "uri": "textures/Nevaldir_normal.png"
    }
  ],
  "materials": [
    {
      "doubleSided": true,
      "emissiveFactor": [
        1.0,
        1.0,
        1.0
      ],
      "emissiveTexture": {
        "index": 2
      },
      "name": "Nevaldir",
      "normalTexture": {
        "index": 3
      },
      "pbrMetallicRoughness": {
        "baseColorTexture": {
          "index": 0
        },
        "metallicRoughnessTexture": {
          "index": 1
        }
      }
    }
  ],
  "meshes": [
    {
      "name": "Object_0",
      "primitives": [
        {
          "attributes": {
            "NORMAL": 1,
            "POSITION": 0,
            "TANGENT": 2,
            "TEXCOORD_0": 3,
            "TEXCOORD_1": 4,
            "TEXCOORD_2": 5,
            "TEXCOORD_3": 6,
            "TEXCOORD_4": 7
          },
          "indices": 8,
          "material": 0,
          "mode": 4
        }
      ]
    }
  ],
  "nodes": [
    {
      "children": [
        1
      ],
      "matrix": [
        1.0,
        0.0,
        0.0,
        0.0,
        0.0,
        2.220446049250313e-16,
        -1.0,
        0.0,
        0.0,
        1.0,
        2.220446049250313e-16,
        0.0,
        0.0,
        0.0,
        0.0,
        1.0
      ],
      "name": "Sketchfab_model"
    },
    {
      "children": [
        2
      ],
      "name": "root"
    },
    {
      "children": [
        3
      ],
      "matrix": [
        1.0,
        0.0,
        0.0,
        0.0,
        0.0,
        2.220446049250313e-16,
        1.0,
        0.0,
        0.0,
        -1.0,
        2.220446049250313e-16,
        0.0,
        0.0,
        0.0,
        0.0,
        1.0
      ],
      "name": "GLTF_SceneRootNode"
    },
    {
      "children": [
        4
      ],
      "name": "Nevaldir_0"
    },
    {
      "mesh": 0,
      "name": "Object_4"
    }
  ],
  "samplers": [
    {
      "magFilter": 9729,
      "minFilter": 9987,
      "wrapS": 10497,
      "wrapT": 10497
    }
  ],
  "scene": 0,
  "scenes": [
    {
      "name": "Sketchfab_Scene",
      "nodes": [
        0
      ]
    }
  ],
  "textures": [
    {
      "sampler": 0,
      "source": 0
    },
    {
      "sampler": 0,
      "source": 1
    },
    {
      "sampler": 0,
      "source": 2
    },
    {
      "sampler": 0,
      "source": 3
    }
  ]
}
