{
	"asset":{
		"generator":"Khronos glTF Blender I/O v4.3.47",
		"version":"2.0"
	},
	"scene":0,
	"scenes":[
		{
			"name":"Scene",
			"nodes":[
				1
			]
		}
	],
	"nodes":[
		{
			"mesh":0,
			"name":"SM_StreetLamp"
		},
		{
			"children":[
				0
			],
			"name":"P_StreetLamp",
			"rotation":[
				0,
				0.7071066498756409,
				-0.70710688829422,
				5.3385061704602776e-08
			],
			"scale":[
				0.009999999776482582,
				0.009999999776482582,
				0.009999999776482582
			]
		}
	],
	"materials":[
		{
			"doubleSided":true,
			"name":"M_BuildingAtlas_01",
			"pbrMetallicRoughness":{
				"baseColorTexture":{
					"index":0
				}
			}
		},
		{
			"doubleSided":true,
			"name":"M_Glow_Yellow",
			"pbrMetallicRoughness":{
				"baseColorFactor":[
					0.4644542336463928,
					0.4966878890991211,
					0,
					1
				],
				"metallicFactor":0,
				"roughnessFactor":0.5527864098548889
			}
		}
	],
	"meshes":[
		{
			"name":"Scene",
			"primitives":[
				{
					"attributes":{
						"POSITION":0,
						"NORMAL":1,
						"TEXCOORD_0":2,
						"TEXCOORD_1":3,
						"COLOR_0":4,
						"COLOR_1":5
					},
					"indices":6,
					"material":0
				},
				{
					"attributes":{
						"POSITION":7,
						"NORMAL":8,
						"TEXCOORD_0":9,
						"TEXCOORD_1":10,
						"COLOR_0":11,
						"COLOR_1":12
					},
					"indices":13,
					"material":1
				}
			]
		}
	],
	"textures":[
		{
			"sampler":0,
			"source":0
		}
	],
	"images":[
		{
			"mimeType":"image/png",
			"name":"T_BuildingAtlas_01_BC",
			"uri":"T_BuildingAtlas_01_BC.png"
		}
	],
	"accessors":[
		{
			"bufferView":0,
			"componentType":5126,
			"count":1134,
			"max":[
				3.007680654525757,
				29.459083557128906,
				6.541229722863227e-15
			],
			"min":[
				-29.45918083190918,
				-147.9788818359375,
				-645.2210693359375
			],
			"type":"VEC3"
		},
		{
			"bufferView":1,
			"componentType":5126,
			"count":1134,
			"type":"VEC3"
		},
		{
			"bufferView":2,
			"componentType":5126,
			"count":1134,
			"type":"VEC2"
		},
		{
			"bufferView":3,
			"componentType":5126,
			"count":1134,
			"type":"VEC2"
		},
		{
			"bufferView":4,
			"componentType":5121,
			"count":1134,
			"normalized":true,
			"type":"VEC4"
		},
		{
			"bufferView":5,
			"componentType":5123,
			"count":1134,
			"normalized":true,
			"type":"VEC4"
		},
		{
			"bufferView":6,
			"componentType":5123,
			"count":3576,
			"type":"SCALAR"
		},
		{
			"bufferView":7,
			"componentType":5126,
			"count":136,
			"max":[
				-6.520305633544922,
				-78.74102020263672,
				-628.6923217773438
			],
			"min":[
				-19.93075942993164,
				-145.350830078125,
				-634.7229614257812
			],
			"type":"VEC3"
		},
		{
			"bufferView":8,
			"componentType":5126,
			"count":136,
			"type":"VEC3"
		},
		{
			"bufferView":9,
			"componentType":5126,
			"count":136,
			"type":"VEC2"
		},
		{
			"bufferView":10,
			"componentType":5126,
			"count":136,
			"type":"VEC2"
		},
		{
			"bufferView":11,
			"componentType":5121,
			"count":136,
			"normalized":true,
			"type":"VEC4"
		},
		{
			"bufferView":12,
			"componentType":5123,
			"count":136,
			"normalized":true,
			"type":"VEC4"
		},
		{
			"bufferView":13,
			"componentType":5123,
			"count":288,
			"type":"SCALAR"
		}
	],
	"bufferViews":[
		{
			"buffer":0,
			"byteLength":13608,
			"byteOffset":0,
			"target":34962
		},
		{
			"buffer":0,
			"byteLength":13608,
			"byteOffset":13608,
			"target":34962
		},
		{
			"buffer":0,
			"byteLength":9072,
			"byteOffset":27216,
			"target":34962
		},
		{
			"buffer":0,
			"byteLength":9072,
			"byteOffset":36288,
			"target":34962
		},
		{
			"buffer":0,
			"byteLength":4536,
			"byteOffset":45360,
			"target":34962
		},
		{
			"buffer":0,
			"byteLength":9072,
			"byteOffset":49896,
			"target":34962
		},
		{
			"buffer":0,
			"byteLength":7152,
			"byteOffset":58968,
			"target":34963
		},
		{
			"buffer":0,
			"byteLength":1632,
			"byteOffset":66120,
			"target":34962
		},
		{
			"buffer":0,
			"byteLength":1632,
			"byteOffset":67752,
			"target":34962
		},
		{
			"buffer":0,
			"byteLength":1088,
			"byteOffset":69384,
			"target":34962
		},
		{
			"buffer":0,
			"byteLength":1088,
			"byteOffset":70472,
			"target":34962
		},
		{
			"buffer":0,
			"byteLength":544,
			"byteOffset":71560,
			"target":34962
		},
		{
			"buffer":0,
			"byteLength":1088,
			"byteOffset":72104,
			"target":34962
		},
		{
			"buffer":0,
			"byteLength":576,
			"byteOffset":73192,
			"target":34963
		}
	],
	"samplers":[
		{
			"magFilter":9729,
			"minFilter":9987
		}
	],
	"buffers":[
		{
			"byteLength":73768,
			"uri":"StreetLamp.bin"
		}
	]
}
