{
	"asset":{
		"generator":"Khronos glTF Blender I/O v4.3.47",
		"version":"2.0"
	},
	"scene":0,
	"scenes":[
		{
			"name":"Scene",
			"nodes":[
				0
			]
		}
	],
	"nodes":[
		{
			"mesh":0,
			"name":"SM_RoadBarrier_01",
			"rotation":[
				0.70710688829422,
				0,
				0,
				0.7071066498756409
			],
			"scale":[
				0.009999999776482582,
				0.009999999776482582,
				0.009999999776482582
			]
		}
	],
	"materials":[
		{
			"doubleSided":true,
			"name":"M_Metal",
			"pbrMetallicRoughness":{
				"baseColorFactor":[
					0.03186218813061714,
					0.03186218813061714,
					0.03186218813061714,
					1
				]
			}
		},
		{
			"doubleSided":true,
			"name":"M_Glow_Blue",
			"pbrMetallicRoughness":{
				"baseColorFactor":[
					0,
					0.4978692829608917,
					0.4752711057662964,
					1
				]
			}
		}
	],
	"meshes":[
		{
			"name":"Scene",
			"primitives":[
				{
					"attributes":{
						"POSITION":0,
						"NORMAL":1,
						"TEXCOORD_0":2,
						"COLOR_0":3,
						"COLOR_1":4
					},
					"indices":5,
					"material":0
				},
				{
					"attributes":{
						"POSITION":6,
						"NORMAL":7,
						"TEXCOORD_0":8,
						"COLOR_0":9,
						"COLOR_1":10
					},
					"indices":11,
					"material":1
				}
			]
		}
	],
	"accessors":[
		{
			"bufferView":0,
			"componentType":5126,
			"count":232,
			"max":[
				450.00006103515625,
				4.6704206466674805,
				41.0299072265625
			],
			"min":[
				3.5762786865234375e-05,
				-4.8407697677612305,
				-45.93374252319336
			],
			"type":"VEC3"
		},
		{
			"bufferView":1,
			"componentType":5126,
			"count":232,
			"type":"VEC3"
		},
		{
			"bufferView":2,
			"componentType":5126,
			"count":232,
			"type":"VEC2"
		},
		{
			"bufferView":3,
			"componentType":5121,
			"count":232,
			"normalized":true,
			"type":"VEC4"
		},
		{
			"bufferView":4,
			"componentType":5123,
			"count":232,
			"normalized":true,
			"type":"VEC4"
		},
		{
			"bufferView":5,
			"componentType":5123,
			"count":516,
			"type":"SCALAR"
		},
		{
			"bufferView":6,
			"componentType":5126,
			"count":8,
			"max":[
				450.00006103515625,
				1.6802278757095337,
				-33.10490036010742
			],
			"min":[
				3.5762786865234375e-05,
				-1.8505778312683105,
				-36.07453536987305
			],
			"type":"VEC3"
		},
		{
			"bufferView":7,
			"componentType":5126,
			"count":8,
			"type":"VEC3"
		},
		{
			"bufferView":8,
			"componentType":5126,
			"count":8,
			"type":"VEC2"
		},
		{
			"bufferView":9,
			"componentType":5121,
			"count":8,
			"normalized":true,
			"type":"VEC4"
		},
		{
			"bufferView":10,
			"componentType":5123,
			"count":8,
			"normalized":true,
			"type":"VEC4"
		},
		{
			"bufferView":11,
			"componentType":5123,
			"count":12,
			"type":"SCALAR"
		}
	],
	"bufferViews":[
		{
			"buffer":0,
			"byteLength":2784,
			"byteOffset":0,
			"target":34962
		},
		{
			"buffer":0,
			"byteLength":2784,
			"byteOffset":2784,
			"target":34962
		},
		{
			"buffer":0,
			"byteLength":1856,
			"byteOffset":5568,
			"target":34962
		},
		{
			"buffer":0,
			"byteLength":928,
			"byteOffset":7424,
			"target":34962
		},
		{
			"buffer":0,
			"byteLength":1856,
			"byteOffset":8352,
			"target":34962
		},
		{
			"buffer":0,
			"byteLength":1032,
			"byteOffset":10208,
			"target":34963
		},
		{
			"buffer":0,
			"byteLength":96,
			"byteOffset":11240,
			"target":34962
		},
		{
			"buffer":0,
			"byteLength":96,
			"byteOffset":11336,
			"target":34962
		},
		{
			"buffer":0,
			"byteLength":64,
			"byteOffset":11432,
			"target":34962
		},
		{
			"buffer":0,
			"byteLength":32,
			"byteOffset":11496,
			"target":34962
		},
		{
			"buffer":0,
			"byteLength":64,
			"byteOffset":11528,
			"target":34962
		},
		{
			"buffer":0,
			"byteLength":24,
			"byteOffset":11592,
			"target":34963
		}
	],
	"buffers":[
		{
			"byteLength":11616,
			"uri":"RoadBarrier.bin"
		}
	]
}
