{
	"asset":{
		"generator":"Khronos glTF Blender I/O v4.3.47",
		"version":"2.0"
	},
	"scene":0,
	"scenes":[
		{
			"name":"Scene",
			"nodes":[
				0
			]
		}
	],
	"nodes":[
		{
			"mesh":0,
			"name":"SM_BGBuilding1"
		}
	],
	"materials":[
		{
			"doubleSided":true,
			"name":"M_Wall2",
			"pbrMetallicRoughness":{
				"baseColorTexture":{
					"index":0
				},
				"metallicFactor":0,
				"roughnessFactor":0.5527864098548889
			}
		},
		{
			"doubleSided":true,
			"name":"M_BuildingAtlas_01",
			"pbrMetallicRoughness":{
				"baseColorTexture":{
					"index":1
				},
				"metallicFactor":0,
				"roughnessFactor":0.5527864098548889
			}
		},
		{
			"doubleSided":true,
			"name":"Window01",
			"pbrMetallicRoughness":{
				"metallicFactor":0,
				"roughnessFactor":0.5527864098548889
			}
		},
		{
			"doubleSided":true,
			"name":"Window01_bright",
			"pbrMetallicRoughness":{
				"metallicFactor":0,
				"roughnessFactor":0.5527864098548889
			}
		}
	],
	"meshes":[
		{
			"name":"Scene",
			"primitives":[
				{
					"attributes":{
						"POSITION":0,
						"NORMAL":1,
						"TEXCOORD_0":2,
						"TEXCOORD_1":3,
						"TEXCOORD_2":4,
						"TEXCOORD_3":5,
						"TEXCOORD_4":6
					},
					"indices":7,
					"material":0
				},
				{
					"attributes":{
						"POSITION":8,
						"NORMAL":9,
						"TEXCOORD_0":10,
						"TEXCOORD_1":11,
						"TEXCOORD_2":12,
						"TEXCOORD_3":13,
						"TEXCOORD_4":14
					},
					"indices":15,
					"material":1
				},
				{
					"attributes":{
						"POSITION":16,
						"NORMAL":17,
						"TEXCOORD_0":18,
						"TEXCOORD_1":19,
						"TEXCOORD_2":20,
						"TEXCOORD_3":21,
						"TEXCOORD_4":22
					},
					"indices":23,
					"material":2
				},
				{
					"attributes":{
						"POSITION":24,
						"NORMAL":25,
						"TEXCOORD_0":26,
						"TEXCOORD_1":27,
						"TEXCOORD_2":28,
						"TEXCOORD_3":29,
						"TEXCOORD_4":30
					},
					"indices":31,
					"material":3
				}
			]
		}
	],
	"textures":[
		{
			"sampler":0,
			"source":0
		},
		{
			"sampler":0,
			"source":1
		}
	],
	"images":[
		{
			"mimeType":"image/png",
			"name":"T_Asphalt_BC",
			"uri":"T_Asphalt_BC.png"
		},
		{
			"mimeType":"image/png",
			"name":"T_BuildingAtlas_01_BC",
			"uri":"T_BuildingAtlas_01_BC.png"
		}
	],
	"accessors":[
		{
			"bufferView":0,
			"componentType":5126,
			"count":123,
			"max":[
				27.35020637512207,
				216.25772094726562,
				12.909551620483398
			],
			"min":[
				-27.35016441345215,
				-6.295554612734122e-06,
				-12.909564971923828
			],
			"type":"VEC3"
		},
		{
			"bufferView":1,
			"componentType":5126,
			"count":123,
			"type":"VEC3"
		},
		{
			"bufferView":2,
			"componentType":5126,
			"count":123,
			"type":"VEC2"
		},
		{
			"bufferView":3,
			"componentType":5126,
			"count":123,
			"type":"VEC2"
		},
		{
			"bufferView":4,
			"componentType":5126,
			"count":123,
			"type":"VEC2"
		},
		{
			"bufferView":5,
			"componentType":5126,
			"count":123,
			"type":"VEC2"
		},
		{
			"bufferView":6,
			"componentType":5126,
			"count":123,
			"type":"VEC2"
		},
		{
			"bufferView":7,
			"componentType":5123,
			"count":252,
			"type":"SCALAR"
		},
		{
			"bufferView":8,
			"componentType":5126,
			"count":431,
			"max":[
				26.544754028320312,
				182.38449096679688,
				12.101694107055664
			],
			"min":[
				-26.544694900512695,
				14.099367141723633,
				-12.221733093261719
			],
			"type":"VEC3"
		},
		{
			"bufferView":9,
			"componentType":5126,
			"count":431,
			"type":"VEC3"
		},
		{
			"bufferView":10,
			"componentType":5126,
			"count":431,
			"type":"VEC2"
		},
		{
			"bufferView":11,
			"componentType":5126,
			"count":431,
			"type":"VEC2"
		},
		{
			"bufferView":12,
			"componentType":5126,
			"count":431,
			"type":"VEC2"
		},
		{
			"bufferView":13,
			"componentType":5126,
			"count":431,
			"type":"VEC2"
		},
		{
			"bufferView":14,
			"componentType":5126,
			"count":431,
			"type":"VEC2"
		},
		{
			"bufferView":15,
			"componentType":5123,
			"count":507,
			"type":"SCALAR"
		},
		{
			"bufferView":16,
			"componentType":5126,
			"count":30,
			"max":[
				26.526243209838867,
				189.79708862304688,
				12.0140380859375
			],
			"min":[
				-26.515182495117188,
				5.071341514587402,
				-12.213224411010742
			],
			"type":"VEC3"
		},
		{
			"bufferView":17,
			"componentType":5126,
			"count":30,
			"type":"VEC3"
		},
		{
			"bufferView":18,
			"componentType":5126,
			"count":30,
			"type":"VEC2"
		},
		{
			"bufferView":19,
			"componentType":5126,
			"count":30,
			"type":"VEC2"
		},
		{
			"bufferView":20,
			"componentType":5126,
			"count":30,
			"type":"VEC2"
		},
		{
			"bufferView":21,
			"componentType":5126,
			"count":30,
			"type":"VEC2"
		},
		{
			"bufferView":22,
			"componentType":5126,
			"count":30,
			"type":"VEC2"
		},
		{
			"bufferView":23,
			"componentType":5123,
			"count":30,
			"type":"SCALAR"
		},
		{
			"bufferView":24,
			"componentType":5126,
			"count":3,
			"max":[
				20.18031883239746,
				189.7970733642578,
				12.011990547180176
			],
			"min":[
				-23.071569442749023,
				88.38574981689453,
				4.3855204582214355
			],
			"type":"VEC3"
		},
		{
			"bufferView":25,
			"componentType":5126,
			"count":3,
			"type":"VEC3"
		},
		{
			"bufferView":26,
			"componentType":5126,
			"count":3,
			"type":"VEC2"
		},
		{
			"bufferView":27,
			"componentType":5126,
			"count":3,
			"type":"VEC2"
		},
		{
			"bufferView":28,
			"componentType":5126,
			"count":3,
			"type":"VEC2"
		},
		{
			"bufferView":29,
			"componentType":5126,
			"count":3,
			"type":"VEC2"
		},
		{
			"bufferView":30,
			"componentType":5126,
			"count":3,
			"type":"VEC2"
		},
		{
			"bufferView":31,
			"componentType":5123,
			"count":3,
			"type":"SCALAR"
		}
	],
	"bufferViews":[
		{
			"buffer":0,
			"byteLength":1476,
			"byteOffset":0,
			"target":34962
		},
		{
			"buffer":0,
			"byteLength":1476,
			"byteOffset":1476,
			"target":34962
		},
		{
			"buffer":0,
			"byteLength":984,
			"byteOffset":2952,
			"target":34962
		},
		{
			"buffer":0,
			"byteLength":984,
			"byteOffset":3936,
			"target":34962
		},
		{
			"buffer":0,
			"byteLength":984,
			"byteOffset":4920,
			"target":34962
		},
		{
			"buffer":0,
			"byteLength":984,
			"byteOffset":5904,
			"target":34962
		},
		{
			"buffer":0,
			"byteLength":984,
			"byteOffset":6888,
			"target":34962
		},
		{
			"buffer":0,
			"byteLength":504,
			"byteOffset":7872,
			"target":34963
		},
		{
			"buffer":0,
			"byteLength":5172,
			"byteOffset":8376,
			"target":34962
		},
		{
			"buffer":0,
			"byteLength":5172,
			"byteOffset":13548,
			"target":34962
		},
		{
			"buffer":0,
			"byteLength":3448,
			"byteOffset":18720,
			"target":34962
		},
		{
			"buffer":0,
			"byteLength":3448,
			"byteOffset":22168,
			"target":34962
		},
		{
			"buffer":0,
			"byteLength":3448,
			"byteOffset":25616,
			"target":34962
		},
		{
			"buffer":0,
			"byteLength":3448,
			"byteOffset":29064,
			"target":34962
		},
		{
			"buffer":0,
			"byteLength":3448,
			"byteOffset":32512,
			"target":34962
		},
		{
			"buffer":0,
			"byteLength":1014,
			"byteOffset":35960,
			"target":34963
		},
		{
			"buffer":0,
			"byteLength":360,
			"byteOffset":36976,
			"target":34962
		},
		{
			"buffer":0,
			"byteLength":360,
			"byteOffset":37336,
			"target":34962
		},
		{
			"buffer":0,
			"byteLength":240,
			"byteOffset":37696,
			"target":34962
		},
		{
			"buffer":0,
			"byteLength":240,
			"byteOffset":37936,
			"target":34962
		},
		{
			"buffer":0,
			"byteLength":240,
			"byteOffset":38176,
			"target":34962
		},
		{
			"buffer":0,
			"byteLength":240,
			"byteOffset":38416,
			"target":34962
		},
		{
			"buffer":0,
			"byteLength":240,
			"byteOffset":38656,
			"target":34962
		},
		{
			"buffer":0,
			"byteLength":60,
			"byteOffset":38896,
			"target":34963
		},
		{
			"buffer":0,
			"byteLength":36,
			"byteOffset":38956,
			"target":34962
		},
		{
			"buffer":0,
			"byteLength":36,
			"byteOffset":38992,
			"target":34962
		},
		{
			"buffer":0,
			"byteLength":24,
			"byteOffset":39028,
			"target":34962
		},
		{
			"buffer":0,
			"byteLength":24,
			"byteOffset":39052,
			"target":34962
		},
		{
			"buffer":0,
			"byteLength":24,
			"byteOffset":39076,
			"target":34962
		},
		{
			"buffer":0,
			"byteLength":24,
			"byteOffset":39100,
			"target":34962
		},
		{
			"buffer":0,
			"byteLength":24,
			"byteOffset":39124,
			"target":34962
		},
		{
			"buffer":0,
			"byteLength":6,
			"byteOffset":39148,
			"target":34963
		}
	],
	"samplers":[
		{
			"magFilter":9729,
			"minFilter":9987
		}
	],
	"buffers":[
		{
			"byteLength":39156,
			"uri":"B9.bin"
		}
	]
}
