{
	"asset":{
		"generator":"Khronos glTF Blender I/O v4.3.47",
		"version":"2.0"
	},
	"scene":0,
	"scenes":[
		{
			"name":"Scene",
			"nodes":[
				0
			]
		}
	],
	"nodes":[
		{
			"mesh":0,
			"name":"SM_Railway"
		}
	],
	"materials":[
		{
			"doubleSided":true,
			"name":"M_BuildingAtlas_01",
			"pbrMetallicRoughness":{
				"baseColorTexture":{
					"index":0
				},
				"metallicFactor":0,
				"roughnessFactor":0.5527864098548889
			}
		}
	],
	"meshes":[
		{
			"name":"Scene.005",
			"primitives":[
				{
					"attributes":{
						"POSITION":0,
						"NORMAL":1,
						"TEXCOORD_0":2
					},
					"indices":3,
					"material":0
				}
			]
		}
	],
	"textures":[
		{
			"sampler":0,
			"source":0
		}
	],
	"images":[
		{
			"mimeType":"image/png",
			"name":"T_BuildingAtlas_01_BC",
			"uri":"T_BuildingAtlas_01_BC.png"
		}
	],
	"accessors":[
		{
			"bufferView":0,
			"componentType":5126,
			"count":217126,
			"max":[
				271.2892761230469,
				21.40387725830078,
				183.534423828125
			],
			"min":[
				-113.35598754882812,
				19.100955963134766,
				-24.096776962280273
			],
			"type":"VEC3"
		},
		{
			"bufferView":1,
			"componentType":5126,
			"count":217126,
			"type":"VEC3"
		},
		{
			"bufferView":2,
			"componentType":5126,
			"count":217126,
			"type":"VEC2"
		},
		{
			"bufferView":3,
			"componentType":5125,
			"count":331068,
			"type":"SCALAR"
		}
	],
	"bufferViews":[
		{
			"buffer":0,
			"byteLength":2605512,
			"byteOffset":0,
			"target":34962
		},
		{
			"buffer":0,
			"byteLength":2605512,
			"byteOffset":2605512,
			"target":34962
		},
		{
			"buffer":0,
			"byteLength":1737008,
			"byteOffset":5211024,
			"target":34962
		},
		{
			"buffer":0,
			"byteLength":1324272,
			"byteOffset":6948032,
			"target":34963
		}
	],
	"samplers":[
		{
			"magFilter":9729,
			"minFilter":9987
		}
	],
	"buffers":[
		{
			"byteLength":8272304,
			"uri":"Railway.bin"
		}
	]
}
