{
	"asset":{
		"generator":"Khronos glTF Blender I/O v4.3.47",
		"version":"2.0"
	},
	"scene":0,
	"scenes":[
		{
			"name":"Scene",
			"nodes":[
				0
			]
		}
	],
	"nodes":[
		{
			"mesh":0,
			"name":"SM_Railway",
			"rotation":[
				0.7071068286895752,
				0,
				0,
				0.7071068286895752
			],
			"scale":[
				0.009999999776482582,
				0.009999999776482582,
				0.009999999776482582
			]
		}
	],
	"materials":[
		{
			"doubleSided":true,
			"name":"M_BuildingAtlas_01",
			"pbrMetallicRoughness":{
				"baseColorTexture":{
					"index":0
				},
				"metallicFactor":0,
				"roughnessFactor":0.5527864098548889
			}
		}
	],
	"meshes":[
		{
			"name":"Scene",
			"primitives":[
				{
					"attributes":{
						"POSITION":0,
						"NORMAL":1,
						"TEXCOORD_0":2
					},
					"indices":3,
					"material":0
				}
			]
		}
	],
	"textures":[
		{
			"sampler":0,
			"source":0
		}
	],
	"images":[
		{
			"mimeType":"image/png",
			"name":"T_BuildingAtlas_01_BC",
			"uri":"T_BuildingAtlas_01_BC.png"
		}
	],
	"accessors":[
		{
			"bufferView":0,
			"componentType":5126,
			"count":174362,
			"max":[
				27128.927734375,
				18353.44140625,
				-1910.097900390625
			],
			"min":[
				-11335.5986328125,
				-2409.677734375,
				-2140.38720703125
			],
			"type":"VEC3"
		},
		{
			"bufferView":1,
			"componentType":5126,
			"count":174362,
			"type":"VEC3"
		},
		{
			"bufferView":2,
			"componentType":5126,
			"count":174362,
			"type":"VEC2"
		},
		{
			"bufferView":3,
			"componentType":5125,
			"count":331068,
			"type":"SCALAR"
		}
	],
	"bufferViews":[
		{
			"buffer":0,
			"byteLength":2092344,
			"byteOffset":0,
			"target":34962
		},
		{
			"buffer":0,
			"byteLength":2092344,
			"byteOffset":2092344,
			"target":34962
		},
		{
			"buffer":0,
			"byteLength":1394896,
			"byteOffset":4184688,
			"target":34962
		},
		{
			"buffer":0,
			"byteLength":1324272,
			"byteOffset":5579584,
			"target":34963
		}
	],
	"samplers":[
		{
			"magFilter":9729,
			"minFilter":9987
		}
	],
	"buffers":[
		{
			"byteLength":6903856,
			"uri":"Railway.bin"
		}
	]
}
