{
	"asset":{
		"generator":"Khronos glTF Blender I/O v4.3.47",
		"version":"2.0"
	},
	"scene":0,
	"scenes":[
		{
			"name":"Scene",
			"nodes":[
				10
			]
		}
	],
	"nodes":[
		{
			"mesh":0,
			"name":"SM_DiningSuplies_Chopsticks",
			"rotation":[
				0.34580716490745544,
				0.6167801022529602,
				-0.6167799234390259,
				0.34580665826797485
			],
			"scale":[
				0.010000000707805157,
				0.010000001639127731,
				0.009999998845160007
			],
			"translation":[
				1.0683212280273438,
				0.8491969704627991,
				0.23927684128284454
			]
		},
		{
			"mesh":0,
			"name":"SM_DiningSuplies_Chopsticks_1",
			"rotation":[
				-0.6290537714958191,
				-0.32294198870658875,
				-0.32294225692749023,
				0.6290534734725952
			],
			"scale":[
				0.009999998845160007,
				0.010000001639127731,
				0.009999999776482582
			],
			"translation":[
				1.1922225952148438,
				0.8491970300674438,
				0.23671530187129974
			]
		},
		{
			"mesh":0,
			"name":"SM_DiningSuplies_Chopsticks_2",
			"rotation":[
				0.7005949020385742,
				-0.09574402868747711,
				0.0957440510392189,
				0.7005947232246399
			],
			"scale":[
				0.009999999776482582,
				0.009999999776482582,
				0.009999998845160007
			],
			"translation":[
				-0.2558440864086151,
				0.8191543817520142,
				1.0726263523101807
			]
		},
		{
			"mesh":0,
			"name":"SM_DiningSuplies_Chopsticks_3",
			"rotation":[
				-0.06997180730104446,
				0.7036361694335938,
				0.7036363482475281,
				0.06997189670801163
			],
			"scale":[
				0.010000002570450306,
				0.010000000707805157,
				0.010000001639127731
			],
			"translation":[
				-0.3447265326976776,
				0.8191543817520142,
				1.1589910984039307
			]
		},
		{
			"mesh":1,
			"name":"SM_StreetDiner_SushiRoll",
			"rotation":[
				0.70710688829422,
				0,
				0,
				0.7071066498756409
			],
			"scale":[
				0.009999998845160007,
				0.010000001639127731,
				0.009999998845160007
			],
			"translation":[
				1.1924667358398438,
				0.8499999642372131,
				0.3518829047679901
			]
		},
		{
			"mesh":1,
			"name":"SM_StreetDiner_SushiRoll_1",
			"rotation":[
				-0.1790434569120407,
				0.6840638518333435,
				0.6840639710426331,
				0.17904362082481384
			],
			"scale":[
				0.009999999776482582,
				0.010000002570450306,
				0.009999998845160007
			],
			"translation":[
				1.1046675443649292,
				0.8499999046325684,
				0.3997516632080078
			]
		},
		{
			"mesh":1,
			"name":"SM_StreetDiner_SushiRoll_2",
			"rotation":[
				0.70710688829422,
				0,
				0,
				0.7071066498756409
			],
			"scale":[
				0.009999998845160007,
				0.010000001639127731,
				0.009999998845160007
			],
			"translation":[
				1.2084349393844604,
				0.8499999046325684,
				0.5406551361083984
			]
		},
		{
			"mesh":1,
			"name":"SM_StreetDiner_SushiRoll_3",
			"rotation":[
				-0.7068488597869873,
				-0.019091293215751648,
				-0.019091201946139336,
				0.7068491578102112
			],
			"scale":[
				0.009999999776482582,
				0.009999999776482582,
				0.009999996982514858
			],
			"translation":[
				-0.6887741088867188,
				0.8589569926261902,
				1.1826231479644775
			]
		},
		{
			"mesh":1,
			"name":"SM_StreetDiner_SushiRoll_4",
			"rotation":[
				0.70710688829422,
				0,
				0,
				0.7071066498756409
			],
			"scale":[
				0.009999999776482582,
				0.010000001639127731,
				0.009999998845160007
			],
			"translation":[
				-0.5269545912742615,
				0.8589569926261902,
				1.185491681098938
			]
		},
		{
			"mesh":1,
			"name":"SM_StreetDiner_SushiRoll_5",
			"rotation":[
				0.9300760626792908,
				0,
				0,
				0.3673669695854187
			],
			"scale":[
				0.008682933636009693,
				0.008682936429977417,
				0.008682936429977417
			],
			"translation":[
				-0.5224685668945312,
				0.8852957487106323,
				1.0553247928619385
			]
		},
		{
			"children":[
				0,
				1,
				2,
				3,
				4,
				5,
				6,
				7,
				8,
				9
			],
			"mesh":2,
			"name":"SM_StreetDiner"
		}
	],
	"materials":[
		{
			"doubleSided":true,
			"name":"M_Atlas_StreetDiner",
			"pbrMetallicRoughness":{
				"baseColorTexture":{
					"index":0
				},
				"metallicFactor":0,
				"roughnessFactor":0.5527864098548889
			}
		},
		{
			"doubleSided":true,
			"name":"M_StreetDiner_Food",
			"pbrMetallicRoughness":{
				"metallicFactor":0,
				"roughnessFactor":0.5527864098548889
			}
		},
		{
			"doubleSided":true,
			"name":"M_StreetDiner",
			"pbrMetallicRoughness":{
				"baseColorTexture":{
					"index":1
				},
				"metallicFactor":0,
				"roughnessFactor":0.5527864098548889
			}
		},
		{
			"doubleSided":true,
			"name":"M_Fishtail",
			"pbrMetallicRoughness":{
				"baseColorTexture":{
					"index":2
				},
				"metallicFactor":0,
				"roughnessFactor":0.5527864098548889
			}
		},
		{
			"doubleSided":true,
			"name":"M_StreetDinerSign",
			"pbrMetallicRoughness":{
				"baseColorTexture":{
					"index":3
				},
				"metallicFactor":0,
				"roughnessFactor":0.5527864098548889
			}
		},
		{
			"doubleSided":true,
			"name":"M_Atlas_StreetDiner_HueShift",
			"pbrMetallicRoughness":{
				"baseColorTexture":{
					"index":4
				},
				"metallicFactor":0,
				"roughnessFactor":0.5527864098548889
			}
		},
		{
			"doubleSided":true,
			"name":"M_Glow_Orange",
			"pbrMetallicRoughness":{
				"baseColorFactor":[
					0.4990604519844055,
					0.48423731327056885,
					0,
					1
				],
				"metallicFactor":0,
				"roughnessFactor":0.5527864098548889
			}
		}
	],
	"meshes":[
		{
			"name":"Scene.002",
			"primitives":[
				{
					"attributes":{
						"POSITION":0,
						"NORMAL":1,
						"TEXCOORD_0":2,
						"COLOR_0":3,
						"COLOR_1":4
					},
					"indices":5,
					"material":0
				}
			]
		},
		{
			"name":"Scene.001",
			"primitives":[
				{
					"attributes":{
						"POSITION":6,
						"NORMAL":7,
						"TEXCOORD_0":8,
						"COLOR_0":9,
						"COLOR_1":10
					},
					"indices":11,
					"material":1
				}
			]
		},
		{
			"name":"Scene",
			"primitives":[
				{
					"attributes":{
						"POSITION":12,
						"NORMAL":13,
						"TEXCOORD_0":14,
						"COLOR_0":15,
						"COLOR_1":16
					},
					"indices":17,
					"material":0
				},
				{
					"attributes":{
						"POSITION":18,
						"NORMAL":19,
						"TEXCOORD_0":20,
						"COLOR_0":21,
						"COLOR_1":22
					},
					"indices":23,
					"material":2
				},
				{
					"attributes":{
						"POSITION":24,
						"NORMAL":25,
						"TEXCOORD_0":26,
						"COLOR_0":27,
						"COLOR_1":28
					},
					"indices":29,
					"material":3
				},
				{
					"attributes":{
						"POSITION":30,
						"NORMAL":31,
						"TEXCOORD_0":32,
						"COLOR_0":33,
						"COLOR_1":34
					},
					"indices":35,
					"material":4
				},
				{
					"attributes":{
						"POSITION":36,
						"NORMAL":37,
						"TEXCOORD_0":38,
						"COLOR_0":39,
						"COLOR_1":40
					},
					"indices":41,
					"material":5
				},
				{
					"attributes":{
						"POSITION":42,
						"NORMAL":43,
						"TEXCOORD_0":44,
						"COLOR_0":45,
						"COLOR_1":46
					},
					"indices":47,
					"material":6
				}
			]
		}
	],
	"textures":[
		{
			"sampler":0,
			"source":0
		},
		{
			"sampler":0,
			"source":1
		},
		{
			"sampler":0,
			"source":2
		},
		{
			"sampler":0,
			"source":3
		},
		{
			"sampler":0,
			"source":0
		}
	],
	"images":[
		{
			"mimeType":"image/png",
			"name":"T_Atlas_StreetDiner_BC",
			"uri":"T_Atlas_StreetDiner_BC.png"
		},
		{
			"mimeType":"image/png",
			"name":"T_StreetDiner_BC",
			"uri":"T_StreetDiner_BC.png"
		},
		{
			"mimeType":"image/png",
			"name":"T_Fishtail_BC",
			"uri":"T_Fishtail_BC.png"
		},
		{
			"mimeType":"image/png",
			"name":"T_NeonSignAlphas",
			"uri":"T_NeonSignAlphas.png"
		}
	],
	"accessors":[
		{
			"bufferView":0,
			"componentType":5126,
			"count":24,
			"max":[
				2.192826986312866,
				27.346345901489258,
				2.1928224563598633
			],
			"min":[
				-2.192826986312866,
				-32.48532485961914,
				-2.19283127784729
			],
			"type":"VEC3"
		},
		{
			"bufferView":1,
			"componentType":5126,
			"count":24,
			"type":"VEC3"
		},
		{
			"bufferView":2,
			"componentType":5126,
			"count":24,
			"type":"VEC2"
		},
		{
			"bufferView":3,
			"componentType":5121,
			"count":24,
			"normalized":true,
			"type":"VEC4"
		},
		{
			"bufferView":4,
			"componentType":5123,
			"count":24,
			"normalized":true,
			"type":"VEC4"
		},
		{
			"bufferView":5,
			"componentType":5123,
			"count":36,
			"type":"SCALAR"
		},
		{
			"bufferView":6,
			"componentType":5126,
			"count":1293,
			"max":[
				4.999999523162842,
				5.000000476837158,
				3.57767391204834
			],
			"min":[
				-4.999999523162842,
				-5.000000476837158,
				-3.577674150466919
			],
			"type":"VEC3"
		},
		{
			"bufferView":7,
			"componentType":5126,
			"count":1293,
			"type":"VEC3"
		},
		{
			"bufferView":8,
			"componentType":5126,
			"count":1293,
			"type":"VEC2"
		},
		{
			"bufferView":9,
			"componentType":5121,
			"count":1293,
			"normalized":true,
			"type":"VEC4"
		},
		{
			"bufferView":10,
			"componentType":5123,
			"count":1293,
			"normalized":true,
			"type":"VEC4"
		},
		{
			"bufferView":11,
			"componentType":5123,
			"count":4452,
			"type":"SCALAR"
		},
		{
			"bufferView":12,
			"componentType":5126,
			"count":3167,
			"max":[
				1.892605185508728,
				3.2898526191711426,
				1.8926056623458862
			],
			"min":[
				-1.8926053047180176,
				-0.01192453969269991,
				-1.8902946710586548
			],
			"type":"VEC3"
		},
		{
			"bufferView":13,
			"componentType":5126,
			"count":3167,
			"type":"VEC3"
		},
		{
			"bufferView":14,
			"componentType":5126,
			"count":3167,
			"type":"VEC2"
		},
		{
			"bufferView":15,
			"componentType":5121,
			"count":3167,
			"normalized":true,
			"type":"VEC4"
		},
		{
			"bufferView":16,
			"componentType":5123,
			"count":3167,
			"normalized":true,
			"type":"VEC4"
		},
		{
			"bufferView":17,
			"componentType":5123,
			"count":13602,
			"type":"SCALAR"
		},
		{
			"bufferView":18,
			"componentType":5126,
			"count":5046,
			"max":[
				1.9847118854522705,
				3.2487199306488037,
				2.045459032058716
			],
			"min":[
				-2.0180444717407227,
				0.050403892993927,
				-1.903787612915039
			],
			"type":"VEC3"
		},
		{
			"bufferView":19,
			"componentType":5126,
			"count":5046,
			"type":"VEC3"
		},
		{
			"bufferView":20,
			"componentType":5126,
			"count":5046,
			"type":"VEC2"
		},
		{
			"bufferView":21,
			"componentType":5121,
			"count":5046,
			"normalized":true,
			"type":"VEC4"
		},
		{
			"bufferView":22,
			"componentType":5123,
			"count":5046,
			"normalized":true,
			"type":"VEC4"
		},
		{
			"bufferView":23,
			"componentType":5123,
			"count":21120,
			"type":"SCALAR"
		},
		{
			"bufferView":24,
			"componentType":5126,
			"count":152,
			"max":[
				1.0412447452545166,
				5.057165145874023,
				0.4667625427246094
			],
			"min":[
				-1.0412453413009644,
				3.066399574279785,
				-0.46676111221313477
			],
			"type":"VEC3"
		},
		{
			"bufferView":25,
			"componentType":5126,
			"count":152,
			"type":"VEC3"
		},
		{
			"bufferView":26,
			"componentType":5126,
			"count":152,
			"type":"VEC2"
		},
		{
			"bufferView":27,
			"componentType":5121,
			"count":152,
			"normalized":true,
			"type":"VEC4"
		},
		{
			"bufferView":28,
			"componentType":5123,
			"count":152,
			"normalized":true,
			"type":"VEC4"
		},
		{
			"bufferView":29,
			"componentType":5123,
			"count":756,
			"type":"SCALAR"
		},
		{
			"bufferView":30,
			"componentType":5126,
			"count":228,
			"max":[
				1.2380611896514893,
				3.117124557495117,
				1.5114405155181885
			],
			"min":[
				-1.6113109588623047,
				2.2547616958618164,
				-0.16989311575889587
			],
			"type":"VEC3"
		},
		{
			"bufferView":31,
			"componentType":5126,
			"count":228,
			"type":"VEC3"
		},
		{
			"bufferView":32,
			"componentType":5126,
			"count":228,
			"type":"VEC2"
		},
		{
			"bufferView":33,
			"componentType":5121,
			"count":228,
			"normalized":true,
			"type":"VEC4"
		},
		{
			"bufferView":34,
			"componentType":5123,
			"count":228,
			"normalized":true,
			"type":"VEC4"
		},
		{
			"bufferView":35,
			"componentType":5123,
			"count":648,
			"type":"SCALAR"
		},
		{
			"bufferView":36,
			"componentType":5126,
			"count":528,
			"max":[
				1.3984521627426147,
				3.282808780670166,
				1.3984532356262207
			],
			"min":[
				-1.3984524011611938,
				2.0904617309570312,
				-1.3984520435333252
			],
			"type":"VEC3"
		},
		{
			"bufferView":37,
			"componentType":5126,
			"count":528,
			"type":"VEC3"
		},
		{
			"bufferView":38,
			"componentType":5126,
			"count":528,
			"type":"VEC2"
		},
		{
			"bufferView":39,
			"componentType":5121,
			"count":528,
			"normalized":true,
			"type":"VEC4"
		},
		{
			"bufferView":40,
			"componentType":5123,
			"count":528,
			"normalized":true,
			"type":"VEC4"
		},
		{
			"bufferView":41,
			"componentType":5123,
			"count":2112,
			"type":"SCALAR"
		},
		{
			"bufferView":42,
			"componentType":5126,
			"count":2700,
			"max":[
				1.2778983116149902,
				3.4410781860351562,
				1.216239094734192
			],
			"min":[
				-1.2778981924057007,
				1.9275342226028442,
				-1.2162377834320068
			],
			"type":"VEC3"
		},
		{
			"bufferView":43,
			"componentType":5126,
			"count":2700,
			"type":"VEC3"
		},
		{
			"bufferView":44,
			"componentType":5126,
			"count":2700,
			"type":"VEC2"
		},
		{
			"bufferView":45,
			"componentType":5121,
			"count":2700,
			"normalized":true,
			"type":"VEC4"
		},
		{
			"bufferView":46,
			"componentType":5123,
			"count":2700,
			"normalized":true,
			"type":"VEC4"
		},
		{
			"bufferView":47,
			"componentType":5123,
			"count":14976,
			"type":"SCALAR"
		}
	],
	"bufferViews":[
		{
			"buffer":0,
			"byteLength":288,
			"byteOffset":0,
			"target":34962
		},
		{
			"buffer":0,
			"byteLength":288,
			"byteOffset":288,
			"target":34962
		},
		{
			"buffer":0,
			"byteLength":192,
			"byteOffset":576,
			"target":34962
		},
		{
			"buffer":0,
			"byteLength":96,
			"byteOffset":768,
			"target":34962
		},
		{
			"buffer":0,
			"byteLength":192,
			"byteOffset":864,
			"target":34962
		},
		{
			"buffer":0,
			"byteLength":72,
			"byteOffset":1056,
			"target":34963
		},
		{
			"buffer":0,
			"byteLength":15516,
			"byteOffset":1128,
			"target":34962
		},
		{
			"buffer":0,
			"byteLength":15516,
			"byteOffset":16644,
			"target":34962
		},
		{
			"buffer":0,
			"byteLength":10344,
			"byteOffset":32160,
			"target":34962
		},
		{
			"buffer":0,
			"byteLength":5172,
			"byteOffset":42504,
			"target":34962
		},
		{
			"buffer":0,
			"byteLength":10344,
			"byteOffset":47676,
			"target":34962
		},
		{
			"buffer":0,
			"byteLength":8904,
			"byteOffset":58020,
			"target":34963
		},
		{
			"buffer":0,
			"byteLength":38004,
			"byteOffset":66924,
			"target":34962
		},
		{
			"buffer":0,
			"byteLength":38004,
			"byteOffset":104928,
			"target":34962
		},
		{
			"buffer":0,
			"byteLength":25336,
			"byteOffset":142932,
			"target":34962
		},
		{
			"buffer":0,
			"byteLength":12668,
			"byteOffset":168268,
			"target":34962
		},
		{
			"buffer":0,
			"byteLength":25336,
			"byteOffset":180936,
			"target":34962
		},
		{
			"buffer":0,
			"byteLength":27204,
			"byteOffset":206272,
			"target":34963
		},
		{
			"buffer":0,
			"byteLength":60552,
			"byteOffset":233476,
			"target":34962
		},
		{
			"buffer":0,
			"byteLength":60552,
			"byteOffset":294028,
			"target":34962
		},
		{
			"buffer":0,
			"byteLength":40368,
			"byteOffset":354580,
			"target":34962
		},
		{
			"buffer":0,
			"byteLength":20184,
			"byteOffset":394948,
			"target":34962
		},
		{
			"buffer":0,
			"byteLength":40368,
			"byteOffset":415132,
			"target":34962
		},
		{
			"buffer":0,
			"byteLength":42240,
			"byteOffset":455500,
			"target":34963
		},
		{
			"buffer":0,
			"byteLength":1824,
			"byteOffset":497740,
			"target":34962
		},
		{
			"buffer":0,
			"byteLength":1824,
			"byteOffset":499564,
			"target":34962
		},
		{
			"buffer":0,
			"byteLength":1216,
			"byteOffset":501388,
			"target":34962
		},
		{
			"buffer":0,
			"byteLength":608,
			"byteOffset":502604,
			"target":34962
		},
		{
			"buffer":0,
			"byteLength":1216,
			"byteOffset":503212,
			"target":34962
		},
		{
			"buffer":0,
			"byteLength":1512,
			"byteOffset":504428,
			"target":34963
		},
		{
			"buffer":0,
			"byteLength":2736,
			"byteOffset":505940,
			"target":34962
		},
		{
			"buffer":0,
			"byteLength":2736,
			"byteOffset":508676,
			"target":34962
		},
		{
			"buffer":0,
			"byteLength":1824,
			"byteOffset":511412,
			"target":34962
		},
		{
			"buffer":0,
			"byteLength":912,
			"byteOffset":513236,
			"target":34962
		},
		{
			"buffer":0,
			"byteLength":1824,
			"byteOffset":514148,
			"target":34962
		},
		{
			"buffer":0,
			"byteLength":1296,
			"byteOffset":515972,
			"target":34963
		},
		{
			"buffer":0,
			"byteLength":6336,
			"byteOffset":517268,
			"target":34962
		},
		{
			"buffer":0,
			"byteLength":6336,
			"byteOffset":523604,
			"target":34962
		},
		{
			"buffer":0,
			"byteLength":4224,
			"byteOffset":529940,
			"target":34962
		},
		{
			"buffer":0,
			"byteLength":2112,
			"byteOffset":534164,
			"target":34962
		},
		{
			"buffer":0,
			"byteLength":4224,
			"byteOffset":536276,
			"target":34962
		},
		{
			"buffer":0,
			"byteLength":4224,
			"byteOffset":540500,
			"target":34963
		},
		{
			"buffer":0,
			"byteLength":32400,
			"byteOffset":544724,
			"target":34962
		},
		{
			"buffer":0,
			"byteLength":32400,
			"byteOffset":577124,
			"target":34962
		},
		{
			"buffer":0,
			"byteLength":21600,
			"byteOffset":609524,
			"target":34962
		},
		{
			"buffer":0,
			"byteLength":10800,
			"byteOffset":631124,
			"target":34962
		},
		{
			"buffer":0,
			"byteLength":21600,
			"byteOffset":641924,
			"target":34962
		},
		{
			"buffer":0,
			"byteLength":29952,
			"byteOffset":663524,
			"target":34963
		}
	],
	"samplers":[
		{
			"magFilter":9729,
			"minFilter":9987
		}
	],
	"buffers":[
		{
			"byteLength":693476,
			"uri":"StreetDiner.bin"
		}
	]
}
