{
	"asset":{
		"generator":"Khronos glTF Blender I/O v4.3.47",
		"version":"2.0"
	},
	"scene":0,
	"scenes":[
		{
			"name":"Scene",
			"nodes":[
				10
			]
		}
	],
	"nodes":[
		{
			"mesh":0,
			"name":"SM_DiningSuplies_Chopsticks",
			"rotation":[
				0,
				0,
				-0.9501975774765015,
				0.31164848804473877
			],
			"scale":[
				1.249999761581421,
				1.249999761581421,
				1.2499996423721313
			],
			"translation":[
				134.9266357421875,
				-22.855064392089844,
				-106.14960479736328
			]
		},
		{
			"mesh":0,
			"name":"SM_DiningSuplies_Chopsticks_1",
			"rotation":[
				0.960993230342865,
				0.2765722870826721,
				0,
				3.9157890796559514e-07
			],
			"scale":[
				1.2499996423721313,
				1.2499998807907104,
				1.249999761581421
			],
			"translation":[
				149.14109802246094,
				-29.01293182373047,
				-106.14960479736328
			]
		},
		{
			"mesh":0,
			"name":"SM_DiningSuplies_Chopsticks_2",
			"rotation":[
				0,
				0,
				-0.058214399963617325,
				0.9983041286468506
			],
			"scale":[
				1.2499998807907104,
				1.2499996423721313,
				1.2499996423721313
			],
			"translation":[
				21.141820907592773,
				136.20843505859375,
				-102.39433288574219
			]
		},
		{
			"mesh":0,
			"name":"SM_DiningSuplies_Chopsticks_3",
			"rotation":[
				0.09480708092451096,
				0.9954956769943237,
				0,
				6.753086267963226e-08
			],
			"scale":[
				1.2500001192092896,
				1.2499995231628418,
				1.25
			],
			"translation":[
				14.943656921386719,
				150.4058380126953,
				-102.39434051513672
			]
		},
		{
			"mesh":1,
			"name":"SM_StreetDiner_SushiRoll",
			"rotation":[
				0,
				0,
				-0.19285108149051666,
				0.9812280535697937
			],
			"scale":[
				1.2499995231628418,
				1.249999761581421,
				1.2499996423721313
			],
			"translation":[
				154.61766052246094,
				-15.699353218078613,
				-106.2499771118164
			]
		},
		{
			"mesh":1,
			"name":"SM_StreetDiner_SushiRoll_1",
			"rotation":[
				-0.0618860237300396,
				0.998083233833313,
				0,
				8.390651373701985e-08
			],
			"scale":[
				1.249999761581421,
				1.249999761581421,
				1.2499996423721313
			],
			"translation":[
				146.7236785888672,
				-6.007259845733643,
				-106.24996948242188
			]
		},
		{
			"mesh":1,
			"name":"SM_StreetDiner_SushiRoll_2",
			"rotation":[
				0,
				0,
				-0.19285108149051666,
				0.9812280535697937
			],
			"scale":[
				1.2499995231628418,
				1.249999761581421,
				1.2499996423721313
			],
			"translation":[
				165.39561462402344,
				5.386561870574951,
				-106.2499771118164
			]
		},
		{
			"mesh":1,
			"name":"SM_StreetDiner_SushiRoll_3",
			"rotation":[
				0.9860771298408508,
				-0.1662885844707489,
				0,
				8.214100688519466e-08
			],
			"scale":[
				1.2499996423721313,
				1.2499995231628418,
				1.2499994039535522
			],
			"translation":[
				-23.74538803100586,
				169.4162139892578,
				-107.36967468261719
			]
		},
		{
			"mesh":1,
			"name":"SM_StreetDiner_SushiRoll_4",
			"rotation":[
				0,
				0,
				-0.19285108149051666,
				0.9812280535697937
			],
			"scale":[
				1.2499996423721313,
				1.249999761581421,
				1.2499996423721313
			],
			"translation":[
				-4.886826038360596,
				162.09280395507812,
				-107.36967468261719
			]
		},
		{
			"mesh":1,
			"name":"SM_StreetDiner_SushiRoll_5",
			"rotation":[
				0.39042603969573975,
				-0.07673463970422745,
				-0.1769275665283203,
				0.9002089500427246
			],
			"scale":[
				1.0853664875030518,
				1.0853667259216309,
				1.0853667259216309
			],
			"translation":[
				-10.52568531036377,
				146.82000732421875,
				-110.6620101928711
			]
		},
		{
			"children":[
				0,
				1,
				2,
				3,
				4,
				5,
				6,
				7,
				8,
				9
			],
			"mesh":2,
			"name":"SM_StreetDiner",
			"rotation":[
				0.6938331127166748,
				-0.1363663524389267,
				0.13636638224124908,
				0.6938328742980957
			],
			"scale":[
				0.008000001311302185,
				0.008000003173947334,
				0.008000001311302185
			]
		}
	],
	"materials":[
		{
			"doubleSided":true,
			"name":"M_Atlas_StreetDiner",
			"pbrMetallicRoughness":{
				"baseColorTexture":{
					"index":0
				},
				"metallicFactor":0,
				"roughnessFactor":0.5527864098548889
			}
		},
		{
			"doubleSided":true,
			"name":"M_StreetDiner_Food",
			"pbrMetallicRoughness":{
				"metallicFactor":0,
				"roughnessFactor":0.5527864098548889
			}
		},
		{
			"doubleSided":true,
			"name":"M_StreetDiner",
			"pbrMetallicRoughness":{
				"baseColorTexture":{
					"index":1
				},
				"metallicFactor":0,
				"roughnessFactor":0.5527864098548889
			}
		},
		{
			"doubleSided":true,
			"name":"M_Fishtail",
			"pbrMetallicRoughness":{
				"baseColorTexture":{
					"index":2
				},
				"metallicFactor":0,
				"roughnessFactor":0.5527864098548889
			}
		},
		{
			"doubleSided":true,
			"name":"M_StreetDinerSign",
			"pbrMetallicRoughness":{
				"baseColorTexture":{
					"index":3
				},
				"metallicFactor":0,
				"roughnessFactor":0.5527864098548889
			}
		},
		{
			"doubleSided":true,
			"name":"M_Atlas_StreetDiner_HueShift",
			"pbrMetallicRoughness":{
				"baseColorTexture":{
					"index":4
				},
				"metallicFactor":0,
				"roughnessFactor":0.5527864098548889
			}
		},
		{
			"doubleSided":true,
			"name":"M_Glow_Orange",
			"pbrMetallicRoughness":{
				"metallicFactor":0,
				"roughnessFactor":0.5527864098548889
			}
		}
	],
	"meshes":[
		{
			"name":"Scene.002",
			"primitives":[
				{
					"attributes":{
						"POSITION":0,
						"NORMAL":1,
						"TEXCOORD_0":2,
						"COLOR_0":3,
						"COLOR_1":4
					},
					"indices":5,
					"material":0
				}
			]
		},
		{
			"name":"Scene.001",
			"primitives":[
				{
					"attributes":{
						"POSITION":6,
						"NORMAL":7,
						"TEXCOORD_0":8,
						"COLOR_0":9,
						"COLOR_1":10
					},
					"indices":11,
					"material":1
				}
			]
		},
		{
			"name":"Scene",
			"primitives":[
				{
					"attributes":{
						"POSITION":12,
						"NORMAL":13,
						"TEXCOORD_0":14,
						"COLOR_0":15,
						"COLOR_1":16
					},
					"indices":17,
					"material":0
				},
				{
					"attributes":{
						"POSITION":18,
						"NORMAL":19,
						"TEXCOORD_0":20,
						"COLOR_0":21,
						"COLOR_1":22
					},
					"indices":23,
					"material":2
				},
				{
					"attributes":{
						"POSITION":24,
						"NORMAL":25,
						"TEXCOORD_0":26,
						"COLOR_0":27,
						"COLOR_1":28
					},
					"indices":29,
					"material":3
				},
				{
					"attributes":{
						"POSITION":30,
						"NORMAL":31,
						"TEXCOORD_0":32,
						"COLOR_0":33,
						"COLOR_1":34
					},
					"indices":35,
					"material":4
				},
				{
					"attributes":{
						"POSITION":36,
						"NORMAL":37,
						"TEXCOORD_0":38,
						"COLOR_0":39,
						"COLOR_1":40
					},
					"indices":41,
					"material":5
				},
				{
					"attributes":{
						"POSITION":42,
						"NORMAL":43,
						"TEXCOORD_0":44,
						"COLOR_0":45,
						"COLOR_1":46
					},
					"indices":47,
					"material":6
				}
			]
		}
	],
	"textures":[
		{
			"sampler":0,
			"source":0
		},
		{
			"sampler":0,
			"source":1
		},
		{
			"sampler":0,
			"source":2
		},
		{
			"sampler":0,
			"source":3
		},
		{
			"sampler":0,
			"source":0
		}
	],
	"images":[
		{
			"mimeType":"image/png",
			"name":"T_Atlas_StreetDiner_BC",
			"uri":"T_Atlas_StreetDiner_BC.png"
		},
		{
			"mimeType":"image/png",
			"name":"T_StreetDiner_BC",
			"uri":"T_StreetDiner_BC.png"
		},
		{
			"mimeType":"image/png",
			"name":"T_Fishtail_BC",
			"uri":"T_Fishtail_BC.png"
		},
		{
			"mimeType":"image/png",
			"name":"T_NeonSignAlphas",
			"uri":"T_NeonSignAlphas.png"
		}
	],
	"accessors":[
		{
			"bufferView":0,
			"componentType":5126,
			"count":24,
			"max":[
				2.192826986312866,
				27.346345901489258,
				2.1928224563598633
			],
			"min":[
				-2.192826986312866,
				-32.48532485961914,
				-2.19283127784729
			],
			"type":"VEC3"
		},
		{
			"bufferView":1,
			"componentType":5126,
			"count":24,
			"type":"VEC3"
		},
		{
			"bufferView":2,
			"componentType":5126,
			"count":24,
			"type":"VEC2"
		},
		{
			"bufferView":3,
			"componentType":5121,
			"count":24,
			"normalized":true,
			"type":"VEC4"
		},
		{
			"bufferView":4,
			"componentType":5123,
			"count":24,
			"normalized":true,
			"type":"VEC4"
		},
		{
			"bufferView":5,
			"componentType":5123,
			"count":36,
			"type":"SCALAR"
		},
		{
			"bufferView":6,
			"componentType":5126,
			"count":1293,
			"max":[
				4.999999523162842,
				5.000000476837158,
				3.57767391204834
			],
			"min":[
				-4.999999523162842,
				-5.000000476837158,
				-3.577674150466919
			],
			"type":"VEC3"
		},
		{
			"bufferView":7,
			"componentType":5126,
			"count":1293,
			"type":"VEC3"
		},
		{
			"bufferView":8,
			"componentType":5126,
			"count":1293,
			"type":"VEC2"
		},
		{
			"bufferView":9,
			"componentType":5121,
			"count":1293,
			"normalized":true,
			"type":"VEC4"
		},
		{
			"bufferView":10,
			"componentType":5123,
			"count":1293,
			"normalized":true,
			"type":"VEC4"
		},
		{
			"bufferView":11,
			"componentType":5123,
			"count":4452,
			"type":"SCALAR"
		},
		{
			"bufferView":12,
			"componentType":5126,
			"count":3173,
			"max":[
				236.5780792236328,
				236.5780792236328,
				1.4905444383621216
			],
			"min":[
				-236.5780792236328,
				-214.25103759765625,
				-411.23150634765625
			],
			"type":"VEC3"
		},
		{
			"bufferView":13,
			"componentType":5126,
			"count":3173,
			"type":"VEC3"
		},
		{
			"bufferView":14,
			"componentType":5126,
			"count":3173,
			"type":"VEC2"
		},
		{
			"bufferView":15,
			"componentType":5121,
			"count":3173,
			"normalized":true,
			"type":"VEC4"
		},
		{
			"bufferView":16,
			"componentType":5123,
			"count":3173,
			"normalized":true,
			"type":"VEC4"
		},
		{
			"bufferView":17,
			"componentType":5123,
			"count":13602,
			"type":"SCALAR"
		},
		{
			"bufferView":18,
			"componentType":5126,
			"count":5046,
			"max":[
				253.96206665039062,
				243.51531982421875,
				-6.300509929656982
			],
			"min":[
				-254.4210205078125,
				-191.40916442871094,
				-406.0899658203125
			],
			"type":"VEC3"
		},
		{
			"bufferView":19,
			"componentType":5126,
			"count":5046,
			"type":"VEC3"
		},
		{
			"bufferView":20,
			"componentType":5126,
			"count":5046,
			"type":"VEC2"
		},
		{
			"bufferView":21,
			"componentType":5121,
			"count":5046,
			"normalized":true,
			"type":"VEC4"
		},
		{
			"bufferView":22,
			"componentType":5123,
			"count":5046,
			"normalized":true,
			"type":"VEC4"
		},
		{
			"bufferView":23,
			"componentType":5123,
			"count":21120,
			"type":"SCALAR"
		},
		{
			"bufferView":24,
			"componentType":5126,
			"count":152,
			"max":[
				140.42352294921875,
				55.90633773803711,
				-383.2999267578125
			],
			"min":[
				-140.42352294921875,
				-55.90646743774414,
				-632.1455688476562
			],
			"type":"VEC3"
		},
		{
			"bufferView":25,
			"componentType":5126,
			"count":152,
			"type":"VEC3"
		},
		{
			"bufferView":26,
			"componentType":5126,
			"count":152,
			"type":"VEC2"
		},
		{
			"bufferView":27,
			"componentType":5121,
			"count":152,
			"normalized":true,
			"type":"VEC4"
		},
		{
			"bufferView":28,
			"componentType":5123,
			"count":152,
			"normalized":true,
			"type":"VEC4"
		},
		{
			"bufferView":29,
			"componentType":5123,
			"count":756,
			"type":"SCALAR"
		},
		{
			"bufferView":30,
			"componentType":5126,
			"count":228,
			"max":[
				190.32431030273438,
				188.4305419921875,
				-281.8452453613281
			],
			"min":[
				-194.4693145751953,
				52.0601921081543,
				-389.6405334472656
			],
			"type":"VEC3"
		},
		{
			"bufferView":31,
			"componentType":5126,
			"count":228,
			"type":"VEC3"
		},
		{
			"bufferView":32,
			"componentType":5126,
			"count":228,
			"type":"VEC2"
		},
		{
			"bufferView":33,
			"componentType":5121,
			"count":228,
			"normalized":true,
			"type":"VEC4"
		},
		{
			"bufferView":34,
			"componentType":5123,
			"count":228,
			"normalized":true,
			"type":"VEC4"
		},
		{
			"bufferView":35,
			"componentType":5123,
			"count":648,
			"type":"SCALAR"
		},
		{
			"bufferView":36,
			"componentType":5126,
			"count":528,
			"max":[
				174.80831909179688,
				174.80825805664062,
				-261.30767822265625
			],
			"min":[
				-174.80831909179688,
				-174.8083953857422,
				-410.35107421875
			],
			"type":"VEC3"
		},
		{
			"bufferView":37,
			"componentType":5126,
			"count":528,
			"type":"VEC3"
		},
		{
			"bufferView":38,
			"componentType":5126,
			"count":528,
			"type":"VEC2"
		},
		{
			"bufferView":39,
			"componentType":5121,
			"count":528,
			"normalized":true,
			"type":"VEC4"
		},
		{
			"bufferView":40,
			"componentType":5123,
			"count":528,
			"normalized":true,
			"type":"VEC4"
		},
		{
			"bufferView":41,
			"componentType":5123,
			"count":2112,
			"type":"SCALAR"
		},
		{
			"bufferView":42,
			"componentType":5126,
			"count":2700,
			"max":[
				144.82911682128906,
				160.90756225585938,
				-240.94175720214844
			],
			"min":[
				-144.8291015625,
				-160.90768432617188,
				-430.1346740722656
			],
			"type":"VEC3"
		},
		{
			"bufferView":43,
			"componentType":5126,
			"count":2700,
			"type":"VEC3"
		},
		{
			"bufferView":44,
			"componentType":5126,
			"count":2700,
			"type":"VEC2"
		},
		{
			"bufferView":45,
			"componentType":5121,
			"count":2700,
			"normalized":true,
			"type":"VEC4"
		},
		{
			"bufferView":46,
			"componentType":5123,
			"count":2700,
			"normalized":true,
			"type":"VEC4"
		},
		{
			"bufferView":47,
			"componentType":5123,
			"count":14976,
			"type":"SCALAR"
		}
	],
	"bufferViews":[
		{
			"buffer":0,
			"byteLength":288,
			"byteOffset":0,
			"target":34962
		},
		{
			"buffer":0,
			"byteLength":288,
			"byteOffset":288,
			"target":34962
		},
		{
			"buffer":0,
			"byteLength":192,
			"byteOffset":576,
			"target":34962
		},
		{
			"buffer":0,
			"byteLength":96,
			"byteOffset":768,
			"target":34962
		},
		{
			"buffer":0,
			"byteLength":192,
			"byteOffset":864,
			"target":34962
		},
		{
			"buffer":0,
			"byteLength":72,
			"byteOffset":1056,
			"target":34963
		},
		{
			"buffer":0,
			"byteLength":15516,
			"byteOffset":1128,
			"target":34962
		},
		{
			"buffer":0,
			"byteLength":15516,
			"byteOffset":16644,
			"target":34962
		},
		{
			"buffer":0,
			"byteLength":10344,
			"byteOffset":32160,
			"target":34962
		},
		{
			"buffer":0,
			"byteLength":5172,
			"byteOffset":42504,
			"target":34962
		},
		{
			"buffer":0,
			"byteLength":10344,
			"byteOffset":47676,
			"target":34962
		},
		{
			"buffer":0,
			"byteLength":8904,
			"byteOffset":58020,
			"target":34963
		},
		{
			"buffer":0,
			"byteLength":38076,
			"byteOffset":66924,
			"target":34962
		},
		{
			"buffer":0,
			"byteLength":38076,
			"byteOffset":105000,
			"target":34962
		},
		{
			"buffer":0,
			"byteLength":25384,
			"byteOffset":143076,
			"target":34962
		},
		{
			"buffer":0,
			"byteLength":12692,
			"byteOffset":168460,
			"target":34962
		},
		{
			"buffer":0,
			"byteLength":25384,
			"byteOffset":181152,
			"target":34962
		},
		{
			"buffer":0,
			"byteLength":27204,
			"byteOffset":206536,
			"target":34963
		},
		{
			"buffer":0,
			"byteLength":60552,
			"byteOffset":233740,
			"target":34962
		},
		{
			"buffer":0,
			"byteLength":60552,
			"byteOffset":294292,
			"target":34962
		},
		{
			"buffer":0,
			"byteLength":40368,
			"byteOffset":354844,
			"target":34962
		},
		{
			"buffer":0,
			"byteLength":20184,
			"byteOffset":395212,
			"target":34962
		},
		{
			"buffer":0,
			"byteLength":40368,
			"byteOffset":415396,
			"target":34962
		},
		{
			"buffer":0,
			"byteLength":42240,
			"byteOffset":455764,
			"target":34963
		},
		{
			"buffer":0,
			"byteLength":1824,
			"byteOffset":498004,
			"target":34962
		},
		{
			"buffer":0,
			"byteLength":1824,
			"byteOffset":499828,
			"target":34962
		},
		{
			"buffer":0,
			"byteLength":1216,
			"byteOffset":501652,
			"target":34962
		},
		{
			"buffer":0,
			"byteLength":608,
			"byteOffset":502868,
			"target":34962
		},
		{
			"buffer":0,
			"byteLength":1216,
			"byteOffset":503476,
			"target":34962
		},
		{
			"buffer":0,
			"byteLength":1512,
			"byteOffset":504692,
			"target":34963
		},
		{
			"buffer":0,
			"byteLength":2736,
			"byteOffset":506204,
			"target":34962
		},
		{
			"buffer":0,
			"byteLength":2736,
			"byteOffset":508940,
			"target":34962
		},
		{
			"buffer":0,
			"byteLength":1824,
			"byteOffset":511676,
			"target":34962
		},
		{
			"buffer":0,
			"byteLength":912,
			"byteOffset":513500,
			"target":34962
		},
		{
			"buffer":0,
			"byteLength":1824,
			"byteOffset":514412,
			"target":34962
		},
		{
			"buffer":0,
			"byteLength":1296,
			"byteOffset":516236,
			"target":34963
		},
		{
			"buffer":0,
			"byteLength":6336,
			"byteOffset":517532,
			"target":34962
		},
		{
			"buffer":0,
			"byteLength":6336,
			"byteOffset":523868,
			"target":34962
		},
		{
			"buffer":0,
			"byteLength":4224,
			"byteOffset":530204,
			"target":34962
		},
		{
			"buffer":0,
			"byteLength":2112,
			"byteOffset":534428,
			"target":34962
		},
		{
			"buffer":0,
			"byteLength":4224,
			"byteOffset":536540,
			"target":34962
		},
		{
			"buffer":0,
			"byteLength":4224,
			"byteOffset":540764,
			"target":34963
		},
		{
			"buffer":0,
			"byteLength":32400,
			"byteOffset":544988,
			"target":34962
		},
		{
			"buffer":0,
			"byteLength":32400,
			"byteOffset":577388,
			"target":34962
		},
		{
			"buffer":0,
			"byteLength":21600,
			"byteOffset":609788,
			"target":34962
		},
		{
			"buffer":0,
			"byteLength":10800,
			"byteOffset":631388,
			"target":34962
		},
		{
			"buffer":0,
			"byteLength":21600,
			"byteOffset":642188,
			"target":34962
		},
		{
			"buffer":0,
			"byteLength":29952,
			"byteOffset":663788,
			"target":34963
		}
	],
	"samplers":[
		{
			"magFilter":9729,
			"minFilter":9987
		}
	],
	"buffers":[
		{
			"byteLength":693740,
			"uri":"StreetDiner.bin"
		}
	]
}
