{
	"asset":{
		"generator":"Khronos glTF Blender I/O v4.3.47",
		"version":"2.0"
	},
	"scene":0,
	"scenes":[
		{
			"name":"Scene",
			"nodes":[
				4
			]
		}
	],
	"nodes":[
		{
			"mesh":0,
			"name":"SM_Pedestrian_Tile"
		},
		{
			"mesh":1,
			"name":"SM_PedestrianBorder",
			"scale":[
				1,
				1,
				0.40000006556510925
			],
			"translation":[
				-100,
				7.629394076502649e-06,
				0
			]
		},
		{
			"mesh":1,
			"name":"SM_PedestrianBorder_1",
			"rotation":[
				0,
				0,
				-1,
				6.854534149169922e-07
			],
			"scale":[
				1,
				1,
				0.40000006556510925
			],
			"translation":[
				100,
				-7.629394076502649e-06,
				0
			]
		},
		{
			"children":[
				0,
				1,
				2
			],
			"name":"GameObject",
			"rotation":[
				0,
				0,
				0.4226182997226715,
				0.9063078165054321
			],
			"scale":[
				3.352499485015869,
				2.999999761581421,
				3
			]
		},
		{
			"children":[
				3
			],
			"name":"P_PedestrianZone",
			"rotation":[
				0.7071068286895752,
				0,
				0,
				0.7071068286895752
			],
			"scale":[
				0.009999999776482582,
				0.009999999776482582,
				0.009999999776482582
			]
		}
	],
	"materials":[
		{
			"doubleSided":true,
			"name":"M_PedestrianZone",
			"pbrMetallicRoughness":{
				"baseColorTexture":{
					"index":0
				}
			}
		}
	],
	"meshes":[
		{
			"name":"Scene",
			"primitives":[
				{
					"attributes":{
						"POSITION":0,
						"NORMAL":1,
						"TEXCOORD_0":2
					},
					"indices":3,
					"material":0
				}
			]
		},
		{
			"name":"Scene.001",
			"primitives":[
				{
					"attributes":{
						"POSITION":4,
						"NORMAL":5,
						"TEXCOORD_0":6
					},
					"indices":7,
					"material":0
				}
			]
		}
	],
	"textures":[
		{
			"sampler":0,
			"source":0
		}
	],
	"images":[
		{
			"mimeType":"image/png",
			"name":"T_Atlas_PedestrianZone_Modern_BC",
			"uri":"T_Atlas_PedestrianZone_Modern_BC.png"
		}
	],
	"accessors":[
		{
			"bufferView":0,
			"componentType":5126,
			"count":8,
			"max":[
				100.00001525878906,
				100.00001525878906,
				1.629206963116303e-05
			],
			"min":[
				-100.00001525878906,
				-100.00001525878906,
				-1.629206963116303e-05
			],
			"type":"VEC3"
		},
		{
			"bufferView":1,
			"componentType":5126,
			"count":8,
			"type":"VEC3"
		},
		{
			"bufferView":2,
			"componentType":5126,
			"count":8,
			"type":"VEC2"
		},
		{
			"bufferView":3,
			"componentType":5123,
			"count":12,
			"type":"SCALAR"
		},
		{
			"bufferView":4,
			"componentType":5126,
			"count":60,
			"max":[
				2.6439905166625977,
				100,
				1.629206963116303e-05
			],
			"min":[
				-45.90513229370117,
				-100.00001525878906,
				-12.737186431884766
			],
			"type":"VEC3"
		},
		{
			"bufferView":5,
			"componentType":5126,
			"count":60,
			"type":"VEC3"
		},
		{
			"bufferView":6,
			"componentType":5126,
			"count":60,
			"type":"VEC2"
		},
		{
			"bufferView":7,
			"componentType":5123,
			"count":126,
			"type":"SCALAR"
		}
	],
	"bufferViews":[
		{
			"buffer":0,
			"byteLength":96,
			"byteOffset":0,
			"target":34962
		},
		{
			"buffer":0,
			"byteLength":96,
			"byteOffset":96,
			"target":34962
		},
		{
			"buffer":0,
			"byteLength":64,
			"byteOffset":192,
			"target":34962
		},
		{
			"buffer":0,
			"byteLength":24,
			"byteOffset":256,
			"target":34963
		},
		{
			"buffer":0,
			"byteLength":720,
			"byteOffset":280,
			"target":34962
		},
		{
			"buffer":0,
			"byteLength":720,
			"byteOffset":1000,
			"target":34962
		},
		{
			"buffer":0,
			"byteLength":480,
			"byteOffset":1720,
			"target":34962
		},
		{
			"buffer":0,
			"byteLength":252,
			"byteOffset":2200,
			"target":34963
		}
	],
	"samplers":[
		{
			"magFilter":9729,
			"minFilter":9987
		}
	],
	"buffers":[
		{
			"byteLength":2452,
			"uri":"PedestrianZone.bin"
		}
	]
}
