{
	"asset":{
		"generator":"Khronos glTF Blender I/O v4.3.47",
		"version":"2.0"
	},
	"extensionsUsed":[
		"KHR_materials_specular"
	],
	"scene":0,
	"scenes":[
		{
			"name":"Scene",
			"nodes":[
				0
			]
		}
	],
	"nodes":[
		{
			"mesh":0,
			"name":"SM_Tower"
		}
	],
	"materials":[
		{
			"doubleSided":true,
			"extensions":{
				"KHR_materials_specular":{
					"specularColorFactor":[
						2.0,
						2.0,
						2.0
					]
				}
			},
			"name":"MI_ConcreteWall_White.001",
			"pbrMetallicRoughness":{
				"baseColorFactor":[
					0.5,
					0.5,
					0.5,
					1
				],
				"roughnessFactor":0.5527864098548889
			}
		},
		{
			"doubleSided":true,
			"extensions":{
				"KHR_materials_specular":{
					"specularColorFactor":[
						2.0,
						2.0,
						2.0
					]
				}
			},
			"name":"MI_ConcreteWall_Red.003",
			"pbrMetallicRoughness":{
				"baseColorFactor":[
					0.4994831681251526,
					0,
					0.0012628488475456834,
					1
				],
				"roughnessFactor":0.5527864098548889
			}
		}
	],
	"meshes":[
		{
			"name":"SM_Tower.001",
			"primitives":[
				{
					"attributes":{
						"POSITION":0,
						"NORMAL":1,
						"TEXCOORD_0":2,
						"TEXCOORD_1":3
					},
					"indices":4,
					"material":0
				},
				{
					"attributes":{
						"POSITION":5,
						"NORMAL":6,
						"TEXCOORD_0":7,
						"TEXCOORD_1":8
					},
					"indices":9,
					"material":1
				}
			]
		}
	],
	"accessors":[
		{
			"bufferView":0,
			"componentType":5126,
			"count":1564,
			"max":[
				10.51758861541748,
				119.21524047851562,
				10.362889289855957
			],
			"min":[
				-13.629252433776855,
				15.175622940063477,
				-13.50550651550293
			],
			"type":"VEC3"
		},
		{
			"bufferView":1,
			"componentType":5126,
			"count":1564,
			"type":"VEC3"
		},
		{
			"bufferView":2,
			"componentType":5126,
			"count":1564,
			"type":"VEC2"
		},
		{
			"bufferView":3,
			"componentType":5126,
			"count":1564,
			"type":"VEC2"
		},
		{
			"bufferView":4,
			"componentType":5123,
			"count":3960,
			"type":"SCALAR"
		},
		{
			"bufferView":5,
			"componentType":5126,
			"count":2106,
			"max":[
				13.072301864624023,
				145.1481475830078,
				12.917600631713867
			],
			"min":[
				-16.18396759033203,
				-3.633389042079216e-06,
				-16.060222625732422
			],
			"type":"VEC3"
		},
		{
			"bufferView":6,
			"componentType":5126,
			"count":2106,
			"type":"VEC3"
		},
		{
			"bufferView":7,
			"componentType":5126,
			"count":2106,
			"type":"VEC2"
		},
		{
			"bufferView":8,
			"componentType":5126,
			"count":2106,
			"type":"VEC2"
		},
		{
			"bufferView":9,
			"componentType":5123,
			"count":5412,
			"type":"SCALAR"
		}
	],
	"bufferViews":[
		{
			"buffer":0,
			"byteLength":18768,
			"byteOffset":0,
			"target":34962
		},
		{
			"buffer":0,
			"byteLength":18768,
			"byteOffset":18768,
			"target":34962
		},
		{
			"buffer":0,
			"byteLength":12512,
			"byteOffset":37536,
			"target":34962
		},
		{
			"buffer":0,
			"byteLength":12512,
			"byteOffset":50048,
			"target":34962
		},
		{
			"buffer":0,
			"byteLength":7920,
			"byteOffset":62560,
			"target":34963
		},
		{
			"buffer":0,
			"byteLength":25272,
			"byteOffset":70480,
			"target":34962
		},
		{
			"buffer":0,
			"byteLength":25272,
			"byteOffset":95752,
			"target":34962
		},
		{
			"buffer":0,
			"byteLength":16848,
			"byteOffset":121024,
			"target":34962
		},
		{
			"buffer":0,
			"byteLength":16848,
			"byteOffset":137872,
			"target":34962
		},
		{
			"buffer":0,
			"byteLength":10824,
			"byteOffset":154720,
			"target":34963
		}
	],
	"buffers":[
		{
			"byteLength":165544,
			"uri":"Tower.bin"
		}
	]
}
