{
	"asset":{
		"generator":"Khronos glTF Blender I/O v4.3.47",
		"version":"2.0"
	},
	"scene":0,
	"scenes":[
		{
			"name":"Scene",
			"nodes":[
				0
			]
		}
	],
	"nodes":[
		{
			"mesh":0,
			"name":"SM_BGBuilding2"
		}
	],
	"materials":[
		{
			"doubleSided":true,
			"name":"M_Wall2.001",
			"pbrMetallicRoughness":{
				"baseColorTexture":{
					"index":0
				},
				"metallicFactor":0,
				"roughnessFactor":0.5527864098548889
			}
		},
		{
			"doubleSided":true,
			"name":"Window01.001",
			"pbrMetallicRoughness":{
				"metallicFactor":0,
				"roughnessFactor":0.5527864098548889
			}
		},
		{
			"doubleSided":true,
			"name":"Window01_bright.001",
			"pbrMetallicRoughness":{
				"metallicFactor":0,
				"roughnessFactor":0.5527864098548889
			}
		}
	],
	"meshes":[
		{
			"name":"Scene.001",
			"primitives":[
				{
					"attributes":{
						"POSITION":0,
						"NORMAL":1,
						"TEXCOORD_0":2,
						"TEXCOORD_1":3
					},
					"indices":4,
					"material":0
				},
				{
					"attributes":{
						"POSITION":5,
						"NORMAL":6,
						"TEXCOORD_0":7,
						"TEXCOORD_1":8
					},
					"indices":9,
					"material":1
				},
				{
					"attributes":{
						"POSITION":10,
						"NORMAL":11,
						"TEXCOORD_0":12,
						"TEXCOORD_1":13
					},
					"indices":14,
					"material":2
				}
			]
		}
	],
	"textures":[
		{
			"sampler":0,
			"source":0
		}
	],
	"images":[
		{
			"mimeType":"image/png",
			"name":"T_Asphalt_BC",
			"uri":"T_Asphalt_BC.png"
		}
	],
	"accessors":[
		{
			"bufferView":0,
			"componentType":5126,
			"count":200,
			"max":[
				21.725650787353516,
				93.5654067993164,
				21.725650787353516
			],
			"min":[
				-21.72565460205078,
				-9.73547003013664e-07,
				-21.72565460205078
			],
			"type":"VEC3"
		},
		{
			"bufferView":1,
			"componentType":5126,
			"count":200,
			"type":"VEC3"
		},
		{
			"bufferView":2,
			"componentType":5126,
			"count":200,
			"type":"VEC2"
		},
		{
			"bufferView":3,
			"componentType":5126,
			"count":200,
			"type":"VEC2"
		},
		{
			"bufferView":4,
			"componentType":5123,
			"count":360,
			"type":"SCALAR"
		},
		{
			"bufferView":5,
			"componentType":5126,
			"count":276,
			"max":[
				20.971214294433594,
				86.92062377929688,
				19.945518493652344
			],
			"min":[
				-20.772985458374023,
				2.68463397026062,
				-20.227426528930664
			],
			"type":"VEC3"
		},
		{
			"bufferView":6,
			"componentType":5126,
			"count":276,
			"type":"VEC3"
		},
		{
			"bufferView":7,
			"componentType":5126,
			"count":276,
			"type":"VEC2"
		},
		{
			"bufferView":8,
			"componentType":5126,
			"count":276,
			"type":"VEC2"
		},
		{
			"bufferView":9,
			"componentType":5123,
			"count":414,
			"type":"SCALAR"
		},
		{
			"bufferView":10,
			"componentType":5126,
			"count":56,
			"max":[
				20.689308166503906,
				82.7088394165039,
				19.945518493652344
			],
			"min":[
				-20.491077423095703,
				6.896434307098389,
				-19.945518493652344
			],
			"type":"VEC3"
		},
		{
			"bufferView":11,
			"componentType":5126,
			"count":56,
			"type":"VEC3"
		},
		{
			"bufferView":12,
			"componentType":5126,
			"count":56,
			"type":"VEC2"
		},
		{
			"bufferView":13,
			"componentType":5126,
			"count":56,
			"type":"VEC2"
		},
		{
			"bufferView":14,
			"componentType":5123,
			"count":84,
			"type":"SCALAR"
		}
	],
	"bufferViews":[
		{
			"buffer":0,
			"byteLength":2400,
			"byteOffset":0,
			"target":34962
		},
		{
			"buffer":0,
			"byteLength":2400,
			"byteOffset":2400,
			"target":34962
		},
		{
			"buffer":0,
			"byteLength":1600,
			"byteOffset":4800,
			"target":34962
		},
		{
			"buffer":0,
			"byteLength":1600,
			"byteOffset":6400,
			"target":34962
		},
		{
			"buffer":0,
			"byteLength":720,
			"byteOffset":8000,
			"target":34963
		},
		{
			"buffer":0,
			"byteLength":3312,
			"byteOffset":8720,
			"target":34962
		},
		{
			"buffer":0,
			"byteLength":3312,
			"byteOffset":12032,
			"target":34962
		},
		{
			"buffer":0,
			"byteLength":2208,
			"byteOffset":15344,
			"target":34962
		},
		{
			"buffer":0,
			"byteLength":2208,
			"byteOffset":17552,
			"target":34962
		},
		{
			"buffer":0,
			"byteLength":828,
			"byteOffset":19760,
			"target":34963
		},
		{
			"buffer":0,
			"byteLength":672,
			"byteOffset":20588,
			"target":34962
		},
		{
			"buffer":0,
			"byteLength":672,
			"byteOffset":21260,
			"target":34962
		},
		{
			"buffer":0,
			"byteLength":448,
			"byteOffset":21932,
			"target":34962
		},
		{
			"buffer":0,
			"byteLength":448,
			"byteOffset":22380,
			"target":34962
		},
		{
			"buffer":0,
			"byteLength":168,
			"byteOffset":22828,
			"target":34963
		}
	],
	"samplers":[
		{
			"magFilter":9729,
			"minFilter":9987
		}
	],
	"buffers":[
		{
			"byteLength":22996,
			"uri":"B10.bin"
		}
	]
}
