{
	"asset":{
		"generator":"Khronos glTF Blender I/O v4.4.56",
		"version":"2.0"
	},
	"scene":0,
	"scenes":[
		{
			"name":"Scene",
			"nodes":[
				1,
				3,
				5,
				7,
				9,
				11,
				13,
				15,
				17,
				19,
				21,
				23,
				25,
				27,
				29,
				31,
				33,
				35
			]
		}
	],
	"nodes":[
		{
			"mesh":0,
			"name":"handle-in_mat-2_0"
		},
		{
			"children":[
				0
			],
			"name":"handle-in"
		},
		{
			"mesh":1,
			"name":"bottom1_mat-1_0"
		},
		{
			"children":[
				2
			],
			"name":"bottom1"
		},
		{
			"mesh":2,
			"name":"bottom2_mat-2_0"
		},
		{
			"children":[
				4
			],
			"name":"bottom2"
		},
		{
			"mesh":3,
			"name":"bottom3_mat-2_0"
		},
		{
			"children":[
				6
			],
			"name":"bottom3"
		},
		{
			"mesh":4,
			"name":"handlewraps_mat-1_0"
		},
		{
			"children":[
				8
			],
			"name":"handlewraps"
		},
		{
			"mesh":5,
			"name":"guard1_mat-1_0"
		},
		{
			"children":[
				10
			],
			"name":"guard1"
		},
		{
			"mesh":6,
			"name":"guard2_mat-1_0"
		},
		{
			"children":[
				12
			],
			"name":"guard2"
		},
		{
			"mesh":7,
			"name":"guard3_mat-2_0"
		},
		{
			"children":[
				14
			],
			"name":"guard3"
		},
		{
			"mesh":8,
			"name":"guard2 - 002_mat-3_0"
		},
		{
			"children":[
				16
			],
			"name":"guard2 - 002"
		},
		{
			"mesh":9,
			"name":"guard2.001_mat-3_0"
		},
		{
			"children":[
				18
			],
			"name":"guard2.001"
		},
		{
			"mesh":10,
			"name":"edge-base_mat-1_0"
		},
		{
			"children":[
				20
			],
			"name":"edge-base"
		},
		{
			"mesh":11,
			"name":"edge-shell_mat-2_0"
		},
		{
			"children":[
				22
			],
			"name":"edge-shell"
		},
		{
			"mesh":12,
			"name":"edge-beams_mat-3_0"
		},
		{
			"children":[
				24
			],
			"name":"edge-beams"
		},
		{
			"mesh":13,
			"name":"edge-main_mat-3_0"
		},
		{
			"children":[
				26
			],
			"name":"edge-main"
		},
		{
			"mesh":14,
			"name":"screw_mat-1_0"
		},
		{
			"children":[
				28
			],
			"name":"screw"
		},
		{
			"mesh":15,
			"name":"screw.001_mat-3_0"
		},
		{
			"children":[
				30
			],
			"name":"screw.001"
		},
		{
			"mesh":16,
			"name":"screw.002_mat-3_0"
		},
		{
			"children":[
				32
			],
			"name":"screw.002"
		},
		{
			"mesh":17,
			"name":"bottom3.001_mat-3_0"
		},
		{
			"children":[
				34
			],
			"name":"bottom3.001"
		}
	],
	"materials":[
		{
			"doubleSided":true,
			"name":"mat-2",
			"pbrMetallicRoughness":{
				"baseColorFactor":[
					0.5973039865493774,
					0.5973039865493774,
					0.5973039865493774,
					1
				],
				"metallicFactor":0.18374989926815033,
				"roughnessFactor":0.7980419993400574
			}
		},
		{
			"doubleSided":true,
			"name":"mat-1",
			"pbrMetallicRoughness":{
				"baseColorFactor":[
					0.8638839721679688,
					0.8638839721679688,
					0.8638839721679688,
					1
				],
				"roughnessFactor":0.7481366991996765
			}
		},
		{
			"doubleSided":true,
			"emissiveFactor":[
				0,
				0.7785019874572754,
				1
			],
			"name":"mat-3",
			"pbrMetallicRoughness":{
				"baseColorFactor":[
					0,
					0.8457520008087158,
					1,
					1
				],
				"metallicFactor":0,
				"roughnessFactor":0.7935177683830261
			}
		}
	],
	"meshes":[
		{
			"name":"handle-in_mat-2_0",
			"primitives":[
				{
					"attributes":{
						"POSITION":0,
						"NORMAL":1,
						"TEXCOORD_0":2
					},
					"indices":3,
					"material":0
				}
			]
		},
		{
			"name":"bottom1_mat-1_0",
			"primitives":[
				{
					"attributes":{
						"POSITION":4,
						"NORMAL":5,
						"TEXCOORD_0":6
					},
					"indices":7,
					"material":1
				}
			]
		},
		{
			"name":"bottom2_mat-2_0",
			"primitives":[
				{
					"attributes":{
						"POSITION":8,
						"NORMAL":9,
						"TEXCOORD_0":10
					},
					"indices":11,
					"material":0
				}
			]
		},
		{
			"name":"bottom3_mat-2_0",
			"primitives":[
				{
					"attributes":{
						"POSITION":12,
						"NORMAL":13,
						"TEXCOORD_0":14
					},
					"indices":15,
					"material":0
				}
			]
		},
		{
			"name":"handlewraps_mat-1_0",
			"primitives":[
				{
					"attributes":{
						"POSITION":16,
						"NORMAL":17,
						"TEXCOORD_0":18
					},
					"indices":19,
					"material":1
				}
			]
		},
		{
			"name":"guard1_mat-1_0",
			"primitives":[
				{
					"attributes":{
						"POSITION":20,
						"NORMAL":21,
						"TEXCOORD_0":22
					},
					"indices":23,
					"material":1
				}
			]
		},
		{
			"name":"guard2_mat-1_0",
			"primitives":[
				{
					"attributes":{
						"POSITION":24,
						"NORMAL":25,
						"TEXCOORD_0":26
					},
					"indices":27,
					"material":1
				}
			]
		},
		{
			"name":"guard3_mat-2_0",
			"primitives":[
				{
					"attributes":{
						"POSITION":28,
						"NORMAL":29,
						"TEXCOORD_0":30
					},
					"indices":31,
					"material":0
				}
			]
		},
		{
			"name":"guard2 - 002_mat-3_0",
			"primitives":[
				{
					"attributes":{
						"POSITION":32,
						"NORMAL":33,
						"TEXCOORD_0":34
					},
					"indices":35,
					"material":2
				}
			]
		},
		{
			"name":"guard2.001_mat-3_0",
			"primitives":[
				{
					"attributes":{
						"POSITION":36,
						"NORMAL":37,
						"TEXCOORD_0":38
					},
					"indices":39,
					"material":2
				}
			]
		},
		{
			"name":"edge-base_mat-1_0",
			"primitives":[
				{
					"attributes":{
						"POSITION":40,
						"NORMAL":41,
						"TEXCOORD_0":42
					},
					"indices":43,
					"material":1
				}
			]
		},
		{
			"name":"edge-shell_mat-2_0",
			"primitives":[
				{
					"attributes":{
						"POSITION":44,
						"NORMAL":45,
						"TEXCOORD_0":46
					},
					"indices":47,
					"material":0
				}
			]
		},
		{
			"name":"edge-beams_mat-3_0",
			"primitives":[
				{
					"attributes":{
						"POSITION":48,
						"NORMAL":49,
						"TEXCOORD_0":50
					},
					"indices":51,
					"material":2
				}
			]
		},
		{
			"name":"edge-main_mat-3_0",
			"primitives":[
				{
					"attributes":{
						"POSITION":52,
						"NORMAL":53,
						"TEXCOORD_0":54
					},
					"indices":55,
					"material":2
				}
			]
		},
		{
			"name":"screw_mat-1_0",
			"primitives":[
				{
					"attributes":{
						"POSITION":56,
						"NORMAL":57,
						"TEXCOORD_0":58
					},
					"indices":59,
					"material":1
				}
			]
		},
		{
			"name":"screw.001_mat-3_0",
			"primitives":[
				{
					"attributes":{
						"POSITION":60,
						"NORMAL":61,
						"TEXCOORD_0":62
					},
					"indices":63,
					"material":2
				}
			]
		},
		{
			"name":"screw.002_mat-3_0",
			"primitives":[
				{
					"attributes":{
						"POSITION":64,
						"NORMAL":65,
						"TEXCOORD_0":66
					},
					"indices":67,
					"material":2
				}
			]
		},
		{
			"name":"bottom3.001_mat-3_0",
			"primitives":[
				{
					"attributes":{
						"POSITION":68,
						"NORMAL":69,
						"TEXCOORD_0":70
					},
					"indices":71,
					"material":2
				}
			]
		}
	],
	"accessors":[
		{
			"bufferView":0,
			"componentType":5126,
			"count":40,
			"max":[
				1.3367427587509155,
				9.55823040008545,
				61.56446075439453
			],
			"min":[
				-1.3367427587509155,
				4.875216484069824,
				11.747360229492188
			],
			"type":"VEC3"
		},
		{
			"bufferView":1,
			"componentType":5126,
			"count":40,
			"type":"VEC3"
		},
		{
			"bufferView":2,
			"componentType":5126,
			"count":40,
			"type":"VEC2"
		},
		{
			"bufferView":3,
			"componentType":5123,
			"count":72,
			"type":"SCALAR"
		},
		{
			"bufferView":4,
			"componentType":5126,
			"count":200,
			"max":[
				2.893209457397461,
				8.125163078308105,
				66.45706176757812
			],
			"min":[
				-2.893209457397461,
				6.308283805847168,
				62.32185363769531
			],
			"type":"VEC3"
		},
		{
			"bufferView":5,
			"componentType":5126,
			"count":200,
			"type":"VEC3"
		},
		{
			"bufferView":6,
			"componentType":5126,
			"count":200,
			"type":"VEC2"
		},
		{
			"bufferView":7,
			"componentType":5123,
			"count":504,
			"type":"SCALAR"
		},
		{
			"bufferView":8,
			"componentType":5126,
			"count":477,
			"max":[
				1.3855013847351074,
				11.062617301940918,
				70.13111114501953
			],
			"min":[
				-1.3855013847351074,
				3.3708295822143555,
				64.58663177490234
			],
			"type":"VEC3"
		},
		{
			"bufferView":9,
			"componentType":5126,
			"count":477,
			"type":"VEC3"
		},
		{
			"bufferView":10,
			"componentType":5126,
			"count":477,
			"type":"VEC2"
		},
		{
			"bufferView":11,
			"componentType":5123,
			"count":954,
			"type":"SCALAR"
		},
		{
			"bufferView":12,
			"componentType":5126,
			"count":110,
			"max":[
				1.9483782052993774,
				10.128870964050293,
				64.56094360351562
			],
			"min":[
				-1.9483782052993774,
				4.3045759201049805,
				61.3361701965332
			],
			"type":"VEC3"
		},
		{
			"bufferView":13,
			"componentType":5126,
			"count":110,
			"type":"VEC3"
		},
		{
			"bufferView":14,
			"componentType":5126,
			"count":110,
			"type":"VEC2"
		},
		{
			"bufferView":15,
			"componentType":5123,
			"count":216,
			"type":"SCALAR"
		},
		{
			"bufferView":16,
			"componentType":5126,
			"count":8793,
			"max":[
				1.7744841575622559,
				9.68188762664795,
				61.69581604003906
			],
			"min":[
				-1.7744770050048828,
				4.751559257507324,
				11.44398021697998
			],
			"type":"VEC3"
		},
		{
			"bufferView":17,
			"componentType":5126,
			"count":8793,
			"type":"VEC3"
		},
		{
			"bufferView":18,
			"componentType":5126,
			"count":8793,
			"type":"VEC2"
		},
		{
			"bufferView":19,
			"componentType":5123,
			"count":12096,
			"type":"SCALAR"
		},
		{
			"bufferView":20,
			"componentType":5126,
			"count":156,
			"max":[
				2.3006038665771484,
				10.60107707977295,
				12.340024948120117
			],
			"min":[
				-2.3006038665771484,
				3.8323774337768555,
				7.018974304199219
			],
			"type":"VEC3"
		},
		{
			"bufferView":21,
			"componentType":5126,
			"count":156,
			"type":"VEC3"
		},
		{
			"bufferView":22,
			"componentType":5126,
			"count":156,
			"type":"VEC2"
		},
		{
			"bufferView":23,
			"componentType":5123,
			"count":288,
			"type":"SCALAR"
		},
		{
			"bufferView":24,
			"componentType":5126,
			"count":290,
			"max":[
				4.395533561706543,
				13.939494132995605,
				10.16067123413086
			],
			"min":[
				-4.395533561706543,
				0.49395284056663513,
				8.437145233154297
			],
			"type":"VEC3"
		},
		{
			"bufferView":25,
			"componentType":5126,
			"count":290,
			"type":"VEC3"
		},
		{
			"bufferView":26,
			"componentType":5126,
			"count":290,
			"type":"VEC2"
		},
		{
			"bufferView":27,
			"componentType":5123,
			"count":666,
			"type":"SCALAR"
		},
		{
			"bufferView":28,
			"componentType":5126,
			"count":86,
			"max":[
				1.2216770648956299,
				10.100024223327637,
				7.249340057373047
			],
			"min":[
				-1.2216770648956299,
				4.333422660827637,
				1.3297605514526367
			],
			"type":"VEC3"
		},
		{
			"bufferView":29,
			"componentType":5126,
			"count":86,
			"type":"VEC3"
		},
		{
			"bufferView":30,
			"componentType":5126,
			"count":86,
			"type":"VEC2"
		},
		{
			"bufferView":31,
			"componentType":5123,
			"count":150,
			"type":"SCALAR"
		},
		{
			"bufferView":32,
			"componentType":5126,
			"count":200,
			"max":[
				5.773846626281738,
				15.077258110046387,
				9.4473237991333
			],
			"min":[
				-5.773846626281738,
				-0.6438111662864685,
				9.150492668151855
			],
			"type":"VEC3"
		},
		{
			"bufferView":33,
			"componentType":5126,
			"count":200,
			"type":"VEC3"
		},
		{
			"bufferView":34,
			"componentType":5126,
			"count":200,
			"type":"VEC2"
		},
		{
			"bufferView":35,
			"componentType":5123,
			"count":396,
			"type":"SCALAR"
		},
		{
			"bufferView":36,
			"componentType":5126,
			"count":74,
			"max":[
				4.137857913970947,
				13.545397758483887,
				8.796797752380371
			],
			"min":[
				-4.137857913970947,
				0.8880491852760315,
				8.535767555236816
			],
			"type":"VEC3"
		},
		{
			"bufferView":37,
			"componentType":5126,
			"count":74,
			"type":"VEC3"
		},
		{
			"bufferView":38,
			"componentType":5126,
			"count":74,
			"type":"VEC2"
		},
		{
			"bufferView":39,
			"componentType":5123,
			"count":192,
			"type":"SCALAR"
		},
		{
			"bufferView":40,
			"componentType":5126,
			"count":36,
			"max":[
				0.34385988116264343,
				8.393855094909668,
				5.080844879150391
			],
			"min":[
				-0.34385988116264343,
				6.800524711608887,
				-123.05903625488281
			],
			"type":"VEC3"
		},
		{
			"bufferView":41,
			"componentType":5126,
			"count":36,
			"type":"VEC3"
		},
		{
			"bufferView":42,
			"componentType":5126,
			"count":36,
			"type":"VEC2"
		},
		{
			"bufferView":43,
			"componentType":5123,
			"count":66,
			"type":"SCALAR"
		},
		{
			"bufferView":44,
			"componentType":5126,
			"count":5308,
			"max":[
				0.6032702326774597,
				9.51123332977295,
				4.978553771972656
			],
			"min":[
				-0.6032702326774597,
				4.922205924987793,
				-123.54524993896484
			],
			"type":"VEC3"
		},
		{
			"bufferView":45,
			"componentType":5126,
			"count":5308,
			"type":"VEC3"
		},
		{
			"bufferView":46,
			"componentType":5126,
			"count":5308,
			"type":"VEC2"
		},
		{
			"bufferView":47,
			"componentType":5123,
			"count":10164,
			"type":"SCALAR"
		},
		{
			"bufferView":48,
			"componentType":5126,
			"count":1469,
			"max":[
				0.2497304528951645,
				6.352267265319824,
				3.8882293701171875
			],
			"min":[
				-0.2497304528951645,
				4.308382987976074,
				-120.93849182128906
			],
			"type":"VEC3"
		},
		{
			"bufferView":49,
			"componentType":5126,
			"count":1469,
			"type":"VEC3"
		},
		{
			"bufferView":50,
			"componentType":5126,
			"count":1469,
			"type":"VEC2"
		},
		{
			"bufferView":51,
			"componentType":5123,
			"count":3036,
			"type":"SCALAR"
		},
		{
			"bufferView":52,
			"componentType":5126,
			"count":64,
			"max":[
				0.38776519894599915,
				9.157427787780762,
				7.516414642333984
			],
			"min":[
				-0.38776645064353943,
				0.7881727814674377,
				-130.38453674316406
			],
			"type":"VEC3"
		},
		{
			"bufferView":53,
			"componentType":5126,
			"count":64,
			"type":"VEC3"
		},
		{
			"bufferView":54,
			"componentType":5126,
			"count":64,
			"type":"VEC2"
		},
		{
			"bufferView":55,
			"componentType":5123,
			"count":108,
			"type":"SCALAR"
		},
		{
			"bufferView":56,
			"componentType":5126,
			"count":96,
			"max":[
				0.24925097823143005,
				11.755404472351074,
				10.333951950073242
			],
			"min":[
				-0.24925102293491364,
				2.678042411804199,
				8.246491432189941
			],
			"type":"VEC3"
		},
		{
			"bufferView":57,
			"componentType":5126,
			"count":96,
			"type":"VEC3"
		},
		{
			"bufferView":58,
			"componentType":5126,
			"count":96,
			"type":"VEC2"
		},
		{
			"bufferView":59,
			"componentType":5123,
			"count":168,
			"type":"SCALAR"
		},
		{
			"bufferView":60,
			"componentType":5126,
			"count":48,
			"max":[
				1.9504553079605103,
				7.7968549728393555,
				39.94821548461914
			],
			"min":[
				-1.9504553079605103,
				6.636591911315918,
				38.7879524230957
			],
			"type":"VEC3"
		},
		{
			"bufferView":61,
			"componentType":5126,
			"count":48,
			"type":"VEC3"
		},
		{
			"bufferView":62,
			"componentType":5126,
			"count":48,
			"type":"VEC2"
		},
		{
			"bufferView":63,
			"componentType":5123,
			"count":84,
			"type":"SCALAR"
		},
		{
			"bufferView":64,
			"componentType":5126,
			"count":96,
			"max":[
				1.3747715950012207,
				8.829371452331543,
				6.242023468017578
			],
			"min":[
				-1.3747726678848267,
				8.185816764831543,
				2.702455997467041
			],
			"type":"VEC3"
		},
		{
			"bufferView":65,
			"componentType":5126,
			"count":96,
			"type":"VEC3"
		},
		{
			"bufferView":66,
			"componentType":5126,
			"count":96,
			"type":"VEC2"
		},
		{
			"bufferView":67,
			"componentType":5123,
			"count":168,
			"type":"SCALAR"
		},
		{
			"bufferView":68,
			"componentType":5126,
			"count":101,
			"max":[
				0.1680704653263092,
				11.310770988464355,
				70.43084716796875
			],
			"min":[
				-0.1680704653263092,
				3.122675895690918,
				65.20719146728516
			],
			"type":"VEC3"
		},
		{
			"bufferView":69,
			"componentType":5126,
			"count":101,
			"type":"VEC3"
		},
		{
			"bufferView":70,
			"componentType":5126,
			"count":101,
			"type":"VEC2"
		},
		{
			"bufferView":71,
			"componentType":5123,
			"count":180,
			"type":"SCALAR"
		}
	],
	"bufferViews":[
		{
			"buffer":0,
			"byteLength":480,
			"byteOffset":0,
			"target":34962
		},
		{
			"buffer":0,
			"byteLength":480,
			"byteOffset":480,
			"target":34962
		},
		{
			"buffer":0,
			"byteLength":320,
			"byteOffset":960,
			"target":34962
		},
		{
			"buffer":0,
			"byteLength":144,
			"byteOffset":1280,
			"target":34963
		},
		{
			"buffer":0,
			"byteLength":2400,
			"byteOffset":1424,
			"target":34962
		},
		{
			"buffer":0,
			"byteLength":2400,
			"byteOffset":3824,
			"target":34962
		},
		{
			"buffer":0,
			"byteLength":1600,
			"byteOffset":6224,
			"target":34962
		},
		{
			"buffer":0,
			"byteLength":1008,
			"byteOffset":7824,
			"target":34963
		},
		{
			"buffer":0,
			"byteLength":5724,
			"byteOffset":8832,
			"target":34962
		},
		{
			"buffer":0,
			"byteLength":5724,
			"byteOffset":14556,
			"target":34962
		},
		{
			"buffer":0,
			"byteLength":3816,
			"byteOffset":20280,
			"target":34962
		},
		{
			"buffer":0,
			"byteLength":1908,
			"byteOffset":24096,
			"target":34963
		},
		{
			"buffer":0,
			"byteLength":1320,
			"byteOffset":26004,
			"target":34962
		},
		{
			"buffer":0,
			"byteLength":1320,
			"byteOffset":27324,
			"target":34962
		},
		{
			"buffer":0,
			"byteLength":880,
			"byteOffset":28644,
			"target":34962
		},
		{
			"buffer":0,
			"byteLength":432,
			"byteOffset":29524,
			"target":34963
		},
		{
			"buffer":0,
			"byteLength":105516,
			"byteOffset":29956,
			"target":34962
		},
		{
			"buffer":0,
			"byteLength":105516,
			"byteOffset":135472,
			"target":34962
		},
		{
			"buffer":0,
			"byteLength":70344,
			"byteOffset":240988,
			"target":34962
		},
		{
			"buffer":0,
			"byteLength":24192,
			"byteOffset":311332,
			"target":34963
		},
		{
			"buffer":0,
			"byteLength":1872,
			"byteOffset":335524,
			"target":34962
		},
		{
			"buffer":0,
			"byteLength":1872,
			"byteOffset":337396,
			"target":34962
		},
		{
			"buffer":0,
			"byteLength":1248,
			"byteOffset":339268,
			"target":34962
		},
		{
			"buffer":0,
			"byteLength":576,
			"byteOffset":340516,
			"target":34963
		},
		{
			"buffer":0,
			"byteLength":3480,
			"byteOffset":341092,
			"target":34962
		},
		{
			"buffer":0,
			"byteLength":3480,
			"byteOffset":344572,
			"target":34962
		},
		{
			"buffer":0,
			"byteLength":2320,
			"byteOffset":348052,
			"target":34962
		},
		{
			"buffer":0,
			"byteLength":1332,
			"byteOffset":350372,
			"target":34963
		},
		{
			"buffer":0,
			"byteLength":1032,
			"byteOffset":351704,
			"target":34962
		},
		{
			"buffer":0,
			"byteLength":1032,
			"byteOffset":352736,
			"target":34962
		},
		{
			"buffer":0,
			"byteLength":688,
			"byteOffset":353768,
			"target":34962
		},
		{
			"buffer":0,
			"byteLength":300,
			"byteOffset":354456,
			"target":34963
		},
		{
			"buffer":0,
			"byteLength":2400,
			"byteOffset":354756,
			"target":34962
		},
		{
			"buffer":0,
			"byteLength":2400,
			"byteOffset":357156,
			"target":34962
		},
		{
			"buffer":0,
			"byteLength":1600,
			"byteOffset":359556,
			"target":34962
		},
		{
			"buffer":0,
			"byteLength":792,
			"byteOffset":361156,
			"target":34963
		},
		{
			"buffer":0,
			"byteLength":888,
			"byteOffset":361948,
			"target":34962
		},
		{
			"buffer":0,
			"byteLength":888,
			"byteOffset":362836,
			"target":34962
		},
		{
			"buffer":0,
			"byteLength":592,
			"byteOffset":363724,
			"target":34962
		},
		{
			"buffer":0,
			"byteLength":384,
			"byteOffset":364316,
			"target":34963
		},
		{
			"buffer":0,
			"byteLength":432,
			"byteOffset":364700,
			"target":34962
		},
		{
			"buffer":0,
			"byteLength":432,
			"byteOffset":365132,
			"target":34962
		},
		{
			"buffer":0,
			"byteLength":288,
			"byteOffset":365564,
			"target":34962
		},
		{
			"buffer":0,
			"byteLength":132,
			"byteOffset":365852,
			"target":34963
		},
		{
			"buffer":0,
			"byteLength":63696,
			"byteOffset":365984,
			"target":34962
		},
		{
			"buffer":0,
			"byteLength":63696,
			"byteOffset":429680,
			"target":34962
		},
		{
			"buffer":0,
			"byteLength":42464,
			"byteOffset":493376,
			"target":34962
		},
		{
			"buffer":0,
			"byteLength":20328,
			"byteOffset":535840,
			"target":34963
		},
		{
			"buffer":0,
			"byteLength":17628,
			"byteOffset":556168,
			"target":34962
		},
		{
			"buffer":0,
			"byteLength":17628,
			"byteOffset":573796,
			"target":34962
		},
		{
			"buffer":0,
			"byteLength":11752,
			"byteOffset":591424,
			"target":34962
		},
		{
			"buffer":0,
			"byteLength":6072,
			"byteOffset":603176,
			"target":34963
		},
		{
			"buffer":0,
			"byteLength":768,
			"byteOffset":609248,
			"target":34962
		},
		{
			"buffer":0,
			"byteLength":768,
			"byteOffset":610016,
			"target":34962
		},
		{
			"buffer":0,
			"byteLength":512,
			"byteOffset":610784,
			"target":34962
		},
		{
			"buffer":0,
			"byteLength":216,
			"byteOffset":611296,
			"target":34963
		},
		{
			"buffer":0,
			"byteLength":1152,
			"byteOffset":611512,
			"target":34962
		},
		{
			"buffer":0,
			"byteLength":1152,
			"byteOffset":612664,
			"target":34962
		},
		{
			"buffer":0,
			"byteLength":768,
			"byteOffset":613816,
			"target":34962
		},
		{
			"buffer":0,
			"byteLength":336,
			"byteOffset":614584,
			"target":34963
		},
		{
			"buffer":0,
			"byteLength":576,
			"byteOffset":614920,
			"target":34962
		},
		{
			"buffer":0,
			"byteLength":576,
			"byteOffset":615496,
			"target":34962
		},
		{
			"buffer":0,
			"byteLength":384,
			"byteOffset":616072,
			"target":34962
		},
		{
			"buffer":0,
			"byteLength":168,
			"byteOffset":616456,
			"target":34963
		},
		{
			"buffer":0,
			"byteLength":1152,
			"byteOffset":616624,
			"target":34962
		},
		{
			"buffer":0,
			"byteLength":1152,
			"byteOffset":617776,
			"target":34962
		},
		{
			"buffer":0,
			"byteLength":768,
			"byteOffset":618928,
			"target":34962
		},
		{
			"buffer":0,
			"byteLength":336,
			"byteOffset":619696,
			"target":34963
		},
		{
			"buffer":0,
			"byteLength":1212,
			"byteOffset":620032,
			"target":34962
		},
		{
			"buffer":0,
			"byteLength":1212,
			"byteOffset":621244,
			"target":34962
		},
		{
			"buffer":0,
			"byteLength":808,
			"byteOffset":622456,
			"target":34962
		},
		{
			"buffer":0,
			"byteLength":360,
			"byteOffset":623264,
			"target":34963
		}
	],
	"buffers":[
		{
			"byteLength":623624,
			"uri":"Katana-white.bin"
		}
	]
}
