{
	"asset":
	{
		"version": "2.0",
		"generator": "Unreal Engine 5.5.4"
	},
	"scene": 0,
	"accessors": [
		{
			"bufferView": 0,
			"count": 20298,
			"type": "SCALAR",
			"componentType": 5123
		},
		{
			"bufferView": 1,
			"count": 20298,
			"type": "VEC3",
			"componentType": 5126,
			"min": [ -0.0482539982, -0.272430629, -0.0437378027 ],
			"max": [ 0.0488327928, 1.05082464, 0.0437379368 ]
		},
		{
			"bufferView": 2,
			"count": 20298,
			"type": "VEC4",
			"componentType": 5121,
			"normalized": true
		},
		{
			"bufferView": 3,
			"count": 20298,
			"type": "VEC3",
			"componentType": 5126
		},
		{
			"bufferView": 4,
			"count": 20298,
			"type": "VEC2",
			"componentType": 5126
		}
	],
	"buffers": [
		{
			"uri": "Katana_sword.bin",
			"byteLength": 771324
		}
	],
	"bufferViews": [
		{
			"buffer": 0,
			"byteLength": 40596,
			"target": 34963
		},
		{
			"buffer": 0,
			"byteLength": 243576,
			"byteOffset": 40596,
			"target": 34962
		},
		{
			"buffer": 0,
			"byteLength": 81192,
			"byteOffset": 284172,
			"target": 34962
		},
		{
			"buffer": 0,
			"byteLength": 243576,
			"byteOffset": 365364,
			"target": 34962
		},
		{
			"buffer": 0,
			"byteLength": 162384,
			"byteOffset": 608940,
			"target": 34962
		}
	],
	"images": [
		{
			"uri": "M_Katana_BaseColor.png"
		}
	],
	"materials": [
		{
			"name": "M_Katana",
			"pbrMetallicRoughness":
			{
				"baseColorTexture":
				{
					"index": 0
				},
				"metallicFactor": 0,
				"roughnessFactor": 0.5
			}
		}
	],
	"meshes": [
		{
			"name": "Katana_sword",
			"primitives": [
				{
					"attributes":
					{
						"POSITION": 1,
						"COLOR_0": 2,
						"NORMAL": 3,
						"TEXCOORD_0": 4
					},
					"indices": 0,
					"material": 0
				}
			]
		}
	],
	"nodes": [
		{
			"name": "Katana_sword",
			"mesh": 0
		}
	],
	"samplers": [
		{
			"minFilter": 9987,
			"magFilter": 9729
		}
	],
	"scenes": [
		{
			"name": "ThirdPersonMap",
			"nodes": [ 0 ]
		}
	],
	"textures": [
		{
			"name": "M_Katana_BaseColor",
			"sampler": 0,
			"source": 0
		}
	]
}