{
	"asset":{
		"generator":"Khronos glTF Blender I/O v4.3.47",
		"version":"2.0"
	},
	"scene":0,
	"scenes":[
		{
			"name":"Scene",
			"nodes":[
				0
			]
		}
	],
	"nodes":[
		{
			"mesh":0,
			"name":"SM_Cone",
			"rotation":[
				0.6272114515304565,
				-0.32650551199913025,
				0.32650554180145264,
				0.6272113919258118
			],
			"scale":[
				0.009999999776482582,
				0.009999999776482582,
				0.009999999776482582
			]
		}
	],
	"materials":[
		{
			"doubleSided":true,
			"name":"M_Cone",
			"pbrMetallicRoughness":{
				"baseColorTexture":{
					"index":0
				},
				"metallicFactor":0,
				"roughnessFactor":0.5527864098548889
			}
		}
	],
	"meshes":[
		{
			"name":"Scene",
			"primitives":[
				{
					"attributes":{
						"POSITION":0,
						"NORMAL":1,
						"TEXCOORD_0":2,
						"COLOR_0":3,
						"COLOR_1":4
					},
					"indices":5,
					"material":0
				}
			]
		}
	],
	"textures":[
		{
			"sampler":0,
			"source":0
		}
	],
	"images":[
		{
			"mimeType":"image/png",
			"name":"T_Cone_BC",
			"uri":"T_Cone_BC.png"
		}
	],
	"accessors":[
		{
			"bufferView":0,
			"componentType":5126,
			"count":880,
			"max":[
				18.301456451416016,
				18.310346603393555,
				0.6696760654449463
			],
			"min":[
				-18.306312561035156,
				-18.1441650390625,
				-100.61817169189453
			],
			"type":"VEC3"
		},
		{
			"bufferView":1,
			"componentType":5126,
			"count":880,
			"type":"VEC3"
		},
		{
			"bufferView":2,
			"componentType":5126,
			"count":880,
			"type":"VEC2"
		},
		{
			"bufferView":3,
			"componentType":5121,
			"count":880,
			"normalized":true,
			"type":"VEC4"
		},
		{
			"bufferView":4,
			"componentType":5123,
			"count":880,
			"normalized":true,
			"type":"VEC4"
		},
		{
			"bufferView":5,
			"componentType":5123,
			"count":1944,
			"type":"SCALAR"
		}
	],
	"bufferViews":[
		{
			"buffer":0,
			"byteLength":10560,
			"byteOffset":0,
			"target":34962
		},
		{
			"buffer":0,
			"byteLength":10560,
			"byteOffset":10560,
			"target":34962
		},
		{
			"buffer":0,
			"byteLength":7040,
			"byteOffset":21120,
			"target":34962
		},
		{
			"buffer":0,
			"byteLength":3520,
			"byteOffset":28160,
			"target":34962
		},
		{
			"buffer":0,
			"byteLength":7040,
			"byteOffset":31680,
			"target":34962
		},
		{
			"buffer":0,
			"byteLength":3888,
			"byteOffset":38720,
			"target":34963
		}
	],
	"samplers":[
		{
			"magFilter":9729,
			"minFilter":9987
		}
	],
	"buffers":[
		{
			"byteLength":42608,
			"uri":"Cone.bin"
		}
	]
}
