{
	"asset":{
		"generator":"Khronos glTF Blender I/O v4.3.47",
		"version":"2.0"
	},
	"scene":0,
	"scenes":[
		{
			"name":"Scene",
			"nodes":[
				0
			]
		}
	],
	"nodes":[
		{
			"mesh":0,
			"name":"SM_Cone"
		}
	],
	"materials":[
		{
			"doubleSided":true,
			"name":"M_Cone",
			"pbrMetallicRoughness":{
				"baseColorTexture":{
					"index":0
				},
				"metallicFactor":0,
				"roughnessFactor":0.5527864098548889
			}
		}
	],
	"meshes":[
		{
			"name":"Scene",
			"primitives":[
				{
					"attributes":{
						"POSITION":0,
						"NORMAL":1,
						"TEXCOORD_0":2,
						"COLOR_0":3,
						"COLOR_1":4
					},
					"indices":5,
					"material":0
				}
			]
		}
	],
	"textures":[
		{
			"sampler":0,
			"source":0
		}
	],
	"images":[
		{
			"mimeType":"image/png",
			"name":"T_Cone_BC",
			"uri":"T_Cone_BC.png"
		}
	],
	"accessors":[
		{
			"bufferView":0,
			"componentType":5126,
			"count":889,
			"max":[
				0.18582694232463837,
				1.0061817169189453,
				0.18587030470371246
			],
			"min":[
				-0.1857430785894394,
				-0.00669676112011075,
				-0.18568745255470276
			],
			"type":"VEC3"
		},
		{
			"bufferView":1,
			"componentType":5126,
			"count":889,
			"type":"VEC3"
		},
		{
			"bufferView":2,
			"componentType":5126,
			"count":889,
			"type":"VEC2"
		},
		{
			"bufferView":3,
			"componentType":5126,
			"count":889,
			"type":"VEC3"
		},
		{
			"bufferView":4,
			"componentType":5123,
			"count":889,
			"normalized":true,
			"type":"VEC4"
		},
		{
			"bufferView":5,
			"componentType":5123,
			"count":1944,
			"type":"SCALAR"
		}
	],
	"bufferViews":[
		{
			"buffer":0,
			"byteLength":10668,
			"byteOffset":0,
			"target":34962
		},
		{
			"buffer":0,
			"byteLength":10668,
			"byteOffset":10668,
			"target":34962
		},
		{
			"buffer":0,
			"byteLength":7112,
			"byteOffset":21336,
			"target":34962
		},
		{
			"buffer":0,
			"byteLength":10668,
			"byteOffset":28448,
			"target":34962
		},
		{
			"buffer":0,
			"byteLength":7112,
			"byteOffset":39116,
			"target":34962
		},
		{
			"buffer":0,
			"byteLength":3888,
			"byteOffset":46228,
			"target":34963
		}
	],
	"samplers":[
		{
			"magFilter":9729,
			"minFilter":9987
		}
	],
	"buffers":[
		{
			"byteLength":50116,
			"uri":"Cone.bin"
		}
	]
}
