{
	"asset":{
		"generator":"Khronos glTF Blender I/O v4.3.47",
		"version":"2.0"
	},
	"scene":0,
	"scenes":[
		{
			"name":"Scene",
			"nodes":[
				0
			]
		}
	],
	"nodes":[
		{
			"mesh":0,
			"name":"SM_Skyscraper_03"
		}
	],
	"materials":[
		{
			"doubleSided":true,
			"name":"M_Tile_SteeleTiles.001",
			"pbrMetallicRoughness":{
				"baseColorFactor":[
					0.02611386403441429,
					0.02611386403441429,
					0.02611386403441429,
					1
				],
				"metallicFactor":0,
				"roughnessFactor":0.5527864098548889
			}
		},
		{
			"doubleSided":true,
			"name":"Window01.010",
			"pbrMetallicRoughness":{
				"metallicFactor":0,
				"roughnessFactor":0.5527864098548889
			}
		},
		{
			"doubleSided":true,
			"name":"M_BuildingAtlas_01.011",
			"pbrMetallicRoughness":{
				"baseColorTexture":{
					"index":0
				},
				"metallicFactor":0,
				"roughnessFactor":0.5527864098548889
			}
		},
		{
			"doubleSided":true,
			"name":"M_Glow_Orange.001",
			"pbrMetallicRoughness":{
				"baseColorFactor":[
					1,
					0.4139941334724426,
					0.039924249053001404,
					1
				],
				"metallicFactor":0,
				"roughnessFactor":0.5527864098548889
			}
		},
		{
			"doubleSided":true,
			"name":"M_Tile_ConcreteSlabs.011",
			"pbrMetallicRoughness":{
				"baseColorTexture":{
					"index":1
				},
				"metallicFactor":0,
				"roughnessFactor":0.5527864098548889
			}
		},
		{
			"doubleSided":true,
			"name":"Window01_bright.006",
			"pbrMetallicRoughness":{
				"metallicFactor":0,
				"roughnessFactor":0.5527864098548889
			}
		}
	],
	"meshes":[
		{
			"name":"Scene.064",
			"primitives":[
				{
					"attributes":{
						"POSITION":0,
						"NORMAL":1,
						"TEXCOORD_0":2,
						"TEXCOORD_1":3,
						"TEXCOORD_2":4,
						"TEXCOORD_3":5
					},
					"indices":6,
					"material":0
				},
				{
					"attributes":{
						"POSITION":7,
						"NORMAL":8,
						"TEXCOORD_0":9,
						"TEXCOORD_1":10,
						"TEXCOORD_2":11,
						"TEXCOORD_3":12
					},
					"indices":13,
					"material":1
				},
				{
					"attributes":{
						"POSITION":14,
						"NORMAL":15,
						"TEXCOORD_0":16,
						"TEXCOORD_1":17,
						"TEXCOORD_2":18,
						"TEXCOORD_3":19
					},
					"indices":20,
					"material":2
				},
				{
					"attributes":{
						"POSITION":21,
						"NORMAL":22,
						"TEXCOORD_0":23,
						"TEXCOORD_1":24,
						"TEXCOORD_2":25,
						"TEXCOORD_3":26
					},
					"indices":27,
					"material":3
				},
				{
					"attributes":{
						"POSITION":28,
						"NORMAL":29,
						"TEXCOORD_0":30,
						"TEXCOORD_1":31,
						"TEXCOORD_2":32,
						"TEXCOORD_3":33
					},
					"indices":34,
					"material":4
				},
				{
					"attributes":{
						"POSITION":35,
						"NORMAL":36,
						"TEXCOORD_0":37,
						"TEXCOORD_1":38,
						"TEXCOORD_2":39,
						"TEXCOORD_3":40
					},
					"indices":41,
					"material":5
				}
			]
		}
	],
	"textures":[
		{
			"sampler":0,
			"source":0
		},
		{
			"sampler":0,
			"source":1
		}
	],
	"images":[
		{
			"mimeType":"image/png",
			"name":"T_BuildingAtlas_01_BC",
			"uri":"T_BuildingAtlas_01_BC.png"
		},
		{
			"mimeType":"image/png",
			"name":"T_Tile_ConcreteSlabs_BC",
			"uri":"T_Tile_ConcreteSlabs_BC.png"
		}
	],
	"accessors":[
		{
			"bufferView":0,
			"componentType":5126,
			"count":577,
			"max":[
				24.407291412353516,
				189.2904052734375,
				31.05577278137207
			],
			"min":[
				-24.4072265625,
				-0.513721764087677,
				-30.854888916015625
			],
			"type":"VEC3"
		},
		{
			"bufferView":1,
			"componentType":5126,
			"count":577,
			"type":"VEC3"
		},
		{
			"bufferView":2,
			"componentType":5126,
			"count":577,
			"type":"VEC2"
		},
		{
			"bufferView":3,
			"componentType":5126,
			"count":577,
			"type":"VEC2"
		},
		{
			"bufferView":4,
			"componentType":5126,
			"count":577,
			"type":"VEC2"
		},
		{
			"bufferView":5,
			"componentType":5126,
			"count":577,
			"type":"VEC2"
		},
		{
			"bufferView":6,
			"componentType":5123,
			"count":1125,
			"type":"SCALAR"
		},
		{
			"bufferView":7,
			"componentType":5126,
			"count":560,
			"max":[
				22.768692016601562,
				181.31008911132812,
				30.0277099609375
			],
			"min":[
				-22.768653869628906,
				-0.49534744024276733,
				-30.854890823364258
			],
			"type":"VEC3"
		},
		{
			"bufferView":8,
			"componentType":5126,
			"count":560,
			"type":"VEC3"
		},
		{
			"bufferView":9,
			"componentType":5126,
			"count":560,
			"type":"VEC2"
		},
		{
			"bufferView":10,
			"componentType":5126,
			"count":560,
			"type":"VEC2"
		},
		{
			"bufferView":11,
			"componentType":5126,
			"count":560,
			"type":"VEC2"
		},
		{
			"bufferView":12,
			"componentType":5126,
			"count":560,
			"type":"VEC2"
		},
		{
			"bufferView":13,
			"componentType":5123,
			"count":984,
			"type":"SCALAR"
		},
		{
			"bufferView":14,
			"componentType":5126,
			"count":2678,
			"max":[
				22.929067611694336,
				188.705810546875,
				32.41084671020508
			],
			"min":[
				-26.177532196044922,
				0.7788326740264893,
				-31.01523780822754
			],
			"type":"VEC3"
		},
		{
			"bufferView":15,
			"componentType":5126,
			"count":2678,
			"type":"VEC3"
		},
		{
			"bufferView":16,
			"componentType":5126,
			"count":2678,
			"type":"VEC2"
		},
		{
			"bufferView":17,
			"componentType":5126,
			"count":2678,
			"type":"VEC2"
		},
		{
			"bufferView":18,
			"componentType":5126,
			"count":2678,
			"type":"VEC2"
		},
		{
			"bufferView":19,
			"componentType":5126,
			"count":2678,
			"type":"VEC2"
		},
		{
			"bufferView":20,
			"componentType":5123,
			"count":5730,
			"type":"SCALAR"
		},
		{
			"bufferView":21,
			"componentType":5126,
			"count":102,
			"max":[
				24.972023010253906,
				187.55982971191406,
				19.99322509765625
			],
			"min":[
				24.153114318847656,
				-0.495349645614624,
				-3.1359589099884033
			],
			"type":"VEC3"
		},
		{
			"bufferView":22,
			"componentType":5126,
			"count":102,
			"type":"VEC3"
		},
		{
			"bufferView":23,
			"componentType":5126,
			"count":102,
			"type":"VEC2"
		},
		{
			"bufferView":24,
			"componentType":5126,
			"count":102,
			"type":"VEC2"
		},
		{
			"bufferView":25,
			"componentType":5126,
			"count":102,
			"type":"VEC2"
		},
		{
			"bufferView":26,
			"componentType":5126,
			"count":102,
			"type":"VEC2"
		},
		{
			"bufferView":27,
			"componentType":5123,
			"count":228,
			"type":"SCALAR"
		},
		{
			"bufferView":28,
			"componentType":5126,
			"count":386,
			"max":[
				25.037622451782227,
				193.6279296875,
				31.426029205322266
			],
			"min":[
				-25.037626266479492,
				-0.8460596799850464,
				-32.12599182128906
			],
			"type":"VEC3"
		},
		{
			"bufferView":29,
			"componentType":5126,
			"count":386,
			"type":"VEC3"
		},
		{
			"bufferView":30,
			"componentType":5126,
			"count":386,
			"type":"VEC2"
		},
		{
			"bufferView":31,
			"componentType":5126,
			"count":386,
			"type":"VEC2"
		},
		{
			"bufferView":32,
			"componentType":5126,
			"count":386,
			"type":"VEC2"
		},
		{
			"bufferView":33,
			"componentType":5126,
			"count":386,
			"type":"VEC2"
		},
		{
			"bufferView":34,
			"componentType":5123,
			"count":1077,
			"type":"SCALAR"
		},
		{
			"bufferView":35,
			"componentType":5126,
			"count":75,
			"max":[
				18.675674438476562,
				155.33786010742188,
				30.0277099609375
			],
			"min":[
				-22.755916595458984,
				18.759628295898438,
				-30.854890823364258
			],
			"type":"VEC3"
		},
		{
			"bufferView":36,
			"componentType":5126,
			"count":75,
			"type":"VEC3"
		},
		{
			"bufferView":37,
			"componentType":5126,
			"count":75,
			"type":"VEC2"
		},
		{
			"bufferView":38,
			"componentType":5126,
			"count":75,
			"type":"VEC2"
		},
		{
			"bufferView":39,
			"componentType":5126,
			"count":75,
			"type":"VEC2"
		},
		{
			"bufferView":40,
			"componentType":5126,
			"count":75,
			"type":"VEC2"
		},
		{
			"bufferView":41,
			"componentType":5123,
			"count":123,
			"type":"SCALAR"
		}
	],
	"bufferViews":[
		{
			"buffer":0,
			"byteLength":6924,
			"byteOffset":0,
			"target":34962
		},
		{
			"buffer":0,
			"byteLength":6924,
			"byteOffset":6924,
			"target":34962
		},
		{
			"buffer":0,
			"byteLength":4616,
			"byteOffset":13848,
			"target":34962
		},
		{
			"buffer":0,
			"byteLength":4616,
			"byteOffset":18464,
			"target":34962
		},
		{
			"buffer":0,
			"byteLength":4616,
			"byteOffset":23080,
			"target":34962
		},
		{
			"buffer":0,
			"byteLength":4616,
			"byteOffset":27696,
			"target":34962
		},
		{
			"buffer":0,
			"byteLength":2250,
			"byteOffset":32312,
			"target":34963
		},
		{
			"buffer":0,
			"byteLength":6720,
			"byteOffset":34564,
			"target":34962
		},
		{
			"buffer":0,
			"byteLength":6720,
			"byteOffset":41284,
			"target":34962
		},
		{
			"buffer":0,
			"byteLength":4480,
			"byteOffset":48004,
			"target":34962
		},
		{
			"buffer":0,
			"byteLength":4480,
			"byteOffset":52484,
			"target":34962
		},
		{
			"buffer":0,
			"byteLength":4480,
			"byteOffset":56964,
			"target":34962
		},
		{
			"buffer":0,
			"byteLength":4480,
			"byteOffset":61444,
			"target":34962
		},
		{
			"buffer":0,
			"byteLength":1968,
			"byteOffset":65924,
			"target":34963
		},
		{
			"buffer":0,
			"byteLength":32136,
			"byteOffset":67892,
			"target":34962
		},
		{
			"buffer":0,
			"byteLength":32136,
			"byteOffset":100028,
			"target":34962
		},
		{
			"buffer":0,
			"byteLength":21424,
			"byteOffset":132164,
			"target":34962
		},
		{
			"buffer":0,
			"byteLength":21424,
			"byteOffset":153588,
			"target":34962
		},
		{
			"buffer":0,
			"byteLength":21424,
			"byteOffset":175012,
			"target":34962
		},
		{
			"buffer":0,
			"byteLength":21424,
			"byteOffset":196436,
			"target":34962
		},
		{
			"buffer":0,
			"byteLength":11460,
			"byteOffset":217860,
			"target":34963
		},
		{
			"buffer":0,
			"byteLength":1224,
			"byteOffset":229320,
			"target":34962
		},
		{
			"buffer":0,
			"byteLength":1224,
			"byteOffset":230544,
			"target":34962
		},
		{
			"buffer":0,
			"byteLength":816,
			"byteOffset":231768,
			"target":34962
		},
		{
			"buffer":0,
			"byteLength":816,
			"byteOffset":232584,
			"target":34962
		},
		{
			"buffer":0,
			"byteLength":816,
			"byteOffset":233400,
			"target":34962
		},
		{
			"buffer":0,
			"byteLength":816,
			"byteOffset":234216,
			"target":34962
		},
		{
			"buffer":0,
			"byteLength":456,
			"byteOffset":235032,
			"target":34963
		},
		{
			"buffer":0,
			"byteLength":4632,
			"byteOffset":235488,
			"target":34962
		},
		{
			"buffer":0,
			"byteLength":4632,
			"byteOffset":240120,
			"target":34962
		},
		{
			"buffer":0,
			"byteLength":3088,
			"byteOffset":244752,
			"target":34962
		},
		{
			"buffer":0,
			"byteLength":3088,
			"byteOffset":247840,
			"target":34962
		},
		{
			"buffer":0,
			"byteLength":3088,
			"byteOffset":250928,
			"target":34962
		},
		{
			"buffer":0,
			"byteLength":3088,
			"byteOffset":254016,
			"target":34962
		},
		{
			"buffer":0,
			"byteLength":2154,
			"byteOffset":257104,
			"target":34963
		},
		{
			"buffer":0,
			"byteLength":900,
			"byteOffset":259260,
			"target":34962
		},
		{
			"buffer":0,
			"byteLength":900,
			"byteOffset":260160,
			"target":34962
		},
		{
			"buffer":0,
			"byteLength":600,
			"byteOffset":261060,
			"target":34962
		},
		{
			"buffer":0,
			"byteLength":600,
			"byteOffset":261660,
			"target":34962
		},
		{
			"buffer":0,
			"byteLength":600,
			"byteOffset":262260,
			"target":34962
		},
		{
			"buffer":0,
			"byteLength":600,
			"byteOffset":262860,
			"target":34962
		},
		{
			"buffer":0,
			"byteLength":246,
			"byteOffset":263460,
			"target":34963
		}
	],
	"samplers":[
		{
			"magFilter":9729,
			"minFilter":9987
		}
	],
	"buffers":[
		{
			"byteLength":263708,
			"uri":"B8.bin"
		}
	]
}
