{
	"asset":{
		"generator":"Khronos glTF Blender I/O v4.3.47",
		"version":"2.0"
	},
	"scene":0,
	"scenes":[
		{
			"name":"Scene",
			"nodes":[
				0
			]
		}
	],
	"nodes":[
		{
			"mesh":0,
			"name":"SM_Skyscraper_03",
			"rotation":[
				0.5,
				-0.5,
				0.5000000596046448,
				0.4999999701976776
			],
			"scale":[
				0.012147694826126099,
				0.012147694826126099,
				0.012147692032158375
			]
		}
	],
	"materials":[
		{
			"doubleSided":true,
			"name":"M_Tile_SteeleTiles",
			"pbrMetallicRoughness":{
				"baseColorFactor":[
					0.02611386403441429,
					0.02611386403441429,
					0.02611386403441429,
					1
				],
				"metallicFactor":0,
				"roughnessFactor":0.5527864098548889
			}
		},
		{
			"doubleSided":true,
			"name":"Window01",
			"pbrMetallicRoughness":{
				"metallicFactor":0,
				"roughnessFactor":0.5527864098548889
			}
		},
		{
			"doubleSided":true,
			"name":"M_BuildingAtlas_01",
			"pbrMetallicRoughness":{
				"baseColorTexture":{
					"index":0
				},
				"metallicFactor":0,
				"roughnessFactor":0.5527864098548889
			}
		},
		{
			"doubleSided":true,
			"name":"M_Glow_Orange",
			"pbrMetallicRoughness":{
				"baseColorFactor":[
					1,
					0.4139941334724426,
					0.039924249053001404,
					1
				],
				"metallicFactor":0,
				"roughnessFactor":0.5527864098548889
			}
		},
		{
			"doubleSided":true,
			"name":"M_Tile_ConcreteSlabs",
			"pbrMetallicRoughness":{
				"baseColorTexture":{
					"index":1
				},
				"metallicFactor":0,
				"roughnessFactor":0.5527864098548889
			}
		},
		{
			"doubleSided":true,
			"name":"Window01_bright",
			"pbrMetallicRoughness":{
				"metallicFactor":0,
				"roughnessFactor":0.5527864098548889
			}
		}
	],
	"meshes":[
		{
			"name":"Scene",
			"primitives":[
				{
					"attributes":{
						"POSITION":0,
						"NORMAL":1,
						"TEXCOORD_0":2,
						"TEXCOORD_1":3,
						"TEXCOORD_2":4,
						"TEXCOORD_3":5
					},
					"indices":6,
					"material":0
				},
				{
					"attributes":{
						"POSITION":7,
						"NORMAL":8,
						"TEXCOORD_0":9,
						"TEXCOORD_1":10,
						"TEXCOORD_2":11,
						"TEXCOORD_3":12
					},
					"indices":13,
					"material":1
				},
				{
					"attributes":{
						"POSITION":14,
						"NORMAL":15,
						"TEXCOORD_0":16,
						"TEXCOORD_1":17,
						"TEXCOORD_2":18,
						"TEXCOORD_3":19
					},
					"indices":20,
					"material":2
				},
				{
					"attributes":{
						"POSITION":21,
						"NORMAL":22,
						"TEXCOORD_0":23,
						"TEXCOORD_1":24,
						"TEXCOORD_2":25,
						"TEXCOORD_3":26
					},
					"indices":27,
					"material":3
				},
				{
					"attributes":{
						"POSITION":28,
						"NORMAL":29,
						"TEXCOORD_0":30,
						"TEXCOORD_1":31,
						"TEXCOORD_2":32,
						"TEXCOORD_3":33
					},
					"indices":34,
					"material":4
				},
				{
					"attributes":{
						"POSITION":35,
						"NORMAL":36,
						"TEXCOORD_0":37,
						"TEXCOORD_1":38,
						"TEXCOORD_2":39,
						"TEXCOORD_3":40
					},
					"indices":41,
					"material":5
				}
			]
		}
	],
	"textures":[
		{
			"sampler":0,
			"source":0
		},
		{
			"sampler":0,
			"source":1
		}
	],
	"images":[
		{
			"mimeType":"image/png",
			"name":"T_BuildingAtlas_01_BC",
			"uri":"T_BuildingAtlas_01_BC.png"
		},
		{
			"mimeType":"image/png",
			"name":"T_Tile_ConcreteSlabs_BC",
			"uri":"T_Tile_ConcreteSlabs_BC.png"
		}
	],
	"accessors":[
		{
			"bufferView":0,
			"componentType":5126,
			"count":571,
			"max":[
				2556.515625,
				2009.2056884765625,
				42.289833068847656
			],
			"min":[
				-2539.978759765625,
				-2009.2125244140625,
				-15582.4169921875
			],
			"type":"VEC3"
		},
		{
			"bufferView":1,
			"componentType":5126,
			"count":571,
			"type":"VEC3"
		},
		{
			"bufferView":2,
			"componentType":5126,
			"count":571,
			"type":"VEC2"
		},
		{
			"bufferView":3,
			"componentType":5126,
			"count":571,
			"type":"VEC2"
		},
		{
			"bufferView":4,
			"componentType":5126,
			"count":571,
			"type":"VEC2"
		},
		{
			"bufferView":5,
			"componentType":5126,
			"count":571,
			"type":"VEC2"
		},
		{
			"bufferView":6,
			"componentType":5123,
			"count":1125,
			"type":"SCALAR"
		},
		{
			"bufferView":7,
			"componentType":5126,
			"count":554,
			"max":[
				2471.88525390625,
				1874.318115234375,
				40.777313232421875
			],
			"min":[
				-2539.97900390625,
				-1874.32275390625,
				-14925.4765625
			],
			"type":"VEC3"
		},
		{
			"bufferView":8,
			"componentType":5126,
			"count":554,
			"type":"VEC3"
		},
		{
			"bufferView":9,
			"componentType":5126,
			"count":554,
			"type":"VEC2"
		},
		{
			"bufferView":10,
			"componentType":5126,
			"count":554,
			"type":"VEC2"
		},
		{
			"bufferView":11,
			"componentType":5126,
			"count":554,
			"type":"VEC2"
		},
		{
			"bufferView":12,
			"componentType":5126,
			"count":554,
			"type":"VEC2"
		},
		{
			"bufferView":13,
			"componentType":5123,
			"count":984,
			"type":"SCALAR"
		},
		{
			"bufferView":14,
			"componentType":5126,
			"count":2182,
			"max":[
				2668.065673828125,
				2154.936767578125,
				-64.11375427246094
			],
			"min":[
				-2553.1787109375,
				-1887.5255126953125,
				-15534.29296875
			],
			"type":"VEC3"
		},
		{
			"bufferView":15,
			"componentType":5126,
			"count":2182,
			"type":"VEC3"
		},
		{
			"bufferView":16,
			"componentType":5126,
			"count":2182,
			"type":"VEC2"
		},
		{
			"bufferView":17,
			"componentType":5126,
			"count":2182,
			"type":"VEC2"
		},
		{
			"bufferView":18,
			"componentType":5126,
			"count":2182,
			"type":"VEC2"
		},
		{
			"bufferView":19,
			"componentType":5126,
			"count":2182,
			"type":"VEC2"
		},
		{
			"bufferView":20,
			"componentType":5123,
			"count":5730,
			"type":"SCALAR"
		},
		{
			"bufferView":21,
			"componentType":5126,
			"count":100,
			"max":[
				1645.844970703125,
				-1988.2879638671875,
				40.77755355834961
			],
			"min":[
				-258.15277099609375,
				-2055.7021484375,
				-15439.9560546875
			],
			"type":"VEC3"
		},
		{
			"bufferView":22,
			"componentType":5126,
			"count":100,
			"type":"VEC3"
		},
		{
			"bufferView":23,
			"componentType":5126,
			"count":100,
			"type":"VEC2"
		},
		{
			"bufferView":24,
			"componentType":5126,
			"count":100,
			"type":"VEC2"
		},
		{
			"bufferView":25,
			"componentType":5126,
			"count":100,
			"type":"VEC2"
		},
		{
			"bufferView":26,
			"componentType":5126,
			"count":100,
			"type":"VEC2"
		},
		{
			"bufferView":27,
			"componentType":5123,
			"count":228,
			"type":"SCALAR"
		},
		{
			"bufferView":28,
			"componentType":5126,
			"count":386,
			"max":[
				2586.9951171875,
				2061.100830078125,
				69.64799499511719
			],
			"min":[
				-2644.6162109375,
				-2061.100830078125,
				-15939.4833984375
			],
			"type":"VEC3"
		},
		{
			"bufferView":29,
			"componentType":5126,
			"count":386,
			"type":"VEC3"
		},
		{
			"bufferView":30,
			"componentType":5126,
			"count":386,
			"type":"VEC2"
		},
		{
			"bufferView":31,
			"componentType":5126,
			"count":386,
			"type":"VEC2"
		},
		{
			"bufferView":32,
			"componentType":5126,
			"count":386,
			"type":"VEC2"
		},
		{
			"bufferView":33,
			"componentType":5126,
			"count":386,
			"type":"VEC2"
		},
		{
			"bufferView":34,
			"componentType":5123,
			"count":1077,
			"type":"SCALAR"
		},
		{
			"bufferView":35,
			"componentType":5126,
			"count":75,
			"max":[
				2471.88525390625,
				1873.2694091796875,
				-1544.2955322265625
			],
			"min":[
				-2539.97900390625,
				-1537.38427734375,
				-12787.4375
			],
			"type":"VEC3"
		},
		{
			"bufferView":36,
			"componentType":5126,
			"count":75,
			"type":"VEC3"
		},
		{
			"bufferView":37,
			"componentType":5126,
			"count":75,
			"type":"VEC2"
		},
		{
			"bufferView":38,
			"componentType":5126,
			"count":75,
			"type":"VEC2"
		},
		{
			"bufferView":39,
			"componentType":5126,
			"count":75,
			"type":"VEC2"
		},
		{
			"bufferView":40,
			"componentType":5126,
			"count":75,
			"type":"VEC2"
		},
		{
			"bufferView":41,
			"componentType":5123,
			"count":123,
			"type":"SCALAR"
		}
	],
	"bufferViews":[
		{
			"buffer":0,
			"byteLength":6852,
			"byteOffset":0,
			"target":34962
		},
		{
			"buffer":0,
			"byteLength":6852,
			"byteOffset":6852,
			"target":34962
		},
		{
			"buffer":0,
			"byteLength":4568,
			"byteOffset":13704,
			"target":34962
		},
		{
			"buffer":0,
			"byteLength":4568,
			"byteOffset":18272,
			"target":34962
		},
		{
			"buffer":0,
			"byteLength":4568,
			"byteOffset":22840,
			"target":34962
		},
		{
			"buffer":0,
			"byteLength":4568,
			"byteOffset":27408,
			"target":34962
		},
		{
			"buffer":0,
			"byteLength":2250,
			"byteOffset":31976,
			"target":34963
		},
		{
			"buffer":0,
			"byteLength":6648,
			"byteOffset":34228,
			"target":34962
		},
		{
			"buffer":0,
			"byteLength":6648,
			"byteOffset":40876,
			"target":34962
		},
		{
			"buffer":0,
			"byteLength":4432,
			"byteOffset":47524,
			"target":34962
		},
		{
			"buffer":0,
			"byteLength":4432,
			"byteOffset":51956,
			"target":34962
		},
		{
			"buffer":0,
			"byteLength":4432,
			"byteOffset":56388,
			"target":34962
		},
		{
			"buffer":0,
			"byteLength":4432,
			"byteOffset":60820,
			"target":34962
		},
		{
			"buffer":0,
			"byteLength":1968,
			"byteOffset":65252,
			"target":34963
		},
		{
			"buffer":0,
			"byteLength":26184,
			"byteOffset":67220,
			"target":34962
		},
		{
			"buffer":0,
			"byteLength":26184,
			"byteOffset":93404,
			"target":34962
		},
		{
			"buffer":0,
			"byteLength":17456,
			"byteOffset":119588,
			"target":34962
		},
		{
			"buffer":0,
			"byteLength":17456,
			"byteOffset":137044,
			"target":34962
		},
		{
			"buffer":0,
			"byteLength":17456,
			"byteOffset":154500,
			"target":34962
		},
		{
			"buffer":0,
			"byteLength":17456,
			"byteOffset":171956,
			"target":34962
		},
		{
			"buffer":0,
			"byteLength":11460,
			"byteOffset":189412,
			"target":34963
		},
		{
			"buffer":0,
			"byteLength":1200,
			"byteOffset":200872,
			"target":34962
		},
		{
			"buffer":0,
			"byteLength":1200,
			"byteOffset":202072,
			"target":34962
		},
		{
			"buffer":0,
			"byteLength":800,
			"byteOffset":203272,
			"target":34962
		},
		{
			"buffer":0,
			"byteLength":800,
			"byteOffset":204072,
			"target":34962
		},
		{
			"buffer":0,
			"byteLength":800,
			"byteOffset":204872,
			"target":34962
		},
		{
			"buffer":0,
			"byteLength":800,
			"byteOffset":205672,
			"target":34962
		},
		{
			"buffer":0,
			"byteLength":456,
			"byteOffset":206472,
			"target":34963
		},
		{
			"buffer":0,
			"byteLength":4632,
			"byteOffset":206928,
			"target":34962
		},
		{
			"buffer":0,
			"byteLength":4632,
			"byteOffset":211560,
			"target":34962
		},
		{
			"buffer":0,
			"byteLength":3088,
			"byteOffset":216192,
			"target":34962
		},
		{
			"buffer":0,
			"byteLength":3088,
			"byteOffset":219280,
			"target":34962
		},
		{
			"buffer":0,
			"byteLength":3088,
			"byteOffset":222368,
			"target":34962
		},
		{
			"buffer":0,
			"byteLength":3088,
			"byteOffset":225456,
			"target":34962
		},
		{
			"buffer":0,
			"byteLength":2154,
			"byteOffset":228544,
			"target":34963
		},
		{
			"buffer":0,
			"byteLength":900,
			"byteOffset":230700,
			"target":34962
		},
		{
			"buffer":0,
			"byteLength":900,
			"byteOffset":231600,
			"target":34962
		},
		{
			"buffer":0,
			"byteLength":600,
			"byteOffset":232500,
			"target":34962
		},
		{
			"buffer":0,
			"byteLength":600,
			"byteOffset":233100,
			"target":34962
		},
		{
			"buffer":0,
			"byteLength":600,
			"byteOffset":233700,
			"target":34962
		},
		{
			"buffer":0,
			"byteLength":600,
			"byteOffset":234300,
			"target":34962
		},
		{
			"buffer":0,
			"byteLength":246,
			"byteOffset":234900,
			"target":34963
		}
	],
	"samplers":[
		{
			"magFilter":9729,
			"minFilter":9987
		}
	],
	"buffers":[
		{
			"byteLength":235148,
			"uri":"B8.bin"
		}
	]
}
