{
	"asset":{
		"generator":"Khronos glTF Blender I/O v4.3.47",
		"version":"2.0"
	},
	"scene":0,
	"scenes":[
		{
			"name":"Scene",
			"nodes":[
				0
			]
		}
	],
	"nodes":[
		{
			"mesh":0,
			"name":"SM_Wall_3x3_01__53_",
			"rotation":[
				-0.5000000596046448,
				-0.5,
				-0.4999999403953552,
				0.5
			],
			"scale":[
				0.012121002189815044,
				0.012121002189815044,
				0.013900008983910084
			],
			"translation":[
				9.697948455810547,
				3.955888271331787,
				9.089717864990234
			]
		}
	],
	"materials":[
		{
			"doubleSided":true,
			"name":"M_Tile_GlossyCeramicsCyan",
			"pbrMetallicRoughness":{
				"baseColorTexture":{
					"index":0
				},
				"metallicFactor":0,
				"roughnessFactor":0.5527864098548889
			}
		},
		{
			"doubleSided":true,
			"name":"M_Glow_RED",
			"pbrMetallicRoughness":{
				"metallicFactor":0,
				"roughnessFactor":0.5527864098548889
			}
		},
		{
			"doubleSided":true,
			"name":"M_Trim_Greebles",
			"pbrMetallicRoughness":{
				"baseColorTexture":{
					"index":1
				},
				"metallicFactor":0,
				"roughnessFactor":0.5527864098548889
			}
		},
		{
			"doubleSided":true,
			"name":"M_Glow_Orange",
			"pbrMetallicRoughness":{
				"baseColorFactor":[
					1,
					0.47550317645072937,
					0.17336739599704742,
					1
				],
				"metallicFactor":0,
				"roughnessFactor":0.5527864098548889
			}
		},
		{
			"doubleSided":true,
			"name":"M_PlasterWallBlue",
			"pbrMetallicRoughness":{
				"metallicFactor":0,
				"roughnessFactor":0.5527864098548889
			}
		},
		{
			"doubleSided":true,
			"name":"M_ConcreteSupport_WS",
			"pbrMetallicRoughness":{
				"baseColorTexture":{
					"index":2
				},
				"metallicFactor":0,
				"roughnessFactor":0.5527864098548889
			}
		},
		{
			"doubleSided":true,
			"name":"TunnelText",
			"pbrMetallicRoughness":{
				"baseColorFactor":[
					0,
					0.39215657114982605,
					1,
					1
				],
				"metallicFactor":0,
				"roughnessFactor":0.5527864098548889
			}
		},
		{
			"doubleSided":true,
			"name":"M_Tile_Concrete",
			"pbrMetallicRoughness":{
				"baseColorTexture":{
					"index":3
				},
				"metallicFactor":0,
				"roughnessFactor":0.5527864098548889
			}
		},
		{
			"doubleSided":true,
			"name":"M_Glow_Blue",
			"pbrMetallicRoughness":{
				"metallicFactor":0,
				"roughnessFactor":0.5527864098548889
			}
		},
		{
			"doubleSided":true,
			"name":"M_Glow_Yellow",
			"pbrMetallicRoughness":{
				"metallicFactor":0,
				"roughnessFactor":0.5527864098548889
			}
		},
		{
			"alphaMode":"BLEND",
			"doubleSided":true,
			"name":"M_Blocked1",
			"pbrMetallicRoughness":{
				"baseColorFactor":[
					1,
					1,
					1,
					0.5
				],
				"baseColorTexture":{
					"index":4
				},
				"metallicFactor":0,
				"roughnessFactor":0.5527864098548889
			}
		},
		{
			"doubleSided":true,
			"name":"M_Tile_GlossyCeramicsCyan.001",
			"pbrMetallicRoughness":{
				"baseColorTexture":{
					"index":5
				},
				"metallicFactor":0,
				"roughnessFactor":0.5527864098548889
			}
		},
		{
			"doubleSided":true,
			"name":"M_Tile_GlossyCeramicsCyan.002",
			"pbrMetallicRoughness":{
				"baseColorTexture":{
					"index":6
				},
				"metallicFactor":0,
				"roughnessFactor":0.5527864098548889
			}
		}
	],
	"meshes":[
		{
			"name":"Scene",
			"primitives":[
				{
					"attributes":{
						"POSITION":0,
						"NORMAL":1,
						"TEXCOORD_0":2,
						"TEXCOORD_1":3
					},
					"indices":4,
					"material":0
				},
				{
					"attributes":{
						"POSITION":5,
						"NORMAL":6,
						"TEXCOORD_0":7,
						"TEXCOORD_1":8
					},
					"indices":9,
					"material":1
				},
				{
					"attributes":{
						"POSITION":10,
						"NORMAL":11,
						"TEXCOORD_0":12,
						"TEXCOORD_1":13
					},
					"indices":14,
					"material":2
				},
				{
					"attributes":{
						"POSITION":15,
						"NORMAL":16,
						"TEXCOORD_0":17,
						"TEXCOORD_1":18
					},
					"indices":19,
					"material":3
				},
				{
					"attributes":{
						"POSITION":20,
						"NORMAL":21,
						"TEXCOORD_0":22,
						"TEXCOORD_1":23
					},
					"indices":24,
					"material":4
				},
				{
					"attributes":{
						"POSITION":25,
						"NORMAL":26,
						"TEXCOORD_0":27,
						"TEXCOORD_1":28
					},
					"indices":29,
					"material":5
				},
				{
					"attributes":{
						"POSITION":30,
						"NORMAL":31,
						"TEXCOORD_0":32,
						"TEXCOORD_1":33
					},
					"indices":34,
					"material":6
				},
				{
					"attributes":{
						"POSITION":35,
						"NORMAL":36,
						"TEXCOORD_0":37,
						"TEXCOORD_1":38
					},
					"indices":39,
					"material":7
				},
				{
					"attributes":{
						"POSITION":40,
						"NORMAL":41,
						"TEXCOORD_0":42,
						"TEXCOORD_1":43
					},
					"indices":44,
					"material":8
				},
				{
					"attributes":{
						"POSITION":45,
						"NORMAL":46,
						"TEXCOORD_0":47,
						"TEXCOORD_1":48
					},
					"indices":49,
					"material":9
				},
				{
					"attributes":{
						"POSITION":50,
						"NORMAL":51,
						"TEXCOORD_0":52,
						"TEXCOORD_1":53
					},
					"indices":54,
					"material":10
				},
				{
					"attributes":{
						"POSITION":55,
						"NORMAL":56,
						"TEXCOORD_0":57,
						"TEXCOORD_1":58
					},
					"indices":59,
					"material":11
				},
				{
					"attributes":{
						"POSITION":60,
						"NORMAL":61,
						"TEXCOORD_0":62,
						"TEXCOORD_1":63
					},
					"indices":59,
					"material":12
				}
			]
		}
	],
	"textures":[
		{
			"sampler":0,
			"source":0
		},
		{
			"sampler":0,
			"source":1
		},
		{
			"sampler":0,
			"source":2
		},
		{
			"sampler":0,
			"source":3
		},
		{
			"sampler":0,
			"source":4
		},
		{
			"sampler":0,
			"source":0
		},
		{
			"sampler":0,
			"source":0
		}
	],
	"images":[
		{
			"mimeType":"image/png",
			"name":"T_Tile_GlossyCeramic_BC",
			"uri":"T_Tile_GlossyCeramic_BC.png"
		},
		{
			"mimeType":"image/png",
			"name":"T_Trim_Greebles_BC",
			"uri":"T_Trim_Greebles_BC.png"
		},
		{
			"mimeType":"image/png",
			"name":"T_Asphalt_Clean_BC",
			"uri":"T_Asphalt_Clean_BC.png"
		},
		{
			"mimeType":"image/png",
			"name":"T_Tile_Concrete_BC",
			"uri":"T_Tile_Concrete_BC.png"
		},
		{
			"mimeType":"image/png",
			"name":"T_closed",
			"uri":"T_closed.png"
		}
	],
	"accessors":[
		{
			"bufferView":0,
			"componentType":5126,
			"count":212,
			"max":[
				900.1690063476562,
				300.0025634765625,
				525.01708984375
			],
			"min":[
				-2399.998779296875,
				-299.99993896484375,
				-300
			],
			"type":"VEC3"
		},
		{
			"bufferView":1,
			"componentType":5126,
			"count":212,
			"type":"VEC3"
		},
		{
			"bufferView":2,
			"componentType":5126,
			"count":212,
			"type":"VEC2"
		},
		{
			"bufferView":3,
			"componentType":5126,
			"count":212,
			"type":"VEC2"
		},
		{
			"bufferView":4,
			"componentType":5123,
			"count":318,
			"type":"SCALAR"
		},
		{
			"bufferView":5,
			"componentType":5126,
			"count":26,
			"max":[
				854.6720581054688,
				20.624998092651367,
				261.60418701171875
			],
			"min":[
				-759.0557861328125,
				-0.0004835129075217992,
				243.6185760498047
			],
			"type":"VEC3"
		},
		{
			"bufferView":6,
			"componentType":5126,
			"count":26,
			"type":"VEC3"
		},
		{
			"bufferView":7,
			"componentType":5126,
			"count":26,
			"type":"VEC2"
		},
		{
			"bufferView":8,
			"componentType":5126,
			"count":26,
			"type":"VEC2"
		},
		{
			"bufferView":9,
			"componentType":5123,
			"count":36,
			"type":"SCALAR"
		},
		{
			"bufferView":10,
			"componentType":5126,
			"count":1327,
			"max":[
				-1457.862060546875,
				379.3688659667969,
				307.5303955078125
			],
			"min":[
				-1512.27490234375,
				298.61572265625,
				224.16896057128906
			],
			"type":"VEC3"
		},
		{
			"bufferView":11,
			"componentType":5126,
			"count":1327,
			"type":"VEC3"
		},
		{
			"bufferView":12,
			"componentType":5126,
			"count":1327,
			"type":"VEC2"
		},
		{
			"bufferView":13,
			"componentType":5126,
			"count":1327,
			"type":"VEC2"
		},
		{
			"bufferView":14,
			"componentType":5123,
			"count":4866,
			"type":"SCALAR"
		},
		{
			"bufferView":15,
			"componentType":5126,
			"count":62,
			"max":[
				-1477.30810546875,
				375.13189697265625,
				234.0054931640625
			],
			"min":[
				-1492.828857421875,
				363.5057373046875,
				225.03907775878906
			],
			"type":"VEC3"
		},
		{
			"bufferView":16,
			"componentType":5126,
			"count":62,
			"type":"VEC3"
		},
		{
			"bufferView":17,
			"componentType":5126,
			"count":62,
			"type":"VEC2"
		},
		{
			"bufferView":18,
			"componentType":5126,
			"count":62,
			"type":"VEC2"
		},
		{
			"bufferView":19,
			"componentType":5123,
			"count":228,
			"type":"SCALAR"
		},
		{
			"bufferView":20,
			"componentType":5126,
			"count":1526,
			"max":[
				-728.3314208984375,
				132.47142028808594,
				248.17698669433594
			],
			"min":[
				-2202.658203125,
				-1901.688232421875,
				-289.3708801269531
			],
			"type":"VEC3"
		},
		{
			"bufferView":21,
			"componentType":5126,
			"count":1526,
			"type":"VEC3"
		},
		{
			"bufferView":22,
			"componentType":5126,
			"count":1526,
			"type":"VEC2"
		},
		{
			"bufferView":23,
			"componentType":5126,
			"count":1526,
			"type":"VEC2"
		},
		{
			"bufferView":24,
			"componentType":5123,
			"count":4344,
			"type":"SCALAR"
		},
		{
			"bufferView":25,
			"componentType":5126,
			"count":369,
			"max":[
				-722.9816284179688,
				371.7330017089844,
				264.9857177734375
			],
			"min":[
				-2208.008056640625,
				-1979.5582275390625,
				-289.3709411621094
			],
			"type":"VEC3"
		},
		{
			"bufferView":26,
			"componentType":5126,
			"count":369,
			"type":"VEC3"
		},
		{
			"bufferView":27,
			"componentType":5126,
			"count":369,
			"type":"VEC2"
		},
		{
			"bufferView":28,
			"componentType":5126,
			"count":369,
			"type":"VEC2"
		},
		{
			"bufferView":29,
			"componentType":5123,
			"count":960,
			"type":"SCALAR"
		},
		{
			"bufferView":30,
			"componentType":5126,
			"count":4,
			"max":[
				-1049.68359375,
				126.62698364257812,
				231.3836669921875
			],
			"min":[
				-1881.3060302734375,
				126.62689208984375,
				169.64926147460938
			],
			"type":"VEC3"
		},
		{
			"bufferView":31,
			"componentType":5126,
			"count":4,
			"type":"VEC3"
		},
		{
			"bufferView":32,
			"componentType":5126,
			"count":4,
			"type":"VEC2"
		},
		{
			"bufferView":33,
			"componentType":5126,
			"count":4,
			"type":"VEC2"
		},
		{
			"bufferView":34,
			"componentType":5123,
			"count":6,
			"type":"SCALAR"
		},
		{
			"bufferView":35,
			"componentType":5126,
			"count":2637,
			"max":[
				-893.24365234375,
				151.64453125,
				159.14657592773438
			],
			"min":[
				-2037.746337890625,
				-1959.0078125,
				-295.0736999511719
			],
			"type":"VEC3"
		},
		{
			"bufferView":36,
			"componentType":5126,
			"count":2637,
			"type":"VEC3"
		},
		{
			"bufferView":37,
			"componentType":5126,
			"count":2637,
			"type":"VEC2"
		},
		{
			"bufferView":38,
			"componentType":5126,
			"count":2637,
			"type":"VEC2"
		},
		{
			"bufferView":39,
			"componentType":5123,
			"count":8964,
			"type":"SCALAR"
		},
		{
			"bufferView":40,
			"componentType":5126,
			"count":102,
			"max":[
				-953.2093505859375,
				-46.44889450073242,
				-226.6727294921875
			],
			"min":[
				-1977.779052734375,
				-1784.5479736328125,
				-236.68861389160156
			],
			"type":"VEC3"
		},
		{
			"bufferView":41,
			"componentType":5126,
			"count":102,
			"type":"VEC3"
		},
		{
			"bufferView":42,
			"componentType":5126,
			"count":102,
			"type":"VEC2"
		},
		{
			"bufferView":43,
			"componentType":5126,
			"count":102,
			"type":"VEC2"
		},
		{
			"bufferView":44,
			"componentType":5123,
			"count":234,
			"type":"SCALAR"
		},
		{
			"bufferView":45,
			"componentType":5126,
			"count":104,
			"max":[
				-1438.9305419921875,
				-281.68408203125,
				141.4984130859375
			],
			"min":[
				-1492.0592041015625,
				-1594.874755859375,
				128.835693359375
			],
			"type":"VEC3"
		},
		{
			"bufferView":46,
			"componentType":5126,
			"count":104,
			"type":"VEC3"
		},
		{
			"bufferView":47,
			"componentType":5126,
			"count":104,
			"type":"VEC2"
		},
		{
			"bufferView":48,
			"componentType":5126,
			"count":104,
			"type":"VEC2"
		},
		{
			"bufferView":49,
			"componentType":5123,
			"count":456,
			"type":"SCALAR"
		},
		{
			"bufferView":50,
			"componentType":5126,
			"count":8,
			"max":[
				-966.5130615234375,
				80.97881317138672,
				138.17269897460938
			],
			"min":[
				-1971.928955078125,
				80.97792053222656,
				-290.0902099609375
			],
			"type":"VEC3"
		},
		{
			"bufferView":51,
			"componentType":5126,
			"count":8,
			"type":"VEC3"
		},
		{
			"bufferView":52,
			"componentType":5126,
			"count":8,
			"type":"VEC2"
		},
		{
			"bufferView":53,
			"componentType":5126,
			"count":8,
			"type":"VEC2"
		},
		{
			"bufferView":54,
			"componentType":5123,
			"count":12,
			"type":"SCALAR"
		},
		{
			"bufferView":55,
			"componentType":5126,
			"count":4,
			"max":[
				-1199.35595703125,
				300.000732421875,
				523.2086791992188
			],
			"min":[
				-1499.3560791015625,
				0.00067138671875,
				523.2086181640625
			],
			"type":"VEC3"
		},
		{
			"bufferView":56,
			"componentType":5126,
			"count":4,
			"type":"VEC3"
		},
		{
			"bufferView":57,
			"componentType":5126,
			"count":4,
			"type":"VEC2"
		},
		{
			"bufferView":58,
			"componentType":5126,
			"count":4,
			"type":"VEC2"
		},
		{
			"bufferView":59,
			"componentType":5123,
			"count":6,
			"type":"SCALAR"
		},
		{
			"bufferView":60,
			"componentType":5126,
			"count":4,
			"max":[
				-1500.25537109375,
				300.0008544921875,
				523.2086791992188
			],
			"min":[
				-1800.2554931640625,
				0.00079345703125,
				523.2086181640625
			],
			"type":"VEC3"
		},
		{
			"bufferView":61,
			"componentType":5126,
			"count":4,
			"type":"VEC3"
		},
		{
			"bufferView":62,
			"componentType":5126,
			"count":4,
			"type":"VEC2"
		},
		{
			"bufferView":63,
			"componentType":5126,
			"count":4,
			"type":"VEC2"
		}
	],
	"bufferViews":[
		{
			"buffer":0,
			"byteLength":2544,
			"byteOffset":0,
			"target":34962
		},
		{
			"buffer":0,
			"byteLength":2544,
			"byteOffset":2544,
			"target":34962
		},
		{
			"buffer":0,
			"byteLength":1696,
			"byteOffset":5088,
			"target":34962
		},
		{
			"buffer":0,
			"byteLength":1696,
			"byteOffset":6784,
			"target":34962
		},
		{
			"buffer":0,
			"byteLength":636,
			"byteOffset":8480,
			"target":34963
		},
		{
			"buffer":0,
			"byteLength":312,
			"byteOffset":9116,
			"target":34962
		},
		{
			"buffer":0,
			"byteLength":312,
			"byteOffset":9428,
			"target":34962
		},
		{
			"buffer":0,
			"byteLength":208,
			"byteOffset":9740,
			"target":34962
		},
		{
			"buffer":0,
			"byteLength":208,
			"byteOffset":9948,
			"target":34962
		},
		{
			"buffer":0,
			"byteLength":72,
			"byteOffset":10156,
			"target":34963
		},
		{
			"buffer":0,
			"byteLength":15924,
			"byteOffset":10228,
			"target":34962
		},
		{
			"buffer":0,
			"byteLength":15924,
			"byteOffset":26152,
			"target":34962
		},
		{
			"buffer":0,
			"byteLength":10616,
			"byteOffset":42076,
			"target":34962
		},
		{
			"buffer":0,
			"byteLength":10616,
			"byteOffset":52692,
			"target":34962
		},
		{
			"buffer":0,
			"byteLength":9732,
			"byteOffset":63308,
			"target":34963
		},
		{
			"buffer":0,
			"byteLength":744,
			"byteOffset":73040,
			"target":34962
		},
		{
			"buffer":0,
			"byteLength":744,
			"byteOffset":73784,
			"target":34962
		},
		{
			"buffer":0,
			"byteLength":496,
			"byteOffset":74528,
			"target":34962
		},
		{
			"buffer":0,
			"byteLength":496,
			"byteOffset":75024,
			"target":34962
		},
		{
			"buffer":0,
			"byteLength":456,
			"byteOffset":75520,
			"target":34963
		},
		{
			"buffer":0,
			"byteLength":18312,
			"byteOffset":75976,
			"target":34962
		},
		{
			"buffer":0,
			"byteLength":18312,
			"byteOffset":94288,
			"target":34962
		},
		{
			"buffer":0,
			"byteLength":12208,
			"byteOffset":112600,
			"target":34962
		},
		{
			"buffer":0,
			"byteLength":12208,
			"byteOffset":124808,
			"target":34962
		},
		{
			"buffer":0,
			"byteLength":8688,
			"byteOffset":137016,
			"target":34963
		},
		{
			"buffer":0,
			"byteLength":4428,
			"byteOffset":145704,
			"target":34962
		},
		{
			"buffer":0,
			"byteLength":4428,
			"byteOffset":150132,
			"target":34962
		},
		{
			"buffer":0,
			"byteLength":2952,
			"byteOffset":154560,
			"target":34962
		},
		{
			"buffer":0,
			"byteLength":2952,
			"byteOffset":157512,
			"target":34962
		},
		{
			"buffer":0,
			"byteLength":1920,
			"byteOffset":160464,
			"target":34963
		},
		{
			"buffer":0,
			"byteLength":48,
			"byteOffset":162384,
			"target":34962
		},
		{
			"buffer":0,
			"byteLength":48,
			"byteOffset":162432,
			"target":34962
		},
		{
			"buffer":0,
			"byteLength":32,
			"byteOffset":162480,
			"target":34962
		},
		{
			"buffer":0,
			"byteLength":32,
			"byteOffset":162512,
			"target":34962
		},
		{
			"buffer":0,
			"byteLength":12,
			"byteOffset":162544,
			"target":34963
		},
		{
			"buffer":0,
			"byteLength":31644,
			"byteOffset":162556,
			"target":34962
		},
		{
			"buffer":0,
			"byteLength":31644,
			"byteOffset":194200,
			"target":34962
		},
		{
			"buffer":0,
			"byteLength":21096,
			"byteOffset":225844,
			"target":34962
		},
		{
			"buffer":0,
			"byteLength":21096,
			"byteOffset":246940,
			"target":34962
		},
		{
			"buffer":0,
			"byteLength":17928,
			"byteOffset":268036,
			"target":34963
		},
		{
			"buffer":0,
			"byteLength":1224,
			"byteOffset":285964,
			"target":34962
		},
		{
			"buffer":0,
			"byteLength":1224,
			"byteOffset":287188,
			"target":34962
		},
		{
			"buffer":0,
			"byteLength":816,
			"byteOffset":288412,
			"target":34962
		},
		{
			"buffer":0,
			"byteLength":816,
			"byteOffset":289228,
			"target":34962
		},
		{
			"buffer":0,
			"byteLength":468,
			"byteOffset":290044,
			"target":34963
		},
		{
			"buffer":0,
			"byteLength":1248,
			"byteOffset":290512,
			"target":34962
		},
		{
			"buffer":0,
			"byteLength":1248,
			"byteOffset":291760,
			"target":34962
		},
		{
			"buffer":0,
			"byteLength":832,
			"byteOffset":293008,
			"target":34962
		},
		{
			"buffer":0,
			"byteLength":832,
			"byteOffset":293840,
			"target":34962
		},
		{
			"buffer":0,
			"byteLength":912,
			"byteOffset":294672,
			"target":34963
		},
		{
			"buffer":0,
			"byteLength":96,
			"byteOffset":295584,
			"target":34962
		},
		{
			"buffer":0,
			"byteLength":96,
			"byteOffset":295680,
			"target":34962
		},
		{
			"buffer":0,
			"byteLength":64,
			"byteOffset":295776,
			"target":34962
		},
		{
			"buffer":0,
			"byteLength":64,
			"byteOffset":295840,
			"target":34962
		},
		{
			"buffer":0,
			"byteLength":24,
			"byteOffset":295904,
			"target":34963
		},
		{
			"buffer":0,
			"byteLength":48,
			"byteOffset":295928,
			"target":34962
		},
		{
			"buffer":0,
			"byteLength":48,
			"byteOffset":295976,
			"target":34962
		},
		{
			"buffer":0,
			"byteLength":32,
			"byteOffset":296024,
			"target":34962
		},
		{
			"buffer":0,
			"byteLength":32,
			"byteOffset":296056,
			"target":34962
		},
		{
			"buffer":0,
			"byteLength":12,
			"byteOffset":296088,
			"target":34963
		},
		{
			"buffer":0,
			"byteLength":48,
			"byteOffset":296100,
			"target":34962
		},
		{
			"buffer":0,
			"byteLength":48,
			"byteOffset":296148,
			"target":34962
		},
		{
			"buffer":0,
			"byteLength":32,
			"byteOffset":296196,
			"target":34962
		},
		{
			"buffer":0,
			"byteLength":32,
			"byteOffset":296228,
			"target":34962
		}
	],
	"samplers":[
		{
			"magFilter":9729,
			"minFilter":9987
		}
	],
	"buffers":[
		{
			"byteLength":296260,
			"uri":"Wall.bin"
		}
	]
}
