{
	"asset":{
		"generator":"Khronos glTF Blender I/O v4.3.47",
		"version":"2.0"
	},
	"scene":0,
	"scenes":[
		{
			"name":"Scene",
			"nodes":[
				5
			]
		}
	],
	"nodes":[
		{
			"name":"joints"
		},
		{
			"name":"rigidbodies"
		},
		{
			"name":"\u5168\u3066\u306e\u89aa",
			"rotation":[
				-2.980232594040899e-08,
				0,
				0,
				1
			],
			"scale":[
				1,
				0.9999999403953552,
				0.9999999403953552
			]
		},
		{
			"mesh":0,
			"name":"\u5e7d\u7075_mesh",
			"skin":0
		},
		{
			"children":[
				3,
				2
			],
			"name":"\u5e7d\u7075_arm"
		},
		{
			"children":[
				0,
				1,
				4
			],
			"name":"\u5e7d\u7075"
		}
	],
	"materials":[
		{
			"name":"Material #2100",
			"pbrMetallicRoughness":{
				"baseColorTexture":{
					"index":0
				},
				"metallicFactor":0,
				"roughnessFactor":0.5
			}
		}
	],
	"meshes":[
		{
			"name":"\u5e7d\u7075",
			"primitives":[
				{
					"attributes":{
						"POSITION":0,
						"NORMAL":1,
						"TEXCOORD_0":2,
						"JOINTS_0":3,
						"WEIGHTS_0":4
					},
					"indices":5,
					"material":0
				}
			]
		}
	],
	"textures":[
		{
			"sampler":0,
			"source":0
		}
	],
	"images":[
		{
			"mimeType":"image/png",
			"name":"\u6b66\u5668",
			"uri":"%E6%AD%A6%E5%99%A8.png"
		}
	],
	"skins":[
		{
			"inverseBindMatrices":6,
			"joints":[
				2
			],
			"name":"\u5e7d\u7075_arm"
		}
	],
	"accessors":[
		{
			"bufferView":0,
			"componentType":5126,
			"count":759,
			"max":[
				0.08958885073661804,
				0.20556090772151947,
				0.11184588819742203
			],
			"min":[
				-0.08896613866090775,
				-0.09045791625976562,
				-0.09030593931674957
			],
			"type":"VEC3"
		},
		{
			"bufferView":1,
			"componentType":5126,
			"count":759,
			"type":"VEC3"
		},
		{
			"bufferView":2,
			"componentType":5126,
			"count":759,
			"type":"VEC2"
		},
		{
			"bufferView":3,
			"componentType":5121,
			"count":759,
			"type":"VEC4"
		},
		{
			"bufferView":4,
			"componentType":5126,
			"count":759,
			"type":"VEC4"
		},
		{
			"bufferView":5,
			"componentType":5123,
			"count":3918,
			"type":"SCALAR"
		},
		{
			"bufferView":6,
			"componentType":5126,
			"count":1,
			"type":"MAT4"
		}
	],
	"bufferViews":[
		{
			"buffer":0,
			"byteLength":9108,
			"byteOffset":0,
			"target":34962
		},
		{
			"buffer":0,
			"byteLength":9108,
			"byteOffset":9108,
			"target":34962
		},
		{
			"buffer":0,
			"byteLength":6072,
			"byteOffset":18216,
			"target":34962
		},
		{
			"buffer":0,
			"byteLength":3036,
			"byteOffset":24288,
			"target":34962
		},
		{
			"buffer":0,
			"byteLength":12144,
			"byteOffset":27324,
			"target":34962
		},
		{
			"buffer":0,
			"byteLength":7836,
			"byteOffset":39468,
			"target":34963
		},
		{
			"buffer":0,
			"byteLength":64,
			"byteOffset":47304
		}
	],
	"samplers":[
		{
			"magFilter":9729,
			"minFilter":9987
		}
	],
	"buffers":[
		{
			"byteLength":47368,
			"uri":"nani.bin"
		}
	]
}
