{
	"asset":{
		"generator":"Khronos glTF Blender I/O v4.3.47",
		"version":"2.0"
	},
	"scene":0,
	"scenes":[
		{
			"name":"Scene",
			"nodes":[
				0
			]
		}
	],
	"nodes":[
		{
			"mesh":0,
			"name":"\u7403",
			"scale":[
				50,
				50,
				50
			]
		}
	],
	"materials":[
		{
			"doubleSided":true,
			"name":"\u30de\u30c6\u30ea\u30a2\u30eb.002",
			"pbrMetallicRoughness":{
				"baseColorTexture":{
					"index":0
				},
				"metallicFactor":0,
				"roughnessFactor":0.5
			}
		}
	],
	"meshes":[
		{
			"name":"\u7403.001",
			"primitives":[
				{
					"attributes":{
						"POSITION":0,
						"NORMAL":1,
						"TEXCOORD_0":2
					},
					"indices":3,
					"material":0
				}
			]
		}
	],
	"textures":[
		{
			"sampler":0,
			"source":0
		}
	],
	"images":[
		{
			"mimeType":"image/png",
			"name":"Skybox_4",
			"uri":"Skybox_4.png"
		}
	],
	"accessors":[
		{
			"bufferView":0,
			"componentType":5126,
			"count":32512,
			"max":[
				0.9999995827674866,
				1,
				0.9999992251396179
			],
			"min":[
				-0.9999986886978149,
				-1,
				-0.9999983310699463
			],
			"type":"VEC3"
		},
		{
			"bufferView":1,
			"componentType":5126,
			"count":32512,
			"type":"VEC3"
		},
		{
			"bufferView":2,
			"componentType":5126,
			"count":32512,
			"type":"VEC2"
		},
		{
			"bufferView":3,
			"componentType":5123,
			"count":48384,
			"type":"SCALAR"
		}
	],
	"bufferViews":[
		{
			"buffer":0,
			"byteLength":390144,
			"byteOffset":0,
			"target":34962
		},
		{
			"buffer":0,
			"byteLength":390144,
			"byteOffset":390144,
			"target":34962
		},
		{
			"buffer":0,
			"byteLength":260096,
			"byteOffset":780288,
			"target":34962
		},
		{
			"buffer":0,
			"byteLength":96768,
			"byteOffset":1040384,
			"target":34963
		}
	],
	"samplers":[
		{
			"magFilter":9729,
			"minFilter":9987
		}
	],
	"buffers":[
		{
			"byteLength":1137152,
			"uri":"Sky.bin"
		}
	]
}
