{
	"asset":{
		"generator":"Khronos glTF Blender I/O v4.3.47",
		"version":"2.0"
	},
	"scene":0,
	"scenes":[
		{
			"name":"Scene",
			"nodes":[
				1
			]
		}
	],
	"nodes":[
		{
			"mesh":0,
			"name":"SM_Balcony6x3_8",
			"translation":[
				14159.0498046875,
				512.3856201171875,
				-1500.10595703125
			]
		},
		{
			"children":[
				0
			],
			"name":"P_ApartmentBuilding2",
			"rotation":[
				0.5000004172325134,
				0.4999995827674866,
				-0.4999995827674866,
				0.5000004172325134
			],
			"scale":[
				0.010000002570450306,
				0.010000002570450306,
				0.009999999776482582
			],
			"translation":[
				0,
				0,
				148.96234130859375
			]
		}
	],
	"materials":[
		{
			"doubleSided":true,
			"name":"M_Tile_GlossyCeramicsYellow",
			"pbrMetallicRoughness":{
				"baseColorTexture":{
					"index":0
				},
				"metallicFactor":0,
				"roughnessFactor":0.5527864098548889
			}
		},
		{
			"doubleSided":true,
			"name":"M_BuildingAtlas_01",
			"pbrMetallicRoughness":{
				"baseColorTexture":{
					"index":1
				},
				"metallicFactor":0,
				"roughnessFactor":0.5527864098548889
			}
		},
		{
			"doubleSided":true,
			"name":"M_Tile_ConcreteSlabs",
			"pbrMetallicRoughness":{
				"baseColorTexture":{
					"index":2
				},
				"metallicFactor":0,
				"roughnessFactor":0.5527864098548889
			}
		},
		{
			"doubleSided":true,
			"name":"M_Doors",
			"pbrMetallicRoughness":{
				"baseColorTexture":{
					"index":3
				},
				"metallicFactor":0,
				"roughnessFactor":0.5527864098548889
			}
		},
		{
			"doubleSided":true,
			"name":"MI_WindowsDoors",
			"pbrMetallicRoughness":{
				"baseColorTexture":{
					"index":4
				},
				"metallicFactor":0,
				"roughnessFactor":0.5527864098548889
			}
		},
		{
			"doubleSided":true,
			"name":"Window01",
			"pbrMetallicRoughness":{
				"metallicFactor":0,
				"roughnessFactor":0.5527864098548889
			}
		},
		{
			"doubleSided":true,
			"name":"M_Tile_GlossyCeramicsWhite",
			"pbrMetallicRoughness":{
				"baseColorTexture":{
					"index":5
				},
				"metallicFactor":0,
				"roughnessFactor":0.5527864098548889
			}
		},
		{
			"doubleSided":true,
			"name":"MI_WindowsGlass",
			"pbrMetallicRoughness":{
				"baseColorTexture":{
					"index":6
				},
				"metallicFactor":0,
				"roughnessFactor":0.5527864098548889
			}
		}
	],
	"meshes":[
		{
			"name":"Scene.001",
			"primitives":[
				{
					"attributes":{
						"POSITION":0,
						"NORMAL":1,
						"TEXCOORD_0":2,
						"TEXCOORD_1":3
					},
					"indices":4,
					"material":0
				},
				{
					"attributes":{
						"POSITION":5,
						"NORMAL":6,
						"TEXCOORD_0":7,
						"TEXCOORD_1":8
					},
					"indices":9,
					"material":1
				},
				{
					"attributes":{
						"POSITION":10,
						"NORMAL":11,
						"TEXCOORD_0":12,
						"TEXCOORD_1":13
					},
					"indices":14,
					"material":2
				},
				{
					"attributes":{
						"POSITION":15,
						"NORMAL":16,
						"TEXCOORD_0":17,
						"TEXCOORD_1":18
					},
					"indices":19,
					"material":3
				},
				{
					"attributes":{
						"POSITION":20,
						"NORMAL":21,
						"TEXCOORD_0":22,
						"TEXCOORD_1":23
					},
					"indices":24,
					"material":4
				},
				{
					"attributes":{
						"POSITION":25,
						"NORMAL":26,
						"TEXCOORD_0":27,
						"TEXCOORD_1":28
					},
					"indices":29,
					"material":5
				},
				{
					"attributes":{
						"POSITION":30,
						"NORMAL":31,
						"TEXCOORD_0":32,
						"TEXCOORD_1":33
					},
					"indices":34,
					"material":6
				},
				{
					"attributes":{
						"POSITION":35,
						"NORMAL":36,
						"TEXCOORD_0":37,
						"TEXCOORD_1":38
					},
					"indices":39,
					"material":7
				}
			]
		}
	],
	"textures":[
		{
			"sampler":0,
			"source":0
		},
		{
			"sampler":0,
			"source":1
		},
		{
			"sampler":0,
			"source":2
		},
		{
			"sampler":0,
			"source":3
		},
		{
			"sampler":0,
			"source":4
		},
		{
			"sampler":0,
			"source":2
		},
		{
			"sampler":0,
			"source":5
		}
	],
	"images":[
		{
			"mimeType":"image/png",
			"name":"T_Tile_GlossyCeramic_BC",
			"uri":"T_Tile_GlossyCeramic_BC.png"
		},
		{
			"mimeType":"image/png",
			"name":"T_BuildingAtlas_01_BC",
			"uri":"T_BuildingAtlas_01_BC.png"
		},
		{
			"mimeType":"image/png",
			"name":"T_Tile_ConcreteSlabs_BC",
			"uri":"T_Tile_ConcreteSlabs_BC.png"
		},
		{
			"mimeType":"image/png",
			"name":"T_Doors_D",
			"uri":"T_Doors_D.png"
		},
		{
			"mimeType":"image/png",
			"name":"T_WindowsDoors_D",
			"uri":"T_WindowsDoors_D.png"
		},
		{
			"mimeType":"image/png",
			"name":"T_WindowsGlass_BC",
			"uri":"T_WindowsGlass_BC.png"
		}
	],
	"accessors":[
		{
			"bufferView":0,
			"componentType":5126,
			"count":4049,
			"max":[
				1800.0008544921875,
				0.0009506525238975883,
				1454.8704833984375
			],
			"min":[
				0,
				-1000.0009765625,
				-1499.9998779296875
			],
			"type":"VEC3"
		},
		{
			"bufferView":1,
			"componentType":5126,
			"count":4049,
			"type":"VEC3"
		},
		{
			"bufferView":2,
			"componentType":5126,
			"count":4049,
			"type":"VEC2"
		},
		{
			"bufferView":3,
			"componentType":5126,
			"count":4049,
			"type":"VEC2"
		},
		{
			"bufferView":4,
			"componentType":5123,
			"count":7461,
			"type":"SCALAR"
		},
		{
			"bufferView":5,
			"componentType":5126,
			"count":26536,
			"max":[
				1807.7047119140625,
				27.704133987426758,
				1501.1470947265625
			],
			"min":[
				-7.704010486602783,
				-1042.70458984375,
				-1555.1007080078125
			],
			"type":"VEC3"
		},
		{
			"bufferView":6,
			"componentType":5126,
			"count":26536,
			"type":"VEC3"
		},
		{
			"bufferView":7,
			"componentType":5126,
			"count":26536,
			"type":"VEC2"
		},
		{
			"bufferView":8,
			"componentType":5126,
			"count":26536,
			"type":"VEC2"
		},
		{
			"bufferView":9,
			"componentType":5123,
			"count":103191,
			"type":"SCALAR"
		},
		{
			"bufferView":10,
			"componentType":5126,
			"count":2307,
			"max":[
				1807.7039794921875,
				27.704133987426758,
				1500.7998046875
			],
			"min":[
				-7.704010486602783,
				-1042.5916748046875,
				-1555.1007080078125
			],
			"type":"VEC3"
		},
		{
			"bufferView":11,
			"componentType":5126,
			"count":2307,
			"type":"VEC3"
		},
		{
			"bufferView":12,
			"componentType":5126,
			"count":2307,
			"type":"VEC2"
		},
		{
			"bufferView":13,
			"componentType":5126,
			"count":2307,
			"type":"VEC2"
		},
		{
			"bufferView":14,
			"componentType":5123,
			"count":4854,
			"type":"SCALAR"
		},
		{
			"bufferView":15,
			"componentType":5126,
			"count":7481,
			"max":[
				1746.1529541015625,
				-189.05796813964844,
				1495.304931640625
			],
			"min":[
				53.8477783203125,
				-810.9420776367188,
				-1430.0689697265625
			],
			"type":"VEC3"
		},
		{
			"bufferView":16,
			"componentType":5126,
			"count":7481,
			"type":"VEC3"
		},
		{
			"bufferView":17,
			"componentType":5126,
			"count":7481,
			"type":"VEC2"
		},
		{
			"bufferView":18,
			"componentType":5126,
			"count":7481,
			"type":"VEC2"
		},
		{
			"bufferView":19,
			"componentType":5123,
			"count":20274,
			"type":"SCALAR"
		},
		{
			"bufferView":20,
			"componentType":5126,
			"count":9814,
			"max":[
				1758.538818359375,
				-80.37701416015625,
				1500.00048828125
			],
			"min":[
				41.46185302734375,
				-919.6229858398438,
				-1444.8037109375
			],
			"type":"VEC3"
		},
		{
			"bufferView":21,
			"componentType":5126,
			"count":9814,
			"type":"VEC3"
		},
		{
			"bufferView":22,
			"componentType":5126,
			"count":9814,
			"type":"VEC2"
		},
		{
			"bufferView":23,
			"componentType":5126,
			"count":9814,
			"type":"VEC2"
		},
		{
			"bufferView":24,
			"componentType":5123,
			"count":17160,
			"type":"SCALAR"
		},
		{
			"bufferView":25,
			"componentType":5126,
			"count":288,
			"max":[
				1735.73974609375,
				-182.6936492919922,
				1090.587890625
			],
			"min":[
				64.26103210449219,
				-817.306396484375,
				-1429.5506591796875
			],
			"type":"VEC3"
		},
		{
			"bufferView":26,
			"componentType":5126,
			"count":288,
			"type":"VEC3"
		},
		{
			"bufferView":27,
			"componentType":5126,
			"count":288,
			"type":"VEC2"
		},
		{
			"bufferView":28,
			"componentType":5126,
			"count":288,
			"type":"VEC2"
		},
		{
			"bufferView":29,
			"componentType":5123,
			"count":432,
			"type":"SCALAR"
		},
		{
			"bufferView":30,
			"componentType":5126,
			"count":4536,
			"max":[
				1800.000732421875,
				0.0006875398103147745,
				1200.0006103515625
			],
			"min":[
				6.47248889436014e-05,
				-1000.000732421875,
				-1499.9998779296875
			],
			"type":"VEC3"
		},
		{
			"bufferView":31,
			"componentType":5126,
			"count":4536,
			"type":"VEC3"
		},
		{
			"bufferView":32,
			"componentType":5126,
			"count":4536,
			"type":"VEC2"
		},
		{
			"bufferView":33,
			"componentType":5126,
			"count":4536,
			"type":"VEC2"
		},
		{
			"bufferView":34,
			"componentType":5123,
			"count":13608,
			"type":"SCALAR"
		},
		{
			"bufferView":35,
			"componentType":5126,
			"count":304,
			"max":[
				1682.86279296875,
				-117.13720703125,
				1398.3768310546875
			],
			"min":[
				117.13797760009766,
				-882.86279296875,
				-1417.7515869140625
			],
			"type":"VEC3"
		},
		{
			"bufferView":36,
			"componentType":5126,
			"count":304,
			"type":"VEC3"
		},
		{
			"bufferView":37,
			"componentType":5126,
			"count":304,
			"type":"VEC2"
		},
		{
			"bufferView":38,
			"componentType":5126,
			"count":304,
			"type":"VEC2"
		},
		{
			"bufferView":39,
			"componentType":5123,
			"count":456,
			"type":"SCALAR"
		}
	],
	"bufferViews":[
		{
			"buffer":0,
			"byteLength":48588,
			"byteOffset":0,
			"target":34962
		},
		{
			"buffer":0,
			"byteLength":48588,
			"byteOffset":48588,
			"target":34962
		},
		{
			"buffer":0,
			"byteLength":32392,
			"byteOffset":97176,
			"target":34962
		},
		{
			"buffer":0,
			"byteLength":32392,
			"byteOffset":129568,
			"target":34962
		},
		{
			"buffer":0,
			"byteLength":14922,
			"byteOffset":161960,
			"target":34963
		},
		{
			"buffer":0,
			"byteLength":318432,
			"byteOffset":176884,
			"target":34962
		},
		{
			"buffer":0,
			"byteLength":318432,
			"byteOffset":495316,
			"target":34962
		},
		{
			"buffer":0,
			"byteLength":212288,
			"byteOffset":813748,
			"target":34962
		},
		{
			"buffer":0,
			"byteLength":212288,
			"byteOffset":1026036,
			"target":34962
		},
		{
			"buffer":0,
			"byteLength":206382,
			"byteOffset":1238324,
			"target":34963
		},
		{
			"buffer":0,
			"byteLength":27684,
			"byteOffset":1444708,
			"target":34962
		},
		{
			"buffer":0,
			"byteLength":27684,
			"byteOffset":1472392,
			"target":34962
		},
		{
			"buffer":0,
			"byteLength":18456,
			"byteOffset":1500076,
			"target":34962
		},
		{
			"buffer":0,
			"byteLength":18456,
			"byteOffset":1518532,
			"target":34962
		},
		{
			"buffer":0,
			"byteLength":9708,
			"byteOffset":1536988,
			"target":34963
		},
		{
			"buffer":0,
			"byteLength":89772,
			"byteOffset":1546696,
			"target":34962
		},
		{
			"buffer":0,
			"byteLength":89772,
			"byteOffset":1636468,
			"target":34962
		},
		{
			"buffer":0,
			"byteLength":59848,
			"byteOffset":1726240,
			"target":34962
		},
		{
			"buffer":0,
			"byteLength":59848,
			"byteOffset":1786088,
			"target":34962
		},
		{
			"buffer":0,
			"byteLength":40548,
			"byteOffset":1845936,
			"target":34963
		},
		{
			"buffer":0,
			"byteLength":117768,
			"byteOffset":1886484,
			"target":34962
		},
		{
			"buffer":0,
			"byteLength":117768,
			"byteOffset":2004252,
			"target":34962
		},
		{
			"buffer":0,
			"byteLength":78512,
			"byteOffset":2122020,
			"target":34962
		},
		{
			"buffer":0,
			"byteLength":78512,
			"byteOffset":2200532,
			"target":34962
		},
		{
			"buffer":0,
			"byteLength":34320,
			"byteOffset":2279044,
			"target":34963
		},
		{
			"buffer":0,
			"byteLength":3456,
			"byteOffset":2313364,
			"target":34962
		},
		{
			"buffer":0,
			"byteLength":3456,
			"byteOffset":2316820,
			"target":34962
		},
		{
			"buffer":0,
			"byteLength":2304,
			"byteOffset":2320276,
			"target":34962
		},
		{
			"buffer":0,
			"byteLength":2304,
			"byteOffset":2322580,
			"target":34962
		},
		{
			"buffer":0,
			"byteLength":864,
			"byteOffset":2324884,
			"target":34963
		},
		{
			"buffer":0,
			"byteLength":54432,
			"byteOffset":2325748,
			"target":34962
		},
		{
			"buffer":0,
			"byteLength":54432,
			"byteOffset":2380180,
			"target":34962
		},
		{
			"buffer":0,
			"byteLength":36288,
			"byteOffset":2434612,
			"target":34962
		},
		{
			"buffer":0,
			"byteLength":36288,
			"byteOffset":2470900,
			"target":34962
		},
		{
			"buffer":0,
			"byteLength":27216,
			"byteOffset":2507188,
			"target":34963
		},
		{
			"buffer":0,
			"byteLength":3648,
			"byteOffset":2534404,
			"target":34962
		},
		{
			"buffer":0,
			"byteLength":3648,
			"byteOffset":2538052,
			"target":34962
		},
		{
			"buffer":0,
			"byteLength":2432,
			"byteOffset":2541700,
			"target":34962
		},
		{
			"buffer":0,
			"byteLength":2432,
			"byteOffset":2544132,
			"target":34962
		},
		{
			"buffer":0,
			"byteLength":912,
			"byteOffset":2546564,
			"target":34963
		}
	],
	"samplers":[
		{
			"magFilter":9729,
			"minFilter":9987
		}
	],
	"buffers":[
		{
			"byteLength":2547476,
			"uri":"B13.bin"
		}
	]
}
