{
	"asset":{
		"generator":"Khronos glTF Blender I/O v4.3.47",
		"version":"2.0"
	},
	"scene":0,
	"scenes":[
		{
			"name":"Scene",
			"nodes":[
				0
			]
		}
	],
	"nodes":[
		{
			"mesh":0,
			"name":"SM_CornerBuilding",
			"rotation":[
				0.7071068286895752,
				0,
				0,
				0.7071068286895752
			],
			"scale":[
				0.009999999776482582,
				0.009999999776482582,
				0.009999999776482582
			]
		}
	],
	"materials":[
		{
			"doubleSided":true,
			"name":"M_Tile_CeraicTiles_Blue.001",
			"pbrMetallicRoughness":{
				"baseColorTexture":{
					"index":0
				},
				"metallicFactor":0,
				"roughnessFactor":0.5527864098548889
			}
		},
		{
			"doubleSided":true,
			"name":"M_BuildingAtlas_01.001",
			"pbrMetallicRoughness":{
				"baseColorTexture":{
					"index":1
				},
				"metallicFactor":0,
				"roughnessFactor":0.5527864098548889
			}
		},
		{
			"doubleSided":true,
			"name":"M_Tile_ConcreteSlabs.001",
			"pbrMetallicRoughness":{
				"baseColorTexture":{
					"index":2
				},
				"metallicFactor":0,
				"roughnessFactor":0.5527864098548889
			}
		},
		{
			"doubleSided":true,
			"name":"M_Tile_CeraicTiles_Purple.001",
			"pbrMetallicRoughness":{
				"baseColorTexture":{
					"index":3
				},
				"metallicFactor":0,
				"roughnessFactor":0.5527864098548889
			}
		},
		{
			"doubleSided":true,
			"name":"MI_WindowsDoors.001",
			"pbrMetallicRoughness":{
				"baseColorTexture":{
					"index":4
				},
				"metallicFactor":0,
				"roughnessFactor":0.5527864098548889
			}
		},
		{
			"doubleSided":true,
			"name":"M_Doors.001",
			"pbrMetallicRoughness":{
				"baseColorTexture":{
					"index":5
				},
				"metallicFactor":0,
				"roughnessFactor":0.5527864098548889
			}
		},
		{
			"doubleSided":true,
			"name":"MI_WindowsGlass.001",
			"pbrMetallicRoughness":{
				"baseColorTexture":{
					"index":6
				},
				"metallicFactor":0,
				"roughnessFactor":0.5527864098548889
			}
		}
	],
	"meshes":[
		{
			"name":"Scene.001",
			"primitives":[
				{
					"attributes":{
						"POSITION":0,
						"NORMAL":1,
						"TEXCOORD_0":2
					},
					"indices":3,
					"material":0
				},
				{
					"attributes":{
						"POSITION":4,
						"NORMAL":5,
						"TEXCOORD_0":6
					},
					"indices":7,
					"material":1
				},
				{
					"attributes":{
						"POSITION":8,
						"NORMAL":9,
						"TEXCOORD_0":10
					},
					"indices":11,
					"material":2
				},
				{
					"attributes":{
						"POSITION":12,
						"NORMAL":13,
						"TEXCOORD_0":14
					},
					"indices":15,
					"material":3
				},
				{
					"attributes":{
						"POSITION":16,
						"NORMAL":17,
						"TEXCOORD_0":18
					},
					"indices":19,
					"material":4
				},
				{
					"attributes":{
						"POSITION":20,
						"NORMAL":21,
						"TEXCOORD_0":22
					},
					"indices":23,
					"material":5
				},
				{
					"attributes":{
						"POSITION":24,
						"NORMAL":25,
						"TEXCOORD_0":26
					},
					"indices":27,
					"material":5
				},
				{
					"attributes":{
						"POSITION":28,
						"NORMAL":29,
						"TEXCOORD_0":30
					},
					"indices":31,
					"material":4
				},
				{
					"attributes":{
						"POSITION":32,
						"NORMAL":33,
						"TEXCOORD_0":34
					},
					"indices":35,
					"material":6
				}
			]
		}
	],
	"textures":[
		{
			"sampler":0,
			"source":0
		},
		{
			"sampler":0,
			"source":1
		},
		{
			"sampler":0,
			"source":2
		},
		{
			"sampler":0,
			"source":3
		},
		{
			"sampler":0,
			"source":4
		},
		{
			"sampler":0,
			"source":5
		},
		{
			"sampler":0,
			"source":6
		}
	],
	"images":[
		{
			"mimeType":"image/png",
			"name":"T_Tile_CeramicTiles_N",
			"uri":"T_Tile_CeramicTiles_N.png"
		},
		{
			"mimeType":"image/png",
			"name":"T_BuildingAtlas_01_BC",
			"uri":"T_BuildingAtlas_01_BC.png"
		},
		{
			"mimeType":"image/png",
			"name":"T_Tile_ConcreteSlabs_BC",
			"uri":"T_Tile_ConcreteSlabs_BC.png"
		},
		{
			"mimeType":"image/png",
			"name":"T_Tile_SteelTiles_Painted_BC_purple.png",
			"uri":"T_Tile_SteelTiles_Painted_BC_purple_png.png"
		},
		{
			"mimeType":"image/png",
			"name":"T_WindowsDoors_D",
			"uri":"T_WindowsDoors_D.png"
		},
		{
			"mimeType":"image/png",
			"name":"T_Doors_D",
			"uri":"T_Doors_D.png"
		},
		{
			"mimeType":"image/png",
			"name":"T_WindowsGlass_BC",
			"uri":"T_WindowsGlass_BC.png"
		}
	],
	"accessors":[
		{
			"bufferView":0,
			"componentType":5126,
			"count":2826,
			"max":[
				504.81890869140625,
				0,
				-20.537668228149414
			],
			"min":[
				-612.6431274414062,
				-657.9237670898438,
				-1707.9000244140625
			],
			"type":"VEC3"
		},
		{
			"bufferView":1,
			"componentType":5126,
			"count":2826,
			"type":"VEC3"
		},
		{
			"bufferView":2,
			"componentType":5126,
			"count":2826,
			"type":"VEC2"
		},
		{
			"bufferView":3,
			"componentType":5123,
			"count":9042,
			"type":"SCALAR"
		},
		{
			"bufferView":4,
			"componentType":5126,
			"count":1909,
			"max":[
				507.3478698730469,
				100.153564453125,
				2.870387077331543
			],
			"min":[
				-612.6431274414062,
				-667.2578125,
				-2205.78125
			],
			"type":"VEC3"
		},
		{
			"bufferView":5,
			"componentType":5126,
			"count":1909,
			"type":"VEC3"
		},
		{
			"bufferView":6,
			"componentType":5126,
			"count":1909,
			"type":"VEC2"
		},
		{
			"bufferView":7,
			"componentType":5123,
			"count":7074,
			"type":"SCALAR"
		},
		{
			"bufferView":8,
			"componentType":5126,
			"count":870,
			"max":[
				498.2795715332031,
				100.153564453125,
				-1.8543537855148315
			],
			"min":[
				-606.380859375,
				-655.959228515625,
				-1795.07421875
			],
			"type":"VEC3"
		},
		{
			"bufferView":9,
			"componentType":5126,
			"count":870,
			"type":"VEC3"
		},
		{
			"bufferView":10,
			"componentType":5126,
			"count":870,
			"type":"VEC2"
		},
		{
			"bufferView":11,
			"componentType":5123,
			"count":2418,
			"type":"SCALAR"
		},
		{
			"bufferView":12,
			"componentType":5126,
			"count":734,
			"max":[
				220.72430419921875,
				65.43617248535156,
				2.870363235473633
			],
			"min":[
				-516.893798828125,
				-583.457275390625,
				-2188.184814453125
			],
			"type":"VEC3"
		},
		{
			"bufferView":13,
			"componentType":5126,
			"count":734,
			"type":"VEC3"
		},
		{
			"bufferView":14,
			"componentType":5126,
			"count":734,
			"type":"VEC2"
		},
		{
			"bufferView":15,
			"componentType":5123,
			"count":2100,
			"type":"SCALAR"
		},
		{
			"bufferView":16,
			"componentType":5126,
			"count":70,
			"max":[
				-88.39540100097656,
				-60.21692657470703,
				2.870363235473633
			],
			"min":[
				-314.12750244140625,
				-98.86294555664062,
				-200.36073303222656
			],
			"type":"VEC3"
		},
		{
			"bufferView":17,
			"componentType":5126,
			"count":70,
			"type":"VEC3"
		},
		{
			"bufferView":18,
			"componentType":5126,
			"count":70,
			"type":"VEC2"
		},
		{
			"bufferView":19,
			"componentType":5123,
			"count":120,
			"type":"SCALAR"
		},
		{
			"bufferView":20,
			"componentType":5126,
			"count":635,
			"max":[
				-98.06327819824219,
				-70.04474639892578,
				-1.3651905059814453
			],
			"min":[
				-297.97344970703125,
				-78.86663818359375,
				-187.55523681640625
			],
			"type":"VEC3"
		},
		{
			"bufferView":21,
			"componentType":5126,
			"count":635,
			"type":"VEC3"
		},
		{
			"bufferView":22,
			"componentType":5126,
			"count":635,
			"type":"VEC2"
		},
		{
			"bufferView":23,
			"componentType":5123,
			"count":1872,
			"type":"SCALAR"
		},
		{
			"bufferView":24,
			"componentType":5126,
			"count":759,
			"max":[
				342.25347900390625,
				-81.75483703613281,
				-243.2732391357422
			],
			"min":[
				285.4881286621094,
				-189.8151092529297,
				-1651.978515625
			],
			"type":"VEC3"
		},
		{
			"bufferView":25,
			"componentType":5126,
			"count":759,
			"type":"VEC3"
		},
		{
			"bufferView":26,
			"componentType":5126,
			"count":759,
			"type":"VEC2"
		},
		{
			"bufferView":27,
			"componentType":5123,
			"count":2100,
			"type":"SCALAR"
		},
		{
			"bufferView":28,
			"componentType":5126,
			"count":2956,
			"max":[
				190.78903198242188,
				12.101507186889648,
				-265.916015625
			],
			"min":[
				-559.9976196289062,
				-650.54150390625,
				-1624.5205078125
			],
			"type":"VEC3"
		},
		{
			"bufferView":29,
			"componentType":5126,
			"count":2956,
			"type":"VEC3"
		},
		{
			"bufferView":30,
			"componentType":5126,
			"count":2956,
			"type":"VEC2"
		},
		{
			"bufferView":31,
			"componentType":5123,
			"count":10752,
			"type":"SCALAR"
		},
		{
			"bufferView":32,
			"componentType":5126,
			"count":1132,
			"max":[
				173.54774475097656,
				3.8782119750976562,
				-291.0912170410156
			],
			"min":[
				-529.320068359375,
				-615.3818359375,
				-1614.0968017578125
			],
			"type":"VEC3"
		},
		{
			"bufferView":33,
			"componentType":5126,
			"count":1132,
			"type":"VEC3"
		},
		{
			"bufferView":34,
			"componentType":5126,
			"count":1132,
			"type":"VEC2"
		},
		{
			"bufferView":35,
			"componentType":5123,
			"count":5124,
			"type":"SCALAR"
		}
	],
	"bufferViews":[
		{
			"buffer":0,
			"byteLength":33912,
			"byteOffset":0,
			"target":34962
		},
		{
			"buffer":0,
			"byteLength":33912,
			"byteOffset":33912,
			"target":34962
		},
		{
			"buffer":0,
			"byteLength":22608,
			"byteOffset":67824,
			"target":34962
		},
		{
			"buffer":0,
			"byteLength":18084,
			"byteOffset":90432,
			"target":34963
		},
		{
			"buffer":0,
			"byteLength":22908,
			"byteOffset":108516,
			"target":34962
		},
		{
			"buffer":0,
			"byteLength":22908,
			"byteOffset":131424,
			"target":34962
		},
		{
			"buffer":0,
			"byteLength":15272,
			"byteOffset":154332,
			"target":34962
		},
		{
			"buffer":0,
			"byteLength":14148,
			"byteOffset":169604,
			"target":34963
		},
		{
			"buffer":0,
			"byteLength":10440,
			"byteOffset":183752,
			"target":34962
		},
		{
			"buffer":0,
			"byteLength":10440,
			"byteOffset":194192,
			"target":34962
		},
		{
			"buffer":0,
			"byteLength":6960,
			"byteOffset":204632,
			"target":34962
		},
		{
			"buffer":0,
			"byteLength":4836,
			"byteOffset":211592,
			"target":34963
		},
		{
			"buffer":0,
			"byteLength":8808,
			"byteOffset":216428,
			"target":34962
		},
		{
			"buffer":0,
			"byteLength":8808,
			"byteOffset":225236,
			"target":34962
		},
		{
			"buffer":0,
			"byteLength":5872,
			"byteOffset":234044,
			"target":34962
		},
		{
			"buffer":0,
			"byteLength":4200,
			"byteOffset":239916,
			"target":34963
		},
		{
			"buffer":0,
			"byteLength":840,
			"byteOffset":244116,
			"target":34962
		},
		{
			"buffer":0,
			"byteLength":840,
			"byteOffset":244956,
			"target":34962
		},
		{
			"buffer":0,
			"byteLength":560,
			"byteOffset":245796,
			"target":34962
		},
		{
			"buffer":0,
			"byteLength":240,
			"byteOffset":246356,
			"target":34963
		},
		{
			"buffer":0,
			"byteLength":7620,
			"byteOffset":246596,
			"target":34962
		},
		{
			"buffer":0,
			"byteLength":7620,
			"byteOffset":254216,
			"target":34962
		},
		{
			"buffer":0,
			"byteLength":5080,
			"byteOffset":261836,
			"target":34962
		},
		{
			"buffer":0,
			"byteLength":3744,
			"byteOffset":266916,
			"target":34963
		},
		{
			"buffer":0,
			"byteLength":9108,
			"byteOffset":270660,
			"target":34962
		},
		{
			"buffer":0,
			"byteLength":9108,
			"byteOffset":279768,
			"target":34962
		},
		{
			"buffer":0,
			"byteLength":6072,
			"byteOffset":288876,
			"target":34962
		},
		{
			"buffer":0,
			"byteLength":4200,
			"byteOffset":294948,
			"target":34963
		},
		{
			"buffer":0,
			"byteLength":35472,
			"byteOffset":299148,
			"target":34962
		},
		{
			"buffer":0,
			"byteLength":35472,
			"byteOffset":334620,
			"target":34962
		},
		{
			"buffer":0,
			"byteLength":23648,
			"byteOffset":370092,
			"target":34962
		},
		{
			"buffer":0,
			"byteLength":21504,
			"byteOffset":393740,
			"target":34963
		},
		{
			"buffer":0,
			"byteLength":13584,
			"byteOffset":415244,
			"target":34962
		},
		{
			"buffer":0,
			"byteLength":13584,
			"byteOffset":428828,
			"target":34962
		},
		{
			"buffer":0,
			"byteLength":9056,
			"byteOffset":442412,
			"target":34962
		},
		{
			"buffer":0,
			"byteLength":10248,
			"byteOffset":451468,
			"target":34963
		}
	],
	"samplers":[
		{
			"magFilter":9729,
			"minFilter":9987
		}
	],
	"buffers":[
		{
			"byteLength":461716,
			"uri":"Building1.bin"
		}
	]
}
