{
	"asset":{
		"generator":"Khronos glTF Blender I/O v4.3.47",
		"version":"2.0"
	},
	"scene":0,
	"scenes":[
		{
			"name":"Scene",
			"nodes":[
				0
			]
		}
	],
	"nodes":[
		{
			"mesh":0,
			"name":"SM_CornerBuilding"
		}
	],
	"materials":[
		{
			"doubleSided":true,
			"name":"M_Tile_CeraicTiles_Blue.001",
			"pbrMetallicRoughness":{
				"baseColorTexture":{
					"index":0
				},
				"metallicFactor":0,
				"roughnessFactor":0.5527864098548889
			}
		},
		{
			"doubleSided":true,
			"name":"M_BuildingAtlas_01.005",
			"pbrMetallicRoughness":{
				"baseColorTexture":{
					"index":1
				},
				"metallicFactor":0,
				"roughnessFactor":0.5527864098548889
			}
		},
		{
			"doubleSided":true,
			"name":"M_Tile_ConcreteSlabs.003",
			"pbrMetallicRoughness":{
				"baseColorTexture":{
					"index":2
				},
				"metallicFactor":0,
				"roughnessFactor":0.5527864098548889
			}
		},
		{
			"doubleSided":true,
			"name":"M_Tile_CeraicTiles_Purple.001",
			"pbrMetallicRoughness":{
				"baseColorTexture":{
					"index":3
				},
				"metallicFactor":0,
				"roughnessFactor":0.5527864098548889
			}
		},
		{
			"doubleSided":true,
			"name":"MI_WindowsDoors.002",
			"pbrMetallicRoughness":{
				"baseColorTexture":{
					"index":4
				},
				"metallicFactor":0,
				"roughnessFactor":0.5527864098548889
			}
		},
		{
			"doubleSided":true,
			"name":"M_Doors.002",
			"pbrMetallicRoughness":{
				"baseColorTexture":{
					"index":5
				},
				"metallicFactor":0,
				"roughnessFactor":0.5527864098548889
			}
		},
		{
			"doubleSided":true,
			"name":"MI_WindowsGlass.002",
			"pbrMetallicRoughness":{
				"baseColorTexture":{
					"index":6
				},
				"metallicFactor":0,
				"roughnessFactor":0.5527864098548889
			}
		}
	],
	"meshes":[
		{
			"name":"Scene.006",
			"primitives":[
				{
					"attributes":{
						"POSITION":0,
						"NORMAL":1,
						"TEXCOORD_0":2
					},
					"indices":3,
					"material":0
				},
				{
					"attributes":{
						"POSITION":4,
						"NORMAL":5,
						"TEXCOORD_0":6
					},
					"indices":7,
					"material":1
				},
				{
					"attributes":{
						"POSITION":8,
						"NORMAL":9,
						"TEXCOORD_0":10
					},
					"indices":11,
					"material":2
				},
				{
					"attributes":{
						"POSITION":12,
						"NORMAL":13,
						"TEXCOORD_0":14
					},
					"indices":15,
					"material":3
				},
				{
					"attributes":{
						"POSITION":16,
						"NORMAL":17,
						"TEXCOORD_0":18
					},
					"indices":19,
					"material":4
				},
				{
					"attributes":{
						"POSITION":20,
						"NORMAL":21,
						"TEXCOORD_0":22
					},
					"indices":23,
					"material":5
				},
				{
					"attributes":{
						"POSITION":24,
						"NORMAL":25,
						"TEXCOORD_0":26
					},
					"indices":27,
					"material":6
				}
			]
		}
	],
	"textures":[
		{
			"sampler":0,
			"source":0
		},
		{
			"sampler":0,
			"source":1
		},
		{
			"sampler":0,
			"source":2
		},
		{
			"sampler":0,
			"source":3
		},
		{
			"sampler":0,
			"source":4
		},
		{
			"sampler":0,
			"source":5
		},
		{
			"sampler":0,
			"source":6
		}
	],
	"images":[
		{
			"mimeType":"image/png",
			"name":"T_Tile_CeramicTiles_N",
			"uri":"T_Tile_CeramicTiles_N.png"
		},
		{
			"mimeType":"image/png",
			"name":"T_BuildingAtlas_01_BC",
			"uri":"T_BuildingAtlas_01_BC.png"
		},
		{
			"mimeType":"image/png",
			"name":"T_Tile_ConcreteSlabs_BC",
			"uri":"T_Tile_ConcreteSlabs_BC.png"
		},
		{
			"mimeType":"image/png",
			"name":"T_Tile_SteelTiles_Painted_BC_purple_png",
			"uri":"T_Tile_SteelTiles_Painted_BC_purple_png.png"
		},
		{
			"mimeType":"image/png",
			"name":"T_WindowsDoors_D",
			"uri":"T_WindowsDoors_D.png"
		},
		{
			"mimeType":"image/png",
			"name":"T_Doors_D",
			"uri":"T_Doors_D.png"
		},
		{
			"mimeType":"image/png",
			"name":"T_WindowsGlass_BC",
			"uri":"T_WindowsGlass_BC.png"
		}
	],
	"accessors":[
		{
			"bufferView":0,
			"componentType":5126,
			"count":2832,
			"max":[
				5.048189163208008,
				17.079002380371094,
				2.2947149318497395e-06
			],
			"min":[
				-6.126430988311768,
				0.2053767442703247,
				-6.579237461090088
			],
			"type":"VEC3"
		},
		{
			"bufferView":1,
			"componentType":5126,
			"count":2832,
			"type":"VEC3"
		},
		{
			"bufferView":2,
			"componentType":5126,
			"count":2832,
			"type":"VEC2"
		},
		{
			"bufferView":3,
			"componentType":5123,
			"count":9042,
			"type":"SCALAR"
		},
		{
			"bufferView":4,
			"componentType":5126,
			"count":1919,
			"max":[
				5.073478698730469,
				22.05781364440918,
				1.0015360116958618
			],
			"min":[
				-6.126430988311768,
				-0.028703756630420685,
				-6.672578811645508
			],
			"type":"VEC3"
		},
		{
			"bufferView":5,
			"componentType":5126,
			"count":1919,
			"type":"VEC3"
		},
		{
			"bufferView":6,
			"componentType":5126,
			"count":1919,
			"type":"VEC2"
		},
		{
			"bufferView":7,
			"componentType":5123,
			"count":7074,
			"type":"SCALAR"
		},
		{
			"bufferView":8,
			"componentType":5126,
			"count":872,
			"max":[
				4.982795715332031,
				17.950742721557617,
				1.0015360116958618
			],
			"min":[
				-6.063808441162109,
				0.01854376122355461,
				-6.5595927238464355
			],
			"type":"VEC3"
		},
		{
			"bufferView":9,
			"componentType":5126,
			"count":872,
			"type":"VEC3"
		},
		{
			"bufferView":10,
			"componentType":5126,
			"count":872,
			"type":"VEC2"
		},
		{
			"bufferView":11,
			"componentType":5123,
			"count":2418,
			"type":"SCALAR"
		},
		{
			"bufferView":12,
			"componentType":5126,
			"count":737,
			"max":[
				2.207242965698242,
				21.88184928894043,
				0.6543617844581604
			],
			"min":[
				-5.168937683105469,
				-0.028703419491648674,
				-5.834571361541748
			],
			"type":"VEC3"
		},
		{
			"bufferView":13,
			"componentType":5126,
			"count":737,
			"type":"VEC3"
		},
		{
			"bufferView":14,
			"componentType":5126,
			"count":737,
			"type":"VEC2"
		},
		{
			"bufferView":15,
			"componentType":5123,
			"count":2100,
			"type":"SCALAR"
		},
		{
			"bufferView":16,
			"componentType":5126,
			"count":3026,
			"max":[
				1.9078903198242188,
				16.245206832885742,
				0.1210160031914711
			],
			"min":[
				-5.599976062774658,
				-0.02870355360209942,
				-6.5054144859313965
			],
			"type":"VEC3"
		},
		{
			"bufferView":17,
			"componentType":5126,
			"count":3026,
			"type":"VEC3"
		},
		{
			"bufferView":18,
			"componentType":5126,
			"count":3026,
			"type":"VEC2"
		},
		{
			"bufferView":19,
			"componentType":5123,
			"count":10872,
			"type":"SCALAR"
		},
		{
			"bufferView":20,
			"componentType":5126,
			"count":1411,
			"max":[
				3.422534704208374,
				16.519786834716797,
				-0.7004473209381104
			],
			"min":[
				-2.979734420776367,
				0.013652000576257706,
				-1.89815092086792
			],
			"type":"VEC3"
		},
		{
			"bufferView":21,
			"componentType":5126,
			"count":1411,
			"type":"VEC3"
		},
		{
			"bufferView":22,
			"componentType":5126,
			"count":1411,
			"type":"VEC2"
		},
		{
			"bufferView":23,
			"componentType":5123,
			"count":3972,
			"type":"SCALAR"
		},
		{
			"bufferView":24,
			"componentType":5126,
			"count":1132,
			"max":[
				1.7354774475097656,
				16.140968322753906,
				0.03878340870141983
			],
			"min":[
				-5.293200492858887,
				2.910912275314331,
				-6.153817653656006
			],
			"type":"VEC3"
		},
		{
			"bufferView":25,
			"componentType":5126,
			"count":1132,
			"type":"VEC3"
		},
		{
			"bufferView":26,
			"componentType":5126,
			"count":1132,
			"type":"VEC2"
		},
		{
			"bufferView":27,
			"componentType":5123,
			"count":5124,
			"type":"SCALAR"
		}
	],
	"bufferViews":[
		{
			"buffer":0,
			"byteLength":33984,
			"byteOffset":0,
			"target":34962
		},
		{
			"buffer":0,
			"byteLength":33984,
			"byteOffset":33984,
			"target":34962
		},
		{
			"buffer":0,
			"byteLength":22656,
			"byteOffset":67968,
			"target":34962
		},
		{
			"buffer":0,
			"byteLength":18084,
			"byteOffset":90624,
			"target":34963
		},
		{
			"buffer":0,
			"byteLength":23028,
			"byteOffset":108708,
			"target":34962
		},
		{
			"buffer":0,
			"byteLength":23028,
			"byteOffset":131736,
			"target":34962
		},
		{
			"buffer":0,
			"byteLength":15352,
			"byteOffset":154764,
			"target":34962
		},
		{
			"buffer":0,
			"byteLength":14148,
			"byteOffset":170116,
			"target":34963
		},
		{
			"buffer":0,
			"byteLength":10464,
			"byteOffset":184264,
			"target":34962
		},
		{
			"buffer":0,
			"byteLength":10464,
			"byteOffset":194728,
			"target":34962
		},
		{
			"buffer":0,
			"byteLength":6976,
			"byteOffset":205192,
			"target":34962
		},
		{
			"buffer":0,
			"byteLength":4836,
			"byteOffset":212168,
			"target":34963
		},
		{
			"buffer":0,
			"byteLength":8844,
			"byteOffset":217004,
			"target":34962
		},
		{
			"buffer":0,
			"byteLength":8844,
			"byteOffset":225848,
			"target":34962
		},
		{
			"buffer":0,
			"byteLength":5896,
			"byteOffset":234692,
			"target":34962
		},
		{
			"buffer":0,
			"byteLength":4200,
			"byteOffset":240588,
			"target":34963
		},
		{
			"buffer":0,
			"byteLength":36312,
			"byteOffset":244788,
			"target":34962
		},
		{
			"buffer":0,
			"byteLength":36312,
			"byteOffset":281100,
			"target":34962
		},
		{
			"buffer":0,
			"byteLength":24208,
			"byteOffset":317412,
			"target":34962
		},
		{
			"buffer":0,
			"byteLength":21744,
			"byteOffset":341620,
			"target":34963
		},
		{
			"buffer":0,
			"byteLength":16932,
			"byteOffset":363364,
			"target":34962
		},
		{
			"buffer":0,
			"byteLength":16932,
			"byteOffset":380296,
			"target":34962
		},
		{
			"buffer":0,
			"byteLength":11288,
			"byteOffset":397228,
			"target":34962
		},
		{
			"buffer":0,
			"byteLength":7944,
			"byteOffset":408516,
			"target":34963
		},
		{
			"buffer":0,
			"byteLength":13584,
			"byteOffset":416460,
			"target":34962
		},
		{
			"buffer":0,
			"byteLength":13584,
			"byteOffset":430044,
			"target":34962
		},
		{
			"buffer":0,
			"byteLength":9056,
			"byteOffset":443628,
			"target":34962
		},
		{
			"buffer":0,
			"byteLength":10248,
			"byteOffset":452684,
			"target":34963
		}
	],
	"samplers":[
		{
			"magFilter":9729,
			"minFilter":9987
		}
	],
	"buffers":[
		{
			"byteLength":462932,
			"uri":"Building1.bin"
		}
	]
}
