{
	"asset":{
		"generator":"Khronos glTF Blender I/O v4.3.47",
		"version":"2.0"
	},
	"scene":0,
	"scenes":[
		{
			"name":"Scene",
			"nodes":[
				0
			]
		}
	],
	"nodes":[
		{
			"mesh":0,
			"name":"SM_CornerBuilding",
			"rotation":[
				0.7071068286895752,
				0,
				0,
				0.7071068286895752
			],
			"scale":[
				0.009999999776482582,
				0.009999999776482582,
				0.009999999776482582
			]
		}
	],
	"materials":[
		{
			"doubleSided":true,
			"name":"M_Tile_CeraicTiles_Blue",
			"pbrMetallicRoughness":{
				"baseColorTexture":{
					"index":0
				},
				"roughnessFactor":0.3551119863986969
			}
		},
		{
			"doubleSided":true,
			"name":"M_BuildingAtlas_01",
			"pbrMetallicRoughness":{
				"baseColorTexture":{
					"index":1
				},
				"metallicFactor":0,
				"roughnessFactor":0.5527864098548889
			}
		},
		{
			"doubleSided":true,
			"name":"M_Tile_ConcreteSlabs",
			"pbrMetallicRoughness":{
				"baseColorTexture":{
					"index":2
				},
				"metallicFactor":0,
				"roughnessFactor":0.5527864098548889
			}
		},
		{
			"doubleSided":true,
			"name":"M_Tile_CeraicTiles_Purple",
			"pbrMetallicRoughness":{
				"baseColorTexture":{
					"index":3
				},
				"metallicFactor":0,
				"roughnessFactor":0.5527864098548889
			}
		},
		{
			"doubleSided":true,
			"name":"MI_WindowsDoors",
			"pbrMetallicRoughness":{
				"baseColorTexture":{
					"index":4
				},
				"metallicFactor":0,
				"roughnessFactor":0.5527864098548889
			}
		},
		{
			"doubleSided":true,
			"name":"M_Doors",
			"pbrMetallicRoughness":{
				"baseColorTexture":{
					"index":5
				},
				"metallicFactor":0,
				"roughnessFactor":0.5527864098548889
			}
		},
		{
			"doubleSided":true,
			"name":"MI_WindowsGlass",
			"pbrMetallicRoughness":{
				"metallicFactor":0,
				"roughnessFactor":0.5527864098548889
			}
		}
	],
	"meshes":[
		{
			"name":"Scene",
			"primitives":[
				{
					"attributes":{
						"POSITION":0,
						"NORMAL":1,
						"TEXCOORD_0":2
					},
					"indices":3,
					"material":0
				},
				{
					"attributes":{
						"POSITION":4,
						"NORMAL":5,
						"TEXCOORD_0":6
					},
					"indices":7,
					"material":1
				},
				{
					"attributes":{
						"POSITION":8,
						"NORMAL":9,
						"TEXCOORD_0":10
					},
					"indices":11,
					"material":2
				},
				{
					"attributes":{
						"POSITION":12,
						"NORMAL":13,
						"TEXCOORD_0":14
					},
					"indices":15,
					"material":3
				},
				{
					"attributes":{
						"POSITION":16,
						"NORMAL":17,
						"TEXCOORD_0":18
					},
					"indices":19,
					"material":4
				},
				{
					"attributes":{
						"POSITION":20,
						"NORMAL":21,
						"TEXCOORD_0":22
					},
					"indices":23,
					"material":5
				},
				{
					"attributes":{
						"POSITION":24,
						"NORMAL":25,
						"TEXCOORD_0":26
					},
					"indices":27,
					"material":5
				},
				{
					"attributes":{
						"POSITION":28,
						"NORMAL":29,
						"TEXCOORD_0":30
					},
					"indices":31,
					"material":4
				},
				{
					"attributes":{
						"POSITION":32,
						"NORMAL":33,
						"TEXCOORD_0":34
					},
					"indices":35,
					"material":6
				}
			]
		}
	],
	"textures":[
		{
			"sampler":0,
			"source":0
		},
		{
			"sampler":0,
			"source":1
		},
		{
			"sampler":0,
			"source":1
		},
		{
			"sampler":0,
			"source":2
		},
		{
			"sampler":0,
			"source":3
		},
		{
			"sampler":0,
			"source":3
		}
	],
	"images":[
		{
			"mimeType":"image/png",
			"name":"T_Tile_CeramicTiles_N",
			"uri":"T_Tile_CeramicTiles_N.png"
		},
		{
			"mimeType":"image/png",
			"name":"T_Tile_Concrete_BC",
			"uri":"T_Tile_Concrete_BC.png"
		},
		{
			"mimeType":"image/png",
			"name":"T_Tile_SteelTiles_Painted_BC_purple.png",
			"uri":"T_Tile_SteelTiles_Painted_BC_purple_png.png"
		},
		{
			"mimeType":"image/png",
			"name":"T_WindowsDoors_D",
			"uri":"T_WindowsDoors_D.png"
		}
	],
	"accessors":[
		{
			"bufferView":0,
			"componentType":5126,
			"count":1906,
			"max":[
				504.8189392089844,
				0.036006323993206024,
				-20.537668228149414
			],
			"min":[
				-612.6431274414062,
				-657.9237670898438,
				-1707.9000244140625
			],
			"type":"VEC3"
		},
		{
			"bufferView":1,
			"componentType":5126,
			"count":1906,
			"type":"VEC3"
		},
		{
			"bufferView":2,
			"componentType":5126,
			"count":1906,
			"type":"VEC2"
		},
		{
			"bufferView":3,
			"componentType":5123,
			"count":5586,
			"type":"SCALAR"
		},
		{
			"bufferView":4,
			"componentType":5126,
			"count":1415,
			"max":[
				507.3478698730469,
				100.153564453125,
				2.870387077331543
			],
			"min":[
				-612.6431884765625,
				-667.2578125,
				-2205.78125
			],
			"type":"VEC3"
		},
		{
			"bufferView":5,
			"componentType":5126,
			"count":1415,
			"type":"VEC3"
		},
		{
			"bufferView":6,
			"componentType":5126,
			"count":1415,
			"type":"VEC2"
		},
		{
			"bufferView":7,
			"componentType":5123,
			"count":5202,
			"type":"SCALAR"
		},
		{
			"bufferView":8,
			"componentType":5126,
			"count":471,
			"max":[
				504.8189392089844,
				100.153564453125,
				-1.8543533086776733
			],
			"min":[
				-600.3234252929688,
				-664.8806762695312,
				-1795.07421875
			],
			"type":"VEC3"
		},
		{
			"bufferView":9,
			"componentType":5126,
			"count":471,
			"type":"VEC3"
		},
		{
			"bufferView":10,
			"componentType":5126,
			"count":471,
			"type":"VEC2"
		},
		{
			"bufferView":11,
			"componentType":5123,
			"count":1230,
			"type":"SCALAR"
		},
		{
			"bufferView":12,
			"componentType":5126,
			"count":634,
			"max":[
				220.72430419921875,
				64.99748992919922,
				2.870363235473633
			],
			"min":[
				-516.893798828125,
				-583.4573364257812,
				-2205.78125
			],
			"type":"VEC3"
		},
		{
			"bufferView":13,
			"componentType":5126,
			"count":634,
			"type":"VEC3"
		},
		{
			"bufferView":14,
			"componentType":5126,
			"count":634,
			"type":"VEC2"
		},
		{
			"bufferView":15,
			"componentType":5123,
			"count":1725,
			"type":"SCALAR"
		},
		{
			"bufferView":16,
			"componentType":5126,
			"count":70,
			"max":[
				-88.39540100097656,
				-60.21692657470703,
				2.870363235473633
			],
			"min":[
				-314.12750244140625,
				-98.86294555664062,
				-200.36073303222656
			],
			"type":"VEC3"
		},
		{
			"bufferView":17,
			"componentType":5126,
			"count":70,
			"type":"VEC3"
		},
		{
			"bufferView":18,
			"componentType":5126,
			"count":70,
			"type":"VEC2"
		},
		{
			"bufferView":19,
			"componentType":5123,
			"count":120,
			"type":"SCALAR"
		},
		{
			"bufferView":20,
			"componentType":5126,
			"count":324,
			"max":[
				-98.06327819824219,
				-70.04253387451172,
				-1.3651905059814453
			],
			"min":[
				-297.97344970703125,
				-78.86663818359375,
				-187.55523681640625
			],
			"type":"VEC3"
		},
		{
			"bufferView":21,
			"componentType":5126,
			"count":324,
			"type":"VEC3"
		},
		{
			"bufferView":22,
			"componentType":5126,
			"count":324,
			"type":"VEC2"
		},
		{
			"bufferView":23,
			"componentType":5123,
			"count":864,
			"type":"SCALAR"
		},
		{
			"bufferView":24,
			"componentType":5126,
			"count":552,
			"max":[
				342.25347900390625,
				-81.75483703613281,
				-243.2732391357422
			],
			"min":[
				285.4881286621094,
				-189.8151092529297,
				-1651.978515625
			],
			"type":"VEC3"
		},
		{
			"bufferView":25,
			"componentType":5126,
			"count":552,
			"type":"VEC3"
		},
		{
			"bufferView":26,
			"componentType":5126,
			"count":552,
			"type":"VEC2"
		},
		{
			"bufferView":27,
			"componentType":5123,
			"count":1464,
			"type":"SCALAR"
		},
		{
			"bufferView":28,
			"componentType":5126,
			"count":2704,
			"max":[
				190.78903198242188,
				12.101507186889648,
				-265.916015625
			],
			"min":[
				-559.9976196289062,
				-650.54150390625,
				-1624.5205078125
			],
			"type":"VEC3"
		},
		{
			"bufferView":29,
			"componentType":5126,
			"count":2704,
			"type":"VEC3"
		},
		{
			"bufferView":30,
			"componentType":5126,
			"count":2704,
			"type":"VEC2"
		},
		{
			"bufferView":31,
			"componentType":5123,
			"count":9792,
			"type":"SCALAR"
		},
		{
			"bufferView":32,
			"componentType":5126,
			"count":835,
			"max":[
				173.54774475097656,
				3.8782119750976562,
				-291.0912170410156
			],
			"min":[
				-529.320068359375,
				-615.3818359375,
				-1614.0968017578125
			],
			"type":"VEC3"
		},
		{
			"bufferView":33,
			"componentType":5126,
			"count":835,
			"type":"VEC3"
		},
		{
			"bufferView":34,
			"componentType":5126,
			"count":835,
			"type":"VEC2"
		},
		{
			"bufferView":35,
			"componentType":5123,
			"count":3486,
			"type":"SCALAR"
		}
	],
	"bufferViews":[
		{
			"buffer":0,
			"byteLength":22872,
			"byteOffset":0,
			"target":34962
		},
		{
			"buffer":0,
			"byteLength":22872,
			"byteOffset":22872,
			"target":34962
		},
		{
			"buffer":0,
			"byteLength":15248,
			"byteOffset":45744,
			"target":34962
		},
		{
			"buffer":0,
			"byteLength":11172,
			"byteOffset":60992,
			"target":34963
		},
		{
			"buffer":0,
			"byteLength":16980,
			"byteOffset":72164,
			"target":34962
		},
		{
			"buffer":0,
			"byteLength":16980,
			"byteOffset":89144,
			"target":34962
		},
		{
			"buffer":0,
			"byteLength":11320,
			"byteOffset":106124,
			"target":34962
		},
		{
			"buffer":0,
			"byteLength":10404,
			"byteOffset":117444,
			"target":34963
		},
		{
			"buffer":0,
			"byteLength":5652,
			"byteOffset":127848,
			"target":34962
		},
		{
			"buffer":0,
			"byteLength":5652,
			"byteOffset":133500,
			"target":34962
		},
		{
			"buffer":0,
			"byteLength":3768,
			"byteOffset":139152,
			"target":34962
		},
		{
			"buffer":0,
			"byteLength":2460,
			"byteOffset":142920,
			"target":34963
		},
		{
			"buffer":0,
			"byteLength":7608,
			"byteOffset":145380,
			"target":34962
		},
		{
			"buffer":0,
			"byteLength":7608,
			"byteOffset":152988,
			"target":34962
		},
		{
			"buffer":0,
			"byteLength":5072,
			"byteOffset":160596,
			"target":34962
		},
		{
			"buffer":0,
			"byteLength":3450,
			"byteOffset":165668,
			"target":34963
		},
		{
			"buffer":0,
			"byteLength":840,
			"byteOffset":169120,
			"target":34962
		},
		{
			"buffer":0,
			"byteLength":840,
			"byteOffset":169960,
			"target":34962
		},
		{
			"buffer":0,
			"byteLength":560,
			"byteOffset":170800,
			"target":34962
		},
		{
			"buffer":0,
			"byteLength":240,
			"byteOffset":171360,
			"target":34963
		},
		{
			"buffer":0,
			"byteLength":3888,
			"byteOffset":171600,
			"target":34962
		},
		{
			"buffer":0,
			"byteLength":3888,
			"byteOffset":175488,
			"target":34962
		},
		{
			"buffer":0,
			"byteLength":2592,
			"byteOffset":179376,
			"target":34962
		},
		{
			"buffer":0,
			"byteLength":1728,
			"byteOffset":181968,
			"target":34963
		},
		{
			"buffer":0,
			"byteLength":6624,
			"byteOffset":183696,
			"target":34962
		},
		{
			"buffer":0,
			"byteLength":6624,
			"byteOffset":190320,
			"target":34962
		},
		{
			"buffer":0,
			"byteLength":4416,
			"byteOffset":196944,
			"target":34962
		},
		{
			"buffer":0,
			"byteLength":2928,
			"byteOffset":201360,
			"target":34963
		},
		{
			"buffer":0,
			"byteLength":32448,
			"byteOffset":204288,
			"target":34962
		},
		{
			"buffer":0,
			"byteLength":32448,
			"byteOffset":236736,
			"target":34962
		},
		{
			"buffer":0,
			"byteLength":21632,
			"byteOffset":269184,
			"target":34962
		},
		{
			"buffer":0,
			"byteLength":19584,
			"byteOffset":290816,
			"target":34963
		},
		{
			"buffer":0,
			"byteLength":10020,
			"byteOffset":310400,
			"target":34962
		},
		{
			"buffer":0,
			"byteLength":10020,
			"byteOffset":320420,
			"target":34962
		},
		{
			"buffer":0,
			"byteLength":6680,
			"byteOffset":330440,
			"target":34962
		},
		{
			"buffer":0,
			"byteLength":6972,
			"byteOffset":337120,
			"target":34963
		}
	],
	"samplers":[
		{
			"magFilter":9729,
			"minFilter":9987
		}
	],
	"buffers":[
		{
			"byteLength":344092,
			"uri":"Building1.bin"
		}
	]
}
