{
	"asset":{
		"generator":"Khronos glTF Blender I/O v4.3.47",
		"version":"2.0"
	},
	"scene":0,
	"scenes":[
		{
			"name":"Scene",
			"nodes":[
				0
			]
		}
	],
	"nodes":[
		{
			"mesh":0,
			"name":"SM_RoadBarrier_01"
		}
	],
	"materials":[
		{
			"doubleSided":true,
			"name":"M_Metal.003",
			"pbrMetallicRoughness":{
				"baseColorFactor":[
					0.03186218813061714,
					0.03186218813061714,
					0.03186218813061714,
					1
				]
			}
		},
		{
			"doubleSided":true,
			"name":"M_Glow_Blue",
			"pbrMetallicRoughness":{
				"baseColorFactor":[
					0,
					0.4978692829608917,
					0.4752711057662964,
					1
				]
			}
		}
	],
	"meshes":[
		{
			"name":"Scene.328",
			"primitives":[
				{
					"attributes":{
						"POSITION":0,
						"NORMAL":1,
						"TEXCOORD_0":2,
						"COLOR_0":3,
						"COLOR_1":4
					},
					"indices":5,
					"material":0
				},
				{
					"attributes":{
						"POSITION":6,
						"NORMAL":7,
						"TEXCOORD_0":8,
						"COLOR_0":9,
						"COLOR_1":10
					},
					"indices":11,
					"material":1
				}
			]
		}
	],
	"accessors":[
		{
			"bufferView":0,
			"componentType":5126,
			"count":238,
			"max":[
				4.500000476837158,
				0.45933738350868225,
				0.04670433700084686
			],
			"min":[
				3.5762786865234375e-07,
				-0.41029903292655945,
				-0.04840761423110962
			],
			"type":"VEC3"
		},
		{
			"bufferView":1,
			"componentType":5126,
			"count":238,
			"type":"VEC3"
		},
		{
			"bufferView":2,
			"componentType":5126,
			"count":238,
			"type":"VEC2"
		},
		{
			"bufferView":3,
			"componentType":5126,
			"count":238,
			"type":"VEC3"
		},
		{
			"bufferView":4,
			"componentType":5123,
			"count":238,
			"normalized":true,
			"type":"VEC4"
		},
		{
			"bufferView":5,
			"componentType":5123,
			"count":516,
			"type":"SCALAR"
		},
		{
			"bufferView":6,
			"componentType":5126,
			"count":8,
			"max":[
				4.500000476837158,
				0.36074531078338623,
				0.016802387312054634
			],
			"min":[
				3.5762786865234375e-07,
				0.33104896545410156,
				-0.018505675718188286
			],
			"type":"VEC3"
		},
		{
			"bufferView":7,
			"componentType":5126,
			"count":8,
			"type":"VEC3"
		},
		{
			"bufferView":8,
			"componentType":5126,
			"count":8,
			"type":"VEC2"
		},
		{
			"bufferView":9,
			"componentType":5126,
			"count":8,
			"type":"VEC3"
		},
		{
			"bufferView":10,
			"componentType":5123,
			"count":8,
			"normalized":true,
			"type":"VEC4"
		},
		{
			"bufferView":11,
			"componentType":5123,
			"count":12,
			"type":"SCALAR"
		}
	],
	"bufferViews":[
		{
			"buffer":0,
			"byteLength":2856,
			"byteOffset":0,
			"target":34962
		},
		{
			"buffer":0,
			"byteLength":2856,
			"byteOffset":2856,
			"target":34962
		},
		{
			"buffer":0,
			"byteLength":1904,
			"byteOffset":5712,
			"target":34962
		},
		{
			"buffer":0,
			"byteLength":2856,
			"byteOffset":7616,
			"target":34962
		},
		{
			"buffer":0,
			"byteLength":1904,
			"byteOffset":10472,
			"target":34962
		},
		{
			"buffer":0,
			"byteLength":1032,
			"byteOffset":12376,
			"target":34963
		},
		{
			"buffer":0,
			"byteLength":96,
			"byteOffset":13408,
			"target":34962
		},
		{
			"buffer":0,
			"byteLength":96,
			"byteOffset":13504,
			"target":34962
		},
		{
			"buffer":0,
			"byteLength":64,
			"byteOffset":13600,
			"target":34962
		},
		{
			"buffer":0,
			"byteLength":96,
			"byteOffset":13664,
			"target":34962
		},
		{
			"buffer":0,
			"byteLength":64,
			"byteOffset":13760,
			"target":34962
		},
		{
			"buffer":0,
			"byteLength":24,
			"byteOffset":13824,
			"target":34963
		}
	],
	"buffers":[
		{
			"byteLength":13848,
			"uri":"RoadBarrier.bin"
		}
	]
}
