{
	"asset":{
		"generator":"Khronos glTF Blender I/O v4.3.47",
		"version":"2.0"
	},
	"scene":0,
	"scenes":[
		{
			"name":"Scene",
			"nodes":[
				1
			]
		}
	],
	"nodes":[
		{
			"mesh":0,
			"name":"SM_StreetLamp"
		},
		{
			"children":[
				0
			],
			"name":"P_StreetLamp"
		}
	],
	"materials":[
		{
			"doubleSided":true,
			"name":"M_BuildingAtlas_01",
			"pbrMetallicRoughness":{
				"baseColorTexture":{
					"index":0
				}
			}
		},
		{
			"doubleSided":true,
			"name":"M_Glow_Yellow",
			"pbrMetallicRoughness":{
				"baseColorFactor":[
					0.4644542336463928,
					0.4966878890991211,
					0,
					1
				],
				"metallicFactor":0,
				"roughnessFactor":0.5527864098548889
			}
		}
	],
	"meshes":[
		{
			"name":"Scene",
			"primitives":[
				{
					"attributes":{
						"POSITION":0,
						"NORMAL":1,
						"TEXCOORD_0":2,
						"TEXCOORD_1":3,
						"COLOR_0":4,
						"COLOR_1":5
					},
					"indices":6,
					"material":0
				},
				{
					"attributes":{
						"POSITION":7,
						"NORMAL":8,
						"TEXCOORD_0":9,
						"TEXCOORD_1":10,
						"COLOR_0":11,
						"COLOR_1":12
					},
					"indices":13,
					"material":1
				}
			]
		}
	],
	"textures":[
		{
			"sampler":0,
			"source":0
		}
	],
	"images":[
		{
			"mimeType":"image/png",
			"name":"T_BuildingAtlas_01_BC",
			"uri":"T_BuildingAtlas_01_BC.png"
		}
	],
	"accessors":[
		{
			"bufferView":0,
			"componentType":5126,
			"count":1146,
			"max":[
				0.2945917546749115,
				6.452209949493408,
				1.4797861576080322
			],
			"min":[
				-0.03007679060101509,
				-8.683269214770917e-08,
				-0.2945908010005951
			],
			"type":"VEC3"
		},
		{
			"bufferView":1,
			"componentType":5126,
			"count":1146,
			"type":"VEC3"
		},
		{
			"bufferView":2,
			"componentType":5126,
			"count":1146,
			"type":"VEC2"
		},
		{
			"bufferView":3,
			"componentType":5126,
			"count":1146,
			"type":"VEC2"
		},
		{
			"bufferView":4,
			"componentType":5126,
			"count":1146,
			"type":"VEC3"
		},
		{
			"bufferView":5,
			"componentType":5123,
			"count":1146,
			"normalized":true,
			"type":"VEC4"
		},
		{
			"bufferView":6,
			"componentType":5123,
			"count":3576,
			"type":"SCALAR"
		},
		{
			"bufferView":7,
			"componentType":5126,
			"count":136,
			"max":[
				0.19930696487426758,
				6.34722900390625,
				1.4535056352615356
			],
			"min":[
				0.0652025043964386,
				6.286922454833984,
				0.7874076962471008
			],
			"type":"VEC3"
		},
		{
			"bufferView":8,
			"componentType":5126,
			"count":136,
			"type":"VEC3"
		},
		{
			"bufferView":9,
			"componentType":5126,
			"count":136,
			"type":"VEC2"
		},
		{
			"bufferView":10,
			"componentType":5126,
			"count":136,
			"type":"VEC2"
		},
		{
			"bufferView":11,
			"componentType":5126,
			"count":136,
			"type":"VEC3"
		},
		{
			"bufferView":12,
			"componentType":5123,
			"count":136,
			"normalized":true,
			"type":"VEC4"
		},
		{
			"bufferView":13,
			"componentType":5123,
			"count":288,
			"type":"SCALAR"
		}
	],
	"bufferViews":[
		{
			"buffer":0,
			"byteLength":13752,
			"byteOffset":0,
			"target":34962
		},
		{
			"buffer":0,
			"byteLength":13752,
			"byteOffset":13752,
			"target":34962
		},
		{
			"buffer":0,
			"byteLength":9168,
			"byteOffset":27504,
			"target":34962
		},
		{
			"buffer":0,
			"byteLength":9168,
			"byteOffset":36672,
			"target":34962
		},
		{
			"buffer":0,
			"byteLength":13752,
			"byteOffset":45840,
			"target":34962
		},
		{
			"buffer":0,
			"byteLength":9168,
			"byteOffset":59592,
			"target":34962
		},
		{
			"buffer":0,
			"byteLength":7152,
			"byteOffset":68760,
			"target":34963
		},
		{
			"buffer":0,
			"byteLength":1632,
			"byteOffset":75912,
			"target":34962
		},
		{
			"buffer":0,
			"byteLength":1632,
			"byteOffset":77544,
			"target":34962
		},
		{
			"buffer":0,
			"byteLength":1088,
			"byteOffset":79176,
			"target":34962
		},
		{
			"buffer":0,
			"byteLength":1088,
			"byteOffset":80264,
			"target":34962
		},
		{
			"buffer":0,
			"byteLength":1632,
			"byteOffset":81352,
			"target":34962
		},
		{
			"buffer":0,
			"byteLength":1088,
			"byteOffset":82984,
			"target":34962
		},
		{
			"buffer":0,
			"byteLength":576,
			"byteOffset":84072,
			"target":34963
		}
	],
	"samplers":[
		{
			"magFilter":9729,
			"minFilter":9987
		}
	],
	"buffers":[
		{
			"byteLength":84648,
			"uri":"StreetLamp.bin"
		}
	]
}
