{
	"asset":{
		"generator":"Khronos glTF Blender I/O v4.3.47",
		"version":"2.0"
	},
	"scene":0,
	"scenes":[
		{
			"name":"Scene",
			"nodes":[
				0
			]
		}
	],
	"nodes":[
		{
			"mesh":0,
			"name":"SM_BGBuilding1",
			"rotation":[
				0.704416036605835,
				-0.06162841618061066,
				0.06162842735648155,
				0.704416036605835
			],
			"scale":[
				0.009999998845160007,
				0.017500000074505806,
				0.029999999329447746
			]
		}
	],
	"materials":[
		{
			"doubleSided":true,
			"name":"M_Wall2",
			"pbrMetallicRoughness":{
				"baseColorTexture":{
					"index":0
				},
				"metallicFactor":0,
				"roughnessFactor":0.5527864098548889
			}
		},
		{
			"doubleSided":true,
			"name":"M_BuildingAtlas_01",
			"pbrMetallicRoughness":{
				"metallicFactor":0,
				"roughnessFactor":0.5527864098548889
			}
		},
		{
			"doubleSided":true,
			"name":"Window01",
			"pbrMetallicRoughness":{
				"metallicFactor":0,
				"roughnessFactor":0.5527864098548889
			}
		},
		{
			"doubleSided":true,
			"name":"Window01_bright",
			"pbrMetallicRoughness":{
				"metallicFactor":0,
				"roughnessFactor":0.5527864098548889
			}
		}
	],
	"meshes":[
		{
			"name":"Scene",
			"primitives":[
				{
					"attributes":{
						"POSITION":0,
						"NORMAL":1,
						"TEXCOORD_0":2,
						"TEXCOORD_1":3,
						"TEXCOORD_2":4,
						"TEXCOORD_3":5,
						"TEXCOORD_4":6
					},
					"indices":7,
					"material":0
				},
				{
					"attributes":{
						"POSITION":8,
						"NORMAL":9,
						"TEXCOORD_0":10,
						"TEXCOORD_1":11,
						"TEXCOORD_2":12,
						"TEXCOORD_3":13,
						"TEXCOORD_4":14
					},
					"indices":15,
					"material":1
				},
				{
					"attributes":{
						"POSITION":16,
						"NORMAL":17,
						"TEXCOORD_0":18,
						"TEXCOORD_1":19,
						"TEXCOORD_2":20,
						"TEXCOORD_3":21,
						"TEXCOORD_4":22
					},
					"indices":23,
					"material":2
				},
				{
					"attributes":{
						"POSITION":24,
						"NORMAL":25,
						"TEXCOORD_0":26,
						"TEXCOORD_1":27,
						"TEXCOORD_2":28,
						"TEXCOORD_3":29,
						"TEXCOORD_4":30
					},
					"indices":31,
					"material":3
				}
			]
		}
	],
	"textures":[
		{
			"sampler":0,
			"source":0
		}
	],
	"images":[
		{
			"mimeType":"image/png",
			"name":"T_Asphalt_BC",
			"uri":"T_Asphalt_BC.png"
		}
	],
	"accessors":[
		{
			"bufferView":0,
			"componentType":5126,
			"count":200,
			"max":[
				1695.048583984375,
				1695.04833984375,
				0.0002761584473773837
			],
			"min":[
				-1695.048583984375,
				-1695.0504150390625,
				-11877.857421875
			],
			"type":"VEC3"
		},
		{
			"bufferView":1,
			"componentType":5126,
			"count":200,
			"type":"VEC3"
		},
		{
			"bufferView":2,
			"componentType":5126,
			"count":200,
			"type":"VEC2"
		},
		{
			"bufferView":3,
			"componentType":5126,
			"count":200,
			"type":"VEC2"
		},
		{
			"bufferView":4,
			"componentType":5126,
			"count":200,
			"type":"VEC2"
		},
		{
			"bufferView":5,
			"componentType":5126,
			"count":200,
			"type":"VEC2"
		},
		{
			"bufferView":6,
			"componentType":5126,
			"count":200,
			"type":"VEC2"
		},
		{
			"bufferView":7,
			"componentType":5123,
			"count":468,
			"type":"SCALAR"
		},
		{
			"bufferView":8,
			"componentType":5126,
			"count":1093,
			"max":[
				1679.0010986328125,
				1673.620361328125,
				-776.4620971679688
			],
			"min":[
				-1678.9971923828125,
				-1673.6219482421875,
				-10017.3857421875
			],
			"type":"VEC3"
		},
		{
			"bufferView":9,
			"componentType":5126,
			"count":1093,
			"type":"VEC3"
		},
		{
			"bufferView":10,
			"componentType":5126,
			"count":1093,
			"type":"VEC2"
		},
		{
			"bufferView":11,
			"componentType":5126,
			"count":1093,
			"type":"VEC2"
		},
		{
			"bufferView":12,
			"componentType":5126,
			"count":1093,
			"type":"VEC2"
		},
		{
			"bufferView":13,
			"componentType":5126,
			"count":1093,
			"type":"VEC2"
		},
		{
			"bufferView":14,
			"componentType":5126,
			"count":1093,
			"type":"VEC2"
		},
		{
			"bufferView":15,
			"componentType":5123,
			"count":1620,
			"type":"SCALAR"
		},
		{
			"bufferView":16,
			"componentType":5126,
			"count":311,
			"max":[
				1665.048583984375,
				1665.0482177734375,
				-278.5411376953125
			],
			"min":[
				-1665.0484619140625,
				-1665.0499267578125,
				-10424.5205078125
			],
			"type":"VEC3"
		},
		{
			"bufferView":17,
			"componentType":5126,
			"count":311,
			"type":"VEC3"
		},
		{
			"bufferView":18,
			"componentType":5126,
			"count":311,
			"type":"VEC2"
		},
		{
			"bufferView":19,
			"componentType":5126,
			"count":311,
			"type":"VEC2"
		},
		{
			"bufferView":20,
			"componentType":5126,
			"count":311,
			"type":"VEC2"
		},
		{
			"bufferView":21,
			"componentType":5126,
			"count":311,
			"type":"VEC2"
		},
		{
			"bufferView":22,
			"componentType":5126,
			"count":311,
			"type":"VEC2"
		},
		{
			"bufferView":23,
			"componentType":5123,
			"count":465,
			"type":"SCALAR"
		},
		{
			"bufferView":24,
			"componentType":5126,
			"count":61,
			"max":[
				1665.048583984375,
				1665.0482177734375,
				-799.999755859375
			],
			"min":[
				-1665.0484619140625,
				-1665.049560546875,
				-8800.0087890625
			],
			"type":"VEC3"
		},
		{
			"bufferView":25,
			"componentType":5126,
			"count":61,
			"type":"VEC3"
		},
		{
			"bufferView":26,
			"componentType":5126,
			"count":61,
			"type":"VEC2"
		},
		{
			"bufferView":27,
			"componentType":5126,
			"count":61,
			"type":"VEC2"
		},
		{
			"bufferView":28,
			"componentType":5126,
			"count":61,
			"type":"VEC2"
		},
		{
			"bufferView":29,
			"componentType":5126,
			"count":61,
			"type":"VEC2"
		},
		{
			"bufferView":30,
			"componentType":5126,
			"count":61,
			"type":"VEC2"
		},
		{
			"bufferView":31,
			"componentType":5123,
			"count":93,
			"type":"SCALAR"
		}
	],
	"bufferViews":[
		{
			"buffer":0,
			"byteLength":2400,
			"byteOffset":0,
			"target":34962
		},
		{
			"buffer":0,
			"byteLength":2400,
			"byteOffset":2400,
			"target":34962
		},
		{
			"buffer":0,
			"byteLength":1600,
			"byteOffset":4800,
			"target":34962
		},
		{
			"buffer":0,
			"byteLength":1600,
			"byteOffset":6400,
			"target":34962
		},
		{
			"buffer":0,
			"byteLength":1600,
			"byteOffset":8000,
			"target":34962
		},
		{
			"buffer":0,
			"byteLength":1600,
			"byteOffset":9600,
			"target":34962
		},
		{
			"buffer":0,
			"byteLength":1600,
			"byteOffset":11200,
			"target":34962
		},
		{
			"buffer":0,
			"byteLength":936,
			"byteOffset":12800,
			"target":34963
		},
		{
			"buffer":0,
			"byteLength":13116,
			"byteOffset":13736,
			"target":34962
		},
		{
			"buffer":0,
			"byteLength":13116,
			"byteOffset":26852,
			"target":34962
		},
		{
			"buffer":0,
			"byteLength":8744,
			"byteOffset":39968,
			"target":34962
		},
		{
			"buffer":0,
			"byteLength":8744,
			"byteOffset":48712,
			"target":34962
		},
		{
			"buffer":0,
			"byteLength":8744,
			"byteOffset":57456,
			"target":34962
		},
		{
			"buffer":0,
			"byteLength":8744,
			"byteOffset":66200,
			"target":34962
		},
		{
			"buffer":0,
			"byteLength":8744,
			"byteOffset":74944,
			"target":34962
		},
		{
			"buffer":0,
			"byteLength":3240,
			"byteOffset":83688,
			"target":34963
		},
		{
			"buffer":0,
			"byteLength":3732,
			"byteOffset":86928,
			"target":34962
		},
		{
			"buffer":0,
			"byteLength":3732,
			"byteOffset":90660,
			"target":34962
		},
		{
			"buffer":0,
			"byteLength":2488,
			"byteOffset":94392,
			"target":34962
		},
		{
			"buffer":0,
			"byteLength":2488,
			"byteOffset":96880,
			"target":34962
		},
		{
			"buffer":0,
			"byteLength":2488,
			"byteOffset":99368,
			"target":34962
		},
		{
			"buffer":0,
			"byteLength":2488,
			"byteOffset":101856,
			"target":34962
		},
		{
			"buffer":0,
			"byteLength":2488,
			"byteOffset":104344,
			"target":34962
		},
		{
			"buffer":0,
			"byteLength":930,
			"byteOffset":106832,
			"target":34963
		},
		{
			"buffer":0,
			"byteLength":732,
			"byteOffset":107764,
			"target":34962
		},
		{
			"buffer":0,
			"byteLength":732,
			"byteOffset":108496,
			"target":34962
		},
		{
			"buffer":0,
			"byteLength":488,
			"byteOffset":109228,
			"target":34962
		},
		{
			"buffer":0,
			"byteLength":488,
			"byteOffset":109716,
			"target":34962
		},
		{
			"buffer":0,
			"byteLength":488,
			"byteOffset":110204,
			"target":34962
		},
		{
			"buffer":0,
			"byteLength":488,
			"byteOffset":110692,
			"target":34962
		},
		{
			"buffer":0,
			"byteLength":488,
			"byteOffset":111180,
			"target":34962
		},
		{
			"buffer":0,
			"byteLength":186,
			"byteOffset":111668,
			"target":34963
		}
	],
	"samplers":[
		{
			"magFilter":9729,
			"minFilter":9987
		}
	],
	"buffers":[
		{
			"byteLength":111856,
			"uri":"B12.bin"
		}
	]
}
