{
	"asset":{
		"generator":"Khronos glTF Blender I/O v4.3.47",
		"version":"2.0"
	},
	"scene":0,
	"scenes":[
		{
			"name":"Scene",
			"nodes":[
				0
			]
		}
	],
	"nodes":[
		{
			"mesh":0,
			"name":"Recorder-Freepoly.org",
			"translation":[
				-1.5644557476043701,
				-0.12458401918411255,
				0.4454123079776764
			]
		}
	],
	"materials":[
		{
			"doubleSided":true,
			"name":"\u6750\u8d28.019",
			"normalTexture":{
				"index":0
			},
			"pbrMetallicRoughness":{
				"baseColorTexture":{
					"index":1
				},
				"metallicRoughnessTexture":{
					"index":2
				}
			}
		}
	],
	"meshes":[
		{
			"name":"Box011",
			"primitives":[
				{
					"attributes":{
						"POSITION":0,
						"NORMAL":1,
						"TEXCOORD_0":2
					},
					"indices":3,
					"material":0
				}
			]
		}
	],
	"textures":[
		{
			"sampler":0,
			"source":0
		},
		{
			"sampler":0,
			"source":1
		},
		{
			"sampler":0,
			"source":2
		}
	],
	"images":[
		{
			"mimeType":"image/png",
			"name":"hr_DefaultMaterial_Normal",
			"uri":"hr_DefaultMaterial_Normal.png"
		},
		{
			"mimeType":"image/png",
			"name":"hr_DefaultMaterial_BaseColor",
			"uri":"hr_DefaultMaterial_BaseColor.png"
		},
		{
			"mimeType":"image/png",
			"name":"hr_DefaultMaterial_Metallic-hr_DefaultMaterial_Roughness",
			"uri":"hr_DefaultMaterial_Metallic-hr_DefaultMaterial_Roughness.png"
		}
	],
	"accessors":[
		{
			"bufferView":0,
			"componentType":5126,
			"count":4294,
			"max":[
				0.1489400863647461,
				0.06947153806686401,
				0.07774356007575989
			],
			"min":[
				-0.11082947254180908,
				0,
				-0.1563452184200287
			],
			"type":"VEC3"
		},
		{
			"bufferView":1,
			"componentType":5126,
			"count":4294,
			"type":"VEC3"
		},
		{
			"bufferView":2,
			"componentType":5126,
			"count":4294,
			"type":"VEC2"
		},
		{
			"bufferView":3,
			"componentType":5123,
			"count":12528,
			"type":"SCALAR"
		}
	],
	"bufferViews":[
		{
			"buffer":0,
			"byteLength":51528,
			"byteOffset":0,
			"target":34962
		},
		{
			"buffer":0,
			"byteLength":51528,
			"byteOffset":51528,
			"target":34962
		},
		{
			"buffer":0,
			"byteLength":34352,
			"byteOffset":103056,
			"target":34962
		},
		{
			"buffer":0,
			"byteLength":25056,
			"byteOffset":137408,
			"target":34963
		}
	],
	"samplers":[
		{
			"magFilter":9729,
			"minFilter":9987
		}
	],
	"buffers":[
		{
			"byteLength":162464,
			"uri":"Recorder.bin"
		}
	]
}
