{
	"asset":{
		"generator":"Khronos glTF Blender I/O v4.3.47",
		"version":"2.0"
	},
	"scene":0,
	"scenes":[
		{
			"name":"Scene",
			"nodes":[
				0,
				1,
				2,
				3,
				4,
				5,
				6,
				7,
				8,
				9,
				10,
				11,
				12,
				13,
				14,
				15,
				16,
				17,
				18,
				19,
				20,
				21,
				22,
				23,
				24,
				25,
				26,
				27,
				28,
				29,
				30,
				31,
				32,
				33,
				34,
				35,
				36,
				37,
				38,
				39,
				40,
				41
			]
		}
	],
	"nodes":[
		{
			"mesh":0,
			"name":"Pavement",
			"rotation":[
				0,
				0,
				-1,
				4.371138473402425e-08
			],
			"scale":[
				0.039142537862062454,
				0.010000001639127731,
				0.0981910228729248
			],
			"translation":[
				184.38380432128906,
				0.2899962067604065,
				28.374004364013672
			]
		},
		{
			"mesh":0,
			"name":"Pavement_1",
			"rotation":[
				0,
				0,
				-1,
				4.3711395392165286e-08
			],
			"scale":[
				0.05417121946811676,
				0.010000001639127731,
				0.03886400908231735
			],
			"translation":[
				188.55799865722656,
				0.28999656438827515,
				25.407501220703125
			]
		},
		{
			"mesh":0,
			"name":"Pavement_10",
			"rotation":[
				0,
				0,
				-1,
				4.371138828673793e-08
			],
			"scale":[
				0.3684510290622711,
				0.010000001639127731,
				0.12105324864387512
			],
			"translation":[
				90.10900115966797,
				0.28999102115631104,
				66.95060729980469
			]
		},
		{
			"mesh":0,
			"name":"Pavement_11",
			"rotation":[
				0,
				0,
				-1,
				4.3711395392165286e-08
			],
			"scale":[
				0.058510035276412964,
				0.010000001639127731,
				0.0477781742811203
			],
			"translation":[
				105.60659790039062,
				0.2899921238422394,
				58.533103942871094
			]
		},
		{
			"mesh":0,
			"name":"Pavement_12",
			"rotation":[
				0,
				0,
				-1,
				4.3711395392165286e-08
			],
			"scale":[
				0.2517012059688568,
				0.010000001639127731,
				0.04975141957402229
			],
			"translation":[
				84.38400268554688,
				0.28999215364456177,
				58.63160705566406
			]
		},
		{
			"mesh":0,
			"name":"Pavement_13",
			"rotation":[
				0,
				0,
				-1,
				4.371138828673793e-08
			],
			"scale":[
				0.7505568265914917,
				0.010000001639127731,
				0.04495682567358017
			],
			"translation":[
				165.15179443359375,
				0.2899952530860901,
				35.313499450683594
			]
		},
		{
			"mesh":0,
			"name":"Pavement_14",
			"rotation":[
				0,
				0,
				-1,
				4.371138828673793e-08
			],
			"scale":[
				0.11917849630117416,
				0.010000001639127731,
				0.3808649778366089
			],
			"translation":[
				196.7203826904297,
				0.2899981141090393,
				14.237500190734863
			]
		},
		{
			"mesh":0,
			"name":"Pavement_2",
			"rotation":[
				-0.38152578473091125,
				0,
				-0.9243581891059875,
				4.670410902463118e-08
			],
			"scale":[
				0.044541265815496445,
				0.010000000707805157,
				0.0860888734459877
			],
			"translation":[
				120.16390228271484,
				0.2899914085865021,
				64.15120697021484
			]
		},
		{
			"mesh":0,
			"name":"Pavement_3",
			"rotation":[
				0,
				0,
				-1,
				4.371138828673793e-08
			],
			"scale":[
				0.13980773091316223,
				0.010000001639127731,
				0.0751672089099884
			],
			"translation":[
				143.8791046142578,
				0.2899959683418274,
				30.2528018951416
			]
		},
		{
			"mesh":0,
			"name":"Pavement_4",
			"rotation":[
				0,
				0,
				-1,
				4.3711395392165286e-08
			],
			"scale":[
				0.1817324459552765,
				0.010000001639127731,
				0.0913480743765831
			],
			"translation":[
				181.68118286132812,
				0.2900000214576721,
				-0.23799996078014374
			]
		},
		{
			"mesh":0,
			"name":"Pavement_5",
			"rotation":[
				-0.34079113602638245,
				0,
				-0.9401390552520752,
				5.4504287305690013e-08
			],
			"scale":[
				0.5676436424255371,
				0.01000000350177288,
				0.062113095074892044
			],
			"translation":[
				152.7006072998047,
				0.28999775648117065,
				16.931102752685547
			]
		},
		{
			"mesh":0,
			"name":"Pavement_6",
			"rotation":[
				-0.34079113602638245,
				0,
				-0.9401390552520752,
				5.4504283752976335e-08
			],
			"scale":[
				0.14619968831539154,
				0.01000000350177288,
				0.09783568233251572
			],
			"translation":[
				172.96029663085938,
				0.2899986803531647,
				9.962100982666016
			]
		},
		{
			"mesh":0,
			"name":"Pavement_7",
			"rotation":[
				-0.41614627838134766,
				0,
				0.9092977046966553,
				4.902987882360321e-08
			],
			"scale":[
				0.027378691360354424,
				0.010000001639127731,
				0.04832223430275917
			],
			"translation":[
				127.90999603271484,
				0.2899951934814453,
				35.67000198364258
			]
		},
		{
			"mesh":0,
			"name":"Pavement_8",
			"rotation":[
				0,
				0,
				-1,
				4.3711395392165286e-08
			],
			"scale":[
				0.8571417331695557,
				0.010000001639127731,
				0.15613165497779846
			],
			"translation":[
				158.67100524902344,
				0.28999263048171997,
				54.91569900512695
			]
		},
		{
			"mesh":0,
			"name":"Pavement_9",
			"rotation":[
				0,
				0,
				-1,
				4.371138828673793e-08
			],
			"scale":[
				0.3684510290622711,
				0.010000001639127731,
				0.09080801904201508
			],
			"translation":[
				90.10900115966797,
				0.289993017911911,
				51.81500244140625
			]
		},
		{
			"mesh":0,
			"name":"Pavement__10_",
			"rotation":[
				0,
				0,
				-1,
				4.371138828673793e-08
			],
			"scale":[
				0.5784264802932739,
				0.010000001639127731,
				0.19988641142845154
			],
			"translation":[
				243.46499633789062,
				0.2899923026561737,
				57.33110427856445
			]
		},
		{
			"mesh":0,
			"name":"Pavement__11_",
			"rotation":[
				0,
				0,
				-1,
				4.3711395392165286e-08
			],
			"scale":[
				0.5484241843223572,
				0.010000001639127731,
				0.3628070056438446
			],
			"translation":[
				174.1071014404297,
				0.2899894416332245,
				78.58960723876953
			]
		},
		{
			"mesh":0,
			"name":"Pavement__12_",
			"rotation":[
				0,
				0,
				-1,
				4.3711395392165286e-08
			],
			"scale":[
				0.41234278678894043,
				0.010000001639127731,
				0.4243341088294983
			],
			"translation":[
				235.091796875,
				0.28999781608581543,
				16.390501022338867
			]
		},
		{
			"mesh":0,
			"name":"Pavement__13_",
			"rotation":[
				0,
				0,
				-1,
				4.371138828673793e-08
			],
			"scale":[
				0.03145599365234375,
				0.010000001639127731,
				0.32472702860832214
			],
			"translation":[
				119.75520324707031,
				0.28999850153923035,
				11.137201309204102
			]
		},
		{
			"mesh":0,
			"name":"Pavement__14_",
			"rotation":[
				-0.42469173669815063,
				0,
				0.9053380489349365,
				7.067740170896286e-08
			],
			"scale":[
				0.05451694130897522,
				0.010000001639127731,
				0.45543643832206726
			],
			"translation":[
				137.35000610351562,
				0.2899985611438751,
				10.750000953674316
			]
		},
		{
			"mesh":0,
			"name":"Pavement__15_",
			"rotation":[
				0,
				0,
				-1,
				4.371138473402425e-08
			],
			"scale":[
				0.33228355646133423,
				0.010000001639127731,
				0.0639616847038269
			],
			"translation":[
				137.30630493164062,
				0.2900002896785736,
				-1.9003000259399414
			]
		},
		{
			"mesh":0,
			"name":"Pavement__16_",
			"rotation":[
				0,
				0,
				-1,
				4.371138828673793e-08
			],
			"scale":[
				0.24151434004306793,
				0.010000001639127731,
				0.07437651604413986
			],
			"translation":[
				132.51060485839844,
				0.28999990224838257,
				0.8168001174926758
			]
		},
		{
			"mesh":0,
			"name":"Pavement__17_",
			"rotation":[
				0.6941618919372559,
				0,
				-0.7198189496994019,
				8.595237659392296e-07
			],
			"scale":[
				0.03369282931089401,
				0.010000001639127731,
				0.0438581258058548
			],
			"translation":[
				155.98789978027344,
				0.2900004982948303,
				-3.834400177001953
			]
		},
		{
			"mesh":0,
			"name":"Pavement__18_",
			"rotation":[
				-0.21587470173835754,
				0,
				0.976421058177948,
				3.557576633284043e-08
			],
			"scale":[
				0.030296115204691887,
				0.010000000707805157,
				0.024815266951918602
			],
			"translation":[
				119.44640350341797,
				0.28999632596969604,
				27.455001831054688
			]
		},
		{
			"mesh":0,
			"name":"Pavement__19_",
			"rotation":[
				0,
				0,
				-1,
				4.3711395392165286e-08
			],
			"scale":[
				0.0756606012582779,
				0.010000001639127731,
				0.16418525576591492
			],
			"translation":[
				125.11750030517578,
				0.2899983525276184,
				12.273600578308105
			]
		},
		{
			"mesh":0,
			"name":"Pavement__1_",
			"rotation":[
				0,
				0,
				-1,
				4.3711395392165286e-08
			],
			"scale":[
				0.3482401669025421,
				0.010000001639127731,
				0.4074600636959076
			],
			"translation":[
				91.18370056152344,
				0.2899976372718811,
				17.50760269165039
			]
		},
		{
			"mesh":0,
			"name":"Pavement__20_",
			"rotation":[
				-0.4365357458591461,
				0,
				0.8996869325637817,
				9.254648603018722e-08
			],
			"scale":[
				0.09559469670057297,
				0.010000000707805157,
				0.1620672196149826
			],
			"translation":[
				132.8925018310547,
				0.28999900817871094,
				7.226600646972656
			]
		},
		{
			"mesh":0,
			"name":"Pavement__21_",
			"rotation":[
				0,
				0,
				-1,
				4.371138828673793e-08
			],
			"scale":[
				0.027400009334087372,
				0.010000001639127731,
				0.02250000461935997
			],
			"translation":[
				148.33799743652344,
				2.53953218460083,
				36.58100509643555
			]
		},
		{
			"mesh":1,
			"name":"Pavement__22_",
			"rotation":[
				-1,
				0,
				0,
				1.3435884227419592e-07
			],
			"scale":[
				-0.02550000324845314,
				-0.010000001639127731,
				-0.02250000461935997
			],
			"translation":[
				148.25498962402344,
				2.3389952182769775,
				36.58100509643555
			]
		},
		{
			"mesh":0,
			"name":"Pavement__23_",
			"rotation":[
				0,
				0,
				-1,
				4.371138118131057e-08
			],
			"scale":[
				0.02900001034140587,
				0.010000001639127731,
				0.02250000461935997
			],
			"translation":[
				148.17799377441406,
				2.681993246078491,
				49.23199462890625
			]
		},
		{
			"mesh":1,
			"name":"Pavement__24_",
			"rotation":[
				-1,
				0,
				0,
				1.3435884227419592e-07
			],
			"scale":[
				-0.02900000289082527,
				-0.010000001639127731,
				-0.02250000461935997
			],
			"translation":[
				148.16700744628906,
				2.4809935092926025,
				49.19000244140625
			]
		},
		{
			"mesh":0,
			"name":"Pavement__25_",
			"rotation":[
				-0.70710688829422,
				0,
				-0.7071066498756409,
				8.964988040816024e-08
			],
			"scale":[
				0.032999999821186066,
				0.009999999776482582,
				0.022499997168779373
			],
			"translation":[
				119.61698913574219,
				2.668992519378662,
				57.13200759887695
			]
		},
		{
			"mesh":1,
			"name":"Pavement__26_",
			"rotation":[
				-0.7071068286895752,
				0,
				0.7071068286895752,
				1.1072333450101723e-07
			],
			"scale":[
				-0.032500009983778,
				-0.01000000350177288,
				-0.02250000089406967
			],
			"translation":[
				119.56700897216797,
				2.476992607116699,
				57.087005615234375
			]
		},
		{
			"mesh":0,
			"name":"Pavement__27_",
			"rotation":[
				0.7071068286895752,
				0.0001727020280668512,
				-0.7071067094802856,
				0.00017256487626582384
			],
			"scale":[
				0.027400001883506775,
				0.010000002570450306,
				0.02250000275671482
			],
			"translation":[
				174.12620544433594,
				2.539999485015869,
				5.566000461578369
			]
		},
		{
			"mesh":0,
			"name":"Pavement__2_",
			"rotation":[
				0,
				0,
				-1,
				4.3711395392165286e-08
			],
			"scale":[
				0.34592247009277344,
				0.010000001639127731,
				0.6031224131584167
			],
			"translation":[
				46.45000076293945,
				0.28999897837638855,
				7.727301120758057
			]
		},
		{
			"mesh":0,
			"name":"Pavement__3_",
			"rotation":[
				0,
				0,
				-1,
				4.3711395392165286e-08
			],
			"scale":[
				0.41407492756843567,
				0.010000001639127731,
				0.035275135189294815
			],
			"translation":[
				84.14070129394531,
				0.29000231623649597,
				-17.0570011138916
			]
		},
		{
			"mesh":0,
			"name":"Pavement__4_",
			"rotation":[
				-0.3892759084701538,
				0,
				-0.9211211800575256,
				5.077909204231901e-09
			],
			"scale":[
				0.04285673797130585,
				0.009999999776482582,
				0.04033711552619934
			],
			"translation":[
				64.09850311279297,
				0.2900020480155945,
				-15.106399536132812
			]
		},
		{
			"mesh":0,
			"name":"Pavement__5_",
			"rotation":[
				0,
				0,
				-1,
				4.371138473402425e-08
			],
			"scale":[
				0.521651566028595,
				0.010000001639127731,
				0.12470820546150208
			],
			"translation":[
				147.54859924316406,
				0.29000288248062134,
				-21.53160285949707
			]
		},
		{
			"mesh":0,
			"name":"Pavement__6_",
			"rotation":[
				0,
				0,
				-1,
				4.371138118131057e-08
			],
			"scale":[
				1.013410210609436,
				0.010000001639127731,
				0.12470820546150208
			],
			"translation":[
				239.077880859375,
				0.29000288248062134,
				-21.530000686645508
			]
		},
		{
			"mesh":0,
			"name":"Pavement__7_",
			"rotation":[
				0,
				0,
				-1,
				4.371138828673793e-08
			],
			"scale":[
				0.2291085124015808,
				0.010000001639127731,
				0.9013276696205139
			],
			"translation":[
				278.2934875488281,
				0.2899976968765259,
				17.300199508666992
			]
		},
		{
			"mesh":0,
			"name":"Pavement__8_",
			"rotation":[
				-0.37583813071250916,
				0,
				-0.9266854524612427,
				4.175160661645805e-09
			],
			"scale":[
				0.045498158782720566,
				0.01000000536441803,
				0.07258879393339157
			],
			"translation":[
				266.8641052246094,
				0.29000216722488403,
				-15.879402160644531
			]
		},
		{
			"mesh":0,
			"name":"Pavement__9_",
			"rotation":[
				-0.3758380115032196,
				0,
				-0.9266853928565979,
				2.5248583668258107e-08
			],
			"scale":[
				0.054005518555641174,
				0.010000001639127731,
				0.05139361694455147
			],
			"translation":[
				267.1059875488281,
				0.28999361395835876,
				47.74859619140625
			]
		}
	],
	"materials":[
		{
			"doubleSided":true,
			"name":"M_Pavement_Checker",
			"pbrMetallicRoughness":{
				"baseColorTexture":{
					"index":0
				},
				"metallicFactor":0,
				"roughnessFactor":0.5527864098548889
			}
		},
		{
			"doubleSided":true,
			"name":"M_Concrete_WS",
			"pbrMetallicRoughness":{
				"metallicFactor":0,
				"roughnessFactor":0.5527864098548889
			}
		}
	],
	"meshes":[
		{
			"name":"Scene.011",
			"primitives":[
				{
					"attributes":{
						"POSITION":0,
						"NORMAL":1,
						"TEXCOORD_0":2
					},
					"indices":3,
					"material":0
				}
			]
		},
		{
			"name":"Scene.012",
			"primitives":[
				{
					"attributes":{
						"POSITION":4,
						"NORMAL":5,
						"TEXCOORD_0":6
					},
					"indices":3,
					"material":1
				}
			]
		}
	],
	"textures":[
		{
			"sampler":0,
			"source":0
		}
	],
	"images":[
		{
			"mimeType":"image/png",
			"name":"T_Pavement_Checker_BC",
			"uri":"T_Pavement_Checker_BC.png"
		}
	],
	"accessors":[
		{
			"bufferView":0,
			"componentType":5126,
			"count":4,
			"max":[
				50,
				3.0616168932349032e-15,
				50
			],
			"min":[
				-50,
				-3.0616168932349032e-15,
				-50
			],
			"type":"VEC3"
		},
		{
			"bufferView":1,
			"componentType":5126,
			"count":4,
			"type":"VEC3"
		},
		{
			"bufferView":2,
			"componentType":5126,
			"count":4,
			"type":"VEC2"
		},
		{
			"bufferView":3,
			"componentType":5123,
			"count":6,
			"type":"SCALAR"
		},
		{
			"bufferView":4,
			"componentType":5126,
			"count":4,
			"max":[
				50,
				3.0616168932349032e-15,
				50
			],
			"min":[
				-50,
				-3.0616168932349032e-15,
				-50
			],
			"type":"VEC3"
		},
		{
			"bufferView":5,
			"componentType":5126,
			"count":4,
			"type":"VEC3"
		},
		{
			"bufferView":6,
			"componentType":5126,
			"count":4,
			"type":"VEC2"
		}
	],
	"bufferViews":[
		{
			"buffer":0,
			"byteLength":48,
			"byteOffset":0,
			"target":34962
		},
		{
			"buffer":0,
			"byteLength":48,
			"byteOffset":48,
			"target":34962
		},
		{
			"buffer":0,
			"byteLength":32,
			"byteOffset":96,
			"target":34962
		},
		{
			"buffer":0,
			"byteLength":12,
			"byteOffset":128,
			"target":34963
		},
		{
			"buffer":0,
			"byteLength":48,
			"byteOffset":140,
			"target":34962
		},
		{
			"buffer":0,
			"byteLength":48,
			"byteOffset":188,
			"target":34962
		},
		{
			"buffer":0,
			"byteLength":32,
			"byteOffset":236,
			"target":34962
		}
	],
	"samplers":[
		{
			"magFilter":9729,
			"minFilter":9987
		}
	],
	"buffers":[
		{
			"byteLength":268,
			"uri":"Graund.bin"
		}
	]
}
