{
	"asset":{
		"generator":"Khronos glTF Blender I/O v4.3.47",
		"version":"2.0"
	},
	"scene":0,
	"scenes":[
		{
			"name":"Scene",
			"nodes":[
				0
			]
		}
	],
	"nodes":[
		{
			"mesh":0,
			"name":"SM_Sidewalk_Corner_60",
			"rotation":[
				0.24267369508743286,
				-0.6641606688499451,
				0.6641607880592346,
				0.24267365038394928
			],
			"scale":[
				0.009999999776482582,
				0.009999999776482582,
				0.009999999776482582
			]
		}
	],
	"materials":[
		{
			"doubleSided":true,
			"name":"M_RoadProps_01",
			"pbrMetallicRoughness":{
				"baseColorTexture":{
					"index":0
				},
				"metallicFactor":0,
				"roughnessFactor":0.5527864098548889
			}
		},
		{
			"doubleSided":true,
			"name":"M_Sidewalk_Trim",
			"pbrMetallicRoughness":{
				"baseColorTexture":{
					"index":1
				},
				"roughnessFactor":0.5527864098548889
			}
		}
	],
	"meshes":[
		{
			"name":"Scene",
			"primitives":[
				{
					"attributes":{
						"POSITION":0,
						"NORMAL":1,
						"TEXCOORD_0":2
					},
					"indices":3,
					"material":0
				},
				{
					"attributes":{
						"POSITION":4,
						"NORMAL":5,
						"TEXCOORD_0":6
					},
					"indices":7,
					"material":1
				}
			]
		}
	],
	"textures":[
		{
			"sampler":0,
			"source":0
		},
		{
			"sampler":0,
			"source":1
		}
	],
	"images":[
		{
			"mimeType":"image/png",
			"name":"T_RoadProps_01_BC",
			"uri":"T_RoadProps_01_BC.png"
		},
		{
			"mimeType":"image/png",
			"name":"T_Sidewalk_Trim_BC",
			"uri":"T_Sidewalk_Trim_BC.png"
		}
	],
	"accessors":[
		{
			"bufferView":0,
			"componentType":5126,
			"count":195,
			"max":[
				248.09799194335938,
				0,
				0.03559955209493637
			],
			"min":[
				-0.01384469959884882,
				-171.58560180664062,
				-15.999995231628418
			],
			"type":"VEC3"
		},
		{
			"bufferView":1,
			"componentType":5126,
			"count":195,
			"type":"VEC3"
		},
		{
			"bufferView":2,
			"componentType":5126,
			"count":195,
			"type":"VEC2"
		},
		{
			"bufferView":3,
			"componentType":5123,
			"count":978,
			"type":"SCALAR"
		},
		{
			"bufferView":4,
			"componentType":5126,
			"count":73,
			"max":[
				248.09799194335938,
				0,
				0.00013928895350545645
			],
			"min":[
				-0.01384469959884882,
				-218.17254638671875,
				-15.999995231628418
			],
			"type":"VEC3"
		},
		{
			"bufferView":5,
			"componentType":5126,
			"count":73,
			"type":"VEC3"
		},
		{
			"bufferView":6,
			"componentType":5126,
			"count":73,
			"type":"VEC2"
		},
		{
			"bufferView":7,
			"componentType":5123,
			"count":177,
			"type":"SCALAR"
		}
	],
	"bufferViews":[
		{
			"buffer":0,
			"byteLength":2340,
			"byteOffset":0,
			"target":34962
		},
		{
			"buffer":0,
			"byteLength":2340,
			"byteOffset":2340,
			"target":34962
		},
		{
			"buffer":0,
			"byteLength":1560,
			"byteOffset":4680,
			"target":34962
		},
		{
			"buffer":0,
			"byteLength":1956,
			"byteOffset":6240,
			"target":34963
		},
		{
			"buffer":0,
			"byteLength":876,
			"byteOffset":8196,
			"target":34962
		},
		{
			"buffer":0,
			"byteLength":876,
			"byteOffset":9072,
			"target":34962
		},
		{
			"buffer":0,
			"byteLength":584,
			"byteOffset":9948,
			"target":34962
		},
		{
			"buffer":0,
			"byteLength":354,
			"byteOffset":10532,
			"target":34963
		}
	],
	"samplers":[
		{
			"magFilter":9729,
			"minFilter":9987
		}
	],
	"buffers":[
		{
			"byteLength":10888,
			"uri":"Sidewalk_Corner_60.bin"
		}
	]
}
