{
	"asset":{
		"generator":"Khronos glTF Blender I/O v4.3.47",
		"version":"2.0"
	},
	"scene":0,
	"scenes":[
		{
			"name":"Scene",
			"nodes":[
				0
			]
		}
	],
	"nodes":[
		{
			"mesh":0,
			"name":"SM_Tunnel",
			"rotation":[
				0.70710688829422,
				0,
				0,
				0.7071066498756409
			],
			"scale":[
				0.009999999776482582,
				0.009999999776482582,
				0.009999999776482582
			]
		}
	],
	"materials":[
		{
			"doubleSided":true,
			"name":"M_PlasterWallBlue",
			"pbrMetallicRoughness":{
				"baseColorFactor":[
					0,
					0,
					0,
					1
				],
				"metallicFactor":0,
				"roughnessFactor":0.5527864098548889
			}
		},
		{
			"doubleSided":true,
			"name":"M_ConcreteSupport_WS",
			"pbrMetallicRoughness":{
				"baseColorTexture":{
					"index":0
				},
				"metallicFactor":0,
				"roughnessFactor":0.5527864098548889
			}
		},
		{
			"doubleSided":true,
			"name":"TunnelText",
			"pbrMetallicRoughness":{
				"baseColorFactor":[
					0,
					0.39215657114982605,
					1,
					1
				],
				"metallicFactor":0,
				"roughnessFactor":0.5527864098548889
			}
		},
		{
			"doubleSided":true,
			"name":"M_Tile_Concrete",
			"pbrMetallicRoughness":{
				"baseColorTexture":{
					"index":1
				},
				"metallicFactor":0,
				"roughnessFactor":0.5527864098548889
			}
		},
		{
			"doubleSided":true,
			"name":"M_Glow_Blue",
			"pbrMetallicRoughness":{
				"baseColorFactor":[
					0,
					0.6452898979187012,
					1,
					1
				],
				"metallicFactor":0,
				"roughnessFactor":0.5527864098548889
			}
		},
		{
			"doubleSided":true,
			"name":"M_Glow_Yellow",
			"pbrMetallicRoughness":{
				"baseColorFactor":[
					0.997877299785614,
					1,
					0,
					1
				],
				"metallicFactor":0,
				"roughnessFactor":0.5527864098548889
			}
		}
	],
	"meshes":[
		{
			"name":"Scene.012",
			"primitives":[
				{
					"attributes":{
						"POSITION":0,
						"NORMAL":1,
						"TEXCOORD_0":2,
						"TEXCOORD_1":3
					},
					"indices":4,
					"material":0
				},
				{
					"attributes":{
						"POSITION":5,
						"NORMAL":6,
						"TEXCOORD_0":7,
						"TEXCOORD_1":8
					},
					"indices":9,
					"material":1
				},
				{
					"attributes":{
						"POSITION":10,
						"NORMAL":11,
						"TEXCOORD_0":12,
						"TEXCOORD_1":13
					},
					"indices":14,
					"material":2
				},
				{
					"attributes":{
						"POSITION":15,
						"NORMAL":16,
						"TEXCOORD_0":17,
						"TEXCOORD_1":18
					},
					"indices":19,
					"material":3
				},
				{
					"attributes":{
						"POSITION":20,
						"NORMAL":21,
						"TEXCOORD_0":22,
						"TEXCOORD_1":23
					},
					"indices":24,
					"material":4
				},
				{
					"attributes":{
						"POSITION":25,
						"NORMAL":26,
						"TEXCOORD_0":27,
						"TEXCOORD_1":28
					},
					"indices":29,
					"material":5
				}
			]
		}
	],
	"textures":[
		{
			"sampler":0,
			"source":0
		},
		{
			"sampler":0,
			"source":1
		}
	],
	"images":[
		{
			"mimeType":"image/png",
			"name":"T_Asphalt_Clean_BC",
			"uri":"T_Asphalt_Clean_BC.png"
		},
		{
			"mimeType":"image/png",
			"name":"T_Tile_Concrete_BC",
			"uri":"T_Tile_Concrete_BC.png"
		}
	],
	"accessors":[
		{
			"bufferView":0,
			"componentType":5126,
			"count":2639,
			"max":[
				893.5992431640625,
				609.9799194335938,
				0.00010960715007968247
			],
			"min":[
				-893.5992431640625,
				-1855.61376953125,
				-747.193359375
			],
			"type":"VEC3"
		},
		{
			"bufferView":1,
			"componentType":5126,
			"count":2639,
			"type":"VEC3"
		},
		{
			"bufferView":2,
			"componentType":5126,
			"count":2639,
			"type":"VEC2"
		},
		{
			"bufferView":3,
			"componentType":5126,
			"count":2639,
			"type":"VEC2"
		},
		{
			"bufferView":4,
			"componentType":5123,
			"count":7740,
			"type":"SCALAR"
		},
		{
			"bufferView":5,
			"componentType":5126,
			"count":428,
			"max":[
				900.0001220703125,
				900,
				0.0003175923484377563
			],
			"min":[
				-900.0001220703125,
				-1950,
				-770.5560913085938
			],
			"type":"VEC3"
		},
		{
			"bufferView":6,
			"componentType":5126,
			"count":428,
			"type":"VEC3"
		},
		{
			"bufferView":7,
			"componentType":5126,
			"count":428,
			"type":"VEC2"
		},
		{
			"bufferView":8,
			"componentType":5126,
			"count":428,
			"type":"VEC2"
		},
		{
			"bufferView":9,
			"componentType":5123,
			"count":1158,
			"type":"SCALAR"
		},
		{
			"bufferView":10,
			"componentType":5126,
			"count":4,
			"max":[
				504.0048522949219,
				602.9068603515625,
				-638.0385131835938
			],
			"min":[
				-504.0047302246094,
				602.9067993164062,
				-723.8491821289062
			],
			"type":"VEC3"
		},
		{
			"bufferView":11,
			"componentType":5126,
			"count":4,
			"type":"VEC3"
		},
		{
			"bufferView":12,
			"componentType":5126,
			"count":4,
			"type":"VEC2"
		},
		{
			"bufferView":13,
			"componentType":5126,
			"count":4,
			"type":"VEC2"
		},
		{
			"bufferView":14,
			"componentType":5123,
			"count":6,
			"type":"SCALAR"
		},
		{
			"bufferView":15,
			"componentType":5126,
			"count":5769,
			"max":[
				693.6259765625,
				633.4757080078125,
				7.926921367645264
			],
			"min":[
				-693.6256103515625,
				-1925.335693359375,
				-623.4392700195312
			],
			"type":"VEC3"
		},
		{
			"bufferView":16,
			"componentType":5126,
			"count":5769,
			"type":"VEC3"
		},
		{
			"bufferView":17,
			"componentType":5126,
			"count":5769,
			"type":"VEC2"
		},
		{
			"bufferView":18,
			"componentType":5126,
			"count":5769,
			"type":"VEC2"
		},
		{
			"bufferView":19,
			"componentType":5123,
			"count":18468,
			"type":"SCALAR"
		},
		{
			"bufferView":20,
			"componentType":5126,
			"count":216,
			"max":[
				620.9414672851562,
				393.3601989746094,
				-73.07418823242188
			],
			"min":[
				-620.9412231445312,
				-1713.4432373046875,
				-87.32254791259766
			],
			"type":"VEC3"
		},
		{
			"bufferView":21,
			"componentType":5126,
			"count":216,
			"type":"VEC3"
		},
		{
			"bufferView":22,
			"componentType":5126,
			"count":216,
			"type":"VEC2"
		},
		{
			"bufferView":23,
			"componentType":5126,
			"count":216,
			"type":"VEC2"
		},
		{
			"bufferView":24,
			"componentType":5123,
			"count":576,
			"type":"SCALAR"
		},
		{
			"bufferView":25,
			"componentType":5126,
			"count":104,
			"max":[
				32.198638916015625,
				107.9930648803711,
				-581.3074340820312
			],
			"min":[
				-32.19856262207031,
				-1483.7252197265625,
				-598.908447265625
			],
			"type":"VEC3"
		},
		{
			"bufferView":26,
			"componentType":5126,
			"count":104,
			"type":"VEC3"
		},
		{
			"bufferView":27,
			"componentType":5126,
			"count":104,
			"type":"VEC2"
		},
		{
			"bufferView":28,
			"componentType":5126,
			"count":104,
			"type":"VEC2"
		},
		{
			"bufferView":29,
			"componentType":5123,
			"count":456,
			"type":"SCALAR"
		}
	],
	"bufferViews":[
		{
			"buffer":0,
			"byteLength":31668,
			"byteOffset":0,
			"target":34962
		},
		{
			"buffer":0,
			"byteLength":31668,
			"byteOffset":31668,
			"target":34962
		},
		{
			"buffer":0,
			"byteLength":21112,
			"byteOffset":63336,
			"target":34962
		},
		{
			"buffer":0,
			"byteLength":21112,
			"byteOffset":84448,
			"target":34962
		},
		{
			"buffer":0,
			"byteLength":15480,
			"byteOffset":105560,
			"target":34963
		},
		{
			"buffer":0,
			"byteLength":5136,
			"byteOffset":121040,
			"target":34962
		},
		{
			"buffer":0,
			"byteLength":5136,
			"byteOffset":126176,
			"target":34962
		},
		{
			"buffer":0,
			"byteLength":3424,
			"byteOffset":131312,
			"target":34962
		},
		{
			"buffer":0,
			"byteLength":3424,
			"byteOffset":134736,
			"target":34962
		},
		{
			"buffer":0,
			"byteLength":2316,
			"byteOffset":138160,
			"target":34963
		},
		{
			"buffer":0,
			"byteLength":48,
			"byteOffset":140476,
			"target":34962
		},
		{
			"buffer":0,
			"byteLength":48,
			"byteOffset":140524,
			"target":34962
		},
		{
			"buffer":0,
			"byteLength":32,
			"byteOffset":140572,
			"target":34962
		},
		{
			"buffer":0,
			"byteLength":32,
			"byteOffset":140604,
			"target":34962
		},
		{
			"buffer":0,
			"byteLength":12,
			"byteOffset":140636,
			"target":34963
		},
		{
			"buffer":0,
			"byteLength":69228,
			"byteOffset":140648,
			"target":34962
		},
		{
			"buffer":0,
			"byteLength":69228,
			"byteOffset":209876,
			"target":34962
		},
		{
			"buffer":0,
			"byteLength":46152,
			"byteOffset":279104,
			"target":34962
		},
		{
			"buffer":0,
			"byteLength":46152,
			"byteOffset":325256,
			"target":34962
		},
		{
			"buffer":0,
			"byteLength":36936,
			"byteOffset":371408,
			"target":34963
		},
		{
			"buffer":0,
			"byteLength":2592,
			"byteOffset":408344,
			"target":34962
		},
		{
			"buffer":0,
			"byteLength":2592,
			"byteOffset":410936,
			"target":34962
		},
		{
			"buffer":0,
			"byteLength":1728,
			"byteOffset":413528,
			"target":34962
		},
		{
			"buffer":0,
			"byteLength":1728,
			"byteOffset":415256,
			"target":34962
		},
		{
			"buffer":0,
			"byteLength":1152,
			"byteOffset":416984,
			"target":34963
		},
		{
			"buffer":0,
			"byteLength":1248,
			"byteOffset":418136,
			"target":34962
		},
		{
			"buffer":0,
			"byteLength":1248,
			"byteOffset":419384,
			"target":34962
		},
		{
			"buffer":0,
			"byteLength":832,
			"byteOffset":420632,
			"target":34962
		},
		{
			"buffer":0,
			"byteLength":832,
			"byteOffset":421464,
			"target":34962
		},
		{
			"buffer":0,
			"byteLength":912,
			"byteOffset":422296,
			"target":34963
		}
	],
	"samplers":[
		{
			"magFilter":9729,
			"minFilter":9987
		}
	],
	"buffers":[
		{
			"byteLength":423208,
			"uri":"Tunnel.bin"
		}
	]
}
