{
	"asset":{
		"generator":"Khronos glTF Blender I/O v4.3.47",
		"version":"2.0"
	},
	"scene":0,
	"scenes":[
		{
			"name":"Scene",
			"nodes":[
				0
			]
		}
	],
	"nodes":[
		{
			"mesh":0,
			"name":"SM_Tunnel"
		}
	],
	"materials":[
		{
			"doubleSided":true,
			"name":"M_PlasterWallBlue",
			"pbrMetallicRoughness":{
				"baseColorFactor":[
					0,
					0,
					0,
					1
				],
				"metallicFactor":0,
				"roughnessFactor":0.5527864098548889
			}
		},
		{
			"doubleSided":true,
			"name":"M_ConcreteSupport_WS",
			"pbrMetallicRoughness":{
				"baseColorTexture":{
					"index":0
				},
				"metallicFactor":0,
				"roughnessFactor":0.5527864098548889
			}
		},
		{
			"doubleSided":true,
			"name":"TunnelText",
			"pbrMetallicRoughness":{
				"baseColorFactor":[
					0,
					0.39215657114982605,
					1,
					1
				],
				"metallicFactor":0,
				"roughnessFactor":0.5527864098548889
			}
		},
		{
			"doubleSided":true,
			"name":"M_Tile_Concrete",
			"pbrMetallicRoughness":{
				"baseColorTexture":{
					"index":1
				},
				"metallicFactor":0,
				"roughnessFactor":0.5527864098548889
			}
		},
		{
			"doubleSided":true,
			"name":"M_Glow_Blue",
			"pbrMetallicRoughness":{
				"baseColorFactor":[
					0,
					0.6452898979187012,
					1,
					1
				],
				"metallicFactor":0,
				"roughnessFactor":0.5527864098548889
			}
		},
		{
			"doubleSided":true,
			"name":"M_Glow_Yellow.001",
			"pbrMetallicRoughness":{
				"baseColorFactor":[
					0.997877299785614,
					1,
					0,
					1
				],
				"metallicFactor":0,
				"roughnessFactor":0.5527864098548889
			}
		}
	],
	"meshes":[
		{
			"name":"Scene.018",
			"primitives":[
				{
					"attributes":{
						"POSITION":0,
						"NORMAL":1,
						"TEXCOORD_0":2,
						"TEXCOORD_1":3
					},
					"indices":4,
					"material":0
				},
				{
					"attributes":{
						"POSITION":5,
						"NORMAL":6,
						"TEXCOORD_0":7,
						"TEXCOORD_1":8
					},
					"indices":9,
					"material":1
				},
				{
					"attributes":{
						"POSITION":10,
						"NORMAL":11,
						"TEXCOORD_0":12,
						"TEXCOORD_1":13
					},
					"indices":14,
					"material":2
				},
				{
					"attributes":{
						"POSITION":15,
						"NORMAL":16,
						"TEXCOORD_0":17,
						"TEXCOORD_1":18
					},
					"indices":19,
					"material":3
				},
				{
					"attributes":{
						"POSITION":20,
						"NORMAL":21,
						"TEXCOORD_0":22,
						"TEXCOORD_1":23
					},
					"indices":24,
					"material":4
				},
				{
					"attributes":{
						"POSITION":25,
						"NORMAL":26,
						"TEXCOORD_0":27,
						"TEXCOORD_1":28
					},
					"indices":29,
					"material":5
				}
			]
		}
	],
	"textures":[
		{
			"sampler":0,
			"source":0
		},
		{
			"sampler":0,
			"source":1
		}
	],
	"images":[
		{
			"mimeType":"image/png",
			"name":"T_Asphalt_Clean_BC",
			"uri":"T_Asphalt_Clean_BC.png"
		},
		{
			"mimeType":"image/png",
			"name":"T_Tile_Concrete_BC",
			"uri":"T_Tile_Concrete_BC.png"
		}
	],
	"accessors":[
		{
			"bufferView":0,
			"componentType":5126,
			"count":2648,
			"max":[
				8.935992240905762,
				7.471930980682373,
				6.099801063537598
			],
			"min":[
				-8.935992240905762,
				-7.452943009411683e-07,
				-18.556133270263672
			],
			"type":"VEC3"
		},
		{
			"bufferView":1,
			"componentType":5126,
			"count":2648,
			"type":"VEC3"
		},
		{
			"bufferView":2,
			"componentType":5126,
			"count":2648,
			"type":"VEC2"
		},
		{
			"bufferView":3,
			"componentType":5126,
			"count":2648,
			"type":"VEC2"
		},
		{
			"bufferView":4,
			"componentType":5123,
			"count":7740,
			"type":"SCALAR"
		},
		{
			"bufferView":5,
			"componentType":5126,
			"count":433,
			"max":[
				9.000000953674316,
				7.705561637878418,
				8.999999046325684
			],
			"min":[
				-9.000000953674316,
				-1.2129509059377597e-06,
				-19.499998092651367
			],
			"type":"VEC3"
		},
		{
			"bufferView":6,
			"componentType":5126,
			"count":433,
			"type":"VEC3"
		},
		{
			"bufferView":7,
			"componentType":5126,
			"count":433,
			"type":"VEC2"
		},
		{
			"bufferView":8,
			"componentType":5126,
			"count":433,
			"type":"VEC2"
		},
		{
			"bufferView":9,
			"componentType":5123,
			"count":1158,
			"type":"SCALAR"
		},
		{
			"bufferView":10,
			"componentType":5126,
			"count":4,
			"max":[
				5.040048599243164,
				7.238489151000977,
				6.0290703773498535
			],
			"min":[
				-5.0400471687316895,
				6.380382537841797,
				6.029069423675537
			],
			"type":"VEC3"
		},
		{
			"bufferView":11,
			"componentType":5126,
			"count":4,
			"type":"VEC3"
		},
		{
			"bufferView":12,
			"componentType":5126,
			"count":4,
			"type":"VEC2"
		},
		{
			"bufferView":13,
			"componentType":5126,
			"count":4,
			"type":"VEC2"
		},
		{
			"bufferView":14,
			"componentType":5123,
			"count":6,
			"type":"SCALAR"
		},
		{
			"bufferView":15,
			"componentType":5126,
			"count":6264,
			"max":[
				6.936259746551514,
				6.234397888183594,
				6.334756374359131
			],
			"min":[
				-6.936255931854248,
				-0.0792708620429039,
				-19.253355026245117
			],
			"type":"VEC3"
		},
		{
			"bufferView":16,
			"componentType":5126,
			"count":6264,
			"type":"VEC3"
		},
		{
			"bufferView":17,
			"componentType":5126,
			"count":6264,
			"type":"VEC2"
		},
		{
			"bufferView":18,
			"componentType":5126,
			"count":6264,
			"type":"VEC2"
		},
		{
			"bufferView":19,
			"componentType":5123,
			"count":18468,
			"type":"SCALAR"
		},
		{
			"bufferView":20,
			"componentType":5126,
			"count":270,
			"max":[
				6.209414482116699,
				0.8732290863990784,
				3.9336018562316895
			],
			"min":[
				-6.209412097930908,
				0.7307421565055847,
				-17.134429931640625
			],
			"type":"VEC3"
		},
		{
			"bufferView":21,
			"componentType":5126,
			"count":270,
			"type":"VEC3"
		},
		{
			"bufferView":22,
			"componentType":5126,
			"count":270,
			"type":"VEC2"
		},
		{
			"bufferView":23,
			"componentType":5126,
			"count":270,
			"type":"VEC2"
		},
		{
			"bufferView":24,
			"componentType":5123,
			"count":576,
			"type":"SCALAR"
		},
		{
			"bufferView":25,
			"componentType":5126,
			"count":112,
			"max":[
				0.3219863772392273,
				5.98908805847168,
				1.0799323320388794
			],
			"min":[
				-0.3219856321811676,
				5.81307315826416,
				-14.837248802185059
			],
			"type":"VEC3"
		},
		{
			"bufferView":26,
			"componentType":5126,
			"count":112,
			"type":"VEC3"
		},
		{
			"bufferView":27,
			"componentType":5126,
			"count":112,
			"type":"VEC2"
		},
		{
			"bufferView":28,
			"componentType":5126,
			"count":112,
			"type":"VEC2"
		},
		{
			"bufferView":29,
			"componentType":5123,
			"count":456,
			"type":"SCALAR"
		}
	],
	"bufferViews":[
		{
			"buffer":0,
			"byteLength":31776,
			"byteOffset":0,
			"target":34962
		},
		{
			"buffer":0,
			"byteLength":31776,
			"byteOffset":31776,
			"target":34962
		},
		{
			"buffer":0,
			"byteLength":21184,
			"byteOffset":63552,
			"target":34962
		},
		{
			"buffer":0,
			"byteLength":21184,
			"byteOffset":84736,
			"target":34962
		},
		{
			"buffer":0,
			"byteLength":15480,
			"byteOffset":105920,
			"target":34963
		},
		{
			"buffer":0,
			"byteLength":5196,
			"byteOffset":121400,
			"target":34962
		},
		{
			"buffer":0,
			"byteLength":5196,
			"byteOffset":126596,
			"target":34962
		},
		{
			"buffer":0,
			"byteLength":3464,
			"byteOffset":131792,
			"target":34962
		},
		{
			"buffer":0,
			"byteLength":3464,
			"byteOffset":135256,
			"target":34962
		},
		{
			"buffer":0,
			"byteLength":2316,
			"byteOffset":138720,
			"target":34963
		},
		{
			"buffer":0,
			"byteLength":48,
			"byteOffset":141036,
			"target":34962
		},
		{
			"buffer":0,
			"byteLength":48,
			"byteOffset":141084,
			"target":34962
		},
		{
			"buffer":0,
			"byteLength":32,
			"byteOffset":141132,
			"target":34962
		},
		{
			"buffer":0,
			"byteLength":32,
			"byteOffset":141164,
			"target":34962
		},
		{
			"buffer":0,
			"byteLength":12,
			"byteOffset":141196,
			"target":34963
		},
		{
			"buffer":0,
			"byteLength":75168,
			"byteOffset":141208,
			"target":34962
		},
		{
			"buffer":0,
			"byteLength":75168,
			"byteOffset":216376,
			"target":34962
		},
		{
			"buffer":0,
			"byteLength":50112,
			"byteOffset":291544,
			"target":34962
		},
		{
			"buffer":0,
			"byteLength":50112,
			"byteOffset":341656,
			"target":34962
		},
		{
			"buffer":0,
			"byteLength":36936,
			"byteOffset":391768,
			"target":34963
		},
		{
			"buffer":0,
			"byteLength":3240,
			"byteOffset":428704,
			"target":34962
		},
		{
			"buffer":0,
			"byteLength":3240,
			"byteOffset":431944,
			"target":34962
		},
		{
			"buffer":0,
			"byteLength":2160,
			"byteOffset":435184,
			"target":34962
		},
		{
			"buffer":0,
			"byteLength":2160,
			"byteOffset":437344,
			"target":34962
		},
		{
			"buffer":0,
			"byteLength":1152,
			"byteOffset":439504,
			"target":34963
		},
		{
			"buffer":0,
			"byteLength":1344,
			"byteOffset":440656,
			"target":34962
		},
		{
			"buffer":0,
			"byteLength":1344,
			"byteOffset":442000,
			"target":34962
		},
		{
			"buffer":0,
			"byteLength":896,
			"byteOffset":443344,
			"target":34962
		},
		{
			"buffer":0,
			"byteLength":896,
			"byteOffset":444240,
			"target":34962
		},
		{
			"buffer":0,
			"byteLength":912,
			"byteOffset":445136,
			"target":34963
		}
	],
	"samplers":[
		{
			"magFilter":9729,
			"minFilter":9987
		}
	],
	"buffers":[
		{
			"byteLength":446048,
			"uri":"Tunnel.bin"
		}
	]
}
