{
	"asset":{
		"generator":"Khronos glTF Blender I/O v4.3.47",
		"version":"2.0"
	},
	"scene":0,
	"scenes":[
		{
			"name":"Scene",
			"nodes":[
				0
			]
		}
	],
	"nodes":[
		{
			"mesh":0,
			"name":"SM_Sidewalk_Edge_Ramp",
			"rotation":[
				0.70710688829422,
				0,
				0,
				0.7071066498756409
			],
			"scale":[
				0.009999999776482582,
				0.009999999776482582,
				0.009999999776482582
			]
		}
	],
	"materials":[
		{
			"doubleSided":true,
			"name":"M_RoadProps_01",
			"pbrMetallicRoughness":{
				"baseColorTexture":{
					"index":0
				},
				"metallicFactor":0,
				"roughnessFactor":0.5527864098548889
			}
		},
		{
			"doubleSided":true,
			"name":"M_Sidewalk_Trim",
			"pbrMetallicRoughness":{
				"baseColorTexture":{
					"index":1
				}
			}
		}
	],
	"meshes":[
		{
			"name":"Scene",
			"primitives":[
				{
					"attributes":{
						"POSITION":0,
						"NORMAL":1,
						"TEXCOORD_0":2
					},
					"indices":3,
					"material":0
				},
				{
					"attributes":{
						"POSITION":4,
						"NORMAL":5,
						"TEXCOORD_0":6
					},
					"indices":7,
					"material":1
				}
			]
		}
	],
	"textures":[
		{
			"sampler":0,
			"source":0
		},
		{
			"sampler":0,
			"source":1
		}
	],
	"images":[
		{
			"mimeType":"image/png",
			"name":"T_RoadProps_01_BC",
			"uri":"T_RoadProps_01_BC.png"
		},
		{
			"mimeType":"image/png",
			"name":"T_Sidewalk_Trim_BC",
			"uri":"T_Sidewalk_Trim_BC.png"
		}
	],
	"accessors":[
		{
			"bufferView":0,
			"componentType":5126,
			"count":572,
			"max":[
				600,
				0.18997810781002045,
				0.26665985584259033
			],
			"min":[
				0,
				-56.69231414794922,
				-15.999995231628418
			],
			"type":"VEC3"
		},
		{
			"bufferView":1,
			"componentType":5126,
			"count":572,
			"type":"VEC3"
		},
		{
			"bufferView":2,
			"componentType":5126,
			"count":572,
			"type":"VEC2"
		},
		{
			"bufferView":3,
			"componentType":5123,
			"count":1218,
			"type":"SCALAR"
		},
		{
			"bufferView":4,
			"componentType":5126,
			"count":93,
			"max":[
				600,
				-2.86102545032918e-06,
				0.27148839831352234
			],
			"min":[
				0,
				-149.86622619628906,
				-15.000014305114746
			],
			"type":"VEC3"
		},
		{
			"bufferView":5,
			"componentType":5126,
			"count":93,
			"type":"VEC3"
		},
		{
			"bufferView":6,
			"componentType":5126,
			"count":93,
			"type":"VEC2"
		},
		{
			"bufferView":7,
			"componentType":5123,
			"count":216,
			"type":"SCALAR"
		}
	],
	"bufferViews":[
		{
			"buffer":0,
			"byteLength":6864,
			"byteOffset":0,
			"target":34962
		},
		{
			"buffer":0,
			"byteLength":6864,
			"byteOffset":6864,
			"target":34962
		},
		{
			"buffer":0,
			"byteLength":4576,
			"byteOffset":13728,
			"target":34962
		},
		{
			"buffer":0,
			"byteLength":2436,
			"byteOffset":18304,
			"target":34963
		},
		{
			"buffer":0,
			"byteLength":1116,
			"byteOffset":20740,
			"target":34962
		},
		{
			"buffer":0,
			"byteLength":1116,
			"byteOffset":21856,
			"target":34962
		},
		{
			"buffer":0,
			"byteLength":744,
			"byteOffset":22972,
			"target":34962
		},
		{
			"buffer":0,
			"byteLength":432,
			"byteOffset":23716,
			"target":34963
		}
	],
	"samplers":[
		{
			"magFilter":9729,
			"minFilter":9987
		}
	],
	"buffers":[
		{
			"byteLength":24148,
			"uri":"Sidewalk_Edge_Ramp.bin"
		}
	]
}
