{
	"asset":
	{
		"version": "2.0",
		"generator": "Unreal Engine 5.5.4"
	},
	"scene": 0,
	"accessors": [
		{
			"bufferView": 0,
			"count": 113370,
			"type": "SCALAR",
			"componentType": 5125
		},
		{
			"bufferView": 1,
			"count": 113370,
			"type": "VEC3",
			"componentType": 5126,
			"min": [ -0.0405824035, -0.0450722985, -0.210855857 ],
			"max": [ 0.0405825116, 0.0383241065, 0.0840811059 ]
		},
		{
			"bufferView": 2,
			"count": 113370,
			"type": "VEC4",
			"componentType": 5121,
			"normalized": true
		},
		{
			"bufferView": 3,
			"count": 113370,
			"type": "VEC3",
			"componentType": 5126
		},
		{
			"bufferView": 4,
			"count": 113370,
			"type": "VEC2",
			"componentType": 5126
		},
		{
			"bufferView": 5,
			"count": 1920,
			"type": "SCALAR",
			"componentType": 5123
		},
		{
			"bufferView": 6,
			"count": 1920,
			"type": "VEC3",
			"componentType": 5126,
			"min": [ -0.00924343523, -0.0186225623, -0.190566808 ],
			"max": [ 0.00991267525, 0.0264044739, 0.068827875 ]
		},
		{
			"bufferView": 7,
			"count": 1920,
			"type": "VEC4",
			"componentType": 5121,
			"normalized": true
		},
		{
			"bufferView": 8,
			"count": 1920,
			"type": "VEC3",
			"componentType": 5126
		},
		{
			"bufferView": 9,
			"count": 1920,
			"type": "VEC2",
			"componentType": 5126
		},
		{
			"bufferView": 10,
			"count": 60,
			"type": "SCALAR",
			"componentType": 5121
		},
		{
			"bufferView": 11,
			"count": 60,
			"type": "VEC3",
			"componentType": 5126,
			"min": [ -0.00335339364, -0.0219743345, 0.0802828223 ],
			"max": [ 0.00332512381, 0.013939403, 0.0911981538 ]
		},
		{
			"bufferView": 12,
			"count": 60,
			"type": "VEC4",
			"componentType": 5121,
			"normalized": true
		},
		{
			"bufferView": 13,
			"count": 60,
			"type": "VEC3",
			"componentType": 5126
		},
		{
			"bufferView": 14,
			"count": 60,
			"type": "VEC2",
			"componentType": 5126
		},
		{
			"bufferView": 15,
			"count": 55932,
			"type": "SCALAR",
			"componentType": 5123
		},
		{
			"bufferView": 16,
			"count": 55932,
			"type": "VEC3",
			"componentType": 5126,
			"min": [ -0.00280597364, -0.0221835878, 0.0838674605 ],
			"max": [ 0.00277954759, 0.0727822557, 0.987939 ]
		},
		{
			"bufferView": 17,
			"count": 55932,
			"type": "VEC4",
			"componentType": 5121,
			"normalized": true
		},
		{
			"bufferView": 18,
			"count": 55932,
			"type": "VEC3",
			"componentType": 5126
		},
		{
			"bufferView": 19,
			"count": 55932,
			"type": "VEC2",
			"componentType": 5126
		}
	],
	"buffers": [
		{
			"uri": "Katana.bin",
			"byteLength": 6735396
		}
	],
	"bufferViews": [
		{
			"buffer": 0,
			"byteLength": 453480,
			"target": 34963
		},
		{
			"buffer": 0,
			"byteLength": 1360440,
			"byteOffset": 453480,
			"target": 34962
		},
		{
			"buffer": 0,
			"byteLength": 453480,
			"byteOffset": 1813920,
			"target": 34962
		},
		{
			"buffer": 0,
			"byteLength": 1360440,
			"byteOffset": 2267400,
			"target": 34962
		},
		{
			"buffer": 0,
			"byteLength": 906960,
			"byteOffset": 3627840,
			"target": 34962
		},
		{
			"buffer": 0,
			"byteLength": 3840,
			"byteOffset": 4534800,
			"target": 34963
		},
		{
			"buffer": 0,
			"byteLength": 23040,
			"byteOffset": 4538640,
			"target": 34962
		},
		{
			"buffer": 0,
			"byteLength": 7680,
			"byteOffset": 4561680,
			"target": 34962
		},
		{
			"buffer": 0,
			"byteLength": 23040,
			"byteOffset": 4569360,
			"target": 34962
		},
		{
			"buffer": 0,
			"byteLength": 15360,
			"byteOffset": 4592400,
			"target": 34962
		},
		{
			"buffer": 0,
			"byteLength": 60,
			"byteOffset": 4607760,
			"target": 34963
		},
		{
			"buffer": 0,
			"byteLength": 720,
			"byteOffset": 4607820,
			"target": 34962
		},
		{
			"buffer": 0,
			"byteLength": 240,
			"byteOffset": 4608540,
			"target": 34962
		},
		{
			"buffer": 0,
			"byteLength": 720,
			"byteOffset": 4608780,
			"target": 34962
		},
		{
			"buffer": 0,
			"byteLength": 480,
			"byteOffset": 4609500,
			"target": 34962
		},
		{
			"buffer": 0,
			"byteLength": 111864,
			"byteOffset": 4609980,
			"target": 34963
		},
		{
			"buffer": 0,
			"byteLength": 671184,
			"byteOffset": 4721844,
			"target": 34962
		},
		{
			"buffer": 0,
			"byteLength": 223728,
			"byteOffset": 5393028,
			"target": 34962
		},
		{
			"buffer": 0,
			"byteLength": 671184,
			"byteOffset": 5616756,
			"target": 34962
		},
		{
			"buffer": 0,
			"byteLength": 447456,
			"byteOffset": 6287940,
			"target": 34962
		}
	],
	"materials": [
		{
			"name": "Mat_Weapon",
			"pbrMetallicRoughness":
			{
				"baseColorFactor": [ 0.020833334, 0.020833334, 0.020833334, 1 ],
				"metallicFactor": 0,
				"roughnessFactor": 0.5
			},
			"doubleSided": true
		},
		{
			"name": "Mat_Weapon_2",
			"pbrMetallicRoughness":
			{
				"baseColorFactor": [ 0.75, 0.75, 0.75, 1 ],
				"metallicFactor": 0,
				"roughnessFactor": 0.5
			},
			"doubleSided": true
		},
		{
			"name": "Mat_Weapon_3",
			"pbrMetallicRoughness":
			{
				"baseColorFactor": [ 0.770833313, 0.739063203, 0.405490398, 1 ],
				"metallicFactor": 0,
				"roughnessFactor": 0.5
			},
			"doubleSided": true
		}
	],
	"meshes": [
		{
			"name": "SM_Katana01",
			"primitives": [
				{
					"attributes":
					{
						"POSITION": 1,
						"COLOR_0": 2,
						"NORMAL": 3,
						"TEXCOORD_0": 4,
						"TEXCOORD_1": 4
					},
					"indices": 0,
					"material": 0
				},
				{
					"attributes":
					{
						"POSITION": 6,
						"COLOR_0": 7,
						"NORMAL": 8,
						"TEXCOORD_0": 9,
						"TEXCOORD_1": 9
					},
					"indices": 5,
					"material": 1
				},
				{
					"attributes":
					{
						"POSITION": 11,
						"COLOR_0": 12,
						"NORMAL": 13,
						"TEXCOORD_0": 14,
						"TEXCOORD_1": 14
					},
					"indices": 10,
					"material": 2
				},
				{
					"attributes":
					{
						"POSITION": 16,
						"COLOR_0": 17,
						"NORMAL": 18,
						"TEXCOORD_0": 19,
						"TEXCOORD_1": 19
					},
					"indices": 15,
					"material": 1
				}
			]
		}
	],
	"nodes": [
		{
			"name": "SM_Katana01",
			"mesh": 0
		}
	],
	"scenes": [
		{
			"name": "ThirdPersonMap",
			"nodes": [ 0 ]
		}
	]
}