{
	"asset":{
		"generator":"Khronos glTF Blender I/O v4.3.47",
		"version":"2.0"
	},
	"scene":0,
	"scenes":[
		{
			"name":"Scene",
			"nodes":[
				1
			]
		}
	],
	"nodes":[
		{
			"mesh":0,
			"name":"SM_Gate"
		},
		{
			"children":[
				0
			],
			"name":"P_Gate"
		}
	],
	"materials":[
		{
			"doubleSided":true,
			"name":"M_Gate",
			"pbrMetallicRoughness":{
				"baseColorTexture":{
					"index":0
				},
				"metallicFactor":0,
				"roughnessFactor":0.5527864098548889
			}
		}
	],
	"meshes":[
		{
			"name":"Scene",
			"primitives":[
				{
					"attributes":{
						"POSITION":0,
						"NORMAL":1,
						"TEXCOORD_0":2,
						"COLOR_0":3,
						"COLOR_1":4
					},
					"indices":5,
					"material":0
				}
			]
		}
	],
	"textures":[
		{
			"sampler":0,
			"source":0
		}
	],
	"images":[
		{
			"mimeType":"image/png",
			"name":"T_Gate_BaseColor",
			"uri":"T_Gate_BaseColor.png"
		}
	],
	"accessors":[
		{
			"bufferView":0,
			"componentType":5126,
			"count":34192,
			"max":[
				4.304978847503662,
				6.035647392272949,
				4.785293102264404
			],
			"min":[
				-4.3049798011779785,
				-1.9241463178332197e-07,
				-4.78529167175293
			],
			"type":"VEC3"
		},
		{
			"bufferView":1,
			"componentType":5126,
			"count":34192,
			"type":"VEC3"
		},
		{
			"bufferView":2,
			"componentType":5126,
			"count":34192,
			"type":"VEC2"
		},
		{
			"bufferView":3,
			"componentType":5121,
			"count":34192,
			"normalized":true,
			"type":"VEC4"
		},
		{
			"bufferView":4,
			"componentType":5123,
			"count":34192,
			"normalized":true,
			"type":"VEC4"
		},
		{
			"bufferView":5,
			"componentType":5123,
			"count":94110,
			"type":"SCALAR"
		}
	],
	"bufferViews":[
		{
			"buffer":0,
			"byteLength":410304,
			"byteOffset":0,
			"target":34962
		},
		{
			"buffer":0,
			"byteLength":410304,
			"byteOffset":410304,
			"target":34962
		},
		{
			"buffer":0,
			"byteLength":273536,
			"byteOffset":820608,
			"target":34962
		},
		{
			"buffer":0,
			"byteLength":136768,
			"byteOffset":1094144,
			"target":34962
		},
		{
			"buffer":0,
			"byteLength":273536,
			"byteOffset":1230912,
			"target":34962
		},
		{
			"buffer":0,
			"byteLength":188220,
			"byteOffset":1504448,
			"target":34963
		}
	],
	"samplers":[
		{
			"magFilter":9729,
			"minFilter":9987
		}
	],
	"buffers":[
		{
			"byteLength":1692668,
			"uri":"Gate.bin"
		}
	]
}
