{
	"asset":{
		"generator":"Khronos glTF Blender I/O v4.3.47",
		"version":"2.0"
	},
	"scene":0,
	"scenes":[
		{
			"name":"Scene",
			"nodes":[
				1
			]
		}
	],
	"nodes":[
		{
			"mesh":0,
			"name":"SM_Gate"
		},
		{
			"children":[
				0
			],
			"name":"P_Gate",
			"rotation":[
				0.6408565640449524,
				-0.2988361418247223,
				0.2988363206386566,
				0.6408562064170837
			],
			"scale":[
				0.010000000707805157,
				0.010000000707805157,
				0.009999999776482582
			]
		}
	],
	"materials":[
		{
			"doubleSided":true,
			"name":"M_Gate",
			"pbrMetallicRoughness":{
				"baseColorTexture":{
					"index":0
				},
				"metallicFactor":0,
				"roughnessFactor":0.5527864098548889
			}
		}
	],
	"meshes":[
		{
			"name":"Scene",
			"primitives":[
				{
					"attributes":{
						"POSITION":0,
						"NORMAL":1,
						"TEXCOORD_0":2,
						"COLOR_0":3,
						"COLOR_1":4
					},
					"indices":5,
					"material":0
				}
			]
		}
	],
	"textures":[
		{
			"sampler":0,
			"source":0
		}
	],
	"images":[
		{
			"mimeType":"image/png",
			"name":"T_Gate_BaseColor",
			"uri":"T_Gate_BaseColor.png"
		}
	],
	"accessors":[
		{
			"bufferView":0,
			"componentType":5126,
			"count":34166,
			"max":[
				543.8340454101562,
				129.2249755859375,
				2.4234275770140812e-05
			],
			"min":[
				-543.8340454101562,
				-129.22528076171875,
				-603.5647583007812
			],
			"type":"VEC3"
		},
		{
			"bufferView":1,
			"componentType":5126,
			"count":34166,
			"type":"VEC3"
		},
		{
			"bufferView":2,
			"componentType":5126,
			"count":34166,
			"type":"VEC2"
		},
		{
			"bufferView":3,
			"componentType":5121,
			"count":34166,
			"normalized":true,
			"type":"VEC4"
		},
		{
			"bufferView":4,
			"componentType":5123,
			"count":34166,
			"normalized":true,
			"type":"VEC4"
		},
		{
			"bufferView":5,
			"componentType":5123,
			"count":94110,
			"type":"SCALAR"
		}
	],
	"bufferViews":[
		{
			"buffer":0,
			"byteLength":409992,
			"byteOffset":0,
			"target":34962
		},
		{
			"buffer":0,
			"byteLength":409992,
			"byteOffset":409992,
			"target":34962
		},
		{
			"buffer":0,
			"byteLength":273328,
			"byteOffset":819984,
			"target":34962
		},
		{
			"buffer":0,
			"byteLength":136664,
			"byteOffset":1093312,
			"target":34962
		},
		{
			"buffer":0,
			"byteLength":273328,
			"byteOffset":1229976,
			"target":34962
		},
		{
			"buffer":0,
			"byteLength":188220,
			"byteOffset":1503304,
			"target":34963
		}
	],
	"samplers":[
		{
			"magFilter":9729,
			"minFilter":9987
		}
	],
	"buffers":[
		{
			"byteLength":1691524,
			"uri":"Gate.bin"
		}
	]
}
