{
	"asset":{
		"generator":"Khronos glTF Blender I/O v4.3.47",
		"version":"2.0"
	},
	"scene":0,
	"scenes":[
		{
			"name":"Scene",
			"nodes":[
				0,
				1,
				2,
				3
			]
		}
	],
	"nodes":[
		{
			"mesh":0,
			"name":"Tree 1",
			"translation":[
				0,
				0.22618944942951202,
				-0.06701909005641937
			]
		},
		{
			"mesh":1,
			"name":"Tree 2"
		},
		{
			"mesh":2,
			"name":"Tree 3"
		},
		{
			"mesh":3,
			"name":"SM_Plaza_Pot",
			"rotation":[
				0.70710688829422,
				0,
				0,
				0.7071066498756409
			],
			"scale":[
				0.009999999776482582,
				0.009999999776482582,
				0.009999999776482582
			],
			"translation":[
				-0.020345091819763184,
				0.005786895751953125,
				-0.0026863887906074524
			]
		}
	],
	"materials":[
		{
			"doubleSided":true,
			"name":"Pink leaves",
			"pbrMetallicRoughness":{
				"baseColorFactor":[
					0.8000000715255737,
					0.21561625599861145,
					0.5904906392097473,
					1
				],
				"metallicFactor":0,
				"roughnessFactor":0.5
			}
		},
		{
			"doubleSided":true,
			"name":"Tree",
			"pbrMetallicRoughness":{
				"baseColorFactor":[
					0.14915236830711365,
					0.07292663305997849,
					0.038704853504896164,
					1
				],
				"metallicFactor":0,
				"roughnessFactor":0.5
			}
		},
		{
			"doubleSided":true,
			"name":"Green leaves",
			"pbrMetallicRoughness":{
				"baseColorFactor":[
					0.05986353009939194,
					0.16146335005760193,
					0.01839538849890232,
					1
				],
				"metallicFactor":0,
				"roughnessFactor":0.5
			}
		},
		{
			"doubleSided":true,
			"name":"Yellow leaves",
			"pbrMetallicRoughness":{
				"baseColorFactor":[
					0.30815911293029785,
					0.4719519019126892,
					0.022287748754024506,
					1
				],
				"metallicFactor":0,
				"roughnessFactor":0.5
			}
		},
		{
			"doubleSided":true,
			"name":"M_Tile_GlossyCeramicsCyan",
			"pbrMetallicRoughness":{
				"baseColorTexture":{
					"index":0
				},
				"metallicFactor":0,
				"roughnessFactor":0.5527864098548889
			}
		},
		{
			"doubleSided":true,
			"name":"M_Glow_Yellow",
			"pbrMetallicRoughness":{
				"baseColorFactor":[
					1,
					0.9433988928794861,
					0.9605860114097595,
					1
				],
				"metallicFactor":0,
				"roughnessFactor":0.5527864098548889
			}
		},
		{
			"doubleSided":true,
			"name":"M_Tile_Dirt",
			"pbrMetallicRoughness":{
				"baseColorTexture":{
					"index":1
				},
				"metallicFactor":0,
				"roughnessFactor":0.5527864098548889
			}
		},
		{
			"doubleSided":true,
			"name":"M_BuildingAtlas_01",
			"pbrMetallicRoughness":{
				"baseColorTexture":{
					"index":2
				},
				"metallicFactor":0,
				"roughnessFactor":0.5527864098548889
			}
		}
	],
	"meshes":[
		{
			"name":"leaves.002",
			"primitives":[
				{
					"attributes":{
						"POSITION":0,
						"NORMAL":1,
						"TEXCOORD_0":2,
						"TEXCOORD_1":3
					},
					"indices":4,
					"material":0
				},
				{
					"attributes":{
						"POSITION":5,
						"NORMAL":6,
						"TEXCOORD_0":7,
						"TEXCOORD_1":8
					},
					"indices":9,
					"material":1
				}
			]
		},
		{
			"name":"leaves.001",
			"primitives":[
				{
					"attributes":{
						"POSITION":10,
						"NORMAL":11,
						"TEXCOORD_0":12,
						"TEXCOORD_1":13
					},
					"indices":14,
					"material":2
				},
				{
					"attributes":{
						"POSITION":15,
						"NORMAL":16,
						"TEXCOORD_0":17,
						"TEXCOORD_1":18
					},
					"indices":19,
					"material":1
				}
			]
		},
		{
			"name":"leaves.003",
			"primitives":[
				{
					"attributes":{
						"POSITION":20,
						"NORMAL":21,
						"TEXCOORD_0":22,
						"TEXCOORD_1":23
					},
					"indices":14,
					"material":3
				},
				{
					"attributes":{
						"POSITION":24,
						"NORMAL":25,
						"TEXCOORD_0":26,
						"TEXCOORD_1":27
					},
					"indices":19,
					"material":1
				}
			]
		},
		{
			"name":"Scene.001",
			"primitives":[
				{
					"attributes":{
						"POSITION":28,
						"NORMAL":29,
						"TEXCOORD_0":30,
						"COLOR_0":31,
						"COLOR_1":32
					},
					"indices":33,
					"material":4
				},
				{
					"attributes":{
						"POSITION":34,
						"NORMAL":35,
						"TEXCOORD_0":36,
						"COLOR_0":37,
						"COLOR_1":38
					},
					"indices":39,
					"material":5
				},
				{
					"attributes":{
						"POSITION":40,
						"NORMAL":41,
						"TEXCOORD_0":42,
						"COLOR_0":43,
						"COLOR_1":44
					},
					"indices":45,
					"material":6
				},
				{
					"attributes":{
						"POSITION":46,
						"NORMAL":47,
						"TEXCOORD_0":48,
						"COLOR_0":49,
						"COLOR_1":50
					},
					"indices":51,
					"material":7
				}
			]
		}
	],
	"textures":[
		{
			"sampler":0,
			"source":0
		},
		{
			"sampler":0,
			"source":1
		},
		{
			"sampler":0,
			"source":2
		}
	],
	"images":[
		{
			"mimeType":"image/png",
			"name":"T_Tile_GlossyCeramic_BC",
			"uri":"T_Tile_GlossyCeramic_BC.png"
		},
		{
			"mimeType":"image/png",
			"name":"T_Dirt_BC",
			"uri":"T_Dirt_BC.png"
		},
		{
			"mimeType":"image/png",
			"name":"T_BuildingAtlas_01_BC",
			"uri":"T_BuildingAtlas_01_BC.png"
		}
	],
	"accessors":[
		{
			"bufferView":0,
			"componentType":5126,
			"count":57687,
			"max":[
				3.2033298015594482,
				5.524810791015625,
				3.1449134349823
			],
			"min":[
				-3.2549381256103516,
				0.9796144962310791,
				-3.112905979156494
			],
			"type":"VEC3"
		},
		{
			"bufferView":1,
			"componentType":5126,
			"count":57687,
			"type":"VEC3"
		},
		{
			"bufferView":2,
			"componentType":5126,
			"count":57687,
			"type":"VEC2"
		},
		{
			"bufferView":3,
			"componentType":5126,
			"count":57687,
			"type":"VEC2"
		},
		{
			"bufferView":4,
			"componentType":5123,
			"count":105831,
			"type":"SCALAR"
		},
		{
			"bufferView":5,
			"componentType":5126,
			"count":23167,
			"max":[
				3.1254541873931885,
				5.439783096313477,
				3.07102632522583
			],
			"min":[
				-3.1665937900543213,
				-0.0003928313672076911,
				-3.018712282180786
			],
			"type":"VEC3"
		},
		{
			"bufferView":6,
			"componentType":5126,
			"count":23167,
			"type":"VEC3"
		},
		{
			"bufferView":7,
			"componentType":5126,
			"count":23167,
			"type":"VEC2"
		},
		{
			"bufferView":8,
			"componentType":5126,
			"count":23167,
			"type":"VEC2"
		},
		{
			"bufferView":9,
			"componentType":5123,
			"count":66405,
			"type":"SCALAR"
		},
		{
			"bufferView":10,
			"componentType":5126,
			"count":62322,
			"max":[
				3.2033298015594482,
				5.524810791015625,
				3.1449134349823
			],
			"min":[
				-3.2549381256103516,
				0.9796144962310791,
				-3.112905979156494
			],
			"type":"VEC3"
		},
		{
			"bufferView":11,
			"componentType":5126,
			"count":62322,
			"type":"VEC3"
		},
		{
			"bufferView":12,
			"componentType":5126,
			"count":62322,
			"type":"VEC2"
		},
		{
			"bufferView":13,
			"componentType":5126,
			"count":62322,
			"type":"VEC2"
		},
		{
			"bufferView":14,
			"componentType":5123,
			"count":121104,
			"type":"SCALAR"
		},
		{
			"bufferView":15,
			"componentType":5126,
			"count":213465,
			"max":[
				3.1255760192871094,
				5.439891338348389,
				3.072732448577881
			],
			"min":[
				-3.1664271354675293,
				0,
				-3.0176620483398438
			],
			"type":"VEC3"
		},
		{
			"bufferView":16,
			"componentType":5126,
			"count":213465,
			"type":"VEC3"
		},
		{
			"bufferView":17,
			"componentType":5126,
			"count":213465,
			"type":"VEC2"
		},
		{
			"bufferView":18,
			"componentType":5126,
			"count":213465,
			"type":"VEC2"
		},
		{
			"bufferView":19,
			"componentType":5125,
			"count":1027152,
			"type":"SCALAR"
		},
		{
			"bufferView":20,
			"componentType":5126,
			"count":62322,
			"max":[
				3.2033298015594482,
				5.524810791015625,
				3.1449134349823
			],
			"min":[
				-3.2549381256103516,
				0.9796144962310791,
				-3.112905979156494
			],
			"type":"VEC3"
		},
		{
			"bufferView":21,
			"componentType":5126,
			"count":62322,
			"type":"VEC3"
		},
		{
			"bufferView":22,
			"componentType":5126,
			"count":62322,
			"type":"VEC2"
		},
		{
			"bufferView":23,
			"componentType":5126,
			"count":62322,
			"type":"VEC2"
		},
		{
			"bufferView":24,
			"componentType":5126,
			"count":213465,
			"max":[
				3.1255760192871094,
				5.439891338348389,
				3.072732448577881
			],
			"min":[
				-3.1664271354675293,
				0,
				-3.0176620483398438
			],
			"type":"VEC3"
		},
		{
			"bufferView":25,
			"componentType":5126,
			"count":213465,
			"type":"VEC3"
		},
		{
			"bufferView":26,
			"componentType":5126,
			"count":213465,
			"type":"VEC2"
		},
		{
			"bufferView":27,
			"componentType":5126,
			"count":213465,
			"type":"VEC2"
		},
		{
			"bufferView":28,
			"componentType":5126,
			"count":335,
			"max":[
				76.721435546875,
				76.53711700439453,
				-2.011406650126446e-05
			],
			"min":[
				-76.58338928222656,
				-76.72171783447266,
				-28.313684463500977
			],
			"type":"VEC3"
		},
		{
			"bufferView":29,
			"componentType":5126,
			"count":335,
			"type":"VEC3"
		},
		{
			"bufferView":30,
			"componentType":5126,
			"count":335,
			"type":"VEC2"
		},
		{
			"bufferView":31,
			"componentType":5121,
			"count":335,
			"normalized":true,
			"type":"VEC4"
		},
		{
			"bufferView":32,
			"componentType":5123,
			"count":335,
			"normalized":true,
			"type":"VEC4"
		},
		{
			"bufferView":33,
			"componentType":5123,
			"count":1308,
			"type":"SCALAR"
		},
		{
			"bufferView":34,
			"componentType":5126,
			"count":392,
			"max":[
				67.42233276367188,
				77.46378326416016,
				-0.281255304813385
			],
			"min":[
				-77.46378326416016,
				-67.42233276367188,
				-21.725948333740234
			],
			"type":"VEC3"
		},
		{
			"bufferView":35,
			"componentType":5126,
			"count":392,
			"type":"VEC3"
		},
		{
			"bufferView":36,
			"componentType":5126,
			"count":392,
			"type":"VEC2"
		},
		{
			"bufferView":37,
			"componentType":5121,
			"count":392,
			"normalized":true,
			"type":"VEC4"
		},
		{
			"bufferView":38,
			"componentType":5123,
			"count":392,
			"normalized":true,
			"type":"VEC4"
		},
		{
			"bufferView":39,
			"componentType":5123,
			"count":1104,
			"type":"SCALAR"
		},
		{
			"bufferView":40,
			"componentType":5126,
			"count":33,
			"max":[
				39.322906494140625,
				39.322906494140625,
				-22.00508689880371
			],
			"min":[
				-39.322906494140625,
				-39.322906494140625,
				-22.005094528198242
			],
			"type":"VEC3"
		},
		{
			"bufferView":41,
			"componentType":5126,
			"count":33,
			"type":"VEC3"
		},
		{
			"bufferView":42,
			"componentType":5126,
			"count":33,
			"type":"VEC2"
		},
		{
			"bufferView":43,
			"componentType":5121,
			"count":33,
			"normalized":true,
			"type":"VEC4"
		},
		{
			"bufferView":44,
			"componentType":5123,
			"count":33,
			"normalized":true,
			"type":"VEC4"
		},
		{
			"bufferView":45,
			"componentType":5123,
			"count":96,
			"type":"SCALAR"
		},
		{
			"bufferView":46,
			"componentType":5126,
			"count":393,
			"max":[
				77.03534698486328,
				76.89007568359375,
				-0.4970009922981262
			],
			"min":[
				-76.89007568359375,
				-77.03535461425781,
				-27.761898040771484
			],
			"type":"VEC3"
		},
		{
			"bufferView":47,
			"componentType":5126,
			"count":393,
			"type":"VEC3"
		},
		{
			"bufferView":48,
			"componentType":5126,
			"count":393,
			"type":"VEC2"
		},
		{
			"bufferView":49,
			"componentType":5121,
			"count":393,
			"normalized":true,
			"type":"VEC4"
		},
		{
			"bufferView":50,
			"componentType":5123,
			"count":393,
			"normalized":true,
			"type":"VEC4"
		},
		{
			"bufferView":51,
			"componentType":5123,
			"count":1728,
			"type":"SCALAR"
		}
	],
	"bufferViews":[
		{
			"buffer":0,
			"byteLength":692244,
			"byteOffset":0,
			"target":34962
		},
		{
			"buffer":0,
			"byteLength":692244,
			"byteOffset":692244,
			"target":34962
		},
		{
			"buffer":0,
			"byteLength":461496,
			"byteOffset":1384488,
			"target":34962
		},
		{
			"buffer":0,
			"byteLength":461496,
			"byteOffset":1845984,
			"target":34962
		},
		{
			"buffer":0,
			"byteLength":211662,
			"byteOffset":2307480,
			"target":34963
		},
		{
			"buffer":0,
			"byteLength":278004,
			"byteOffset":2519144,
			"target":34962
		},
		{
			"buffer":0,
			"byteLength":278004,
			"byteOffset":2797148,
			"target":34962
		},
		{
			"buffer":0,
			"byteLength":185336,
			"byteOffset":3075152,
			"target":34962
		},
		{
			"buffer":0,
			"byteLength":185336,
			"byteOffset":3260488,
			"target":34962
		},
		{
			"buffer":0,
			"byteLength":132810,
			"byteOffset":3445824,
			"target":34963
		},
		{
			"buffer":0,
			"byteLength":747864,
			"byteOffset":3578636,
			"target":34962
		},
		{
			"buffer":0,
			"byteLength":747864,
			"byteOffset":4326500,
			"target":34962
		},
		{
			"buffer":0,
			"byteLength":498576,
			"byteOffset":5074364,
			"target":34962
		},
		{
			"buffer":0,
			"byteLength":498576,
			"byteOffset":5572940,
			"target":34962
		},
		{
			"buffer":0,
			"byteLength":242208,
			"byteOffset":6071516,
			"target":34963
		},
		{
			"buffer":0,
			"byteLength":2561580,
			"byteOffset":6313724,
			"target":34962
		},
		{
			"buffer":0,
			"byteLength":2561580,
			"byteOffset":8875304,
			"target":34962
		},
		{
			"buffer":0,
			"byteLength":1707720,
			"byteOffset":11436884,
			"target":34962
		},
		{
			"buffer":0,
			"byteLength":1707720,
			"byteOffset":13144604,
			"target":34962
		},
		{
			"buffer":0,
			"byteLength":4108608,
			"byteOffset":14852324,
			"target":34963
		},
		{
			"buffer":0,
			"byteLength":747864,
			"byteOffset":18960932,
			"target":34962
		},
		{
			"buffer":0,
			"byteLength":747864,
			"byteOffset":19708796,
			"target":34962
		},
		{
			"buffer":0,
			"byteLength":498576,
			"byteOffset":20456660,
			"target":34962
		},
		{
			"buffer":0,
			"byteLength":498576,
			"byteOffset":20955236,
			"target":34962
		},
		{
			"buffer":0,
			"byteLength":2561580,
			"byteOffset":21453812,
			"target":34962
		},
		{
			"buffer":0,
			"byteLength":2561580,
			"byteOffset":24015392,
			"target":34962
		},
		{
			"buffer":0,
			"byteLength":1707720,
			"byteOffset":26576972,
			"target":34962
		},
		{
			"buffer":0,
			"byteLength":1707720,
			"byteOffset":28284692,
			"target":34962
		},
		{
			"buffer":0,
			"byteLength":4020,
			"byteOffset":29992412,
			"target":34962
		},
		{
			"buffer":0,
			"byteLength":4020,
			"byteOffset":29996432,
			"target":34962
		},
		{
			"buffer":0,
			"byteLength":2680,
			"byteOffset":30000452,
			"target":34962
		},
		{
			"buffer":0,
			"byteLength":1340,
			"byteOffset":30003132,
			"target":34962
		},
		{
			"buffer":0,
			"byteLength":2680,
			"byteOffset":30004472,
			"target":34962
		},
		{
			"buffer":0,
			"byteLength":2616,
			"byteOffset":30007152,
			"target":34963
		},
		{
			"buffer":0,
			"byteLength":4704,
			"byteOffset":30009768,
			"target":34962
		},
		{
			"buffer":0,
			"byteLength":4704,
			"byteOffset":30014472,
			"target":34962
		},
		{
			"buffer":0,
			"byteLength":3136,
			"byteOffset":30019176,
			"target":34962
		},
		{
			"buffer":0,
			"byteLength":1568,
			"byteOffset":30022312,
			"target":34962
		},
		{
			"buffer":0,
			"byteLength":3136,
			"byteOffset":30023880,
			"target":34962
		},
		{
			"buffer":0,
			"byteLength":2208,
			"byteOffset":30027016,
			"target":34963
		},
		{
			"buffer":0,
			"byteLength":396,
			"byteOffset":30029224,
			"target":34962
		},
		{
			"buffer":0,
			"byteLength":396,
			"byteOffset":30029620,
			"target":34962
		},
		{
			"buffer":0,
			"byteLength":264,
			"byteOffset":30030016,
			"target":34962
		},
		{
			"buffer":0,
			"byteLength":132,
			"byteOffset":30030280,
			"target":34962
		},
		{
			"buffer":0,
			"byteLength":264,
			"byteOffset":30030412,
			"target":34962
		},
		{
			"buffer":0,
			"byteLength":192,
			"byteOffset":30030676,
			"target":34963
		},
		{
			"buffer":0,
			"byteLength":4716,
			"byteOffset":30030868,
			"target":34962
		},
		{
			"buffer":0,
			"byteLength":4716,
			"byteOffset":30035584,
			"target":34962
		},
		{
			"buffer":0,
			"byteLength":3144,
			"byteOffset":30040300,
			"target":34962
		},
		{
			"buffer":0,
			"byteLength":1572,
			"byteOffset":30043444,
			"target":34962
		},
		{
			"buffer":0,
			"byteLength":3144,
			"byteOffset":30045016,
			"target":34962
		},
		{
			"buffer":0,
			"byteLength":3456,
			"byteOffset":30048160,
			"target":34963
		}
	],
	"samplers":[
		{
			"magFilter":9729,
			"minFilter":9987
		}
	],
	"buffers":[
		{
			"byteLength":30051616,
			"uri":"Sakura.bin"
		}
	]
}
