{
	"asset":{
		"generator":"Khronos glTF Blender I/O v4.3.47",
		"version":"2.0"
	},
	"scene":0,
	"scenes":[
		{
			"name":"Scene",
			"nodes":[
				0,
				1,
				2,
				3
			]
		}
	],
	"nodes":[
		{
			"mesh":0,
			"name":"Tree 1"
		},
		{
			"mesh":1,
			"name":"Tree 2"
		},
		{
			"mesh":2,
			"name":"Tree 3"
		},
		{
			"mesh":3,
			"name":"SM_Plaza_Pot"
		}
	],
	"materials":[
		{
			"doubleSided":true,
			"name":"Pink leaves",
			"pbrMetallicRoughness":{
				"baseColorFactor":[
					0.8000000715255737,
					0.21561625599861145,
					0.5904906392097473,
					1
				],
				"metallicFactor":0,
				"roughnessFactor":0.5
			}
		},
		{
			"doubleSided":true,
			"name":"Tree",
			"pbrMetallicRoughness":{
				"baseColorFactor":[
					0.14915236830711365,
					0.07292663305997849,
					0.038704853504896164,
					1
				],
				"metallicFactor":0,
				"roughnessFactor":0.5
			}
		},
		{
			"doubleSided":true,
			"name":"Green leaves",
			"pbrMetallicRoughness":{
				"baseColorFactor":[
					0.05986353009939194,
					0.16146335005760193,
					0.01839538849890232,
					1
				],
				"metallicFactor":0,
				"roughnessFactor":0.5
			}
		},
		{
			"doubleSided":true,
			"name":"Yellow leaves",
			"pbrMetallicRoughness":{
				"baseColorFactor":[
					0.30815911293029785,
					0.4719519019126892,
					0.022287748754024506,
					1
				],
				"metallicFactor":0,
				"roughnessFactor":0.5
			}
		},
		{
			"doubleSided":true,
			"name":"M_Tile_GlossyCeramicsCyan.001",
			"pbrMetallicRoughness":{
				"baseColorTexture":{
					"index":0
				},
				"metallicFactor":0,
				"roughnessFactor":0.5527864098548889
			}
		},
		{
			"doubleSided":true,
			"name":"M_Glow_Yellow.001",
			"pbrMetallicRoughness":{
				"baseColorFactor":[
					1,
					0.9433988928794861,
					0.9605860114097595,
					1
				],
				"metallicFactor":0,
				"roughnessFactor":0.5527864098548889
			}
		},
		{
			"doubleSided":true,
			"name":"M_Tile_Dirt.001",
			"pbrMetallicRoughness":{
				"baseColorTexture":{
					"index":1
				},
				"metallicFactor":0,
				"roughnessFactor":0.5527864098548889
			}
		},
		{
			"doubleSided":true,
			"name":"M_BuildingAtlas_01.004",
			"pbrMetallicRoughness":{
				"baseColorTexture":{
					"index":2
				},
				"metallicFactor":0,
				"roughnessFactor":0.5527864098548889
			}
		}
	],
	"meshes":[
		{
			"name":"leaves.002",
			"primitives":[
				{
					"attributes":{
						"POSITION":0,
						"NORMAL":1,
						"TEXCOORD_0":2,
						"TEXCOORD_1":3
					},
					"indices":4,
					"material":0
				},
				{
					"attributes":{
						"POSITION":5,
						"NORMAL":6,
						"TEXCOORD_0":7,
						"TEXCOORD_1":8
					},
					"indices":9,
					"material":1
				}
			]
		},
		{
			"name":"leaves.001",
			"primitives":[
				{
					"attributes":{
						"POSITION":10,
						"NORMAL":11,
						"TEXCOORD_0":12,
						"TEXCOORD_1":13
					},
					"indices":14,
					"material":2
				},
				{
					"attributes":{
						"POSITION":15,
						"NORMAL":16,
						"TEXCOORD_0":17,
						"TEXCOORD_1":18
					},
					"indices":19,
					"material":1
				}
			]
		},
		{
			"name":"leaves.003",
			"primitives":[
				{
					"attributes":{
						"POSITION":20,
						"NORMAL":21,
						"TEXCOORD_0":22,
						"TEXCOORD_1":23
					},
					"indices":14,
					"material":3
				},
				{
					"attributes":{
						"POSITION":24,
						"NORMAL":25,
						"TEXCOORD_0":26,
						"TEXCOORD_1":27
					},
					"indices":19,
					"material":1
				}
			]
		},
		{
			"name":"Scene.329",
			"primitives":[
				{
					"attributes":{
						"POSITION":28,
						"NORMAL":29,
						"TEXCOORD_0":30,
						"COLOR_0":31,
						"COLOR_1":32
					},
					"indices":33,
					"material":4
				},
				{
					"attributes":{
						"POSITION":34,
						"NORMAL":35,
						"TEXCOORD_0":36,
						"COLOR_0":37,
						"COLOR_1":38
					},
					"indices":39,
					"material":5
				},
				{
					"attributes":{
						"POSITION":40,
						"NORMAL":41,
						"TEXCOORD_0":42,
						"COLOR_0":43,
						"COLOR_1":44
					},
					"indices":45,
					"material":6
				},
				{
					"attributes":{
						"POSITION":46,
						"NORMAL":47,
						"TEXCOORD_0":48,
						"COLOR_0":49,
						"COLOR_1":50
					},
					"indices":51,
					"material":7
				}
			]
		}
	],
	"textures":[
		{
			"sampler":0,
			"source":0
		},
		{
			"sampler":0,
			"source":1
		},
		{
			"sampler":0,
			"source":2
		}
	],
	"images":[
		{
			"mimeType":"image/png",
			"name":"T_Tile_GlossyCeramic_BC",
			"uri":"T_Tile_GlossyCeramic_BC.png"
		},
		{
			"mimeType":"image/png",
			"name":"T_Dirt_BC",
			"uri":"T_Dirt_BC.png"
		},
		{
			"mimeType":"image/png",
			"name":"T_BuildingAtlas_01_BC",
			"uri":"T_BuildingAtlas_01_BC.png"
		}
	],
	"accessors":[
		{
			"bufferView":0,
			"componentType":5126,
			"count":63484,
			"max":[
				3.2033298015594482,
				5.75100040435791,
				3.077894449234009
			],
			"min":[
				-3.2549381256103516,
				1.2058039903640747,
				-3.179924964904785
			],
			"type":"VEC3"
		},
		{
			"bufferView":1,
			"componentType":5126,
			"count":63484,
			"type":"VEC3"
		},
		{
			"bufferView":2,
			"componentType":5126,
			"count":63484,
			"type":"VEC2"
		},
		{
			"bufferView":3,
			"componentType":5126,
			"count":63484,
			"type":"VEC2"
		},
		{
			"bufferView":4,
			"componentType":5123,
			"count":105831,
			"type":"SCALAR"
		},
		{
			"bufferView":5,
			"componentType":5126,
			"count":23182,
			"max":[
				3.1254541873931885,
				5.665972709655762,
				3.004007339477539
			],
			"min":[
				-3.1665937900543213,
				0.2257966250181198,
				-3.085731267929077
			],
			"type":"VEC3"
		},
		{
			"bufferView":6,
			"componentType":5126,
			"count":23182,
			"type":"VEC3"
		},
		{
			"bufferView":7,
			"componentType":5126,
			"count":23182,
			"type":"VEC2"
		},
		{
			"bufferView":8,
			"componentType":5126,
			"count":23182,
			"type":"VEC2"
		},
		{
			"bufferView":9,
			"componentType":5123,
			"count":66405,
			"type":"SCALAR"
		},
		{
			"bufferView":10,
			"componentType":5126,
			"count":69633,
			"max":[
				3.2033298015594482,
				5.524810791015625,
				3.1449134349823
			],
			"min":[
				-3.2549381256103516,
				0.9796144962310791,
				-3.112905979156494
			],
			"type":"VEC3"
		},
		{
			"bufferView":11,
			"componentType":5126,
			"count":69633,
			"type":"VEC3"
		},
		{
			"bufferView":12,
			"componentType":5126,
			"count":69633,
			"type":"VEC2"
		},
		{
			"bufferView":13,
			"componentType":5126,
			"count":69633,
			"type":"VEC2"
		},
		{
			"bufferView":14,
			"componentType":5125,
			"count":121104,
			"type":"SCALAR"
		},
		{
			"bufferView":15,
			"componentType":5126,
			"count":213465,
			"max":[
				3.1255760192871094,
				5.439891338348389,
				3.072732448577881
			],
			"min":[
				-3.1664271354675293,
				0,
				-3.0176620483398438
			],
			"type":"VEC3"
		},
		{
			"bufferView":16,
			"componentType":5126,
			"count":213465,
			"type":"VEC3"
		},
		{
			"bufferView":17,
			"componentType":5126,
			"count":213465,
			"type":"VEC2"
		},
		{
			"bufferView":18,
			"componentType":5126,
			"count":213465,
			"type":"VEC2"
		},
		{
			"bufferView":19,
			"componentType":5125,
			"count":1027152,
			"type":"SCALAR"
		},
		{
			"bufferView":20,
			"componentType":5126,
			"count":69633,
			"max":[
				3.2033298015594482,
				5.524810791015625,
				3.1449134349823
			],
			"min":[
				-3.2549381256103516,
				0.9796144962310791,
				-3.112905979156494
			],
			"type":"VEC3"
		},
		{
			"bufferView":21,
			"componentType":5126,
			"count":69633,
			"type":"VEC3"
		},
		{
			"bufferView":22,
			"componentType":5126,
			"count":69633,
			"type":"VEC2"
		},
		{
			"bufferView":23,
			"componentType":5126,
			"count":69633,
			"type":"VEC2"
		},
		{
			"bufferView":24,
			"componentType":5126,
			"count":213465,
			"max":[
				3.1255760192871094,
				5.439891338348389,
				3.072732448577881
			],
			"min":[
				-3.1664271354675293,
				0,
				-3.0176620483398438
			],
			"type":"VEC3"
		},
		{
			"bufferView":25,
			"componentType":5126,
			"count":213465,
			"type":"VEC3"
		},
		{
			"bufferView":26,
			"componentType":5126,
			"count":213465,
			"type":"VEC2"
		},
		{
			"bufferView":27,
			"componentType":5126,
			"count":213465,
			"type":"VEC2"
		},
		{
			"bufferView":28,
			"componentType":5126,
			"count":337,
			"max":[
				0.7468692660331726,
				0.28892385959625244,
				0.76268470287323
			],
			"min":[
				-0.7861789464950562,
				0.005787085276097059,
				-0.7699034810066223
			],
			"type":"VEC3"
		},
		{
			"bufferView":29,
			"componentType":5126,
			"count":337,
			"type":"VEC3"
		},
		{
			"bufferView":30,
			"componentType":5126,
			"count":337,
			"type":"VEC2"
		},
		{
			"bufferView":31,
			"componentType":5126,
			"count":337,
			"type":"VEC3"
		},
		{
			"bufferView":32,
			"componentType":5123,
			"count":337,
			"normalized":true,
			"type":"VEC4"
		},
		{
			"bufferView":33,
			"componentType":5123,
			"count":1308,
			"type":"SCALAR"
		},
		{
			"bufferView":34,
			"componentType":5126,
			"count":392,
			"max":[
				0.6538782119750977,
				0.22304639220237732,
				0.7719513773918152
			],
			"min":[
				-0.79498291015625,
				0.0085992943495512,
				-0.6769095659255981
			],
			"type":"VEC3"
		},
		{
			"bufferView":35,
			"componentType":5126,
			"count":392,
			"type":"VEC3"
		},
		{
			"bufferView":36,
			"componentType":5126,
			"count":392,
			"type":"VEC2"
		},
		{
			"bufferView":37,
			"componentType":5126,
			"count":392,
			"type":"VEC3"
		},
		{
			"bufferView":38,
			"componentType":5123,
			"count":392,
			"normalized":true,
			"type":"VEC4"
		},
		{
			"bufferView":39,
			"componentType":5123,
			"count":1104,
			"type":"SCALAR"
		},
		{
			"bufferView":40,
			"componentType":5126,
			"count":33,
			"max":[
				0.37288397550582886,
				0.2258378565311432,
				0.3905426859855652
			],
			"min":[
				-0.4135741591453552,
				0.2258376181125641,
				-0.39591532945632935
			],
			"type":"VEC3"
		},
		{
			"bufferView":41,
			"componentType":5126,
			"count":33,
			"type":"VEC3"
		},
		{
			"bufferView":42,
			"componentType":5126,
			"count":33,
			"type":"VEC2"
		},
		{
			"bufferView":43,
			"componentType":5126,
			"count":33,
			"type":"VEC3"
		},
		{
			"bufferView":44,
			"componentType":5123,
			"count":33,
			"normalized":true,
			"type":"VEC4"
		},
		{
			"bufferView":45,
			"componentType":5123,
			"count":96,
			"type":"SCALAR"
		},
		{
			"bufferView":46,
			"componentType":5126,
			"count":393,
			"max":[
				0.7500083446502686,
				0.28340598940849304,
				0.7662143111228943
			],
			"min":[
				-0.7892458438873291,
				0.01075674593448639,
				-0.7730398178100586
			],
			"type":"VEC3"
		},
		{
			"bufferView":47,
			"componentType":5126,
			"count":393,
			"type":"VEC3"
		},
		{
			"bufferView":48,
			"componentType":5126,
			"count":393,
			"type":"VEC2"
		},
		{
			"bufferView":49,
			"componentType":5126,
			"count":393,
			"type":"VEC3"
		},
		{
			"bufferView":50,
			"componentType":5123,
			"count":393,
			"normalized":true,
			"type":"VEC4"
		},
		{
			"bufferView":51,
			"componentType":5123,
			"count":1728,
			"type":"SCALAR"
		}
	],
	"bufferViews":[
		{
			"buffer":0,
			"byteLength":761808,
			"byteOffset":0,
			"target":34962
		},
		{
			"buffer":0,
			"byteLength":761808,
			"byteOffset":761808,
			"target":34962
		},
		{
			"buffer":0,
			"byteLength":507872,
			"byteOffset":1523616,
			"target":34962
		},
		{
			"buffer":0,
			"byteLength":507872,
			"byteOffset":2031488,
			"target":34962
		},
		{
			"buffer":0,
			"byteLength":211662,
			"byteOffset":2539360,
			"target":34963
		},
		{
			"buffer":0,
			"byteLength":278184,
			"byteOffset":2751024,
			"target":34962
		},
		{
			"buffer":0,
			"byteLength":278184,
			"byteOffset":3029208,
			"target":34962
		},
		{
			"buffer":0,
			"byteLength":185456,
			"byteOffset":3307392,
			"target":34962
		},
		{
			"buffer":0,
			"byteLength":185456,
			"byteOffset":3492848,
			"target":34962
		},
		{
			"buffer":0,
			"byteLength":132810,
			"byteOffset":3678304,
			"target":34963
		},
		{
			"buffer":0,
			"byteLength":835596,
			"byteOffset":3811116,
			"target":34962
		},
		{
			"buffer":0,
			"byteLength":835596,
			"byteOffset":4646712,
			"target":34962
		},
		{
			"buffer":0,
			"byteLength":557064,
			"byteOffset":5482308,
			"target":34962
		},
		{
			"buffer":0,
			"byteLength":557064,
			"byteOffset":6039372,
			"target":34962
		},
		{
			"buffer":0,
			"byteLength":484416,
			"byteOffset":6596436,
			"target":34963
		},
		{
			"buffer":0,
			"byteLength":2561580,
			"byteOffset":7080852,
			"target":34962
		},
		{
			"buffer":0,
			"byteLength":2561580,
			"byteOffset":9642432,
			"target":34962
		},
		{
			"buffer":0,
			"byteLength":1707720,
			"byteOffset":12204012,
			"target":34962
		},
		{
			"buffer":0,
			"byteLength":1707720,
			"byteOffset":13911732,
			"target":34962
		},
		{
			"buffer":0,
			"byteLength":4108608,
			"byteOffset":15619452,
			"target":34963
		},
		{
			"buffer":0,
			"byteLength":835596,
			"byteOffset":19728060,
			"target":34962
		},
		{
			"buffer":0,
			"byteLength":835596,
			"byteOffset":20563656,
			"target":34962
		},
		{
			"buffer":0,
			"byteLength":557064,
			"byteOffset":21399252,
			"target":34962
		},
		{
			"buffer":0,
			"byteLength":557064,
			"byteOffset":21956316,
			"target":34962
		},
		{
			"buffer":0,
			"byteLength":2561580,
			"byteOffset":22513380,
			"target":34962
		},
		{
			"buffer":0,
			"byteLength":2561580,
			"byteOffset":25074960,
			"target":34962
		},
		{
			"buffer":0,
			"byteLength":1707720,
			"byteOffset":27636540,
			"target":34962
		},
		{
			"buffer":0,
			"byteLength":1707720,
			"byteOffset":29344260,
			"target":34962
		},
		{
			"buffer":0,
			"byteLength":4044,
			"byteOffset":31051980,
			"target":34962
		},
		{
			"buffer":0,
			"byteLength":4044,
			"byteOffset":31056024,
			"target":34962
		},
		{
			"buffer":0,
			"byteLength":2696,
			"byteOffset":31060068,
			"target":34962
		},
		{
			"buffer":0,
			"byteLength":4044,
			"byteOffset":31062764,
			"target":34962
		},
		{
			"buffer":0,
			"byteLength":2696,
			"byteOffset":31066808,
			"target":34962
		},
		{
			"buffer":0,
			"byteLength":2616,
			"byteOffset":31069504,
			"target":34963
		},
		{
			"buffer":0,
			"byteLength":4704,
			"byteOffset":31072120,
			"target":34962
		},
		{
			"buffer":0,
			"byteLength":4704,
			"byteOffset":31076824,
			"target":34962
		},
		{
			"buffer":0,
			"byteLength":3136,
			"byteOffset":31081528,
			"target":34962
		},
		{
			"buffer":0,
			"byteLength":4704,
			"byteOffset":31084664,
			"target":34962
		},
		{
			"buffer":0,
			"byteLength":3136,
			"byteOffset":31089368,
			"target":34962
		},
		{
			"buffer":0,
			"byteLength":2208,
			"byteOffset":31092504,
			"target":34963
		},
		{
			"buffer":0,
			"byteLength":396,
			"byteOffset":31094712,
			"target":34962
		},
		{
			"buffer":0,
			"byteLength":396,
			"byteOffset":31095108,
			"target":34962
		},
		{
			"buffer":0,
			"byteLength":264,
			"byteOffset":31095504,
			"target":34962
		},
		{
			"buffer":0,
			"byteLength":396,
			"byteOffset":31095768,
			"target":34962
		},
		{
			"buffer":0,
			"byteLength":264,
			"byteOffset":31096164,
			"target":34962
		},
		{
			"buffer":0,
			"byteLength":192,
			"byteOffset":31096428,
			"target":34963
		},
		{
			"buffer":0,
			"byteLength":4716,
			"byteOffset":31096620,
			"target":34962
		},
		{
			"buffer":0,
			"byteLength":4716,
			"byteOffset":31101336,
			"target":34962
		},
		{
			"buffer":0,
			"byteLength":3144,
			"byteOffset":31106052,
			"target":34962
		},
		{
			"buffer":0,
			"byteLength":4716,
			"byteOffset":31109196,
			"target":34962
		},
		{
			"buffer":0,
			"byteLength":3144,
			"byteOffset":31113912,
			"target":34962
		},
		{
			"buffer":0,
			"byteLength":3456,
			"byteOffset":31117056,
			"target":34963
		}
	],
	"samplers":[
		{
			"magFilter":9729,
			"minFilter":9987
		}
	],
	"buffers":[
		{
			"byteLength":31120512,
			"uri":"Sakura.bin"
		}
	]
}
